# Blender v2.93.1 OBJ File: ''
# www.blender.org
mtllib cutensils_rubber_spatula_w_hole_yellow.mtl
o cutensils_rubber_spatula_w/hole_yellow_Cube.120
v -0.241218 3.013956 0.047252
v 0.241218 3.013956 0.047252
v 0.916041 4.606452 0.043913
v 0.042743 5.479750 0.043912
v 0.799042 5.043101 0.043912
v 0.479392 5.362750 0.043912
v -0.916041 3.071348 0.043913
v -0.799242 2.954550 0.043913
v -0.881832 2.988759 0.043913
v 0.799242 2.954550 0.043913
v 0.916041 3.071348 0.043913
v 0.881832 2.988759 0.043913
v -0.799242 5.479750 0.043912
v -0.916041 5.362951 0.043912
v -0.881832 5.445540 0.043912
v -0.356004 3.166123 0.115586
v -0.244529 3.054648 0.115586
v -0.323353 3.087298 0.115586
v -0.469012 3.051127 0.049625
v -0.359524 2.941639 0.049625
v -0.436944 2.973708 0.049625
v -0.435913 3.085263 0.096266
v -0.325389 2.974739 0.096266
v -0.403541 3.007111 0.096266
v 0.244529 3.054648 0.115586
v 0.356004 3.166123 0.115586
v 0.323353 3.087298 0.115586
v 0.359524 2.941639 0.049625
v 0.469012 3.051127 0.049625
v 0.436944 2.973708 0.049625
v 0.325389 2.974739 0.096266
v 0.435913 3.085263 0.096266
v 0.403541 3.007111 0.096266
v -0.244528 4.290132 0.115586
v -0.356004 4.178657 0.115586
v -0.323353 4.257482 0.115586
v -0.359524 4.403140 0.049625
v -0.469012 4.293652 0.049625
v -0.436944 4.371072 0.049625
v -0.435913 4.259517 0.096266
v -0.325389 4.370040 0.096266
v -0.403541 4.337669 0.096266
v 0.356004 4.178657 0.115586
v 0.244528 4.290132 0.115586
v 0.323353 4.257482 0.115586
v 0.469012 4.293652 0.049625
v 0.359524 4.403140 0.049625
v 0.436944 4.371072 0.049625
v 0.325389 4.370040 0.096266
v 0.435913 4.259517 0.096266
v 0.403541 4.337669 0.096266
v -0.241218 3.013956 -0.000000
v 0.241218 3.013956 -0.000000
v 0.044692 5.514717 -0.000001
v 0.493424 5.394479 -0.000001
v 0.821919 5.065985 -0.000001
v 0.942156 4.617253 -0.000001
v -0.940624 3.039670 -0.000000
v -0.905468 2.954795 -0.000000
v -0.820593 2.919639 -0.000000
v 0.942156 3.039670 -0.000000
v 0.907000 2.954795 -0.000000
v 0.822125 2.919639 -0.000000
v -0.820593 5.514717 -0.000001
v -0.905468 5.479560 -0.000001
v -0.940624 5.394686 -0.000001
v -0.359642 2.941639 -0.000000
v -0.436978 2.973673 -0.000000
v -0.469012 3.051010 -0.000000
v -0.359642 4.403140 -0.000001
v -0.436978 4.371106 -0.000001
v -0.469012 4.293769 -0.000001
v 0.469012 3.051010 -0.000000
v 0.436978 2.973673 -0.000000
v 0.359642 2.941639 -0.000000
v 0.359642 4.403140 -0.000001
v 0.436978 4.371106 -0.000001
v 0.469012 4.293769 -0.000001
v -0.241218 -1.172937 0.047252
v -0.030679 -1.383476 0.047252
v -0.179553 -1.321810 0.047252
v 0.030679 -1.383476 0.047252
v 0.241218 -1.172937 0.047252
v 0.179553 -1.321810 0.047252
v -0.030679 -1.383476 0.000000
v -0.241218 -1.172937 0.000000
v -0.179553 -1.321810 0.000000
v 0.241218 -1.172937 0.000000
v 0.030679 -1.383476 0.000000
v 0.179553 -1.321810 0.000000
v -0.241218 3.013956 -0.047253
v 0.241218 3.013956 -0.047253
v 0.916041 4.606452 -0.043914
v 0.042743 5.479750 -0.043914
v 0.799042 5.043101 -0.043914
v 0.479392 5.362750 -0.043914
v -0.916041 3.071348 -0.043914
v -0.799242 2.954550 -0.043914
v -0.881832 2.988759 -0.043914
v 0.799242 2.954550 -0.043914
v 0.916041 3.071348 -0.043914
v 0.881832 2.988759 -0.043914
v -0.799242 5.479750 -0.043914
v -0.916041 5.362951 -0.043914
v -0.881832 5.445540 -0.043914
v -0.356004 3.166123 -0.115587
v -0.244529 3.054648 -0.115587
v -0.323353 3.087298 -0.115587
v -0.469012 3.051127 -0.049626
v -0.359524 2.941639 -0.049626
v -0.436944 2.973708 -0.049626
v -0.435913 3.085263 -0.096267
v -0.325389 2.974739 -0.096267
v -0.403541 3.007111 -0.096267
v 0.244529 3.054648 -0.115587
v 0.356004 3.166123 -0.115587
v 0.323353 3.087298 -0.115587
v 0.359524 2.941639 -0.049626
v 0.469012 3.051127 -0.049626
v 0.436944 2.973708 -0.049626
v 0.325389 2.974739 -0.096267
v 0.435913 3.085263 -0.096267
v 0.403541 3.007111 -0.096267
v -0.244528 4.290132 -0.115587
v -0.356004 4.178657 -0.115587
v -0.323353 4.257482 -0.115587
v -0.359524 4.403140 -0.049627
v -0.469012 4.293652 -0.049627
v -0.436944 4.371072 -0.049627
v -0.435913 4.259517 -0.096268
v -0.325389 4.370040 -0.096268
v -0.403541 4.337669 -0.096268
v 0.356004 4.178657 -0.115587
v 0.244528 4.290132 -0.115587
v 0.323353 4.257482 -0.115587
v 0.469012 4.293652 -0.049627
v 0.359524 4.403140 -0.049627
v 0.436944 4.371072 -0.049627
v 0.325389 4.370040 -0.096268
v 0.435913 4.259517 -0.096268
v 0.403541 4.337669 -0.096268
v -0.241218 -1.172937 -0.047252
v -0.030679 -1.383476 -0.047252
v -0.179553 -1.321810 -0.047252
v 0.030679 -1.383476 -0.047252
v 0.241218 -1.172937 -0.047252
v 0.179553 -1.321810 -0.047252
v 0.000000 -0.884112 0.047252
v 0.000000 -0.884112 -0.047252
v 0.135053 -0.940052 0.047252
v 0.135053 -0.940052 -0.047252
v -0.135053 -0.940052 0.047252
v -0.135053 -0.940052 -0.047252
v 0.135053 -1.210158 -0.047252
v 0.135053 -1.210158 0.047252
v 0.190994 -1.075105 0.047252
v 0.190994 -1.075105 -0.047252
v -0.190994 -1.075105 0.047252
v -0.190994 -1.075105 -0.047252
v -0.135053 -1.210158 -0.047252
v -0.135053 -1.210158 0.047252
v -0.000000 -1.266099 -0.047252
v -0.000000 -1.266099 0.047252
vt 0.030410 0.323236
vt 0.030410 0.323236
vt 0.030410 0.323236
vt 0.030410 0.323236
vt 0.030410 0.323236
vt 0.030410 0.323236
vt 0.030410 0.323236
vt 0.030410 0.323236
vt 0.030410 0.323236
vt 0.030410 0.323236
vt 0.149186 -2.102090
vt 0.149186 -2.102090
vt 0.149186 -2.102090
vt 0.149186 -2.102090
vt 0.149186 -2.102090
vt 0.149186 -2.102090
vt 0.149186 -2.102090
vt 0.149186 -2.102090
vt 0.149186 -2.102090
vt 0.149186 -2.102090
vt 0.149186 -2.102090
vt 0.149186 -2.102090
vt 0.149186 -2.102090
vt 0.149186 -2.102090
vt 0.149186 -2.102090
vt 0.149186 -2.102090
vt 0.149186 -2.102090
vt 0.149186 -2.102090
vt 0.149186 -2.102090
vt 0.149186 -2.102090
vt 0.149186 -2.102090
vt 0.149186 -2.102090
vt 0.149186 -2.102090
vt 0.149186 -2.102090
vt 0.149186 -2.102090
vt 0.149186 -2.102090
vt 0.149186 -2.102090
vt 0.149186 -2.102090
vt 0.149186 -2.102090
vt 0.149186 -2.102090
vt 0.149186 -2.102090
vt 0.149186 -2.102090
vt 0.149186 -2.102090
vt 0.149186 -2.102090
vt 0.149186 -2.102090
vt 0.149186 -2.102090
vt 0.149186 -2.102090
vt 0.149186 -2.102090
vt 0.149186 -2.102090
vt 0.149186 -2.102090
vt 0.149186 -2.102090
vt 0.149186 -2.102090
vt 0.149186 -2.102090
vt 0.149186 -2.102090
vt 0.149186 -2.102090
vt 0.149186 -2.102090
vt 0.149186 -2.102090
vt 0.149186 -2.102090
vt 0.149186 -2.102090
vt 0.149186 -2.102090
vt 0.149186 -2.102090
vt 0.149186 -2.102090
vt 0.149186 -2.102090
vt 0.149186 -2.102090
vt 0.149186 -2.102090
vt 0.149186 -2.102090
vt 0.149186 -2.102090
vt 0.149186 -2.102090
vt 0.149186 -2.102090
vt 0.149186 -2.102090
vt 0.149186 -2.102090
vt 0.149186 -2.102090
vt 0.149186 -2.102090
vt 0.149186 -2.102090
vt 0.149186 -2.102090
vt 0.149186 -2.102090
vt 0.149186 -2.102090
vt 0.149186 -2.102090
vt 0.149186 -2.102090
vt 0.149186 -2.102090
vt 0.149186 -2.102090
vt 0.149186 -2.102090
vt 0.149186 -2.102090
vt 0.149186 -2.102090
vt 0.030410 0.323236
vt 0.030410 0.323236
vt 0.030410 0.323236
vt 0.030410 0.323236
vt 0.030410 0.323236
vt 0.030410 0.323236
vt 0.030410 0.323236
vt 0.030410 0.323236
vt 0.030410 0.323236
vt 0.030410 0.323236
vt 0.030410 0.323236
vt 0.030410 0.323236
vt 0.030410 0.323236
vt 0.030410 0.323236
vt 0.030410 0.323236
vt 0.030410 0.323236
vt 0.149186 -2.102090
vt 0.149186 -2.102090
vt 0.149186 -2.102090
vt 0.149186 -2.102090
vt 0.149186 -2.102090
vt 0.149186 -2.102090
vt 0.149186 -2.102090
vt 0.149186 -2.102090
vt 0.149186 -2.102090
vt 0.149186 -2.102090
vt 0.149186 -2.102090
vt 0.149186 -2.102090
vt 0.149186 -2.102090
vt 0.149186 -2.102090
vt 0.149186 -2.102090
vt 0.149186 -2.102090
vt 0.149186 -2.102090
vt 0.149186 -2.102090
vt 0.149186 -2.102090
vt 0.149186 -2.102090
vt 0.149186 -2.102090
vt 0.149186 -2.102090
vt 0.149186 -2.102090
vt 0.149186 -2.102090
vt 0.149186 -2.102090
vt 0.149186 -2.102090
vt 0.149186 -2.102090
vt 0.149186 -2.102090
vt 0.149186 -2.102090
vt 0.149186 -2.102090
vt 0.149186 -2.102090
vt 0.149186 -2.102090
vt 0.149186 -2.102090
vt 0.149186 -2.102090
vt 0.149186 -2.102090
vt 0.149186 -2.102090
vt 0.149186 -2.102090
vt 0.149186 -2.102090
vt 0.149186 -2.102090
vt 0.149186 -2.102090
vt 0.149186 -2.102090
vt 0.149186 -2.102090
vt 0.149186 -2.102090
vt 0.149186 -2.102090
vt 0.149186 -2.102090
vt 0.149186 -2.102090
vt 0.149186 -2.102090
vt 0.149186 -2.102090
vt 0.149186 -2.102090
vt 0.030410 0.323236
vt 0.030410 0.323236
vt 0.030410 0.323236
vt 0.030410 0.323236
vt 0.030410 0.323236
vt 0.030410 0.323236
vt 0.030410 0.323236
vt 0.030410 0.323236
vt 0.500000 0.750000
vt 0.500000 0.750000
vt 0.500000 0.750000
vt 0.500000 0.750000
vt 0.030410 0.323236
vt 0.030410 0.323236
vt 0.030410 0.323236
vt 0.500000 0.750000
vt 0.500000 0.750000
vt 0.500000 0.750000
vt 0.500000 0.750000
vt 0.500000 0.750000
vt 0.500000 0.750000
vt 0.030410 0.323236
vt 0.030410 0.323236
vt 0.030410 0.323236
vt 0.500000 0.750000
vt 0.500000 0.750000
vt 0.500000 0.750000
vt 0.500000 0.750000
vt 0.500000 0.750000
vt 0.500000 0.750000
vn -0.1951 -0.9808 0.0000
vn 0.1951 -0.9808 0.0000
vn 0.9808 -0.1951 0.0000
vn 1.0000 0.0000 0.0000
vn 0.0000 1.0000 0.0000
vn -0.5407 -0.0863 0.8368
vn -0.5407 0.0863 0.8368
vn -0.9201 0.2013 0.3359
vn -0.9201 -0.2013 0.3359
vn 0.0131 -0.1201 0.9927
vn -0.0131 -0.1201 0.9927
vn -0.0863 -0.5407 0.8368
vn 0.0863 -0.5407 0.8368
vn 0.1954 0.9807 0.0000
vn -0.1954 0.9807 0.0000
vn -0.2013 0.9201 0.3359
vn 0.2013 0.9201 0.3359
vn -0.9807 -0.1954 -0.0000
vn -0.9807 0.1954 0.0000
vn -0.5158 -0.0691 0.8539
vn -0.3516 -0.3251 0.8779
vn -0.0742 -0.4514 0.8893
vn 0.0725 -0.4504 0.8899
vn 0.3444 -0.3224 0.8817
vn 0.5047 -0.0683 0.8606
vn 0.5126 0.0610 0.8565
vn 0.4545 0.2448 0.8564
vn 0.2518 0.4234 0.8702
vn 0.0624 0.4588 0.8863
vn -0.0741 0.4510 0.8894
vn -0.3515 0.3249 0.8780
vn -0.5158 0.0691 0.8539
vn 0.0993 0.7763 0.6225
vn -0.1655 0.7307 0.6623
vn 0.1668 -0.7276 0.6654
vn -0.1656 -0.7312 0.6618
vn 0.3865 0.6845 0.6181
vn 0.8547 0.5192 -0.0000
vn 0.9900 0.1414 0.0000
vn 0.9698 -0.2441 -0.0000
vn 0.5011 -0.5216 0.6906
vn -0.9694 -0.2454 0.0000
vn -0.9694 0.2455 0.0000
vn -0.1201 -0.0131 0.9927
vn -0.1201 0.0131 0.9927
vn 0.1201 0.0131 0.9927
vn 0.1201 -0.0131 0.9927
vn 0.5407 -0.0863 0.8368
vn 0.5407 0.0863 0.8368
vn -0.0863 0.5407 0.8368
vn 0.0863 0.5407 0.8368
vn 0.9201 -0.2013 0.3359
vn 0.9201 0.2013 0.3359
vn -0.0131 0.1201 0.9927
vn 0.0131 0.1201 0.9927
vn -0.0743 -0.0743 0.9945
vn 0.0743 -0.0743 0.9945
vn 0.0743 0.0743 0.9945
vn -0.0743 0.0743 0.9945
vn -0.2013 -0.9201 0.3359
vn 0.2013 -0.9201 0.3359
vn 0.1954 -0.9807 0.0000
vn -0.1954 -0.9807 0.0000
vn 0.3617 -0.3617 0.8593
vn -0.3617 -0.3617 0.8593
vn 0.6607 -0.6607 0.3562
vn -0.6607 -0.6607 0.3562
vn 0.6607 0.6607 0.3562
vn 0.3617 0.3617 0.8593
vn -0.3617 0.3617 0.8593
vn -0.6607 0.6607 0.3562
vn -0.7071 -0.7071 0.0000
vn 0.9807 -0.1954 0.0000
vn 0.7071 -0.7071 0.0000
vn 0.7071 0.7071 0.0000
vn 0.9807 0.1954 0.0000
vn -0.7071 0.7071 0.0000
vn -0.5047 0.5295 0.6819
vn -0.5050 -0.5297 0.6815
vn -0.0000 0.0000 1.0000
vn -0.9808 -0.1951 0.0000
vn -1.0000 -0.0000 0.0000
vn -0.5407 -0.0863 -0.8368
vn -0.9201 -0.2013 -0.3359
vn -0.9201 0.2013 -0.3359
vn -0.5407 0.0863 -0.8368
vn 0.0131 -0.1201 -0.9927
vn 0.0863 -0.5407 -0.8368
vn -0.0863 -0.5407 -0.8368
vn -0.0131 -0.1201 -0.9927
vn 0.2013 0.9201 -0.3359
vn -0.2013 0.9201 -0.3359
vn -0.5158 -0.0691 -0.8539
vn -0.5158 0.0691 -0.8539
vn -0.3515 0.3249 -0.8780
vn -0.0741 0.4510 -0.8894
vn 0.0624 0.4588 -0.8863
vn 0.2518 0.4234 -0.8702
vn 0.4545 0.2448 -0.8564
vn 0.5126 0.0610 -0.8565
vn 0.5047 -0.0683 -0.8606
vn 0.3444 -0.3223 -0.8817
vn 0.0725 -0.4504 -0.8899
vn -0.0742 -0.4514 -0.8893
vn -0.3516 -0.3251 -0.8779
vn 0.0993 0.7763 -0.6225
vn -0.1655 0.7307 -0.6623
vn 0.1668 -0.7276 -0.6654
vn -0.1656 -0.7312 -0.6618
vn 0.3865 0.6845 -0.6181
vn 0.5011 -0.5216 -0.6906
vn -0.1201 -0.0131 -0.9927
vn -0.1201 0.0131 -0.9927
vn 0.1201 0.0131 -0.9927
vn 0.5407 0.0863 -0.8368
vn 0.5407 -0.0863 -0.8368
vn 0.1201 -0.0131 -0.9927
vn 0.0863 0.5407 -0.8368
vn -0.0863 0.5407 -0.8368
vn 0.9201 0.2013 -0.3359
vn 0.9201 -0.2013 -0.3359
vn 0.0131 0.1201 -0.9927
vn -0.0131 0.1201 -0.9927
vn -0.0743 0.0743 -0.9945
vn 0.0743 0.0743 -0.9945
vn 0.0743 -0.0743 -0.9945
vn -0.0743 -0.0743 -0.9945
vn 0.2013 -0.9201 -0.3359
vn -0.2013 -0.9201 -0.3359
vn 0.3617 -0.3617 -0.8593
vn -0.3617 -0.3617 -0.8593
vn 0.6607 -0.6607 -0.3562
vn -0.6607 -0.6607 -0.3562
vn 0.3617 0.3617 -0.8593
vn 0.6607 0.6607 -0.3561
vn -0.6607 0.6607 -0.3561
vn -0.3617 0.3617 -0.8593
vn -0.5047 0.5295 -0.6819
vn -0.5050 -0.5297 -0.6815
vn -0.0000 -0.0000 -1.0000
vn 0.0000 -1.0000 -0.0000
usemtl Solid.113
s 1
f 85/1/1 89/2/2 82/3/2 80/4/1
f 88/5/3 53/6/4 2/7/4 83/8/3
f 53/6/5 52/9/5 1/10/5 2/7/5
f 22/11/6 40/12/7 38/13/8 19/14/9
f 25/15/10 17/16/11 23/17/12 31/18/13
f 76/19/14 70/20/15 37/21/16 47/22/17
f 69/23/18 19/14/9 38/13/8 72/24/19
f 7/25/20 9/26/21 8/27/22 10/28/23 12/29/24 11/30/25 3/31/26 5/32/27 6/33/28 4/34/29 13/35/30 15/36/31 14/37/32
f 54/38/33 64/39/34 13/35/30 4/34/29
f 63/40/35 10/28/23 8/27/22 60/41/36
f 54/38/33 4/34/29 6/33/28 55/42/37
f 55/42/37 6/33/28 5/32/27 56/43/38
f 56/43/38 5/32/27 3/31/26 57/44/39
f 61/45/40 11/30/25 12/29/24 62/46/41
f 62/46/41 12/29/24 10/28/23 63/40/35
f 58/47/42 7/25/20 14/37/32 66/48/43
f 16/49/44 35/50/45 40/12/7 22/11/6
f 43/51/46 26/52/47 32/53/48 50/54/49
f 47/22/17 37/21/16 41/55/50 49/56/51
f 50/54/49 32/53/48 29/57/52 46/58/53
f 49/56/51 41/55/50 34/59/54 44/60/55
f 16/49/44 18/61/56 17/16/11 25/15/10 27/62/57 26/52/47 43/51/46 45/63/58 44/60/55 34/59/54 36/64/59 35/50/45
f 31/18/13 23/17/12 20/65/60 28/66/61
f 75/67/62 28/66/61 20/65/60 67/68/63
f 32/53/48 26/52/47 27/62/57 33/69/64
f 33/69/64 27/62/57 25/15/10 31/18/13
f 16/49/44 22/11/6 24/70/65 18/61/56
f 18/61/56 24/70/65 23/17/12 17/16/11
f 29/57/52 32/53/48 33/69/64 30/71/66
f 30/71/66 33/69/64 31/18/13 28/66/61
f 22/11/6 19/14/9 21/72/67 24/70/65
f 24/70/65 21/72/67 20/65/60 23/17/12
f 50/54/49 46/58/53 48/73/68 51/74/69
f 51/74/69 48/73/68 47/22/17 49/56/51
f 38/13/8 40/12/7 42/75/70 39/76/71
f 39/76/71 42/75/70 41/55/50 37/21/16
f 43/51/46 50/54/49 51/74/69 45/63/58
f 45/63/58 51/74/69 49/56/51 44/60/55
f 40/12/7 35/50/45 36/64/59 42/75/70
f 42/75/70 36/64/59 34/59/54 41/55/50
f 67/68/63 20/65/60 21/72/67 68/77/72
f 68/77/72 21/72/67 19/14/9 69/23/18
f 73/78/73 29/57/52 30/71/66 74/79/74
f 74/79/74 30/71/66 28/66/61 75/67/62
f 76/19/14 47/22/17 48/73/68 77/80/75
f 77/80/75 48/73/68 46/58/53 78/81/76
f 29/57/52 73/78/73 78/81/76 46/58/53
f 39/76/71 71/82/77 72/24/19 38/13/8
f 37/21/16 70/20/15 71/82/77 39/76/71
f 15/36/31 65/83/78 66/48/43 14/37/32
f 13/35/30 64/39/34 65/83/78 15/36/31
f 9/26/21 59/84/79 60/41/36 8/27/22
f 7/25/20 58/47/42 59/84/79 9/26/21
f 11/30/25 61/45/40 57/44/39 3/31/26
f 82/3/80 84/85/80 83/8/80 156/86/80 155/87/80 163/88/80 161/89/80 158/90/80 79/91/80 81/92/80 80/4/80
f 85/1/1 80/4/1 81/92/72 87/93/72
f 87/93/72 81/92/72 79/91/81 86/94/81
f 82/3/2 89/2/2 90/95/74 84/85/74
f 84/85/74 90/95/74 88/5/3 83/8/3
f 79/91/81 1/10/82 52/9/82 86/94/81
f 85/1/1 143/96/1 145/97/2 89/2/2
f 88/5/3 146/98/3 92/99/4 53/6/4
f 53/6/5 92/99/5 91/100/5 52/9/5
f 112/101/83 109/102/84 128/103/85 130/104/86
f 115/105/87 121/106/88 113/107/89 107/108/90
f 76/19/14 137/109/91 127/110/92 70/20/15
f 69/23/18 72/24/19 128/103/85 109/102/84
f 97/111/93 104/112/94 105/113/95 103/114/96 94/115/97 96/116/98 95/117/99 93/118/100 101/119/101 102/120/102 100/121/103 98/122/104 99/123/105
f 54/38/106 94/115/97 103/114/96 64/39/107
f 63/40/108 60/41/109 98/122/104 100/121/103
f 54/38/106 55/42/110 96/116/98 94/115/97
f 55/42/110 56/43/38 95/117/99 96/116/98
f 56/43/38 57/44/39 93/118/100 95/117/99
f 61/45/40 62/46/111 102/120/102 101/119/101
f 62/46/111 63/40/108 100/121/103 102/120/102
f 58/47/42 66/48/43 104/112/94 97/111/93
f 106/124/112 112/101/83 130/104/86 125/125/113
f 133/126/114 140/127/115 122/128/116 116/129/117
f 137/109/91 139/130/118 131/131/119 127/110/92
f 140/127/115 136/132/120 119/133/121 122/128/116
f 139/130/118 134/134/122 124/135/123 131/131/119
f 106/124/112 125/125/113 126/136/124 124/135/123 134/134/122 135/137/125 133/126/114 116/129/117 117/138/126 115/105/87 107/108/90 108/139/127
f 121/106/88 118/140/128 110/141/129 113/107/89
f 75/67/62 67/68/63 110/141/129 118/140/128
f 122/128/116 123/142/130 117/138/126 116/129/117
f 123/142/130 121/106/88 115/105/87 117/138/126
f 106/124/112 108/139/127 114/143/131 112/101/83
f 108/139/127 107/108/90 113/107/89 114/143/131
f 119/133/121 120/144/132 123/142/130 122/128/116
f 120/144/132 118/140/128 121/106/88 123/142/130
f 112/101/83 114/143/131 111/145/133 109/102/84
f 114/143/131 113/107/89 110/141/129 111/145/133
f 140/127/115 141/146/134 138/147/135 136/132/120
f 141/146/134 139/130/118 137/109/91 138/147/135
f 128/103/85 129/148/136 132/149/137 130/104/86
f 129/148/136 127/110/92 131/131/119 132/149/137
f 133/126/114 135/137/125 141/146/134 140/127/115
f 135/137/125 134/134/122 139/130/118 141/146/134
f 130/104/86 132/149/137 126/136/124 125/125/113
f 132/149/137 131/131/119 124/135/123 126/136/124
f 67/68/63 68/77/72 111/145/133 110/141/129
f 68/77/72 69/23/18 109/102/84 111/145/133
f 73/78/73 74/79/74 120/144/132 119/133/121
f 74/79/74 75/67/62 118/140/128 120/144/132
f 76/19/14 77/80/75 138/147/135 137/109/91
f 77/80/75 78/81/76 136/132/120 138/147/135
f 119/133/121 136/132/120 78/81/76 73/78/73
f 129/148/136 128/103/85 72/24/19 71/82/77
f 127/110/92 129/148/136 71/82/77 70/20/15
f 105/113/95 104/112/94 66/48/43 65/83/138
f 103/114/96 105/113/95 65/83/138 64/39/107
f 99/123/105 98/122/104 60/41/109 59/84/139
f 97/111/93 99/123/105 59/84/139 58/47/42
f 101/119/101 93/118/100 57/44/39 61/45/40
f 145/97/140 143/96/140 144/150/140 142/151/140 159/152/140 160/153/140 162/154/140 154/155/140 157/156/140 146/98/140 147/157/140
f 85/1/1 87/93/72 144/150/72 143/96/1
f 87/93/72 86/94/81 142/151/81 144/150/72
f 145/97/2 147/157/74 90/95/74 89/2/2
f 147/157/74 146/98/3 88/5/3 90/95/74
f 142/151/81 86/94/81 52/9/82 91/100/82
f 153/158/74 152/159/74 158/160/4 159/161/4
f 79/91/80 158/90/80 152/162/80 148/163/80 150/164/80 156/86/80 83/8/80 2/7/80 1/10/80
f 157/165/82 156/166/82 150/167/72 151/168/72
f 159/161/4 158/160/4 161/169/75 160/170/75
f 146/98/140 157/156/140 151/171/140 149/172/140 153/173/140 159/152/140 142/151/140 91/100/140 92/99/140
f 154/174/77 155/175/77 156/166/82 157/165/82
f 162/176/5 163/177/5 155/175/77 154/174/77
f 149/178/141 148/179/141 152/159/74 153/158/74
f 151/168/72 150/167/72 148/179/141 149/178/141
f 160/170/75 161/169/75 163/177/5 162/176/5
