# Blender v2.93.1 OBJ File: ''
# www.blender.org
mtllib pan_cast_iron_skillet.mtl
o pan_cast_iron_skillet_Cylinder.049
v 1.285564 -1.146152 0.000000
v 1.040043 -1.146152 0.755636
v 1.302212 -0.274115 0.946112
v 0.397261 -1.146151 1.222644
v 0.497401 -0.274115 1.530842
v -0.397261 -1.146151 1.222644
v -0.497401 -0.274115 1.530842
v -1.040043 -1.146152 0.755636
v -1.302212 -0.274115 0.946113
v -1.285564 -1.146152 0.000000
v -1.040043 -1.146152 -0.755635
v -1.302212 -0.274115 -0.946113
v -0.397261 -1.146152 -1.222644
v -0.497401 -0.274115 -1.530842
v 0.397261 -1.146152 -1.222644
v 0.497401 -0.274115 -1.530842
v 1.040043 -1.146152 -0.755635
v 1.302212 -0.274115 -0.946113
v 1.219741 -1.085212 0.000000
v 0.986792 -1.085212 0.716946
v 1.218396 -0.264084 0.885217
v 0.376921 -1.085212 1.160043
v 0.465386 -0.264084 1.432310
v -0.376921 -1.085212 1.160043
v -0.465386 -0.264084 1.432310
v -0.986792 -1.085212 0.716946
v -1.218396 -0.264084 0.885217
v -1.219741 -1.085212 0.000000
v -0.986792 -1.085212 -0.716946
v -1.218396 -0.264085 -0.885217
v -0.376921 -1.085212 -1.160043
v -0.469833 -0.220494 -1.445996
v 0.376921 -1.085212 -1.160043
v 0.469833 -0.220494 -1.445996
v 0.986792 -1.085212 -0.716946
v 1.218396 -0.264085 -0.885217
v 1.513341 -0.274115 0.296325
v 1.513341 -0.274115 -0.296325
v 1.533087 -0.560535 -0.000000
v 1.822842 -0.274115 -0.000000
v -1.513341 -0.274115 -0.296325
v -1.513341 -0.274115 0.296325
v -1.533087 -0.560535 0.000000
v -1.822842 -0.274115 0.000000
v 1.409739 -0.264084 -0.296325
v 1.409739 -0.264084 0.296325
v 1.435090 -0.551944 -0.000000
v 1.701256 -0.264084 -0.000000
v -1.409739 -0.264084 0.296325
v -1.409739 -0.264084 -0.296325
v -1.435090 -0.551944 0.000000
v -1.701256 -0.264084 0.000000
v 0.488064 -0.387185 1.502107
v 0.497401 -0.274115 1.530842
v -0.488064 -0.387185 1.502107
v -0.497401 -0.274115 1.530842
v 0.497401 -0.274114 1.634005
v 0.488064 -0.387185 1.634005
v -0.488064 -0.387185 1.634005
v -0.497401 -0.274114 1.634005
v 0.405401 -0.274114 1.690573
v 0.397791 -0.387185 1.690573
v -0.397791 -0.387185 1.690573
v -0.405400 -0.274114 1.690573
v -0.497401 -0.372783 -1.472073
v 0.497401 -0.372783 -1.472073
v -0.155924 -0.364118 -4.112460
v 0.155924 -0.364118 -4.112460
v -0.469833 -0.301829 -1.472073
v 0.469833 -0.301829 -1.472073
v 0.155924 -0.260031 -4.112460
v -0.155924 -0.260031 -4.112460
v -0.350499 -0.364118 -3.413058
v -0.364381 -0.364117 -1.688422
v -0.323406 -0.364117 -2.866132
v -0.330120 -0.364117 -2.234871
v 0.364381 -0.364117 -1.688422
v 0.350499 -0.364118 -3.413058
v 0.330120 -0.364117 -2.234871
v 0.323405 -0.364117 -2.866132
v 0.350499 -0.260031 -3.413058
v 0.345197 -0.293644 -1.686793
v 0.320835 -0.264534 -2.865914
v 0.320528 -0.276837 -2.234057
v -0.345197 -0.293644 -1.686793
v -0.350499 -0.260031 -3.413058
v -0.320528 -0.276837 -2.234057
v -0.320835 -0.264534 -2.865914
v -0.394350 -0.364118 -3.967332
v -0.422712 -0.364118 -3.659903
v 0.422711 -0.364118 -3.659903
v 0.394349 -0.364118 -3.967332
v 0.394349 -0.260031 -3.967332
v 0.422711 -0.260031 -3.659903
v -0.422712 -0.260031 -3.659903
v -0.394350 -0.260031 -3.967332
vt 0.005425 0.393334
vt 0.005425 0.393334
vt 0.005425 0.393334
vt 0.005425 0.393334
vt 0.005425 0.393334
vt 0.005425 0.393334
vt 0.005425 0.393334
vt 0.005425 0.393334
vt 0.005425 0.393334
vt 0.005425 0.393334
vt 0.005425 0.393334
vt 0.005425 0.393334
vt 0.005425 0.393334
vt 0.005425 0.393334
vt 0.005425 0.393334
vt 0.005425 0.393334
vt 0.005425 0.393334
vt 0.005425 0.393334
vt 0.005425 0.393334
vt 0.005425 0.393334
vt 0.005425 0.393334
vt 0.005425 0.393334
vt 0.005425 0.393334
vt 0.005425 0.393334
vt 0.005425 0.393334
vt 0.005425 0.393334
vt 0.005425 0.393334
vt 0.005425 0.393334
vt 0.005425 0.393334
vt 0.005425 0.393334
vt 0.005425 0.393334
vt 0.005425 0.393334
vt 0.005425 0.393334
vt 0.005425 0.393334
vt 0.005425 0.393334
vt 0.005425 0.393334
vt 0.005425 0.393334
vt 0.005425 0.393334
vt 0.005425 0.393334
vt 0.005425 0.393334
vt 0.005425 0.393334
vt 0.005425 0.393334
vt 0.005425 0.393334
vt 0.005425 0.393334
vt 0.005425 0.393334
vt 0.005425 0.393334
vt 0.005425 0.393334
vt 0.005425 0.393334
vt 0.005425 0.393334
vt 0.005425 0.393334
vt 0.005425 0.393334
vt 0.005425 0.393334
vt 0.005425 0.393334
vt 0.005425 0.393334
vt 0.005425 0.393334
vt 0.005425 0.393334
vt 0.005425 0.393334
vt 0.005425 0.393334
vt 0.005425 0.393334
vt 0.005425 0.393334
vt 0.005425 0.393334
vt 0.005425 0.393334
vt 0.005425 0.393334
vt 0.005425 0.393334
vt 0.005425 0.393334
vt 0.005425 0.393334
vt 0.005425 0.393334
vt 0.005425 0.393334
vt 0.005425 0.393334
vt 0.005425 0.393334
vt 0.005425 0.393334
vt 0.005425 0.393334
vt 0.005425 0.393334
vt 0.005425 0.393334
vt 0.005425 0.393334
vt 0.005425 0.393334
vt 0.005425 0.393334
vt 0.005425 0.393334
vt 0.005425 0.393334
vt 0.005425 0.393334
vt 0.005425 0.393334
vt 0.005425 0.393334
vt 0.005425 0.393334
vt 0.005425 0.393334
vt 0.005425 0.393334
vt 0.005425 0.393334
vt 0.005425 0.393334
vt 0.005425 0.393334
vt 0.005425 0.393334
vt 0.005425 0.393334
vt 0.005425 0.393334
vt 0.005425 0.393334
vt 0.005425 0.393334
vt 0.005425 0.393334
vt 0.005425 0.393334
vt 0.005425 0.393334
vn 0.7533 -0.3492 -0.5573
vn 0.8140 -0.4187 -0.4025
vn 0.8840 -0.4674 0.0000
vn 0.9354 -0.3535 -0.0000
vn 0.7533 -0.3492 0.5573
vn 0.2897 -0.3483 0.8915
vn -0.2897 -0.3483 0.8915
vn -0.7533 -0.3492 0.5573
vn -0.9354 -0.3535 -0.0000
vn -0.8840 -0.4674 0.0000
vn -0.8140 -0.4187 -0.4025
vn -0.7533 -0.3492 -0.5573
vn -0.0912 0.9934 -0.0694
vn -0.0940 0.9944 -0.0487
vn -0.1550 0.9777 -0.1419
vn -0.1552 0.9776 -0.1422
vn -0.2897 -0.3483 -0.8915
vn 0.2897 -0.3483 -0.8915
vn 0.1552 0.9776 -0.1422
vn 0.1550 0.9777 -0.1419
vn 0.0940 0.9944 -0.0487
vn 0.0912 0.9934 -0.0694
vn 0.0000 -1.0000 0.0000
vn -0.7584 0.3303 0.5619
vn -0.9422 0.3352 0.0000
vn -0.8961 0.3188 0.3088
vn -0.7555 0.3302 0.5658
vn -0.7585 0.3305 -0.5617
vn -0.2918 0.3292 -0.8980
vn 0.2918 0.3292 -0.8980
vn 0.7585 0.3305 -0.5617
vn 0.9422 0.3352 -0.0000
vn 0.7584 0.3303 0.5619
vn 0.7555 0.3302 0.5658
vn 0.8961 0.3188 0.3088
vn 0.2917 0.3286 0.8983
vn 0.2867 0.3286 0.8999
vn 0.2916 0.3286 0.8983
vn -0.2916 0.3286 0.8983
vn -0.2867 0.3286 0.8999
vn 0.8961 0.3188 -0.3088
vn 0.0000 1.0000 -0.0000
vn -0.0780 0.9953 0.0566
vn -0.0940 0.9944 0.0487
vn -0.0912 0.9934 0.0694
vn 0.0298 0.9953 0.0916
vn -0.0298 0.9953 0.0916
vn 0.8140 -0.4187 0.4025
vn -0.8961 0.3188 -0.3088
vn 0.2115 0.9446 -0.2509
vn 0.0780 0.9953 0.0566
vn -0.2115 0.9446 -0.2509
vn -0.8140 -0.4187 0.4025
vn 0.5667 -0.5732 0.5919
vn 0.5667 -0.5733 -0.5919
vn -0.5667 -0.5732 -0.5919
vn -0.5667 -0.5732 0.5919
vn -0.5952 0.5503 0.5855
vn -0.5952 0.5503 -0.5855
vn 0.5952 0.5503 -0.5855
vn 0.5952 0.5503 0.5855
vn 0.0912 0.9934 0.0694
vn 0.0887 0.9961 -0.0000
vn 0.0940 0.9944 0.0487
vn -0.0887 0.9961 -0.0000
vn -0.9966 -0.0823 -0.0000
vn -0.8655 -0.0691 0.4961
vn -0.8775 -0.0702 0.4744
vn 0.9966 -0.0823 -0.0000
vn 0.8775 -0.0702 0.4744
vn 0.8655 -0.0691 0.4961
vn 0.2632 -0.0197 0.9645
vn 0.2849 -0.0213 0.9583
vn -0.2849 -0.0213 0.9583
vn -0.2632 -0.0197 0.9645
vn 0.2700 0.0000 -0.9629
vn 0.8483 0.0000 -0.5295
vn 0.0000 -0.9992 -0.0400
vn 0.0000 -0.9997 -0.0234
vn -0.8483 0.0000 -0.5295
vn -0.2700 0.0000 -0.9629
vn 0.0000 0.9993 0.0381
vn 0.0000 0.9994 0.0350
vn 0.9954 0.0000 0.0962
vn 0.9858 0.0063 0.1678
vn 0.9859 0.0063 0.1674
vn -0.9859 0.0063 0.1675
vn -0.9858 0.0063 0.1678
vn -0.9954 0.0000 0.0962
vn 0.0000 1.0000 0.0037
vn 0.9283 0.2387 -0.2850
vn 0.9361 0.2336 -0.2629
vn 0.8289 0.2796 -0.4845
vn -0.8289 0.2796 -0.4845
vn -0.9361 0.2336 -0.2629
vn -0.9283 0.2387 -0.2850
vn 0.0000 0.9997 0.0252
vn 0.0000 0.9999 0.0138
vn 0.9990 0.0386 0.0239
vn 0.9990 0.0387 0.0238
vn 0.9922 0.1220 -0.0271
vn 0.9921 0.1225 -0.0273
vn -0.9990 0.0387 0.0238
vn -0.9990 0.0386 0.0239
vn -0.9921 0.1225 -0.0273
vn -0.9922 0.1220 -0.0271
usemtl Solid.166
s 1
f 17/1/1 18/2/1 38/3/2 39/4/3 1/5/4
f 2/6/5 3/7/5 5/8/6 4/9/6
f 4/9/6 5/8/6 7/10/7 6/11/7
f 6/11/7 7/10/7 9/12/8 8/13/8
f 10/14/9 43/15/10 41/16/11 12/17/12 11/18/12
f 41/16/13 50/19/14 30/20/15 12/17/16
f 11/18/12 12/17/12 14/21/17 13/22/17
f 13/22/17 14/21/17 16/23/18 15/24/18
f 15/24/18 16/23/18 18/2/1 17/1/1
f 18/2/19 36/25/20 45/26/21 38/3/22
f 1/5/23 2/6/23 4/9/23 6/11/23 8/13/23 10/14/23 11/18/23 13/22/23 15/24/23 17/1/23
f 35/27/24 19/28/25 47/29/25 45/26/26 36/25/27
f 20/30/28 22/31/29 23/32/29 21/33/28
f 22/31/29 24/34/30 25/35/30 23/32/29
f 24/34/30 26/36/31 27/37/31 25/35/30
f 28/38/32 29/39/33 30/20/34 50/19/35 51/40/32
f 29/39/33 31/41/36 32/42/37 30/20/34
f 31/41/38 33/43/39 34/44/40 32/42/37
f 33/43/39 35/27/24 36/25/27 34/44/40
f 26/36/31 28/38/32 51/40/32 49/45/41 27/37/31
f 19/28/42 35/27/42 33/43/42 31/41/42 29/39/42 28/38/42 26/36/42 24/34/42 22/31/42 20/30/42
f 9/12/43 27/37/43 49/45/44 42/46/45
f 5/8/46 23/32/46 25/35/47 7/10/47
f 1/5/4 39/4/3 37/47/48 3/7/5 2/6/5
f 19/28/25 20/30/28 21/33/28 46/48/49 47/29/25
f 7/10/47 25/35/47 27/37/43 9/12/43
f 16/23/50 34/44/50 36/25/20 18/2/19
f 3/7/51 21/33/51 23/32/46 5/8/46
f 12/17/16 30/20/15 32/42/52 14/21/52
f 8/13/8 9/12/8 42/46/53 43/15/10 10/14/9
f 37/47/48 39/4/3 40/49/54
f 40/49/55 39/4/3 38/3/2
f 41/16/11 43/15/10 44/50/56
f 44/50/57 43/15/10 42/46/53
f 45/26/58 47/29/58 48/51/58
f 48/51/59 47/29/59 46/48/59
f 49/45/60 51/40/60 52/52/60
f 52/52/61 51/40/61 50/19/61
f 37/47/62 40/49/63 48/51/63 46/48/64
f 40/49/63 38/3/22 45/26/21 48/51/63
f 49/45/44 52/52/65 44/50/65 42/46/45
f 52/52/65 50/19/14 41/16/13 44/50/65
f 37/47/62 46/48/64 21/33/51 3/7/51
f 58/53/23 62/54/23 63/55/23 59/56/23
f 55/57/66 59/56/67 60/58/68 56/59/66
f 53/60/23 58/53/23 59/56/23 55/57/23
f 56/59/42 60/58/42 57/61/42 54/62/42
f 54/62/69 57/61/70 58/53/71 53/60/69
f 62/54/72 61/63/73 64/64/74 63/55/75
f 60/58/42 64/64/42 61/63/42 57/61/42
f 57/61/70 61/63/73 62/54/72 58/53/71
f 59/56/67 63/55/75 64/64/74 60/58/68
f 68/65/76 71/66/76 93/67/77 92/68/77
f 66/69/78 65/70/78 74/71/79 77/72/79
f 89/73/80 96/74/80 72/75/81 67/76/81
f 70/77/82 82/78/83 85/79/83 69/80/82
f 91/81/84 94/82/84 81/83/85 78/84/86
f 73/85/87 86/86/88 95/87/89 90/88/89
f 81/83/90 94/82/42 95/87/42 86/86/90
f 77/72/91 82/78/92 70/77/93 66/69/93
f 93/67/42 71/66/42 72/75/42 96/74/42
f 65/70/94 69/80/94 85/79/95 74/71/96
f 67/76/81 72/75/81 71/66/76 68/65/76
f 78/84/23 80/89/23 75/90/23 73/85/23
f 80/89/23 79/91/23 76/92/23 75/90/23
f 79/91/23 77/72/79 74/71/79 76/92/23
f 82/78/83 84/93/97 87/94/97 85/79/83
f 84/93/97 83/95/98 88/96/98 87/94/97
f 83/95/98 81/83/90 86/86/90 88/96/98
f 81/83/85 83/95/99 80/89/100 78/84/86
f 83/95/99 84/93/101 79/91/102 80/89/100
f 84/93/101 82/78/92 77/72/91 79/91/102
f 73/85/87 75/90/103 88/96/104 86/86/88
f 75/90/103 76/92/105 87/94/106 88/96/104
f 76/92/105 74/71/96 85/79/95 87/94/106
f 92/68/23 89/73/23 67/76/23 68/65/23
f 92/68/23 91/81/23 90/88/23 89/73/23
f 94/82/42 93/67/42 96/74/42 95/87/42
f 91/81/84 92/68/77 93/67/77 94/82/84
f 95/87/89 96/74/80 89/73/80 90/88/89
f 78/84/23 73/85/23 90/88/23 91/81/23
