# Blender v2.93.1 OBJ File: ''
# www.blender.org
mtllib sercups_shot_glass.mtl
o sercups_shot_glass_Cylinder.115
v -0.002853 0.504336 -0.614531
v 0.414175 0.504336 -0.434539
v 0.586913 0.504336 -0.000000
v 0.414175 0.504336 0.434539
v -0.002853 0.504336 0.614531
v -0.419881 0.504336 0.434539
v -0.592620 0.504336 -0.000000
v -0.419881 0.504336 -0.434539
v -0.002853 -0.830202 -0.452219
v 0.304028 -0.830202 -0.319767
v 0.431142 -0.830202 0.000000
v 0.304028 -0.830202 0.319767
v -0.002853 -0.830202 0.452219
v -0.309734 -0.830202 0.319767
v -0.436849 -0.830202 0.000000
v -0.309734 -0.830202 -0.319767
v -0.002853 -0.895455 -0.242960
v 0.162023 -0.895455 -0.171799
v 0.230316 -0.895455 0.000000
v 0.162023 -0.895455 0.171799
v -0.002853 -0.895455 0.242961
v -0.167729 -0.895455 0.171799
v -0.236023 -0.895455 0.000000
v -0.167729 -0.895455 -0.171799
v -0.002853 -0.928852 -0.409823
v -0.280964 -0.928852 -0.289788
v -0.396161 -0.928852 0.000000
v -0.280964 -0.928852 0.289789
v -0.002853 -0.928852 0.409823
v 0.275257 -0.928852 0.289789
v 0.390454 -0.928852 0.000000
v 0.275257 -0.928852 -0.289788
v 0.376152 0.169601 -0.394920
v 0.376152 0.169602 0.394920
v -0.381858 0.169602 0.394920
v -0.381858 0.169601 -0.394920
v -0.538847 0.169601 -0.000000
v -0.002853 0.169602 0.558501
v 0.533141 0.169601 0.000000
v -0.002853 0.169601 -0.558501
v -0.429950 -0.548481 0.000000
v -0.002853 -0.548481 0.445031
v 0.424244 -0.548481 0.000000
v -0.002853 -0.548481 -0.445031
v 0.299150 -0.548481 -0.314684
v 0.299150 -0.548481 0.314684
v -0.304856 -0.548481 0.314684
v -0.304856 -0.548481 -0.314684
v -0.416607 -0.548481 0.000000
v -0.002853 -0.548481 0.431127
v 0.410900 -0.548481 0.000000
v -0.002853 -0.548481 -0.431127
v 0.289715 -0.548481 -0.304853
v 0.289715 -0.548481 0.304853
v -0.295421 -0.548481 0.304853
v -0.295421 -0.548481 -0.304853
vt 0.029445 0.504401
vt 0.029445 0.504401
vt 0.029445 0.504401
vt 0.029445 0.504401
vt 0.029445 0.504401
vt 0.029445 0.504401
vt 0.029445 0.504401
vt 0.029445 0.504401
vt 0.029445 0.504401
vt 0.029445 0.504401
vt 0.029445 0.504401
vt 0.029445 0.504401
vt 0.029445 0.504401
vt 0.029445 0.504401
vt 0.029445 0.504401
vt 0.029445 0.504401
vt 0.029445 0.504401
vt 0.029445 0.504401
vt 0.029445 0.504401
vt 0.029445 0.504401
vt 0.029445 0.504401
vt 0.029445 0.504401
vt 0.029445 0.504401
vt 0.029445 0.504401
vt 0.029445 0.504401
vt 0.029445 0.504401
vt 0.029445 0.504401
vt 0.029445 0.504401
vt 0.029445 0.504401
vt 0.029445 0.504401
vt 0.029445 0.504401
vt 0.029445 0.504401
vt 0.029445 0.504401
vt 0.029445 0.504401
vt 0.029445 0.504401
vt 0.029445 0.504401
vt 0.029445 0.504401
vt 0.029445 0.504401
vt 0.029445 0.504401
vt 0.029445 0.504401
vt 0.029445 0.504401
vt 0.029445 0.504401
vt 0.029445 0.504401
vt 0.029445 0.504401
vt 0.029445 0.504401
vt 0.029445 0.504401
vt 0.029445 0.504401
vt 0.029445 0.504401
vt 0.029445 0.504401
vt 0.029445 0.504401
vt 0.029445 0.504401
vt 0.029445 0.504401
vt 0.029445 0.504401
vt 0.029445 0.504401
vt 0.029445 0.504401
vt 0.029445 0.504401
vn 0.1427 -0.9798 0.1404
vn -0.0000 -0.9806 0.1963
vn 0.0000 -0.9923 0.1238
vn 0.0911 -0.9921 0.0862
vn -0.7172 0.0250 -0.6964
vn -0.7050 -0.1769 -0.6868
vn -0.9847 -0.1742 -0.0000
vn -0.9997 0.0245 0.0000
vn -0.7172 0.0250 0.6964
vn -0.7050 -0.1769 0.6868
vn -0.0000 -0.1797 0.9837
vn -0.0000 0.0255 0.9997
vn 0.7172 0.0250 0.6964
vn 0.7050 -0.1769 0.6868
vn 0.9847 -0.1742 0.0000
vn 0.9997 0.0245 0.0000
vn 0.7172 0.0250 -0.6964
vn 0.7050 -0.1769 -0.6868
vn 0.0000 -0.1797 -0.9837
vn -0.0000 0.0255 -0.9997
vn -0.0911 -0.9921 0.0862
vn -0.1269 -0.9919 0.0000
vn -0.0911 -0.9921 -0.0862
vn 0.0000 -0.9923 -0.1238
vn 0.0911 -0.9921 -0.0862
vn 0.1269 -0.9919 0.0000
vn 0.1427 -0.9798 -0.1404
vn 0.2042 -0.9789 0.0000
vn -0.1427 -0.9798 -0.1404
vn 0.0000 -0.9806 -0.1963
vn -0.1427 -0.9798 0.1404
vn -0.2042 -0.9789 0.0000
vn 0.6636 -0.3879 -0.6396
vn 0.0000 -0.3948 -0.9187
vn 0.6636 -0.3879 0.6396
vn 0.9245 -0.3813 0.0000
vn -0.6636 -0.3879 0.6396
vn -0.0000 -0.3948 0.9187
vn -0.6636 -0.3879 -0.6396
vn -0.9245 -0.3813 -0.0000
vn 0.9873 -0.1586 0.0000
vn 0.9880 -0.1544 0.0000
vn 0.7085 -0.1575 -0.6879
vn 0.7070 -0.1618 -0.6885
vn 0.0000 -0.1651 0.9863
vn -0.0000 -0.1608 0.9870
vn 0.7085 -0.1575 0.6879
vn 0.7070 -0.1618 0.6885
vn -0.9873 -0.1586 0.0000
vn -0.9880 -0.1544 0.0000
vn -0.7085 -0.1575 0.6879
vn -0.7070 -0.1618 0.6885
vn 0.0000 -0.1651 -0.9863
vn 0.0000 -0.1608 -0.9870
vn -0.7085 -0.1575 -0.6879
vn -0.7070 -0.1618 -0.6885
vn 0.9887 -0.1499 0.0000
vn 0.7098 -0.1529 -0.6876
vn -0.0000 -0.1561 0.9877
vn 0.7098 -0.1529 0.6876
vn -0.9887 -0.1499 0.0000
vn -0.7098 -0.1529 0.6876
vn 0.0000 -0.1561 -0.9877
vn -0.7098 -0.1529 -0.6876
vn -0.0000 -1.0000 0.0000
usemtl Solid_-_25%.044
s 1
f 26/1/1 25/2/2 17/3/3 24/4/4
f 48/5/5 16/6/6 15/7/7 41/8/8
f 47/9/9 14/10/10 13/11/11 42/12/12
f 46/13/13 12/14/14 11/15/15 43/16/16
f 45/17/17 10/18/18 9/19/19 44/20/20
f 44/20/20 9/19/19 16/6/6 48/5/5
f 41/8/8 15/7/7 14/10/10 47/9/9
f 42/12/12 13/11/11 12/14/14 46/13/13
f 43/16/16 11/15/15 10/18/18 45/17/17
f 17/3/3 18/21/21 19/22/22 20/23/23 21/24/24 22/25/25 23/26/26 24/4/4
f 28/27/27 27/28/28 23/26/26 22/25/25
f 30/29/29 29/30/30 21/24/24 20/23/23
f 32/31/31 31/32/32 19/22/22 18/21/21
f 27/28/28 26/1/1 24/4/4 23/26/26
f 29/30/30 28/27/27 22/25/25 21/24/24
f 31/32/32 30/29/29 20/23/23 19/22/22
f 25/2/2 32/31/31 18/21/21 17/3/3
f 9/19/19 10/18/18 32/31/33 25/2/34
f 11/15/15 12/14/14 30/29/35 31/32/36
f 13/11/11 14/10/10 28/27/37 29/30/38
f 15/7/7 16/6/6 26/1/39 27/28/40
f 10/18/18 11/15/15 31/32/36 32/31/33
f 12/14/14 13/11/11 29/30/38 30/29/35
f 14/10/10 15/7/7 27/28/40 28/27/37
f 16/6/6 9/19/19 25/2/34 26/1/39
f 3/33/41 39/34/42 33/35/43 2/36/44
f 5/37/45 38/38/46 34/39/47 4/40/48
f 7/41/49 37/42/50 35/43/51 6/44/52
f 1/45/53 40/46/54 36/47/55 8/48/56
f 2/36/44 33/35/43 40/46/54 1/45/53
f 4/40/48 34/39/47 39/34/42 3/33/41
f 6/44/52 35/43/51 38/38/46 5/37/45
f 8/48/56 36/47/55 37/42/50 7/41/49
f 39/34/42 43/16/57 45/17/58 33/35/43
f 38/38/46 42/12/59 46/13/60 34/39/47
f 37/42/50 41/8/61 47/9/62 35/43/51
f 40/46/54 44/20/63 48/5/64 36/47/55
f 33/35/43 45/17/58 44/20/63 40/46/54
f 34/39/47 46/13/60 43/16/57 39/34/42
f 35/43/51 47/9/62 42/12/59 38/38/46
f 36/47/55 48/5/64 41/8/61 37/42/50
f 51/49/65 54/50/65 50/51/65 55/52/65 49/53/65 56/54/65 52/55/65 53/56/65
