# Blender v2.93.1 OBJ File: ''
# www.blender.org
mtllib appliance_stove_induction.mtl
o appliance_stove_induction_Cube.263
v 3.079336 -0.260949 -3.736201
v 3.079336 0.260948 -3.736201
v 3.079338 -0.260948 3.736199
v 3.079338 0.260949 3.736199
v -3.079338 -0.260949 -3.736199
v -3.079338 0.260948 -3.736199
v -3.079336 -0.260948 3.736201
v -3.079336 0.260949 3.736201
v 3.079338 -0.260948 3.736199
v 3.079338 0.181238 3.736199
v -3.079336 -0.260948 3.736201
v -3.079336 0.181238 3.736201
v 3.041916 0.181239 5.389967
v 3.041916 0.014805 5.389967
v -3.041913 0.014805 5.389969
v -3.041913 0.181239 5.389969
v 3.022474 0.010030 -3.736201
v 3.022477 0.010031 4.906937
v -3.022476 0.010030 -3.736199
v -3.022474 0.010031 4.906939
v 2.981172 -0.390983 4.906937
v 3.022474 -0.390984 -3.736201
v -2.981169 -0.390983 4.906939
v -3.022476 -0.390984 -3.736199
v 3.022477 0.010031 4.571531
v -3.022474 0.010031 4.571533
v 2.981172 -0.390983 4.571531
v -2.981169 -0.390983 4.571533
v 3.022474 0.010030 -3.183691
v 3.022474 -0.600984 -3.249051
v -3.022476 0.010030 -3.183689
v -3.022476 -0.600984 -3.249049
v 3.022474 -0.849069 -3.444957
v 3.022474 -0.849069 -3.736201
v -2.954989 -0.849068 4.906939
v 2.957187 -0.849068 4.906937
v -2.954989 -0.849068 4.715299
v -3.022476 -0.849069 -3.736199
v 2.957187 -0.849068 4.715297
v -3.022476 -0.849069 -3.444955
v -3.022474 0.010031 2.586577
v -3.022474 -0.390983 2.987694
v 3.022476 0.010031 2.586575
v 3.022476 -0.390983 2.987692
v 3.022476 0.010031 2.589501
v 3.022476 -0.600983 2.589501
v -3.022474 0.010031 2.589503
v -3.022474 -0.600983 2.589503
v -2.608972 0.010031 4.906939
v -2.608975 0.010030 -3.736199
v -2.608972 -0.390983 4.906939
v -2.608975 -0.390984 -3.736199
v -2.608973 -0.390983 4.571533
v -2.608973 0.010031 4.571533
v -2.608975 -0.600984 -3.249049
v -2.608975 0.010030 -3.183689
v -2.676457 -0.849068 4.906939
v -2.608975 -0.849069 -3.736199
v -2.676457 -0.849068 4.715299
v -2.608975 -0.849069 -3.444955
v -2.608973 0.010031 2.586577
v -2.608973 -0.390983 2.987694
v -2.608973 0.010031 2.589503
v -2.608973 -0.600983 2.589503
v 2.622426 0.010031 4.906937
v 2.622426 -0.390983 4.906937
v 2.622426 -0.390983 4.571531
v 2.622424 -0.600984 -3.249051
v 2.687716 -0.849068 4.906937
v 2.687716 -0.849068 4.715297
v 2.622423 -0.849069 -3.444957
v 2.622426 -0.390983 2.987692
v 2.622426 -0.600983 2.589501
v 2.622423 0.010030 -3.736201
v 2.622423 -0.390984 -3.736201
v 2.622426 0.010031 4.571531
v 2.622423 0.010030 -3.183691
v 2.622423 -0.849069 -3.736201
v 2.622425 0.010031 2.586575
v 2.622425 0.010031 2.589501
v -2.417471 0.165051 4.809780
v -2.417471 0.215778 4.772041
v -2.599186 0.165051 4.734510
v -2.572501 0.215778 4.707825
v -2.674455 0.165051 4.552795
v -2.636716 0.215778 4.552795
v -2.599186 0.165051 4.371080
v -2.572501 0.215778 4.397765
v -2.417471 0.165051 4.295811
v -2.417471 0.215778 4.333549
v -2.235756 0.165051 4.371080
v -2.262442 0.215778 4.397765
v -2.160487 0.165051 4.552794
v -2.198226 0.215778 4.552795
v -2.235756 0.165051 4.734510
v -2.262442 0.215778 4.707825
v -1.797434 0.165051 4.809779
v -1.797434 0.215778 4.772040
v -1.979149 0.165051 4.734509
v -1.952464 0.215778 4.707825
v -2.054418 0.165051 4.552794
v -2.016679 0.215778 4.552794
v -1.979149 0.165051 4.371079
v -1.952464 0.215778 4.397765
v -1.797434 0.165051 4.295810
v -1.797434 0.215778 4.333549
v -1.615719 0.165051 4.371079
v -1.642404 0.215778 4.397765
v -1.540450 0.165051 4.552794
v -1.578189 0.215778 4.552794
v -1.615719 0.165051 4.734509
v -1.642404 0.215778 4.707825
v -1.177396 0.165051 4.809779
v -1.177396 0.215778 4.772040
v -1.359112 0.165051 4.734509
v -1.332426 0.215778 4.707825
v -1.434380 0.165051 4.552794
v -1.396642 0.215778 4.552794
v -1.359112 0.165051 4.371079
v -1.332426 0.215778 4.397765
v -1.177397 0.165051 4.295810
v -1.177397 0.215778 4.333549
v -0.995682 0.165051 4.371079
v -1.022367 0.215778 4.397765
v -0.920413 0.165051 4.552794
v -0.958151 0.215778 4.552794
v -0.995681 0.165051 4.734509
v -1.022367 0.215778 4.707825
v 1.174151 0.165051 4.809778
v 1.174151 0.215778 4.772039
v 0.992436 0.165051 4.734509
v 1.019122 0.215778 4.707824
v 0.917168 0.165051 4.552794
v 0.954906 0.215778 4.552794
v 0.992436 0.165051 4.371078
v 1.019122 0.215778 4.397764
v 1.174151 0.165051 4.295809
v 1.174151 0.215778 4.333548
v 1.355866 0.165051 4.371078
v 1.329181 0.215778 4.397764
v 1.431135 0.165051 4.552794
v 1.393396 0.215778 4.552794
v 1.355866 0.165051 4.734509
v 1.329181 0.215778 4.707824
v 1.794189 0.165051 4.809778
v 1.794189 0.215778 4.772039
v 1.612474 0.165051 4.734509
v 1.639159 0.215778 4.707824
v 1.537205 0.165051 4.552794
v 1.574943 0.215778 4.552794
v 1.612474 0.165051 4.371078
v 1.639159 0.215778 4.397764
v 1.794189 0.165051 4.295809
v 1.794189 0.215778 4.333548
v 1.975904 0.165051 4.371078
v 1.949218 0.215778 4.397764
v 2.051172 0.165051 4.552794
v 2.013433 0.215778 4.552794
v 1.975904 0.165051 4.734509
v 1.949218 0.215778 4.707824
v 2.414226 0.165051 4.809778
v 2.414226 0.215778 4.772039
v 2.232511 0.165051 4.734508
v 2.259196 0.215778 4.707823
v 2.157242 0.165051 4.552794
v 2.194981 0.215778 4.552794
v 2.232511 0.165051 4.371078
v 2.259196 0.215778 4.397763
v 2.414226 0.165051 4.295809
v 2.414226 0.215778 4.333548
v 2.595941 0.165051 4.371078
v 2.569256 0.215778 4.397763
v 2.671210 0.165051 4.552793
v 2.633471 0.215778 4.552793
v 2.595941 0.165051 4.734508
v 2.569256 0.215778 4.707823
v 0.804421 0.181238 4.271958
v -0.804419 0.181238 4.271959
v -0.798468 0.181238 4.854210
v 0.798471 0.181238 4.854209
v -1.744162 0.260949 2.211491
v 1.744164 0.260949 2.211490
v 1.744162 0.260948 -2.211491
v -1.744164 0.260948 -2.211490
v 0.000001 0.260949 2.816521
v -2.816521 0.260948 0.000001
v 2.816521 0.260948 -0.000001
v -0.000001 0.260948 -2.816521
v -1.636242 0.260948 2.090070
v 0.000001 0.260949 2.657664
v 1.636243 0.260948 2.090069
v 2.649724 0.260948 -0.000001
v 1.636242 0.260948 -2.090070
v -0.000001 0.260948 -2.657664
v -1.636243 0.260948 -2.090069
v -2.649724 0.260948 0.000001
v -0.854015 0.260948 1.209989
v 0.000000 0.260948 1.506238
v 0.854016 0.260948 1.209989
v 1.440743 0.260948 -0.000001
v 0.854015 0.260948 -1.209989
v -0.000000 0.260948 -1.506238
v -0.854016 0.260948 -1.209989
v -1.440743 0.260948 0.000001
v -0.747496 0.260948 1.090145
v 0.000000 0.260948 1.349444
v 0.747497 0.260948 1.090145
v 1.276112 0.260948 -0.000001
v 0.747496 0.260948 -1.090145
v -0.000000 0.260948 -1.349444
v -0.747497 0.260948 -1.090145
v -1.276112 0.260948 0.000001
vt 0.003836 -0.409043
vt 0.003836 -0.409043
vt 0.003836 -0.409043
vt 0.003836 -0.409043
vt 0.003836 -0.409043
vt 0.003836 -0.409043
vt 0.003836 -0.409043
vt 0.003836 -0.409043
vt 0.003836 -0.409043
vt 0.003836 -0.409043
vt 0.003836 -0.409043
vt 0.003836 -0.409043
vt 0.003836 -0.409043
vt 0.003836 -0.409043
vt 0.003836 -0.409043
vt 0.003836 -0.409043
vt 0.003836 -0.409043
vt 0.003836 -0.409043
vt 0.003836 -0.409043
vt 0.003836 -0.409043
vt 0.003836 -0.409043
vt 0.003836 -0.409043
vt 0.003836 -0.409043
vt 0.003836 -0.409043
vt 0.005772 -0.409043
vt 0.005772 -0.409043
vt 0.005772 -0.409043
vt 0.005772 -0.409043
vt 0.003836 -0.409043
vt 0.003836 -0.409043
vt 0.003836 -0.409043
vt 0.003836 -0.409043
vt 0.003836 -0.409043
vt 0.003836 -0.409043
vt 0.003836 -0.409043
vt 0.003836 -0.409043
vt 0.003836 -0.409043
vt 0.003836 -0.409043
vt 0.003836 -0.409043
vt 0.003836 -0.409043
vt 0.003836 -0.409043
vt 0.003836 -0.409043
vt 0.003836 -0.409043
vt 0.003836 -0.409043
vt 0.003836 -0.409043
vt 0.003836 -0.409043
vt 0.003836 -0.409043
vt 0.003836 -0.409043
vt 0.003836 -0.409043
vt 0.003836 -0.409043
vt 0.003836 -0.409043
vt 0.003836 -0.409043
vt 0.003836 -0.409043
vt 0.003836 -0.409043
vt 0.003836 -0.409043
vt 0.003836 -0.409043
vt 0.003836 -0.409043
vt 0.003836 -0.409043
vt 0.003836 -0.409043
vt 0.003836 -0.409043
vt 0.003836 -0.409043
vt 0.003836 -0.409043
vt 0.003836 -0.409043
vt 0.003836 -0.409043
vt 0.003836 -0.409043
vt 0.003836 -0.409043
vt 0.003836 -0.409043
vt 0.003836 -0.409043
vt 0.003836 -0.409043
vt 0.003836 -0.409043
vt 0.003836 -0.409043
vt 0.003836 -0.409043
vt 0.003836 -0.409043
vt 0.003836 -0.409043
vt 0.003836 -0.409043
vt 0.003836 -0.409043
vt 0.003836 -0.409043
vt 0.003836 -0.409043
vt 0.003836 -0.409043
vt 0.003836 -0.409043
vt 0.003836 -0.409043
vt 0.003836 -0.409043
vt 0.003836 -0.409043
vt 0.003836 -0.409043
vt 0.003836 -0.409043
vt 0.003836 -0.409043
vt 0.003836 -0.409043
vt 0.003836 -0.409043
vt 0.003836 -0.409043
vt 0.003836 -0.409043
vt 0.003836 -0.409043
vt 0.003836 -0.409043
vt 0.029661 0.169439
vt 0.029661 0.169439
vt 0.029661 0.169439
vt 0.029661 0.169439
vt 0.029661 0.169439
vt 0.029661 0.169439
vt 0.029661 0.169439
vt 0.029661 0.169439
vt 0.029661 0.169439
vt 0.029661 0.169439
vt 0.029661 0.169439
vt 0.029661 0.169439
vt 0.029661 0.169439
vt 0.029661 0.169439
vt 0.003836 -0.409043
vt 0.003836 -0.409043
vt 0.003836 -0.409043
vt 0.003836 -0.409043
vt 0.003836 -0.409043
vt 0.003836 -0.409043
vt 0.003836 -0.409043
vt 0.003836 -0.409043
vt 0.029661 0.169439
vt 0.029661 0.169439
vt 0.029661 0.169439
vt 0.029661 0.169439
vt 0.029661 0.169439
vt 0.029661 0.169439
vt 0.029661 0.169439
vt 0.029661 0.169439
vt 0.029661 0.169439
vt 0.029661 0.169439
vt 0.029661 0.169439
vt 0.029661 0.169439
vt 0.029661 0.169439
vt 0.029661 0.169439
vt 0.029661 0.169439
vt 0.029661 0.169439
vt 0.003836 -0.409043
vt 0.003836 -0.409043
vt 0.003836 -0.409043
vt 0.003836 -0.409043
vt 0.003836 -0.409043
vt 0.003836 -0.409043
vt 0.003836 -0.409043
vt 0.003836 -0.409043
vt 0.029661 0.169439
vt 0.029661 0.169439
vt 0.029661 0.169439
vt 0.029661 0.169439
vt 0.029661 0.169439
vt 0.029661 0.169439
vt 0.029661 0.169439
vt 0.029661 0.169439
vt 0.029661 0.169439
vt 0.029661 0.169439
vt 0.029661 0.169439
vt 0.029661 0.169439
vt 0.029661 0.169439
vt 0.029661 0.169439
vt 0.029661 0.169439
vt 0.029661 0.169439
vt 0.003836 -0.409043
vt 0.003836 -0.409043
vt 0.003836 -0.409043
vt 0.003836 -0.409043
vt 0.003836 -0.409043
vt 0.003836 -0.409043
vt 0.003836 -0.409043
vt 0.003836 -0.409043
vt 0.029661 0.169439
vt 0.029661 0.169439
vt 0.029661 0.169439
vt 0.029661 0.169439
vt 0.029661 0.169439
vt 0.029661 0.169439
vt 0.029661 0.169439
vt 0.029661 0.169439
vt 0.029661 0.169439
vt 0.029661 0.169439
vt 0.029661 0.169439
vt 0.029661 0.169439
vt 0.029661 0.169439
vt 0.029661 0.169439
vt 0.029661 0.169439
vt 0.029661 0.169439
vt 0.003836 -0.409043
vt 0.003836 -0.409043
vt 0.003836 -0.409043
vt 0.003836 -0.409043
vt 0.003836 -0.409043
vt 0.003836 -0.409043
vt 0.003836 -0.409043
vt 0.003836 -0.409043
vt 0.029661 0.169439
vt 0.029661 0.169439
vt 0.029661 0.169439
vt 0.029661 0.169439
vt 0.029661 0.169439
vt 0.029661 0.169439
vt 0.029661 0.169439
vt 0.029661 0.169439
vt 0.029661 0.169439
vt 0.029661 0.169439
vt 0.029661 0.169439
vt 0.029661 0.169439
vt 0.029661 0.169439
vt 0.029661 0.169439
vt 0.029661 0.169439
vt 0.029661 0.169439
vt 0.003836 -0.409043
vt 0.003836 -0.409043
vt 0.003836 -0.409043
vt 0.003836 -0.409043
vt 0.003836 -0.409043
vt 0.003836 -0.409043
vt 0.003836 -0.409043
vt 0.003836 -0.409043
vt 0.029661 0.169439
vt 0.029661 0.169439
vt 0.029661 0.169439
vt 0.029661 0.169439
vt 0.029661 0.169439
vt 0.029661 0.169439
vt 0.029661 0.169439
vt 0.029661 0.169439
vt 0.029661 0.169439
vt 0.029661 0.169439
vt 0.029661 0.169439
vt 0.029661 0.169439
vt 0.029661 0.169439
vt 0.029661 0.169439
vt 0.029661 0.169439
vt 0.029661 0.169439
vt 0.003836 -0.409043
vt 0.003836 -0.409043
vt 0.003836 -0.409043
vt 0.003836 -0.409043
vt 0.003836 -0.409043
vt 0.003836 -0.409043
vt 0.003836 -0.409043
vt 0.003836 -0.409043
vt 0.029661 0.169439
vt 0.029661 0.169439
vt 0.003836 -0.409043
vt 0.003836 -0.409043
vt 0.003836 -0.409043
vt 0.003836 -0.409043
vt 0.003836 -0.409043
vt 0.003836 -0.409043
vt 0.003836 -0.409043
vt 0.003836 -0.409043
vt 0.003836 -0.409043
vt 0.003836 -0.409043
vt 0.003836 -0.409043
vt 0.003836 -0.409043
vt 0.029983 0.334719
vt 0.029983 0.334719
vt 0.029983 0.334719
vt 0.029983 0.334719
vt 0.029983 0.334719
vt 0.029983 0.334719
vt 0.029983 0.334719
vt 0.029983 0.334719
vt 0.029983 0.334719
vt 0.029983 0.334719
vt 0.029983 0.334719
vt 0.029983 0.334719
vt 0.029983 0.334719
vt 0.029983 0.334719
vt 0.029983 0.334719
vt 0.029983 0.334719
vt 0.003836 -0.409043
vt 0.003836 -0.409043
vt 0.003836 -0.409043
vt 0.003836 -0.409043
vt 0.003836 -0.409043
vt 0.003836 -0.409043
vt 0.003836 -0.409043
vt 0.003836 -0.409043
vt 0.003836 -0.409043
vt 0.003836 -0.409043
vt 0.003836 -0.409043
vt 0.003836 -0.409043
vt 0.003836 -0.409043
vt 0.003836 -0.409043
vt 0.003836 -0.409043
vt 0.003836 -0.409043
vt 0.029983 0.334719
vt 0.029983 0.334719
vt 0.029983 0.334719
vt 0.029983 0.334719
vt 0.029983 0.334719
vt 0.029983 0.334719
vt 0.029983 0.334719
vt 0.029983 0.334719
vt 0.029983 0.334719
vt 0.029983 0.334719
vt 0.029983 0.334719
vt 0.029983 0.334719
vt 0.029983 0.334719
vt 0.029983 0.334719
vt 0.029983 0.334719
vt 0.029983 0.334719
vn 1.0000 0.0000 -0.0000
vn 0.0000 0.0000 1.0000
vn -1.0000 0.0000 0.0000
vn -0.0000 0.0000 -1.0000
vn 0.0000 -1.0000 0.0000
vn 0.0000 1.0000 -0.0000
vn -0.9997 0.0000 0.0226
vn 0.0000 -0.9864 0.1645
vn 0.9997 0.0000 0.0226
vn 0.9972 -0.0741 0.0058
vn 0.9947 -0.1025 -0.0000
vn 0.9970 -0.0774 -0.0000
vn 0.9977 -0.0678 0.0041
vn -0.0000 -0.2610 -0.9653
vn 0.9997 -0.0228 0.0058
vn 0.9995 -0.0297 0.0075
vn -0.9947 -0.1025 0.0000
vn -0.9972 -0.0741 0.0058
vn -0.9976 -0.0692 0.0041
vn -0.9968 -0.0798 0.0000
vn -0.0000 -0.9940 0.1093
vn 0.0000 -0.8999 0.4360
vn 0.0000 -0.7986 -0.6019
vn 0.0000 -0.7872 -0.6167
vn 0.0000 -0.9663 -0.2574
vn 0.0000 -0.8165 -0.5773
vn 0.0000 -0.7992 -0.6011
vn 0.0000 -0.7878 -0.6160
vn 0.9986 -0.0523 -0.0000
vn -0.9984 -0.0571 0.0000
vn 0.0000 -0.9665 -0.2567
vn 0.0000 -0.8171 -0.5764
vn 0.0000 -0.9702 0.2423
vn 0.0000 -0.9707 0.2403
vn -0.9997 -0.0228 0.0058
vn -0.9995 -0.0297 0.0075
vn 0.0000 -0.8845 0.4665
vn 0.9893 -0.1457 -0.0000
vn -0.9900 -0.1411 0.0000
vn 0.0000 0.5969 0.8023
vn 0.0000 0.8484 0.5293
vn -0.3743 0.8484 0.3743
vn -0.5673 0.5969 0.5673
vn -0.5293 0.8484 0.0000
vn -0.8023 0.5969 0.0000
vn -0.3743 0.8484 -0.3743
vn -0.5673 0.5969 -0.5673
vn -0.0000 0.8484 -0.5293
vn -0.0000 0.5969 -0.8023
vn 0.3743 0.8484 -0.3743
vn 0.5673 0.5969 -0.5673
vn 0.5293 0.8484 0.0000
vn 0.8023 0.5969 -0.0000
vn 0.3743 0.8484 0.3743
vn 0.5673 0.5969 0.5673
usemtl Solid.088
s 1
f 1/1/1 2/2/1 4/3/1 3/4/1
f 3/4/2 4/3/2 8/5/2 7/6/2
f 7/6/3 8/5/3 6/7/3 5/8/3
f 5/8/4 6/7/4 2/2/4 1/1/4
f 3/4/5 7/6/5 5/8/5 1/1/5
f 205/9/6 206/10/6 207/11/6 208/12/6 209/13/6 210/14/6 211/15/6 212/16/6
f 9/17/4 11/18/4 12/19/4 10/20/4
f 14/21/2 13/22/2 16/23/2 15/24/2
f 12/19/7 11/18/7 15/24/7 16/23/7
f 11/18/8 9/17/8 14/21/8 15/24/8
f 177/25/6 178/26/6 179/27/6 180/28/6
f 9/17/9 10/20/9 13/22/9 14/21/9
f 56/29/6 50/30/6 19/31/6 31/32/6
f 22/33/1 30/34/1 33/35/1 34/36/1
f 31/32/3 19/31/3 24/37/3 32/38/3
f 25/39/10 18/40/11 21/41/12 27/42/13
f 74/43/4 17/44/4 22/33/4 75/45/14
f 49/46/2 20/47/2 23/48/2 51/49/2
f 43/50/15 25/39/10 27/42/13 44/51/16
f 20/47/17 26/52/18 28/53/19 23/48/20
f 55/54/21 32/38/22 40/55/22 60/56/22
f 49/46/6 54/57/6 26/52/6 20/47/6
f 17/44/1 29/58/1 30/34/1 22/33/1
f 47/59/3 31/32/3 32/38/3 48/60/3
f 64/61/5 48/60/5 32/38/22 55/54/21
f 63/62/6 56/29/6 31/32/6 47/59/6
f 60/56/22 40/55/22 38/63/5 58/64/5
f 57/65/5 35/66/5 37/67/23 59/68/24
f 67/69/25 27/42/26 39/70/27 70/71/28
f 75/45/14 22/33/4 34/36/4 78/72/4
f 51/49/2 23/48/2 35/66/2 57/65/2
f 27/42/13 21/41/12 36/73/29 39/70/29
f 32/38/3 24/37/3 38/63/3 40/55/3
f 23/48/20 28/53/19 37/67/30 35/66/30
f 54/57/6 61/74/6 41/75/6 26/52/6
f 53/76/31 28/53/32 42/77/33 62/78/34
f 26/52/18 41/75/35 42/77/36 28/53/19
f 45/79/1 43/50/15 44/51/16 46/80/1
f 29/58/1 45/79/1 46/80/1 30/34/1
f 61/74/5 63/62/5 47/59/5 41/75/5
f 62/78/34 42/77/33 48/60/37 64/61/37
f 41/75/35 47/59/3 48/60/3 42/77/36
f 72/81/34 62/78/34 64/61/37 73/82/37
f 79/83/5 80/84/5 63/62/5 61/74/5
f 67/69/25 53/76/31 62/78/34 72/81/34
f 76/85/6 79/83/6 61/74/6 54/57/6
f 66/86/5 51/49/5 53/76/31 67/69/25
f 24/37/4 52/87/14 58/64/4 38/63/4
f 28/53/32 53/76/31 59/68/24 37/67/23
f 57/65/38 59/68/38 53/76/38 51/49/38
f 75/45/14 68/88/21 55/54/21 52/87/14
f 80/84/6 77/89/6 56/29/6 63/62/6
f 73/82/5 64/61/5 55/54/21 68/88/21
f 65/90/6 76/85/6 54/57/6 49/46/6
f 52/87/1 55/54/1 60/56/1 58/64/1
f 65/90/2 49/46/2 51/49/2 66/86/2
f 19/31/4 50/30/4 52/87/14 24/37/4
f 77/89/6 74/43/6 50/30/6 56/29/6
f 29/58/6 17/44/6 74/43/6 77/89/6
f 18/40/2 65/90/2 66/86/2 21/41/2
f 30/34/22 68/88/21 71/91/22 33/35/22
f 18/40/6 25/39/6 76/85/6 65/90/6
f 46/80/5 73/82/5 68/88/21 30/34/22
f 45/79/6 29/58/6 77/89/6 80/84/6
f 33/35/22 71/91/22 78/72/5 34/36/5
f 36/73/5 69/92/5 70/71/28 39/70/27
f 21/41/2 66/86/2 69/92/2 36/73/2
f 25/39/6 43/50/6 79/83/6 76/85/6
f 27/42/26 67/69/25 72/81/34 44/51/33
f 43/50/5 45/79/5 80/84/5 79/83/5
f 44/51/33 72/81/34 73/82/37 46/80/37
f 75/45/3 78/72/3 71/91/3 68/88/3
f 67/69/39 70/71/39 69/92/39 66/86/39
f 50/30/4 74/43/4 75/45/14 52/87/14
f 81/93/40 82/94/41 84/95/42 83/96/43
f 83/96/43 84/95/42 86/97/44 85/98/45
f 85/98/45 86/97/44 88/99/46 87/100/47
f 87/100/47 88/99/46 90/101/48 89/102/49
f 89/102/49 90/101/48 92/103/50 91/104/51
f 91/104/51 92/103/50 94/105/52 93/106/53
f 84/107/42 82/108/41 96/109/54 94/110/52 92/111/50 90/112/48 88/113/46 86/114/44
f 93/106/53 94/105/52 96/115/54 95/116/55
f 95/116/55 96/115/54 82/94/41 81/93/40
f 97/117/40 98/118/41 100/119/42 99/120/43
f 99/120/43 100/119/42 102/121/44 101/122/45
f 101/122/45 102/121/44 104/123/46 103/124/47
f 103/124/47 104/123/46 106/125/48 105/126/49
f 105/126/49 106/125/48 108/127/50 107/128/51
f 107/128/51 108/127/50 110/129/52 109/130/53
f 100/131/42 98/132/41 112/133/54 110/134/52 108/135/50 106/136/48 104/137/46 102/138/44
f 109/130/53 110/129/52 112/139/54 111/140/55
f 111/140/55 112/139/54 98/118/41 97/117/40
f 113/141/40 114/142/41 116/143/42 115/144/43
f 115/144/43 116/143/42 118/145/44 117/146/45
f 117/146/45 118/145/44 120/147/46 119/148/47
f 119/148/47 120/147/46 122/149/48 121/150/49
f 121/150/49 122/149/48 124/151/50 123/152/51
f 123/152/51 124/151/50 126/153/52 125/154/53
f 116/155/42 114/156/41 128/157/54 126/158/52 124/159/50 122/160/48 120/161/46 118/162/44
f 125/154/53 126/153/52 128/163/54 127/164/55
f 127/164/55 128/163/54 114/142/41 113/141/40
f 129/165/40 130/166/41 132/167/42 131/168/43
f 131/168/43 132/167/42 134/169/44 133/170/45
f 133/170/45 134/169/44 136/171/46 135/172/47
f 135/172/47 136/171/46 138/173/48 137/174/49
f 137/174/49 138/173/48 140/175/50 139/176/51
f 139/176/51 140/175/50 142/177/52 141/178/53
f 132/179/42 130/180/41 144/181/54 142/182/52 140/183/50 138/184/48 136/185/46 134/186/44
f 141/178/53 142/177/52 144/187/54 143/188/55
f 143/188/55 144/187/54 130/166/41 129/165/40
f 145/189/40 146/190/41 148/191/42 147/192/43
f 147/192/43 148/191/42 150/193/44 149/194/45
f 149/194/45 150/193/44 152/195/46 151/196/47
f 151/196/47 152/195/46 154/197/48 153/198/49
f 153/198/49 154/197/48 156/199/50 155/200/51
f 155/200/51 156/199/50 158/201/52 157/202/53
f 148/203/42 146/204/41 160/205/54 158/206/52 156/207/50 154/208/48 152/209/46 150/210/44
f 157/202/53 158/201/52 160/211/54 159/212/55
f 159/212/55 160/211/54 146/190/41 145/189/40
f 161/213/40 162/214/41 164/215/42 163/216/43
f 163/216/43 164/215/42 166/217/44 165/218/45
f 165/218/45 166/217/44 168/219/46 167/220/47
f 167/220/47 168/219/46 170/221/48 169/222/49
f 169/222/49 170/221/48 172/223/50 171/224/51
f 171/224/51 172/223/50 174/225/52 173/226/53
f 164/227/42 162/228/41 176/229/54 174/230/52 172/231/50 170/232/48 168/233/46 166/234/44
f 173/226/53 174/225/52 176/235/54 175/236/55
f 175/236/55 176/235/54 162/214/41 161/213/40
f 10/20/6 12/19/6 178/237/6 177/238/6
f 12/19/6 16/23/6 179/239/6 178/237/6
f 16/23/6 13/22/6 180/240/6 179/239/6
f 13/22/6 10/20/6 177/238/6 180/240/6
f 8/5/6 4/3/6 182/241/6 185/242/6 181/243/6
f 4/3/6 2/2/6 183/244/6 187/245/6 182/241/6
f 2/2/6 6/7/6 184/246/6 188/247/6 183/244/6
f 6/7/6 8/5/6 181/243/6 186/248/6 184/246/6
f 181/249/6 185/250/6 190/251/6 189/252/6
f 185/250/6 182/253/6 191/254/6 190/251/6
f 182/253/6 187/255/6 192/256/6 191/254/6
f 187/255/6 183/257/6 193/258/6 192/256/6
f 183/257/6 188/259/6 194/260/6 193/258/6
f 188/259/6 184/261/6 195/262/6 194/260/6
f 184/261/6 186/263/6 196/264/6 195/262/6
f 186/263/6 181/249/6 189/252/6 196/264/6
f 196/265/6 189/266/6 190/267/6 191/268/6 192/269/6 193/270/6 194/271/6 195/272/6 203/273/6 202/274/6 201/275/6 200/276/6 199/277/6 198/278/6 197/279/6 204/280/6
f 195/272/6 196/265/6 204/280/6 203/273/6
f 197/281/6 198/282/6 206/283/6 205/284/6
f 198/282/6 199/285/6 207/286/6 206/283/6
f 199/285/6 200/287/6 208/288/6 207/286/6
f 200/287/6 201/289/6 209/290/6 208/288/6
f 201/289/6 202/291/6 210/292/6 209/290/6
f 202/291/6 203/293/6 211/294/6 210/292/6
f 203/293/6 204/295/6 212/296/6 211/294/6
f 204/295/6 197/281/6 205/284/6 212/296/6
