# Blender v2.93.1 OBJ File: ''
# www.blender.org
mtllib funnel_small.mtl
o funnel_small_Cylinder.008
v 0.000000 -0.875291 -0.189846
v 0.000000 0.730532 -0.189846
v 0.134241 -0.835842 -0.134241
v 0.134241 0.730532 -0.134241
v 0.189846 -0.740604 0.000000
v 0.189846 0.730532 -0.000000
v 0.134241 -0.645366 0.134241
v 0.134241 0.730532 0.134241
v -0.000000 -0.605917 0.189846
v -0.000000 0.730532 0.189846
v -0.134241 -0.645366 0.134241
v -0.134241 0.730532 0.134241
v -0.189846 -0.740604 0.000000
v -0.189846 0.730532 -0.000000
v -0.134241 -0.835842 -0.134241
v -0.134241 0.730532 -0.134241
v 0.705546 1.516204 -0.705546
v 0.000000 1.516204 -0.997793
v 0.997793 1.516204 -0.000000
v 0.705546 1.516204 0.705546
v -0.000000 1.516204 0.997792
v -0.705546 1.516204 0.705546
v -0.997793 1.516204 -0.000000
v -0.705546 1.516204 -0.705546
v 0.265078 1.516204 0.869026
v -0.237591 1.516204 0.880412
v -0.000000 1.516204 1.497792
v 0.265078 1.516204 1.302478
v 0.186072 1.516204 1.420719
v -0.237591 1.516204 1.313863
v -0.158585 1.516204 1.432104
v 0.000000 -0.875290 -0.147346
v 0.000000 0.748718 -0.151434
v 0.108112 -0.835842 -0.100723
v 0.107080 0.748718 -0.107080
v 0.147835 -0.740604 0.006427
v 0.151434 0.748718 -0.000000
v 0.101315 -0.645366 0.107372
v 0.107080 0.748718 0.107080
v -0.000000 -0.605917 0.147347
v -0.000000 0.748718 0.151434
v -0.101315 -0.645366 0.107372
v -0.107080 0.748718 0.107080
v -0.147835 -0.740604 0.006427
v -0.151434 0.748718 -0.000000
v -0.108112 -0.835842 -0.100723
v -0.107080 0.748718 -0.107080
v 0.684596 1.546672 -0.684596
v 0.000000 1.546672 -0.968165
v 0.968164 1.546673 -0.000000
v 0.684596 1.546673 0.684596
v -0.000000 1.546673 0.968164
v -0.684596 1.546673 0.684596
v -0.968164 1.546673 -0.000000
v -0.684596 1.546672 -0.684596
v 0.265078 1.473704 0.869026
v -0.237591 1.473704 0.880412
v -0.000000 1.473704 1.497792
v 0.265078 1.473704 1.302478
v 0.186072 1.473705 1.420719
v -0.237591 1.473704 1.313863
v -0.158585 1.473704 1.432104
v -0.581798 1.404636 0.581798
v -0.822786 1.404636 -0.000000
v 0.581798 1.404636 0.581798
v -0.000000 1.404636 0.822785
v -0.581798 1.404636 -0.581798
v 0.581798 1.404636 -0.581798
v 0.822786 1.404636 -0.000000
v 0.000000 1.404636 -0.822786
v -0.487110 1.076677 -0.000000
v -0.000000 1.076677 0.487110
v -0.344439 1.076677 -0.344439
v 0.487110 1.076677 -0.000000
v 0.000000 1.076677 -0.487110
v -0.344439 1.076677 0.344439
v 0.344439 1.076677 0.344439
v 0.344439 1.076677 -0.344439
v -0.224439 0.820045 -0.000000
v -0.000000 0.820045 0.224439
v -0.158702 0.820045 -0.158703
v 0.224439 0.820045 -0.000000
v 0.000000 0.820045 -0.224439
v -0.158702 0.820045 0.158702
v 0.158702 0.820045 0.158702
v 0.158702 0.820045 -0.158703
v -0.419894 1.123368 0.419893
v -0.593819 1.123368 -0.000000
v 0.419894 1.123368 0.419893
v -0.000000 1.123368 0.593819
v -0.419894 1.123368 -0.419894
v 0.419894 1.123368 -0.419894
v 0.593819 1.123368 -0.000000
v 0.000000 1.123368 -0.593819
v -0.562720 1.319786 0.562719
v 0.562720 1.319786 0.562719
v 0.562720 1.319786 -0.562720
v -0.795806 1.319786 -0.000000
v -0.000000 1.319786 0.795806
v -0.562720 1.319786 -0.562720
v 0.795806 1.319786 -0.000000
v 0.000000 1.319786 -0.795806
v -0.391832 0.926950 -0.000000
v -0.000000 0.926950 0.391832
v -0.277067 0.926950 -0.277068
v 0.391832 0.926950 -0.000000
v 0.000000 0.926950 -0.391833
v -0.277067 0.926950 0.277067
v 0.277067 0.926950 0.277067
v 0.277067 0.926950 -0.277068
v -0.152973 1.516204 1.195408
v -0.152973 1.473704 1.195408
v -0.102335 1.516204 1.317657
v -0.102335 1.473704 1.317657
v 0.192802 1.516204 1.195408
v 0.192802 1.473704 1.195408
v -0.102335 1.516204 1.073158
v -0.102335 1.473704 1.073158
v 0.019915 1.516204 1.022520
v 0.019915 1.473704 1.022520
v 0.019915 1.516204 1.368295
v 0.019915 1.473705 1.368295
v 0.142164 1.516204 1.317657
v 0.142164 1.473704 1.317657
v 0.142164 1.516204 1.073158
v 0.142164 1.473704 1.073158
vt 0.270384 -0.496302
vt 0.270384 -0.496302
vt 0.270384 -0.496302
vt 0.270384 -0.496302
vt 0.270384 -0.496302
vt 0.270384 -0.496302
vt 0.270384 -0.496302
vt 0.270384 -0.496302
vt 0.270384 -0.496302
vt 0.270384 -0.496302
vt 0.270384 -0.496302
vt 0.270384 -0.496302
vt 0.270384 -0.496302
vt 0.270384 -0.496302
vt 0.270384 -0.496302
vt 0.270384 -0.496302
vt 0.270384 -0.496302
vt 0.270384 -0.496302
vt 0.270384 -0.496302
vt 0.270384 -0.496302
vt 0.270384 -0.496302
vt 0.270384 -0.496302
vt 0.270384 -0.496302
vt 0.270384 -0.496302
vt 0.270384 -0.496302
vt 0.270384 -0.496302
vt 0.270384 -0.496302
vt 0.270384 -0.496302
vt 0.270384 -0.496302
vt 0.270384 -0.496302
vt 0.270384 -0.496302
vt 0.270384 -0.496302
vt 0.270384 -0.496302
vt 0.270384 -0.496302
vt 0.270384 -0.496302
vt 0.270384 -0.496302
vt 0.270384 -0.496302
vt 0.270384 -0.496302
vt 0.270384 -0.496302
vt 0.270384 -0.496302
vt 0.270384 -0.496302
vt 0.270384 -0.496302
vt 0.270384 -0.496302
vt 0.270384 -0.496302
vt 0.270384 -0.496302
vt 0.270384 -0.496302
vt 0.270384 -0.496302
vt 0.270384 -0.496302
vt 0.270384 -0.496302
vt 0.270384 -0.496302
vt 0.270384 -0.496302
vt 0.270384 -0.496302
vt 0.270384 -0.496302
vt 0.270384 -0.496302
vt 0.270384 -0.496302
vt 0.270384 -0.496302
vt 0.270384 -0.496302
vt 0.270384 -0.496302
vt 0.270384 -0.496302
vt 0.270384 -0.496302
vt 0.270384 -0.496302
vt 0.270384 -0.496302
vt 0.270384 -0.496302
vt 0.270384 -0.496302
vt 0.270384 -0.496302
vt 0.270384 -0.496302
vt 0.270384 -0.496302
vt 0.270384 -0.496302
vt 0.270384 -0.496302
vt 0.270384 -0.496302
vt 0.270384 -0.496302
vt 0.270384 -0.496302
vt 0.270384 -0.496302
vt 0.270384 -0.496302
vt 0.270384 -0.496302
vt 0.270384 -0.496302
vt 0.270384 -0.496302
vt 0.270384 -0.496302
vt 0.270384 -0.496302
vt 0.270384 -0.496302
vt 0.270384 -0.496302
vt 0.270384 -0.496302
vt 0.270384 -0.496302
vt 0.270384 -0.496302
vt 0.270384 -0.496302
vt 0.270384 -0.496302
vt 0.270384 -0.496302
vt 0.270384 -0.496302
vt 0.270384 -0.496302
vt 0.270384 -0.496302
vt 0.270384 -0.496302
vt 0.270384 -0.496302
vt 0.270384 -0.496302
vt 0.270384 -0.496302
vt 0.270384 -0.496302
vt 0.270384 -0.496302
vt 0.270384 -0.496302
vt 0.270384 -0.496302
vt 0.270384 -0.496302
vt 0.270384 -0.496302
vt 0.270384 -0.496302
vt 0.270384 -0.496302
vt 0.270384 -0.496302
vt 0.270384 -0.496302
vt 0.270384 -0.496302
vt 0.270384 -0.496302
vt 0.270384 -0.496302
vt 0.270384 -0.496302
vt 0.270384 -0.496302
vt 0.270384 -0.496302
vt 0.270384 -0.496302
vt 0.270384 -0.496302
vt 0.270384 -0.496302
vt 0.270384 -0.496302
vt 0.270384 -0.496302
vt 0.270384 -0.496302
vt 0.270384 -0.496302
vt 0.270384 -0.496302
vt 0.270384 -0.496302
vt 0.270384 -0.496302
vt 0.270384 -0.496302
vt 0.270384 -0.496302
vt 0.270384 -0.496302
vt 0.270384 -0.496302
vt 0.270384 -0.496302
vt 0.270384 -0.496302
vn 0.0000 -0.0000 -1.0000
vn 0.7071 -0.0000 -0.7071
vn 0.6148 -0.0000 -0.7887
vn 1.0000 -0.0000 -0.0000
vn 0.9885 -0.0000 -0.1512
vn 0.7071 0.0000 0.7071
vn 0.7748 0.0000 0.6322
vn -0.0000 0.0000 1.0000
vn -0.7071 0.0000 0.7071
vn -0.7748 0.0000 0.6322
vn -1.0000 0.0000 0.0000
vn -0.9885 -0.0000 -0.1512
vn -0.6972 -0.7169 0.0000
vn -0.4930 -0.7169 0.4930
vn -0.7071 -0.0000 -0.7071
vn -0.6148 -0.0000 -0.7887
vn 0.0000 -1.0000 0.0000
vn -0.0000 -0.7169 0.6972
vn 0.4930 -0.7169 0.4930
vn -0.4930 -0.7169 -0.4930
vn 0.6972 -0.7169 0.0000
vn 0.4930 -0.7169 -0.4930
vn 0.0000 -0.7169 -0.6972
vn -0.0000 0.0031 1.0000
vn -0.6024 0.0029 0.7982
vn -0.7162 0.0028 0.6979
vn -0.9868 0.0024 0.1621
vn -0.9998 0.0023 -0.0188
vn -0.7787 0.0022 -0.6274
vn -0.6975 0.0022 -0.7166
vn 0.0000 0.0022 -1.0000
vn 0.7787 0.0022 -0.6274
vn 0.6975 0.0022 -0.7166
vn 0.9868 0.0024 0.1621
vn 0.9998 0.0023 -0.0188
vn 0.6988 0.7153 -0.0000
vn 0.4942 0.7153 -0.4942
vn 0.6024 0.0029 0.7982
vn 0.7162 0.0028 0.6979
vn 0.0000 0.7153 -0.6988
vn -0.4942 0.7153 -0.4942
vn 0.4942 0.7153 0.4942
vn -0.6988 0.7153 -0.0000
vn -0.4942 0.7153 0.4942
vn 0.0000 0.7153 0.6988
vn 0.0000 -0.9953 0.0973
vn 0.2934 -0.9086 0.2974
vn 0.2951 -0.8996 0.3218
vn 0.0972 -0.8237 0.5586
vn 0.0563 -0.8235 0.5645
vn -0.2143 -0.8970 0.3865
vn -0.2240 -0.9108 0.3468
vn 0.0000 -0.9912 0.1321
vn 0.2143 -0.8970 0.3865
vn 0.2240 -0.9108 0.3468
vn -0.0972 -0.8237 0.5586
vn -0.0563 -0.8235 0.5645
vn -0.2934 -0.9086 0.2974
vn -0.2951 -0.8996 0.3218
vn 0.5069 0.6971 -0.5069
vn -0.0000 0.6971 -0.7169
vn 0.7169 0.6971 -0.0000
vn 0.5069 0.6971 0.5069
vn 0.0000 0.6971 0.7169
vn -0.5069 0.6971 0.5069
vn -0.7169 0.6971 -0.0000
vn -0.5069 0.6971 -0.5069
vn 0.9569 0.0000 0.2903
vn 0.6344 0.0000 0.7730
vn -0.9569 0.0000 0.2903
vn -0.6344 0.0000 0.7730
vn -0.0000 1.0000 -0.0000
usemtl Solid.123
s 1
f 1/1/1 2/2/1 4/3/2 3/4/3
f 3/4/3 4/3/2 6/5/4 5/6/5
f 5/6/5 6/5/4 8/7/6 7/8/7
f 7/8/7 8/7/6 10/9/8 9/10/8
f 9/10/8 10/9/8 12/11/9 11/12/10
f 11/12/10 12/11/9 14/13/11 13/14/12
f 98/15/13 95/16/14 22/17/14 23/18/13
f 13/14/12 14/13/11 16/19/15 15/20/16
f 15/20/16 16/19/15 2/2/1 1/1/1
f 56/21/17 59/22/17 116/23/17 126/24/17 120/25/17 118/26/17 112/27/17 61/28/17 57/29/17
f 99/30/18 96/31/19 20/32/19 21/33/18
f 100/34/20 98/15/13 23/18/13 24/35/20
f 101/36/21 97/37/22 17/38/22 19/39/21
f 95/16/14 99/30/18 21/33/18 22/17/14
f 102/40/23 100/34/20 24/35/20 18/41/23
f 97/37/22 102/40/23 18/41/23 17/38/22
f 96/31/19 101/36/21 19/39/21 20/32/19
f 32/42/24 34/43/25 35/44/26 33/45/24
f 34/43/25 36/46/27 37/47/28 35/44/26
f 36/46/27 38/48/29 39/49/30 37/47/28
f 38/48/29 40/50/31 41/51/31 39/49/30
f 40/50/31 42/52/32 43/53/33 41/51/31
f 42/52/32 44/54/34 45/55/35 43/53/33
f 64/56/36 54/57/36 53/58/37 63/59/37
f 44/54/34 46/60/38 47/61/39 45/55/35
f 46/60/38 32/42/24 33/45/24 47/61/39
f 66/62/40 52/63/40 51/64/41 65/65/41
f 67/66/42 55/67/42 54/57/36 64/56/36
f 69/68/43 50/69/43 48/70/44 68/71/44
f 63/59/37 53/58/37 52/63/40 66/62/40
f 70/72/45 49/73/45 55/67/42 67/66/42
f 68/71/44 48/70/44 49/73/45 70/72/45
f 65/65/41 51/64/41 50/69/43 69/68/43
f 1/1/46 3/4/47 34/43/48 32/42/46
f 3/4/47 5/6/49 36/46/50 34/43/48
f 5/6/49 7/8/51 38/48/52 36/46/50
f 7/8/51 9/10/53 40/50/53 38/48/52
f 9/10/53 11/12/54 42/52/55 40/50/53
f 11/12/54 13/14/56 44/54/57 42/52/55
f 13/14/56 15/20/58 46/60/59 44/54/57
f 15/20/58 1/1/46 32/42/46 46/60/59
f 17/38/60 18/41/61 49/73/61 48/70/60
f 19/39/62 17/38/60 48/70/60 50/69/62
f 20/32/63 19/39/62 50/69/62 51/64/63
f 21/33/64 20/32/63 51/64/63 52/63/64
f 22/17/65 21/33/64 52/63/64 53/58/65
f 23/18/66 22/17/65 53/58/65 54/57/66
f 24/35/67 23/18/66 54/57/66 55/67/67
f 18/41/61 24/35/67 55/67/67 49/73/61
f 25/74/4 28/75/68 59/22/68 56/21/4
f 29/76/69 27/77/8 58/78/8 60/79/69
f 28/75/68 29/76/69 60/79/69 59/22/68
f 30/80/70 26/81/11 57/29/11 61/28/70
f 31/82/71 30/80/70 61/28/70 62/83/71
f 27/77/8 31/82/71 62/83/71 58/78/8
f 25/74/72 26/81/72 30/80/72 111/84/72 117/85/72 119/86/72 125/87/72 115/88/72 28/75/72
f 77/89/41 65/65/41 69/68/43 74/90/43
f 78/91/44 68/71/44 70/72/45 75/92/45
f 75/92/45 70/72/45 67/66/42 73/93/42
f 76/94/37 63/59/37 66/62/40 72/95/40
f 74/90/43 69/68/43 68/71/44 78/91/44
f 73/93/42 67/66/42 64/56/36 71/96/36
f 72/95/40 66/62/40 65/65/41 77/89/41
f 71/96/36 64/56/36 63/59/37 76/94/37
f 79/97/36 71/96/36 76/94/37 84/98/37
f 80/99/40 72/95/40 77/89/41 85/100/41
f 81/101/42 73/93/42 71/96/36 79/97/36
f 82/102/43 74/90/43 78/91/44 86/103/44
f 84/98/37 76/94/37 72/95/40 80/99/40
f 83/104/45 75/92/45 73/93/42 81/101/42
f 86/103/44 78/91/44 75/92/45 83/104/45
f 85/100/41 77/89/41 74/90/43 82/102/43
f 39/49/41 85/100/41 82/102/43 37/47/43
f 35/44/44 86/103/44 83/104/45 33/45/45
f 33/45/45 83/104/45 81/101/42 47/61/42
f 43/53/37 84/98/37 80/99/40 41/51/40
f 37/47/43 82/102/43 86/103/44 35/44/44
f 47/61/42 81/101/42 79/97/36 45/55/36
f 41/51/40 80/99/40 85/100/41 39/49/41
f 45/55/36 79/97/36 84/98/37 43/53/37
f 109/105/19 106/106/21 93/107/21 89/108/19
f 110/109/22 107/110/23 94/111/23 92/112/22
f 107/110/23 105/113/20 91/114/20 94/111/23
f 108/115/14 104/116/18 90/117/18 87/118/14
f 106/106/21 110/109/22 92/112/22 93/107/21
f 105/113/20 103/119/13 88/120/13 91/114/20
f 104/116/18 109/105/19 89/108/19 90/117/18
f 103/119/13 108/115/14 87/118/14 88/120/13
f 89/108/19 93/107/21 101/36/21 96/31/19
f 92/112/22 94/111/23 102/40/23 97/37/22
f 94/111/23 91/114/20 100/34/20 102/40/23
f 87/118/14 90/117/18 99/30/18 95/16/14
f 93/107/21 92/112/22 97/37/22 101/36/21
f 91/114/20 88/120/13 98/15/13 100/34/20
f 90/117/18 89/108/19 96/31/19 99/30/18
f 88/120/13 87/118/14 95/16/14 98/15/13
f 14/13/13 12/11/14 108/115/14 103/119/13
f 10/9/18 8/7/19 109/105/19 104/116/18
f 16/19/20 14/13/13 103/119/13 105/113/20
f 6/5/21 4/3/22 110/109/22 106/106/21
f 12/11/14 10/9/18 104/116/18 108/115/14
f 2/2/23 16/19/20 105/113/20 107/110/23
f 4/3/22 2/2/23 107/110/23 110/109/22
f 8/7/19 6/5/21 106/106/21 109/105/19
f 118/26/6 117/85/6 111/84/4 112/27/4
f 116/23/11 115/88/11 125/87/9 126/24/9
f 112/27/4 111/84/4 113/121/2 114/122/2
f 124/123/15 123/124/15 115/88/11 116/23/11
f 28/75/72 115/88/72 123/124/72 121/125/72 113/121/72 111/84/72 30/80/72 31/82/72 27/77/72 29/76/72
f 122/126/1 121/125/1 123/124/15 124/123/15
f 120/25/8 119/86/8 117/85/6 118/26/6
f 126/24/9 125/87/9 119/86/8 120/25/8
f 114/122/2 113/121/2 121/125/1 122/126/1
f 61/28/17 112/27/17 114/122/17 122/126/17 124/123/17 116/23/17 59/22/17 60/79/17 58/78/17 62/83/17
