# Blender v2.93.1 OBJ File: ''
# www.blender.org
mtllib mspoon_measuring_spoons_large.mtl
o mspoon_measuring_spoons_large_Cylinder.039
v -0.230166 0.214377 -0.490021
v -0.269914 0.118417 -0.462477
v -0.286378 0.078669 -0.395981
v -0.000000 0.002256 0.318173
v -0.286378 0.078669 0.261642
v 0.000000 1.580048 0.045449
v 0.572757 1.342804 0.045449
v 0.810000 0.770048 0.045449
v 0.572757 0.197291 0.045449
v -0.000000 -0.039952 0.261642
v -0.572756 0.197291 0.045449
v -0.810000 0.770048 0.045449
v -0.572757 1.342804 0.045449
v -0.000000 -1.937838 0.318173
v -0.000000 -1.937838 0.256726
v 0.000000 1.421056 -0.490021
v 0.000000 1.580048 -0.395982
v 0.000000 1.533480 -0.462477
v 0.460332 1.230380 -0.490021
v 0.572757 1.342804 -0.395982
v 0.539828 1.309876 -0.462477
v 0.651008 0.770048 -0.490021
v 0.810000 0.770048 -0.395981
v 0.763433 0.770048 -0.462477
v 0.460332 0.309715 -0.490021
v 0.572757 0.197291 -0.395981
v 0.539828 0.230219 -0.462477
v -0.000000 0.119039 -0.490021
v -0.000000 -0.039952 -0.395981
v -0.000000 0.006615 -0.462477
v -0.460332 0.309715 -0.490021
v -0.572756 0.197291 -0.395981
v -0.539828 0.230219 -0.462477
v -0.651008 0.770048 -0.490021
v -0.810000 0.770048 -0.395981
v -0.763433 0.770048 -0.462477
v -0.460332 1.230380 -0.490021
v -0.572757 1.342804 -0.395982
v -0.539828 1.309876 -0.462477
v 0.286378 0.078669 0.261642
v 0.286378 0.078669 -0.395981
v 0.269914 0.118417 -0.462477
v 0.230166 0.214377 -0.490021
v -0.159095 -1.871939 0.256726
v -0.286378 -1.681446 0.256726
v -0.249098 -1.794307 0.256726
v -0.286378 -1.681446 0.318173
v -0.159095 -1.871939 0.318173
v -0.249098 -1.794307 0.318173
v 0.159095 -1.871939 0.318173
v 0.286378 -1.681446 0.318173
v 0.249098 -1.794307 0.318173
v 0.286378 -1.681446 0.256726
v 0.159095 -1.871939 0.256726
v 0.249098 -1.794307 0.256726
v 0.286378 0.038421 0.263277
v 0.273007 0.046959 0.318173
v 0.286378 -0.016475 0.318173
v 0.000000 1.521824 0.318173
v 0.000000 1.580048 0.263277
v 0.529803 1.299866 0.318173
v 0.572757 1.342804 0.263277
v 0.743237 0.770131 0.318173
v 0.810000 0.770048 0.263277
v 0.521394 0.248803 0.318173
v 0.572757 0.197291 0.263277
v -0.572756 0.197291 0.263277
v -0.521394 0.248803 0.318173
v -0.743237 0.770131 0.318173
v -0.810000 0.770048 0.263277
v -0.273007 0.046959 0.318173
v -0.286378 0.038421 0.263277
v -0.286378 -0.016475 0.318173
v -0.529803 1.299866 0.318173
v -0.572757 1.342804 0.263277
v 0.000000 1.500151 0.318173
v 0.514355 1.284664 0.318173
v 0.721565 0.770376 0.318173
v 0.506191 0.264249 0.318173
v 0.265046 0.107366 0.318173
v -0.506191 0.264249 0.318173
v -0.721565 0.770376 0.318173
v -0.514355 1.284664 0.318173
v -0.265046 0.107366 0.318173
v -0.000000 0.056927 0.318173
v 0.000000 1.500151 -0.312023
v 0.000000 1.442905 -0.364823
v 0.473619 1.244484 -0.364823
v 0.514355 1.284664 -0.312023
v 0.664419 0.770928 -0.364822
v 0.721565 0.770376 -0.312023
v 0.463909 0.299731 -0.364822
v 0.506191 0.264249 -0.312023
v 0.244965 0.157291 -0.364822
v 0.265046 0.107365 -0.312023
v -0.506191 0.264249 -0.312023
v -0.463908 0.299731 -0.364822
v -0.664419 0.770928 -0.364822
v -0.721565 0.770376 -0.312023
v -0.473619 1.244484 -0.364823
v -0.514355 1.284664 -0.312023
v -0.265046 0.107365 -0.312023
v -0.244965 0.157291 -0.364822
v -0.000000 0.056927 -0.312023
v -0.000000 0.110675 -0.364822
v 0.000000 -1.458062 0.318173
v 0.000000 -1.759378 0.318173
v -0.000000 -1.759378 0.318173
v -0.000000 -1.458062 0.318173
v 0.150658 -1.608720 0.318173
v 0.106532 -1.502188 0.318173
v 0.106532 -1.715252 0.318173
v -0.150658 -1.608720 0.318173
v -0.106531 -1.715252 0.318173
v -0.106532 -1.502189 0.318173
v -0.000000 -1.759378 0.257188
v 0.000000 -1.759378 0.257188
v -0.000000 -1.458062 0.257968
v 0.000000 -1.458062 0.257968
v 0.150658 -1.608720 0.257369
v 0.106532 -1.502188 0.257719
v 0.106532 -1.715252 0.257154
v -0.106531 -1.715252 0.257188
v -0.106532 -1.502189 0.257740
v -0.150658 -1.608720 0.257381
vt 0.013797 0.543475
vt 0.013797 0.543475
vt 0.013797 0.543475
vt 0.013797 0.543475
vt 0.013797 0.543475
vt 0.013797 0.543475
vt 0.013797 0.543475
vt 0.013797 0.543475
vt 0.013797 0.543475
vt 0.013797 0.543475
vt 0.013797 0.543475
vt 0.013797 0.543475
vt 0.013797 0.543475
vt 0.013797 0.543475
vt 0.013797 0.543475
vt 0.013797 0.543475
vt 0.013797 0.543475
vt 0.013797 0.543475
vt 0.013797 0.543475
vt 0.013797 0.543475
vt 0.013797 0.543475
vt 0.013797 0.543475
vt 0.013797 0.543475
vt 0.013797 0.543475
vt 0.013797 0.543475
vt 0.013797 0.543475
vt 0.013797 0.543475
vt 0.013797 0.543475
vt 0.013797 0.543475
vt 0.013797 0.543475
vt 0.013797 0.543475
vt 0.013797 0.543475
vt 0.013797 0.543475
vt 0.013797 0.543475
vt 0.013797 0.543475
vt 0.013797 0.543475
vt 0.013797 0.543475
vt 0.013797 0.543475
vt 0.013797 0.543475
vt 0.013797 0.543475
vt 0.013797 0.543475
vt 0.013797 0.543475
vt 0.013797 0.543475
vt 0.013797 0.543475
vt 0.013797 0.543475
vt 0.013797 0.543475
vt 0.013797 0.543475
vt 0.013797 0.543475
vt 0.013797 0.543475
vt 0.013797 0.543475
vt 0.013797 0.543475
vt 0.013797 0.543475
vt 0.013797 0.543475
vt 0.013797 0.543475
vt 0.013797 0.543475
vt 0.013797 0.543475
vt 0.013797 0.543475
vt 0.013797 0.543475
vt 0.013797 0.543475
vt 0.013797 0.543475
vt 0.013797 0.543475
vt 0.013797 0.543475
vt 0.013797 0.543475
vt 0.013797 0.543475
vt 0.013797 0.543475
vt 0.013797 0.543475
vt 0.013797 0.543475
vt 0.013797 0.543475
vt 0.013797 0.543475
vt 0.013797 0.543475
vt 0.013797 0.543475
vt 0.013797 0.543475
vt 0.013797 0.543475
vt 0.013797 0.543475
vt 0.013797 0.543475
vt 0.013797 0.543475
vt 0.013797 0.543475
vt 0.013797 0.543475
vt 0.013797 0.543475
vt 0.013797 0.543475
vt 0.013797 0.543475
vt 0.013797 0.543475
vt 0.013797 0.543475
vt 0.013797 0.543475
vt 0.013797 0.543475
vt 0.013797 0.543475
vt 0.013797 0.543475
vt 0.013797 0.543475
vt 0.013797 0.543475
vt 0.013797 0.543475
vt 0.013797 0.543475
vt 0.013797 0.543475
vt 0.013797 0.543475
vt 0.013797 0.543475
vt 0.013797 0.543475
vt 0.013797 0.543475
vt 0.013797 0.543475
vt 0.013797 0.543475
vt 0.013797 0.543475
vt 0.013797 0.543475
vt 0.013797 0.543475
vt 0.013797 0.543475
vt 0.013797 0.543475
vt 0.013797 0.543475
vt 0.013797 0.543475
vt 0.013797 0.543475
vt 0.013797 0.543475
vt 0.013797 0.543475
vt 0.013797 0.543475
vt 0.013797 0.543475
vt 0.013797 0.543475
vt 0.013797 0.543475
vt 0.013797 0.543475
vt 0.013797 0.543475
vt 0.013797 0.543475
vt 0.013797 0.543475
vt 0.013797 0.543475
vt 0.013797 0.543475
vt 0.013797 0.543475
vt 0.013797 0.543475
vt 0.013797 0.543475
vt 0.013797 0.543475
vt 0.013797 0.543475
vt 0.013797 0.543475
vt 0.013797 0.543475
vn -0.7071 0.7071 -0.0000
vn -0.6542 0.6562 0.3761
vn -0.0000 0.9292 0.3696
vn -0.0000 1.0000 -0.0000
vn 1.0000 0.0000 -0.0000
vn 0.9204 0.0018 0.3911
vn 0.6886 -0.6554 0.3103
vn 0.7076 -0.7061 -0.0277
vn -0.7076 -0.7061 -0.0277
vn -0.6886 -0.6554 0.3103
vn -0.9204 0.0018 0.3911
vn -1.0000 -0.0000 -0.0000
vn -0.3820 -0.9213 -0.0721
vn -0.4548 -0.8213 0.3443
vn -0.0000 0.0000 1.0000
vn 0.1236 -0.1833 0.9753
vn -0.1236 -0.1833 0.9753
vn 0.7071 0.7071 -0.0000
vn 0.6542 0.6562 0.3761
vn -0.6785 0.6785 -0.2816
vn 0.0000 0.9595 -0.2816
vn 0.6785 0.6785 -0.2816
vn 0.9595 0.0000 -0.2816
vn 0.0000 -0.6186 -0.7857
vn -0.2248 -0.5427 -0.8093
vn -0.0495 -0.1194 -0.9916
vn -0.0000 -0.1491 -0.9888
vn -0.9595 -0.0000 -0.2816
vn -0.6785 -0.6785 -0.2816
vn -0.3670 -0.8861 -0.2832
vn 0.3670 -0.8861 -0.2832
vn 0.3820 -0.9213 -0.0721
vn -0.0000 -1.0000 0.0000
vn 0.0000 -0.9595 -0.2816
vn 0.6785 -0.6785 -0.2816
vn 0.0495 -0.1194 -0.9916
vn -0.1054 -0.1054 -0.9888
vn -0.1491 -0.0000 -0.9888
vn -0.1054 0.1054 -0.9888
vn -0.0000 0.1491 -0.9888
vn 0.1054 0.1054 -0.9888
vn 0.1491 -0.0000 -0.9888
vn 0.1054 -0.1054 -0.9888
vn 0.0000 0.0026 -1.0000
vn -0.0017 0.0026 -1.0000
vn 0.0002 0.0026 -1.0000
vn 0.5246 -0.8514 0.0000
vn -0.5246 -0.8514 -0.0000
vn 0.3276 -0.2744 0.9041
vn 0.4374 0.4374 -0.7857
vn 0.0000 0.6186 -0.7857
vn 0.6186 -0.0000 -0.7857
vn 0.4374 -0.4374 -0.7857
vn 0.2248 -0.5427 -0.8093
vn -0.4374 -0.4374 -0.7857
vn -0.6186 -0.0000 -0.7857
vn -0.4374 0.4374 -0.7857
vn 0.9966 0.0583 0.0583
vn 0.9973 0.0519 0.0519
vn 0.9873 -0.1588 -0.0000
vn 0.9873 -0.1590 -0.0000
vn -0.9973 0.0519 0.0519
vn -0.9966 0.0583 0.0583
vn -0.9873 -0.1590 0.0000
vn -0.9873 -0.1588 0.0000
vn 0.0017 0.0026 -1.0000
vn -0.8315 -0.5556 -0.0000
vn 0.8315 -0.5556 -0.0000
vn 0.9583 0.2020 0.2020
vn -0.9583 0.2020 0.2020
vn -0.0000 0.4377 0.8991
vn 0.3022 0.3041 0.9035
vn 0.4077 0.0018 0.9131
vn 0.4548 -0.8213 0.3443
vn -0.3276 -0.2744 0.9041
vn -0.4077 0.0018 0.9131
vn -0.3022 0.3041 0.9035
vn 0.3732 0.9278 -0.0000
vn 0.0000 0.9285 0.3713
vn 0.3465 0.8615 0.3710
vn 0.7119 -0.7022 0.0000
vn 0.6617 -0.6527 0.3689
vn 0.0000 -0.9295 0.3689
vn -0.3732 0.9278 -0.0000
vn -0.7660 0.6428 -0.0000
vn -0.7120 0.5975 0.3688
vn -0.3465 0.8615 0.3710
vn 1.0000 0.0097 -0.0000
vn 0.7660 0.6428 -0.0000
vn 0.7120 0.5975 0.3688
vn 0.9294 0.0090 0.3689
vn 0.1556 0.3868 0.9089
vn -0.0000 0.4160 0.9093
vn -0.1556 0.3868 0.9089
vn -0.3290 0.2761 0.9031
vn -0.4377 0.0042 0.8991
vn -0.3117 -0.3075 0.8990
vn 0.0000 -0.4380 0.8990
vn 0.3117 -0.3075 0.8990
vn 0.4377 0.0042 0.8991
vn 0.3290 0.2761 0.9031
vn -1.0000 0.0097 -0.0000
vn -0.7119 -0.7022 0.0000
vn -0.6617 -0.6527 0.3689
vn -0.9294 0.0090 0.3689
vn -0.7076 -0.7066 0.0000
vn -0.7071 -0.7071 0.0000
vn -0.0003 -1.0000 0.0000
vn -1.0000 0.0006 0.0000
vn -0.7070 0.7073 0.0000
vn 0.3827 0.9239 0.0000
vn 0.7070 0.7073 0.0000
vn 1.0000 0.0006 0.0000
vn 0.7076 -0.7066 0.0000
vn 0.7071 -0.7071 0.0000
vn 0.3827 -0.9239 0.0000
usemtl Solid.156
s 1
f 13/1/1 75/2/2 60/3/3 6/4/4
f 8/5/5 64/6/6 66/7/7 9/8/8
f 11/9/9 67/10/10 70/11/11 12/12/12
f 67/10/10 11/9/9 5/13/13 72/14/14
f 108/15/15 14/16/15 50/17/15 52/18/15 51/19/15 58/20/15 57/21/16 4/22/15 109/23/15 106/24/15 111/25/15 110/26/15 112/27/15 107/28/15
f 109/23/15 4/22/15 71/29/17 73/30/15 47/31/15 49/32/15 48/33/15 14/16/15 108/15/15 114/34/15 113/35/15 115/36/15
f 7/37/18 62/38/19 64/6/6 8/5/5
f 38/39/20 13/1/1 6/4/4 17/40/21
f 20/41/22 7/37/18 8/5/5 23/42/23
f 30/43/24 2/44/25 1/45/26 28/46/27
f 35/47/28 12/12/12 13/1/1 38/39/20
f 32/48/29 11/9/9 12/12/12 35/47/28
f 3/49/30 5/13/13 11/9/9 32/48/29
f 41/50/31 40/51/32 10/52/33 29/53/34
f 23/42/23 8/5/5 9/8/8 26/54/35
f 43/55/36 28/46/27 1/45/26 31/56/37 34/57/38 37/58/39 16/59/40 19/60/41 22/61/42 25/62/43
f 10/52/44 40/51/45 53/63/45 55/64/45 54/65/45 15/66/44 116/67/46 117/68/45 122/69/45 120/70/45 121/71/45 119/72/45 118/73/46
f 54/65/47 50/17/47 14/16/33 15/66/33
f 15/66/33 14/16/33 48/33/48 44/74/48
f 57/21/16 65/75/49 79/76/15 80/77/15
f 17/40/21 20/41/22 21/78/50 18/79/51
f 18/79/51 21/78/50 19/60/41 16/59/40
f 20/41/22 23/42/23 24/80/52 21/78/50
f 21/78/50 24/80/52 22/61/42 19/60/41
f 23/42/23 26/54/35 27/81/53 24/80/52
f 24/80/52 27/81/53 25/62/43 22/61/42
f 41/50/31 29/53/34 30/43/24 42/82/54
f 42/82/54 30/43/24 28/46/27 43/55/36
f 3/49/30 32/48/29 33/83/55 2/44/25
f 2/44/25 33/83/55 31/56/37 1/45/26
f 32/48/29 35/47/28 36/84/56 33/83/55
f 33/83/55 36/84/56 34/57/38 31/56/37
f 35/47/28 38/39/20 39/85/57 36/84/56
f 36/84/56 39/85/57 37/58/39 34/57/38
f 38/39/20 17/40/21 18/79/51 39/85/57
f 39/85/57 18/79/51 16/59/40 37/58/39
f 17/40/21 6/4/4 7/37/18 20/41/22
f 29/53/34 3/49/30 2/44/25 30/43/24
f 56/86/58 58/20/59 51/19/60 53/63/61 40/51/5
f 6/4/4 60/3/3 62/38/19 7/37/18
f 73/30/62 72/14/63 5/13/12 45/87/64 47/31/65
f 29/53/34 10/52/33 5/13/13 3/49/30
f 27/81/53 42/82/54 43/55/36 25/62/43
f 26/54/35 41/50/31 42/82/54 27/81/53
f 15/66/44 44/74/66 46/88/66 45/87/66 5/13/66 10/52/44 118/73/46 124/89/66 125/90/66 123/91/66 116/67/46
f 12/12/12 70/11/11 75/2/2 13/1/1
f 26/54/35 9/8/8 40/51/32 41/50/31
f 47/31/65 45/87/64 46/88/67 49/32/67
f 49/32/67 46/88/67 44/74/48 48/33/48
f 50/17/47 54/65/47 55/64/68 52/18/68
f 52/18/68 55/64/68 53/63/61 51/19/60
f 56/86/58 57/21/69 58/20/59
f 71/29/70 72/14/63 73/30/62
f 62/38/19 60/3/3 59/92/71 61/93/72
f 64/6/6 62/38/19 61/93/72 63/94/73
f 66/7/7 64/6/6 63/94/73 65/75/49
f 56/86/74 66/7/7 65/75/49 57/21/16
f 70/11/11 67/10/10 68/95/75 69/96/76
f 75/2/2 70/11/11 69/96/76 74/97/77
f 67/10/10 72/14/14 71/29/17 68/95/75
f 60/3/3 75/2/2 74/97/77 59/92/71
f 56/86/74 40/51/32 9/8/8 66/7/7
f 84/98/78 85/99/4 104/100/79 102/101/80
f 74/97/77 69/96/76 82/102/15 83/103/15
f 69/96/76 68/95/75 81/104/15 82/102/15
f 59/92/71 74/97/77 83/103/15 76/105/15
f 65/75/49 63/94/73 78/106/15 79/76/15
f 71/29/17 4/22/15 85/99/15 84/98/15
f 63/94/73 61/93/72 77/107/15 78/106/15
f 61/93/72 59/92/71 76/105/15 77/107/15
f 68/95/75 71/29/17 84/98/15 81/104/15
f 4/22/15 57/21/16 80/77/15 85/99/15
f 76/105/33 83/103/81 101/108/82 86/109/83
f 80/77/84 79/76/85 93/110/86 95/111/87
f 82/102/88 81/104/89 96/112/90 99/113/91
f 83/103/81 82/102/88 99/113/91 101/108/82
f 85/99/4 80/77/84 95/111/87 104/100/79
f 103/114/92 105/115/93 94/116/94 92/117/95 90/118/96 88/119/97 87/120/98 100/121/99 98/122/100 97/123/101
f 78/106/102 77/107/103 89/124/104 91/125/105
f 81/104/89 84/98/78 102/101/80 96/112/90
f 79/76/85 78/106/102 91/125/105 93/110/86
f 87/120/98 88/119/97 89/124/104 86/109/83
f 88/119/97 90/118/96 91/125/105 89/124/104
f 90/118/96 92/117/95 93/110/86 91/125/105
f 92/117/95 94/116/94 95/111/87 93/110/86
f 97/123/101 98/122/100 99/113/91 96/112/90
f 98/122/100 100/121/99 101/108/82 99/113/91
f 103/114/92 97/123/101 96/112/90 102/101/80
f 100/121/99 87/120/98 86/109/83 101/108/82
f 102/101/80 104/100/79 105/115/93 103/114/92
f 104/100/79 95/111/87 94/116/94 105/115/93
f 77/107/103 76/105/33 86/109/83 89/124/104
f 121/71/106 111/25/107 106/24/33 119/72/108
f 110/26/12 111/25/107 121/71/106 120/70/109
f 112/27/1 110/26/12 120/70/109 122/69/110
f 107/28/4 112/27/1 122/69/110 117/68/4
f 114/34/18 108/15/111 107/28/4 117/68/4 116/67/111 123/91/112
f 125/90/113 113/35/5 114/34/18 123/91/112
f 124/89/114 115/36/115 113/35/5 125/90/113
f 119/72/108 106/24/33 109/23/116 115/36/115 124/89/114 118/73/116
