# Blender v2.93.1 OBJ File: ''
# www.blender.org
mtllib knife_steak_knife.mtl
o knife_steak_knife_Cube.015
v -0.278190 -0.138272 0.073623
v -0.278190 1.502066 0.073622
v 0.358718 -0.505090 0.073623
v 0.271762 1.502066 0.073622
v -0.015271 -0.722110 0.073623
v -0.278190 2.389685 0.073622
v 0.322093 2.171506 0.073622
v -0.242617 2.323545 0.087460
v -0.331358 2.347693 0.061529
v -0.305366 2.340620 0.079865
v 0.433017 2.139696 0.061529
v 0.344276 2.163843 0.087460
v 0.407025 2.146769 0.079865
v -0.331358 2.660885 0.061529
v -0.242617 2.636738 0.087460
v -0.305366 2.653813 0.079865
v 0.344276 2.477036 0.087460
v 0.433017 2.452889 0.061529
v 0.407025 2.459961 0.079865
v -0.278190 -0.386282 0.073623
v -0.175807 -0.646907 0.073623
v -0.248203 -0.523095 0.073623
v 0.027878 -0.134141 0.092175
v 0.112628 -0.169246 0.092175
v 0.147733 -0.253996 0.092175
v 0.112628 -0.338747 0.092175
v 0.027878 -0.373851 0.092175
v -0.056873 -0.338747 0.092175
v -0.091978 -0.253996 0.092175
v -0.056873 -0.169246 0.092175
v 0.027878 1.787024 0.092174
v 0.112628 1.751919 0.092174
v 0.147733 1.667168 0.092175
v 0.112628 1.582418 0.092175
v 0.027878 1.547313 0.092175
v -0.056873 1.582418 0.092175
v -0.091978 1.667168 0.092175
v -0.056873 1.751919 0.092174
v -0.306389 -0.138272 0.000000
v -0.306389 1.502066 -0.000000
v 0.420926 -0.505090 0.000000
v 0.299961 1.502066 -0.000000
v -0.018768 -0.722110 0.000000
v -0.306389 2.389685 -0.000000
v 0.350291 2.171506 -0.000000
v -0.331358 2.326618 -0.000000
v -0.331358 2.660885 -0.000000
v 0.433017 2.118621 -0.000000
v 0.433017 2.452889 -0.000000
v -0.194386 -0.646907 0.000000
v -0.273584 -0.523095 0.000000
v -0.306389 -0.386282 0.000000
v 0.027878 -0.134141 0.000000
v 0.112628 -0.169246 0.000000
v 0.147733 -0.253996 0.000000
v 0.112628 -0.338747 0.000000
v 0.027878 -0.373851 0.000000
v -0.056873 -0.338747 0.000000
v -0.091978 -0.253996 0.000000
v -0.056873 -0.169246 0.000000
v 0.027878 1.787024 -0.000000
v 0.112628 1.751919 -0.000000
v 0.147733 1.667168 -0.000000
v 0.112628 1.582418 -0.000000
v 0.027878 1.547313 -0.000000
v -0.056873 1.582418 -0.000000
v -0.091978 1.667168 -0.000000
v -0.056873 1.751919 -0.000000
v -0.278190 0.191501 0.073622
v 0.466952 -0.090304 0.073623
v 0.529160 -0.090304 0.000000
v -0.306389 0.191501 -0.000000
v 0.283096 1.696612 0.073622
v -0.278190 1.805702 0.073622
v 0.311294 1.696612 -0.000000
v -0.306389 1.805702 -0.000000
v -0.278190 0.324556 0.073622
v 0.256359 0.099868 0.073622
v 0.315114 0.099868 -0.000000
v -0.306389 0.324556 -0.000000
v 0.027878 0.917266 0.092175
v 0.112628 0.882161 0.092175
v 0.147733 0.797411 0.092175
v 0.112628 0.712661 0.092175
v 0.027878 0.677556 0.092175
v -0.056873 0.712661 0.092175
v -0.091978 0.797411 0.092175
v -0.056873 0.882161 0.092175
v 0.027878 0.917266 -0.000000
v 0.112628 0.882161 -0.000000
v 0.147733 0.797411 -0.000000
v 0.112628 0.712661 -0.000000
v 0.027878 0.677556 -0.000000
v -0.056873 0.712661 -0.000000
v -0.091978 0.797411 -0.000000
v -0.056873 0.882161 -0.000000
v -0.278190 0.913311 0.073622
v 0.298984 0.766704 0.073622
v 0.342460 0.766704 -0.000000
v -0.306389 0.913311 -0.000000
v -0.252419 2.893665 0.013835
v 0.246141 2.893665 0.013835
v 0.340977 2.392682 0.014430
v -0.262575 2.392682 0.014430
v 0.305749 2.893665 -0.000000
v -0.280668 2.893665 -0.000000
v -0.296130 2.392682 -0.000000
v 0.402571 2.392682 -0.000000
v -0.248058 5.549616 -0.000001
v 0.102786 5.549616 -0.000001
v 0.058069 5.549616 0.013835
v -0.228149 5.549616 0.013835
v -0.227860 5.291072 0.013835
v 0.123594 5.291072 0.013835
v 0.172886 5.291072 -0.000001
v -0.250331 5.291072 -0.000001
v -0.276803 3.473430 -0.000001
v 0.199357 3.473430 -0.000001
v 0.146718 3.473430 0.013835
v -0.252457 3.473430 0.013835
v -0.240483 5.805282 -0.000001
v -0.035361 5.805282 -0.000001
v -0.070867 5.805282 0.013835
v -0.225733 5.805282 0.013835
v -0.230296 5.915642 -0.000001
v -0.187353 5.915642 -0.000001
v -0.201521 5.906721 0.008803
v -0.222018 5.906721 0.008803
v -0.278190 -0.138272 -0.073622
v -0.278190 1.502066 -0.073623
v 0.358718 -0.505090 -0.073622
v 0.271762 1.502066 -0.073623
v -0.015271 -0.722110 -0.073622
v -0.278190 2.389685 -0.073623
v 0.322093 2.171506 -0.073623
v -0.242617 2.323545 -0.087461
v -0.331358 2.347693 -0.061530
v -0.305366 2.340620 -0.079866
v 0.433017 2.139696 -0.061530
v 0.344276 2.163843 -0.087461
v 0.407025 2.146769 -0.079866
v -0.331358 2.660885 -0.061530
v -0.242617 2.636738 -0.087461
v -0.305366 2.653813 -0.079866
v 0.344276 2.477036 -0.087461
v 0.433017 2.452889 -0.061530
v 0.407025 2.459961 -0.079866
v -0.278190 -0.386282 -0.073622
v -0.175807 -0.646907 -0.073622
v -0.248203 -0.523095 -0.073622
v 0.027878 -0.134141 -0.092175
v 0.112628 -0.169246 -0.092175
v 0.147733 -0.253996 -0.092175
v 0.112628 -0.338747 -0.092175
v 0.027878 -0.373851 -0.092175
v -0.056873 -0.338747 -0.092175
v -0.091978 -0.253996 -0.092175
v -0.056873 -0.169246 -0.092175
v 0.027878 1.787024 -0.092175
v 0.112628 1.751919 -0.092175
v 0.147733 1.667168 -0.092175
v 0.112628 1.582418 -0.092175
v 0.027878 1.547313 -0.092175
v -0.056873 1.582418 -0.092175
v -0.091978 1.667168 -0.092175
v -0.056873 1.751919 -0.092175
v -0.278190 0.191501 -0.073623
v 0.466952 -0.090304 -0.073622
v 0.283096 1.696612 -0.073623
v -0.278190 1.805702 -0.073623
v -0.278190 0.324556 -0.073623
v 0.256359 0.099868 -0.073623
v 0.027878 0.917266 -0.092175
v 0.112628 0.882161 -0.092175
v 0.147733 0.797411 -0.092175
v 0.112628 0.712661 -0.092175
v 0.027878 0.677556 -0.092175
v -0.056873 0.712661 -0.092175
v -0.091978 0.797411 -0.092175
v -0.056873 0.882161 -0.092175
v -0.278190 0.913311 -0.073623
v 0.298984 0.766704 -0.073623
v -0.252419 2.893665 -0.013836
v 0.246141 2.893665 -0.013836
v 0.340977 2.392682 -0.014431
v -0.262575 2.392682 -0.014431
v 0.058069 5.549616 -0.013837
v -0.228149 5.549616 -0.013837
v -0.227860 5.291072 -0.013837
v 0.123594 5.291072 -0.013837
v 0.146718 3.473430 -0.013836
v -0.252457 3.473430 -0.013836
v -0.070867 5.805282 -0.013837
v -0.225733 5.805282 -0.013837
v -0.201521 5.906721 -0.008805
v -0.222018 5.906721 -0.008805
vt 0.005856 1.032032
vt 0.005856 1.032032
vt 0.005856 1.032032
vt 0.005856 1.032032
vt 0.005856 1.032032
vt 0.005856 1.032032
vt 0.005856 1.032032
vt 0.005856 1.032032
vt 0.005856 1.032032
vt 0.005856 1.032032
vt 0.005856 1.032032
vt 0.005856 1.032032
vt 0.005856 1.032032
vt 0.005856 1.032032
vt 0.005856 1.032032
vt 0.005856 1.032032
vt 0.005856 1.032032
vt 0.005856 1.032032
vt 0.005856 1.032032
vt 0.005856 1.032032
vt 0.005856 1.032032
vt 0.005856 1.032032
vt 0.021653 1.424160
vt 0.021653 1.424160
vt 0.021653 1.424160
vt 0.021653 1.424160
vt 0.021653 1.424160
vt 0.021653 1.424160
vt 0.021653 1.424160
vt 0.021653 1.424160
vt 0.021653 1.424160
vt 0.021653 1.424160
vt 0.021653 1.424160
vt 0.021653 1.424160
vt 0.021653 1.424160
vt 0.021653 1.424160
vt 0.021653 1.424160
vt 0.021653 1.424160
vt 0.005856 1.032032
vt 0.005856 1.032032
vt 0.021363 0.996106
vt 0.021363 0.996106
vt 0.021363 0.996106
vt 0.021363 0.996106
vt 0.021363 0.996106
vt 0.021363 0.996106
vt 0.021363 0.996106
vt 0.021363 0.996106
vt 0.021363 0.996106
vt 0.021363 0.996106
vt 0.021363 0.996106
vt 0.021363 0.996106
vt 0.021363 0.996106
vt 0.021363 0.996106
vt 0.021363 0.996106
vt 0.021363 0.996106
vt 0.021363 0.996106
vt 0.021363 0.996106
vt 0.021363 0.996106
vt 0.021363 0.996106
vt 0.021363 0.996106
vt 0.021363 0.996106
vt 0.021363 0.996106
vt 0.021363 0.996106
vt 0.021363 0.996106
vt 0.021363 0.996106
vt 0.021363 0.996106
vt 0.021363 0.996106
vt 0.021363 0.996106
vt 0.021363 0.996106
vt 0.021363 0.996106
vt 0.021363 0.996106
vt 0.005856 1.032032
vt 0.005856 1.032032
vt 0.005856 1.032032
vt 0.005856 1.032032
vt 0.005856 1.032032
vt 0.005856 1.032032
vt 0.005856 1.032032
vt 0.005856 1.032032
vt 0.005856 1.032032
vt 0.005856 1.032032
vt 0.005856 1.032032
vt 0.005856 1.032032
vt 0.021363 0.996106
vt 0.021363 0.996106
vt 0.021363 0.996106
vt 0.021363 0.996106
vt 0.021363 0.996106
vt 0.021363 0.996106
vt 0.021363 0.996106
vt 0.021363 0.996106
vt 0.021363 0.996106
vt 0.021363 0.996106
vt 0.021363 0.996106
vt 0.021363 0.996106
vt 0.021363 0.996106
vt 0.021363 0.996106
vt 0.021363 0.996106
vt 0.021363 0.996106
vt 0.021683 0.466527
vt 0.021683 0.466527
vt 0.021683 0.466527
vt 0.021683 0.466527
vt 0.021683 0.466527
vt 0.021683 0.466527
vt 0.021683 0.466527
vt 0.021683 0.466527
vt 0.021683 0.466527
vt 0.021683 0.466527
vt 0.021683 0.466527
vt 0.021683 0.466527
vt 0.021683 0.466527
vt 0.021683 0.466527
vt 0.021683 0.466527
vt 0.021683 0.466527
vt 0.021683 0.466527
vt 0.021683 0.466527
vt 0.021683 0.466527
vt 0.021683 0.466527
vt 0.021683 0.466527
vt 0.021683 0.466527
vt 0.021683 0.466527
vt 0.021683 0.466527
vt 0.021683 0.466527
vt 0.021683 0.466527
vt 0.021683 0.466527
vt 0.021683 0.466527
vt 0.005856 1.032032
vt 0.005856 1.032032
vt 0.005856 1.032032
vt 0.005856 1.032032
vt 0.005856 1.032032
vt 0.005856 1.032032
vt 0.005856 1.032032
vt 0.005856 1.032032
vt 0.005856 1.032032
vt 0.005856 1.032032
vt 0.005856 1.032032
vt 0.005856 1.032032
vt 0.005856 1.032032
vt 0.005856 1.032032
vt 0.021653 1.424160
vt 0.021653 1.424160
vt 0.021653 1.424160
vt 0.021653 1.424160
vt 0.021653 1.424160
vt 0.021653 1.424160
vt 0.021653 1.424160
vt 0.021653 1.424160
vt 0.021653 1.424160
vt 0.021653 1.424160
vt 0.021653 1.424160
vt 0.021653 1.424160
vt 0.021363 0.996106
vt 0.021363 0.996106
vt 0.021363 0.996106
vt 0.021363 0.996106
vt 0.021363 0.996106
vt 0.021363 0.996106
vt 0.021363 0.996106
vt 0.021363 0.996106
vt 0.021363 0.996106
vt 0.021363 0.996106
vt 0.021363 0.996106
vt 0.021363 0.996106
vt 0.021363 0.996106
vt 0.021363 0.996106
vt 0.021363 0.996106
vt 0.021363 0.996106
vt 0.005856 1.032032
vt 0.005856 1.032032
vt 0.005856 1.032032
vt 0.005856 1.032032
vt 0.021363 0.996106
vt 0.021363 0.996106
vt 0.021363 0.996106
vt 0.021363 0.996106
vt 0.021363 0.996106
vt 0.021363 0.996106
vt 0.021363 0.996106
vt 0.021363 0.996106
vt 0.021683 0.466527
vt 0.021683 0.466527
vt 0.021683 0.466527
vt 0.021683 0.466527
vt 0.021683 0.466527
vt 0.021683 0.466527
vt 0.021683 0.466527
vt 0.021683 0.466527
vt 0.021683 0.466527
vt 0.021683 0.466527
vt 0.021683 0.466527
vt 0.021683 0.466527
vt 0.021683 0.466527
vt 0.021683 0.466527
vn 0.8627 -0.0004 0.5057
vn 1.0000 -0.0064 0.0000
vn 0.9173 -0.0058 0.3982
vn 0.8627 -0.0004 0.5058
vn 0.0000 0.0000 1.0000
vn 0.4707 -0.8823 0.0000
vn 0.4626 -0.8672 0.1844
vn -0.6839 -0.7296 0.0000
vn -0.4084 -0.9128 -0.0000
vn -0.4077 -0.9111 0.0611
vn -0.6242 -0.7665 0.1511
vn 0.3280 0.9447 -0.0000
vn -1.0000 -0.0000 -0.0000
vn -0.9338 0.0000 0.3577
vn -0.0500 0.0000 0.9987
vn 0.0703 0.0000 0.9975
vn 0.0500 0.0000 0.9987
vn -0.0703 0.0000 0.9975
vn 0.2626 0.9649 -0.0000
vn -0.2626 -0.9649 0.0000
vn -0.2555 -0.9388 0.2309
vn 0.3956 0.0000 0.9184
vn 0.3233 0.0000 0.9463
vn 0.5765 0.0000 0.8171
vn -0.3956 0.0000 0.9184
vn -0.3233 0.0000 0.9463
vn -0.5765 0.0000 0.8171
vn -0.8806 -0.3739 0.2911
vn -0.9301 -0.3673 0.0000
vn -0.9313 -0.1085 0.3477
vn -0.9939 -0.1100 0.0000
vn 0.0000 1.0000 -0.0000
vn 0.7071 0.7071 0.0000
vn 1.0000 0.0000 0.0000
vn 0.7071 -0.7071 0.0000
vn 0.0000 -1.0000 0.0000
vn -0.7071 -0.7071 0.0000
vn -0.7071 0.7071 0.0000
vn 0.9319 -0.0652 0.3569
vn 0.9975 -0.0702 0.0000
vn 0.9966 -0.0818 -0.0000
vn 0.9311 -0.0765 0.3566
vn 0.7491 -0.1955 0.6330
vn 0.5851 0.6532 0.4806
vn 0.7397 0.3751 0.5586
vn 0.7762 0.2647 0.5722
vn 0.0000 0.0012 1.0000
vn 0.0000 0.0007 1.0000
vn 0.0000 0.0006 1.0000
vn -0.4411 0.0063 0.8974
vn -0.4407 0.0064 0.8976
vn -0.4159 0.0112 0.9093
vn 0.2269 0.0440 0.9729
vn 0.2323 0.0433 0.9717
vn 0.2337 0.0431 0.9713
vn 0.2970 0.1094 0.9486
vn 0.3205 0.2386 0.9167
vn 0.3155 0.3496 0.8822
vn 0.3060 0.1306 0.9430
vn 0.2711 0.0355 0.9619
vn 0.2727 0.0414 0.9612
vn -0.5280 0.0046 0.8493
vn -0.5861 0.0072 0.8102
vn -0.5856 0.0071 0.8106
vn -0.5278 0.0046 0.8494
vn -0.4875 0.0044 0.8731
vn -0.4872 0.0043 0.8733
vn 0.2500 0.0241 0.9680
vn 0.2513 0.0219 0.9677
vn -0.6564 0.0373 0.7535
vn -0.6555 0.0366 0.7543
vn 0.0000 0.0121 0.9999
vn 0.0000 0.0244 0.9997
vn 0.2279 0.5162 0.8256
vn 0.0680 0.4089 0.9100
vn -0.6873 0.0623 0.7237
vn 0.0000 0.4525 0.8917
vn 0.0000 0.7024 0.7118
vn 0.8627 -0.0004 -0.5057
vn 0.8627 -0.0004 -0.5058
vn 0.9173 -0.0058 -0.3982
vn -0.0000 -0.0000 -1.0000
vn 0.4626 -0.8672 -0.1844
vn -0.6242 -0.7665 -0.1511
vn -0.4077 -0.9111 -0.0611
vn -0.9338 -0.0000 -0.3577
vn -0.0500 -0.0000 -0.9987
vn -0.0703 -0.0000 -0.9975
vn 0.0500 -0.0000 -0.9987
vn 0.0703 -0.0000 -0.9975
vn -0.2555 -0.9388 -0.2309
vn 0.3233 -0.0000 -0.9463
vn 0.3956 -0.0000 -0.9184
vn 0.5765 -0.0000 -0.8171
vn -0.3233 -0.0000 -0.9463
vn -0.3956 -0.0000 -0.9184
vn -0.5765 -0.0000 -0.8171
vn -0.8806 -0.3739 -0.2911
vn -0.9313 -0.1085 -0.3477
vn 0.9319 -0.0652 -0.3569
vn 0.9311 -0.0765 -0.3566
vn 0.7491 -0.1955 -0.6330
vn 0.5851 0.6532 -0.4806
vn 0.7762 0.2647 -0.5722
vn 0.7397 0.3751 -0.5586
vn 0.0000 0.0012 -1.0000
vn 0.0000 0.0006 -1.0000
vn 0.0000 0.0007 -1.0000
vn -0.4411 0.0063 -0.8974
vn -0.4159 0.0112 -0.9093
vn -0.4407 0.0064 -0.8976
vn 0.2269 0.0440 -0.9729
vn 0.2337 0.0431 -0.9713
vn 0.2323 0.0433 -0.9717
vn 0.2970 0.1094 -0.9486
vn 0.3060 0.1306 -0.9430
vn 0.3154 0.3496 -0.8822
vn 0.3205 0.2386 -0.9167
vn 0.2711 0.0355 -0.9619
vn 0.2727 0.0414 -0.9612
vn -0.5280 0.0046 -0.8493
vn -0.5278 0.0046 -0.8494
vn -0.5856 0.0071 -0.8106
vn -0.5861 0.0072 -0.8102
vn -0.4875 0.0044 -0.8731
vn -0.4872 0.0043 -0.8733
vn 0.2500 0.0241 -0.9680
vn 0.2513 0.0219 -0.9677
vn -0.6555 0.0366 -0.7543
vn -0.6564 0.0373 -0.7535
vn 0.0000 0.0244 -0.9997
vn 0.0000 0.0121 -0.9999
vn 0.0680 0.4089 -0.9100
vn 0.2279 0.5162 -0.8256
vn -0.6873 0.0623 -0.7237
vn 0.0000 0.4525 -0.8917
vn 0.0000 0.7024 -0.7118
usemtl Solid.141
s 1
f 99/1/1 42/2/2 4/3/3 98/4/4
f 98/4/5 4/3/5 2/5/5 97/6/5
f 41/7/6 3/8/7 5/9/7 43/10/6
f 3/8/5 1/11/5 20/12/5 22/13/5 21/14/5 5/9/5
f 50/15/8 43/10/9 5/9/10 21/14/11
f 45/16/12 44/17/12 6/18/12 7/19/12
f 76/20/13 74/21/14 6/18/14 44/17/13
f 74/21/5 73/22/5 7/19/5 6/18/5
f 8/23/15 12/24/16 17/25/17 15/26/18
f 49/27/19 47/28/19 14/29/19 16/30/19 15/26/19 17/25/19 19/31/19 18/32/19
f 46/33/20 48/34/20 11/35/21 13/36/21 12/24/21 8/23/21 10/37/21 9/38/21
f 17/25/17 12/24/16 13/36/22 19/31/23
f 19/31/23 13/36/22 11/35/24 18/32/24
f 8/23/15 15/26/18 16/30/25 10/37/26
f 10/37/26 16/30/25 14/29/27 9/38/27
f 46/33/13 9/38/13 14/29/13 47/28/13
f 50/15/8 21/14/11 22/13/28 51/39/29
f 51/39/29 22/13/28 20/12/30 52/40/31
f 53/41/32 23/42/32 24/43/33 54/44/33
f 54/44/33 24/43/33 25/45/34 55/46/34
f 55/46/34 25/45/34 26/47/35 56/48/35
f 56/48/35 26/47/35 27/49/36 57/50/36
f 57/50/36 27/49/36 28/51/37 58/52/37
f 58/52/37 28/51/37 29/53/13 59/54/13
f 24/43/5 23/42/5 30/55/5 29/53/5 28/51/5 27/49/5 26/47/5 25/45/5
f 59/54/13 29/53/13 30/55/38 60/56/38
f 60/56/38 30/55/38 23/42/32 53/41/32
f 61/57/32 31/58/32 32/59/33 62/60/33
f 62/60/33 32/59/33 33/61/34 63/62/34
f 63/62/34 33/61/34 34/63/35 64/64/35
f 64/64/35 34/63/35 35/65/36 65/66/36
f 65/66/36 35/65/36 36/67/37 66/68/37
f 66/68/37 36/67/37 37/69/13 67/70/13
f 32/59/5 31/58/5 38/71/5 37/69/5 36/67/5 35/65/5 34/63/5 33/61/5
f 67/70/13 37/69/13 38/71/38 68/72/38
f 68/72/38 38/71/38 31/58/32 61/57/32
f 11/35/34 48/34/34 49/27/34 18/32/34
f 73/22/39 75/73/40 45/16/41 7/19/42
f 97/6/14 2/5/14 40/74/13 100/75/13
f 1/11/14 39/76/13 52/40/31 20/12/30
f 1/11/14 69/77/14 72/78/13 39/76/13
f 3/8/5 70/79/5 69/77/5 1/11/5
f 41/7/43 71/80/43 70/79/43 3/8/43
f 4/3/3 42/2/2 75/73/40 73/22/39
f 2/5/5 4/3/5 73/22/5 74/21/5
f 40/74/13 2/5/14 74/21/14 76/20/13
f 69/77/14 77/81/14 80/82/13 72/78/13
f 70/79/5 78/83/5 77/81/5 69/77/5
f 71/80/44 79/84/45 78/83/46 70/79/44
f 89/85/32 81/86/32 82/87/33 90/88/33
f 90/88/33 82/87/33 83/89/34 91/90/34
f 91/90/34 83/89/34 84/91/35 92/92/35
f 92/92/35 84/91/35 85/93/36 93/94/36
f 93/94/36 85/93/36 86/95/37 94/96/37
f 94/96/37 86/95/37 87/97/13 95/98/13
f 82/87/5 81/86/5 88/99/5 87/97/5 86/95/5 85/93/5 84/91/5 83/89/5
f 95/98/13 87/97/13 88/99/38 96/100/38
f 96/100/38 88/99/38 81/86/32 89/85/32
f 77/81/14 97/6/14 100/75/13 80/82/13
f 78/83/5 98/4/5 97/6/5 77/81/5
f 79/84/45 99/1/1 98/4/4 78/83/46
f 104/101/47 103/102/47 102/103/48 101/104/49
f 101/104/50 106/105/51 107/106/52 104/101/52
f 103/102/53 108/107/53 105/108/54 102/103/55
f 110/109/56 122/110/57 123/111/58 111/112/59
f 115/113/60 110/109/56 111/112/59 114/114/61
f 113/115/62 112/116/63 109/117/64 116/118/65
f 114/114/5 111/112/5 112/116/5 113/115/5
f 119/119/5 114/114/5 113/115/5 120/120/5
f 120/120/66 113/115/62 116/118/65 117/121/67
f 118/122/68 115/113/60 114/114/61 119/119/69
f 105/108/54 118/122/68 119/119/69 102/103/55
f 102/103/48 119/119/5 120/120/5 101/104/49
f 101/104/50 120/120/66 117/121/67 106/105/51
f 112/116/63 124/123/70 121/124/71 109/117/64
f 111/112/5 123/111/72 124/123/73 112/116/5
f 122/110/57 126/125/74 127/126/75 123/111/58
f 124/123/70 128/127/76 125/128/76 121/124/71
f 123/111/72 127/126/75 128/127/77 124/123/73
f 127/126/75 126/125/74 125/128/78 128/127/77
f 99/1/79 182/129/80 132/130/81 42/2/2
f 182/129/82 181/131/82 130/132/82 132/130/82
f 41/7/6 43/10/6 133/133/83 131/134/83
f 131/134/82 133/133/82 149/135/82 150/136/82 148/137/82 129/138/82
f 50/15/8 149/135/84 133/133/85 43/10/9
f 45/16/12 135/139/12 134/140/12 44/17/12
f 76/20/13 44/17/13 134/140/86 170/141/86
f 170/141/82 134/140/82 135/139/82 169/142/82
f 136/143/87 143/144/88 145/145/89 140/146/90
f 49/27/19 146/147/19 147/148/19 145/145/19 143/144/19 144/149/19 142/150/19 47/28/19
f 46/33/20 137/151/91 138/152/91 136/143/91 140/146/91 141/153/91 139/154/91 48/34/20
f 145/145/89 147/148/92 141/153/93 140/146/90
f 147/148/92 146/147/94 139/154/94 141/153/93
f 136/143/87 138/152/95 144/149/96 143/144/88
f 138/152/95 137/151/97 142/150/97 144/149/96
f 46/33/13 47/28/13 142/150/13 137/151/13
f 50/15/8 51/39/29 150/136/98 149/135/84
f 51/39/29 52/40/31 148/137/99 150/136/98
f 53/41/32 54/44/33 152/155/33 151/156/32
f 54/44/33 55/46/34 153/157/34 152/155/33
f 55/46/34 56/48/35 154/158/35 153/157/34
f 56/48/35 57/50/36 155/159/36 154/158/35
f 57/50/36 58/52/37 156/160/37 155/159/36
f 58/52/37 59/54/13 157/161/13 156/160/37
f 152/155/82 153/157/82 154/158/82 155/159/82 156/160/82 157/161/82 158/162/82 151/156/82
f 59/54/13 60/56/38 158/162/38 157/161/13
f 60/56/38 53/41/32 151/156/32 158/162/38
f 61/57/32 62/60/33 160/163/33 159/164/32
f 62/60/33 63/62/34 161/165/34 160/163/33
f 63/62/34 64/64/35 162/166/35 161/165/34
f 64/64/35 65/66/36 163/167/36 162/166/35
f 65/66/36 66/68/37 164/168/37 163/167/36
f 66/68/37 67/70/13 165/169/13 164/168/37
f 160/163/82 161/165/82 162/166/82 163/167/82 164/168/82 165/169/82 166/170/82 159/164/82
f 67/70/13 68/72/38 166/170/38 165/169/13
f 68/72/38 61/57/32 159/164/32 166/170/38
f 139/154/34 146/147/34 49/27/34 48/34/34
f 169/142/100 135/139/101 45/16/41 75/73/40
f 181/131/86 100/75/13 40/74/13 130/132/86
f 129/138/86 148/137/99 52/40/31 39/76/13
f 129/138/86 39/76/13 72/78/13 167/171/86
f 131/134/82 129/138/82 167/171/82 168/172/82
f 41/7/102 131/134/102 168/172/102 71/80/102
f 132/130/81 169/142/100 75/73/40 42/2/2
f 130/132/82 170/141/82 169/142/82 132/130/82
f 40/74/13 76/20/13 170/141/86 130/132/86
f 167/171/86 72/78/13 80/82/13 171/173/86
f 168/172/82 167/171/82 171/173/82 172/174/82
f 71/80/103 168/172/103 172/174/104 79/84/105
f 89/85/32 90/88/33 174/175/33 173/176/32
f 90/88/33 91/90/34 175/177/34 174/175/33
f 91/90/34 92/92/35 176/178/35 175/177/34
f 92/92/35 93/94/36 177/179/36 176/178/35
f 93/94/36 94/96/37 178/180/37 177/179/36
f 94/96/37 95/98/13 179/181/13 178/180/37
f 174/175/82 175/177/82 176/178/82 177/179/82 178/180/82 179/181/82 180/182/82 173/176/82
f 95/98/13 96/100/38 180/182/38 179/181/13
f 96/100/38 89/85/32 173/176/32 180/182/38
f 171/173/86 80/82/13 100/75/13 181/131/86
f 172/174/82 171/173/82 181/131/82 182/129/82
f 79/84/105 172/174/104 182/129/80 99/1/79
f 186/183/106 183/184/107 184/185/108 185/186/106
f 183/184/109 186/183/110 107/106/110 106/105/111
f 185/186/112 184/185/113 105/108/114 108/107/112
f 110/109/115 187/187/116 193/188/117 122/110/118
f 115/113/119 190/189/120 187/187/116 110/109/115
f 189/190/121 116/118/122 109/117/123 188/191/124
f 190/189/82 189/190/82 188/191/82 187/187/82
f 191/192/82 192/193/82 189/190/82 190/189/82
f 192/193/125 117/121/126 116/118/122 189/190/121
f 118/122/127 191/192/128 190/189/120 115/113/119
f 105/108/114 184/185/113 191/192/128 118/122/127
f 184/185/108 183/184/107 192/193/82 191/192/82
f 183/184/109 106/105/111 117/121/126 192/193/125
f 188/191/124 109/117/123 121/124/129 194/194/130
f 187/187/82 188/191/82 194/194/131 193/188/132
f 122/110/118 193/188/117 195/195/133 126/125/134
f 194/194/130 121/124/129 125/128/135 196/196/135
f 193/188/132 194/194/131 196/196/136 195/195/133
f 195/195/133 196/196/136 125/128/137 126/125/134
