# Blender v2.93.1 OBJ File: ''
# www.blender.org
mtllib misc_wooden_spoon.mtl
o misc_wooden_spoon_Cylinder.038
v 0.086026 0.000000 2.400000
v 0.086026 -0.000000 -2.302456
v 0.060830 0.060830 2.400000
v 0.060830 0.060137 -2.291813
v 0.000000 0.086027 2.400000
v -0.000000 0.085046 -2.287405
v -0.060830 0.060830 2.400000
v -0.060830 0.060137 -2.291813
v -0.086026 0.000000 2.400000
v -0.086026 -0.000000 -2.302456
v -0.060830 -0.060829 2.400000
v -0.060830 -0.060137 -2.339168
v 0.000000 -0.086026 2.400000
v -0.000000 -0.085047 -2.343577
v 0.060830 -0.060830 2.400000
v 0.060830 -0.060137 -2.339168
v 0.422794 0.115275 -2.846208
v 0.296478 0.115275 -2.446222
v -0.000000 0.115275 -2.285148
v -0.296478 0.115275 -2.446222
v -0.422794 0.115275 -2.846208
v -0.296478 0.115275 -3.246195
v -0.000000 0.115275 -3.407269
v 0.296478 0.115275 -3.246195
v 0.227493 -0.223397 -2.547823
v 0.321724 -0.223397 -2.846208
v -0.000000 -0.223397 -2.424228
v -0.227493 -0.223397 -2.547823
v -0.321724 -0.223397 -2.846208
v -0.227493 -0.223397 -3.144593
v -0.000000 -0.223397 -3.268189
v 0.227493 -0.223397 -3.144594
v 0.313642 0.001399 -3.257588
v 0.443556 0.001399 -2.846208
v -0.313642 0.001399 -3.257588
v -0.000000 0.001399 -3.427988
v -0.313642 0.001399 -2.434829
v -0.443556 0.001399 -2.846208
v 0.313642 0.001399 -2.434829
v -0.000000 0.001399 -2.264429
v 0.127510 -0.285426 -2.678962
v 0.180327 -0.285427 -2.846208
v -0.000000 -0.285426 -2.609687
v -0.127511 -0.285426 -2.678962
v -0.180327 -0.285427 -2.846208
v -0.127511 -0.285427 -3.013454
v -0.000000 -0.285427 -3.082730
v 0.127510 -0.285427 -3.013454
v 0.344753 0.115275 -2.394022
v 0.487555 0.115275 -2.846208
v -0.000000 0.115275 -2.206719
v -0.344754 0.115275 -2.394022
v -0.487555 0.115275 -2.846208
v -0.344754 0.115275 -3.298395
v -0.000000 0.115275 -3.485698
v 0.344753 0.115275 -3.298395
v 0.204989 -0.210875 -2.569652
v 0.292326 -0.210875 -2.846208
v -0.000000 -0.210875 -2.458283
v -0.204989 -0.210875 -2.569652
v -0.292326 -0.210875 -2.846208
v -0.204989 -0.210875 -3.122765
v -0.000000 -0.210875 -3.234133
v 0.204989 -0.210875 -3.122765
v 0.284132 0.007660 -3.229539
v -0.000000 0.007660 -3.383906
v -0.284132 0.007660 -3.229539
v -0.405189 0.007660 -2.846208
v -0.284132 0.007660 -2.462878
v -0.000000 0.007660 -2.308510
v 0.284132 0.007660 -2.462878
v 0.405189 0.007660 -2.846208
v 0.075627 0.000000 2.419872
v 0.053477 0.053477 2.419872
v 0.000000 0.075628 2.419872
v -0.053477 0.053477 2.419872
v -0.075627 0.000000 2.419872
v -0.053477 -0.053476 2.419872
v 0.000000 -0.075627 2.419872
v 0.053477 -0.053476 2.419872
vt 0.083421 -0.238905
vt 0.083421 -0.238905
vt 0.083421 -0.238905
vt 0.083421 -0.238905
vt 0.083421 -0.238905
vt 0.083421 -0.238905
vt 0.083421 -0.238905
vt 0.083421 -0.238905
vt 0.083421 -0.238905
vt 0.083421 -0.238905
vt 0.083421 -0.238905
vt 0.083421 -0.238905
vt 0.083421 -0.238905
vt 0.083421 -0.238905
vt 0.083421 -0.238905
vt 0.083421 -0.238905
vt 0.083421 -0.238905
vt 0.083421 -0.238905
vt 0.083421 -0.238905
vt 0.083421 -0.238905
vt 0.083421 -0.238905
vt 0.083421 -0.238905
vt 0.083421 -0.238905
vt 0.083421 -0.238905
vt 0.083421 -0.238905
vt 0.083421 -0.238905
vt 0.083421 -0.238905
vt 0.083421 -0.238905
vt 0.083421 -0.238905
vt 0.083421 -0.238905
vt 0.083421 -0.238905
vt 0.083421 -0.238905
vt 0.083421 -0.238905
vt 0.083421 -0.238905
vt 0.083421 -0.238905
vt 0.083421 -0.238905
vt 0.083421 -0.238905
vt 0.083421 -0.238905
vt 0.083421 -0.238905
vt 0.083421 -0.238905
vt 0.083421 -0.238905
vt 0.083421 -0.238905
vt 0.083421 -0.238905
vt 0.083421 -0.238905
vt 0.083421 -0.238905
vt 0.083421 -0.238905
vt 0.083421 -0.238905
vt 0.083421 -0.238905
vt 0.083421 -0.238905
vt 0.083421 -0.238905
vt 0.083421 -0.238905
vt 0.083421 -0.238905
vt 0.083421 -0.238905
vt 0.083421 -0.238905
vt 0.083421 -0.238905
vt 0.083421 -0.238905
vt 0.083421 -0.238905
vt 0.083421 -0.238905
vt 0.083421 -0.238905
vt 0.083421 -0.238905
vt 0.083421 -0.238905
vt 0.083421 -0.238905
vt 0.083421 -0.238905
vt 0.083421 -0.238905
vt 0.083421 -0.238905
vt 0.083421 -0.238905
vt 0.083421 -0.238905
vt 0.083421 -0.238905
vt 0.083421 -0.238905
vt 0.083421 -0.238905
vt 0.083421 -0.238905
vt 0.083421 -0.238905
vt 0.083421 -0.238905
vt 0.083421 -0.238905
vt 0.083421 -0.238905
vt 0.083421 -0.238905
vt 0.083421 -0.238905
vt 0.083421 -0.238905
vt 0.083421 -0.238905
vt 0.083421 -0.238905
vn 0.9741 0.0000 0.2263
vn 0.8205 0.1351 -0.5555
vn 0.5148 0.6776 -0.5252
vn 0.6880 0.6896 0.2262
vn -0.0000 0.8658 -0.5004
vn -0.0000 0.9741 0.2261
vn -0.5148 0.6776 -0.5252
vn -0.6880 0.6896 0.2262
vn -0.8205 0.1351 -0.5555
vn -0.9741 0.0000 0.2263
vn -0.5504 -0.3944 -0.7359
vn -0.6880 -0.6896 0.2262
vn -0.0000 -0.6668 -0.7453
vn 0.0000 -0.9741 0.2261
vn 0.5504 -0.3944 -0.7359
vn 0.6880 -0.6896 0.2262
vn 0.4243 -0.4243 0.7999
vn 0.0000 -0.6001 0.7999
vn 0.0000 0.3762 0.9265
vn 0.0000 0.8247 0.5655
vn -0.4592 0.8159 0.3513
vn -0.7232 0.3393 0.6015
vn 0.5338 -0.7317 -0.4238
vn 0.1880 -0.9732 -0.1324
vn -0.0000 -0.9779 -0.2093
vn -0.0000 -0.7590 -0.6510
vn 0.9100 -0.4147 0.0000
vn 0.7083 -0.7059 0.0000
vn 0.6886 -0.4573 -0.5627
vn -0.0000 -0.5073 -0.8618
vn -0.5338 -0.7317 -0.4238
vn -0.6886 -0.4573 -0.5627
vn -0.9100 -0.4147 -0.0000
vn -0.7083 -0.7059 0.0000
vn -0.5338 -0.7317 0.4238
vn -0.6886 -0.4573 0.5627
vn -0.0000 -0.5073 0.8618
vn -0.0000 -0.7590 0.6510
vn 0.5338 -0.7317 0.4238
vn 0.6886 -0.4573 0.5627
vn 0.6696 0.4708 0.5745
vn 0.8648 0.5021 -0.0000
vn -0.6696 0.4708 0.5745
vn -0.0000 0.4335 0.9011
vn -0.6696 0.4708 -0.5745
vn -0.8648 0.5021 -0.0000
vn 0.6696 0.4708 -0.5745
vn -0.0000 0.4335 -0.9011
vn 0.1880 -0.9732 0.1324
vn -0.0000 -0.9779 0.2093
vn -0.1880 -0.9732 0.1324
vn -0.2428 -0.9701 0.0000
vn -0.1880 -0.9732 -0.1324
vn 0.2428 -0.9701 0.0000
vn -0.4033 0.8497 -0.3395
vn -0.5619 0.8272 -0.0000
vn 0.0000 0.8795 -0.4759
vn 0.4033 0.8497 -0.3395
vn 0.5619 0.8272 -0.0000
vn 0.4033 0.8497 0.3395
vn 0.0000 0.8795 0.4759
vn -0.4033 0.8497 0.3395
vn -0.4592 0.8159 -0.3513
vn -0.5864 0.8100 -0.0000
vn 0.4592 0.8159 0.3513
vn 0.5864 0.8100 -0.0000
vn 0.4592 0.8159 -0.3513
vn 0.0000 0.8247 -0.5655
vn 0.9522 0.3054 -0.0000
vn 0.7232 0.3393 0.6015
vn 0.0000 0.3762 -0.9265
vn 0.7232 0.3393 -0.6015
vn -0.9522 0.3054 -0.0000
vn -0.7232 0.3393 -0.6015
vn 0.6001 -0.0000 0.7999
vn 0.4243 0.4243 0.7999
vn -0.0000 0.6001 0.7999
vn -0.4243 0.4243 0.7999
vn -0.6001 0.0000 0.7999
vn -0.4243 -0.4243 0.7999
usemtl Solid.155
s 1
f 1/1/1 2/2/2 4/3/3 3/4/4
f 3/4/4 4/3/3 6/5/5 5/6/6
f 5/6/6 6/5/5 8/7/7 7/8/8
f 7/8/8 8/7/7 10/9/9 9/10/10
f 9/10/10 10/9/9 12/11/11 11/12/12
f 11/12/12 12/11/11 14/13/13 13/14/14
f 4/3/3 2/2/2 16/15/15 14/13/13 12/11/11 10/9/9 8/7/7 6/5/5
f 13/14/14 14/13/13 16/15/15 15/16/16
f 15/16/16 16/15/15 2/2/2 1/1/1
f 13/14/14 15/16/16 80/17/17 79/18/18
f 66/19/19 63/20/20 64/21/21 65/22/22
f 32/23/23 48/24/24 47/25/25 31/26/26
f 34/27/27 26/28/28 32/23/23 33/29/29
f 36/30/30 31/26/26 30/31/31 35/32/32
f 38/33/33 29/34/34 28/35/35 37/36/36
f 40/37/37 27/38/38 25/39/39 39/40/40
f 33/29/29 32/23/23 31/26/26 36/30/30
f 35/32/32 30/31/31 29/34/34 38/33/33
f 37/36/36 28/35/35 27/38/38 40/37/37
f 39/40/40 25/39/39 26/28/28 34/27/27
f 49/41/41 39/40/40 34/27/27 50/42/42
f 52/43/43 37/36/36 40/37/37 51/44/44
f 54/45/45 35/32/32 38/33/33 53/46/46
f 56/47/47 33/29/29 36/30/30 55/48/48
f 51/44/44 40/37/37 39/40/40 49/41/41
f 53/46/46 38/33/33 37/36/36 52/43/43
f 55/48/48 36/30/30 35/32/32 54/45/45
f 50/42/42 34/27/27 33/29/29 56/47/47
f 41/49/49 43/50/50 44/51/51 45/52/52 46/53/53 47/25/25 48/24/24 42/54/54
f 30/31/31 46/53/53 45/52/52 29/34/34
f 28/35/35 44/51/51 43/50/50 27/38/38
f 25/39/39 41/49/49 42/54/54 26/28/28
f 26/28/28 42/54/54 48/24/24 32/23/23
f 31/26/26 47/25/25 46/53/53 30/31/31
f 29/34/34 45/52/52 44/51/51 28/35/35
f 27/38/38 43/50/50 41/49/49 25/39/39
f 18/55/55 49/41/41 50/42/42 17/56/56
f 19/57/57 51/44/44 49/41/41 18/55/55
f 20/58/58 52/43/43 51/44/44 19/57/57
f 21/59/59 53/46/46 52/43/43 20/58/58
f 22/60/60 54/45/45 53/46/46 21/59/59
f 23/61/61 55/48/48 54/45/45 22/60/60
f 24/62/62 56/47/47 55/48/48 23/61/61
f 17/56/56 50/42/42 56/47/47 24/62/62
f 57/63/63 58/64/64 64/21/21 63/20/20 62/65/65 61/66/66 60/67/67 59/68/68
f 68/69/69 61/66/66 62/65/65 67/70/70
f 70/71/71 59/68/68 60/67/67 69/72/72
f 72/73/73 58/64/64 57/63/63 71/74/74
f 65/22/22 64/21/21 58/64/64 72/73/73
f 67/70/70 62/65/65 63/20/20 66/19/19
f 69/72/72 60/67/67 61/66/66 68/69/69
f 71/74/74 57/63/63 59/68/68 70/71/71
f 18/55/55 71/74/74 70/71/71 19/57/57
f 20/58/58 69/72/72 68/69/69 21/59/59
f 22/60/60 67/70/70 66/19/19 23/61/61
f 24/62/62 65/22/22 72/73/73 17/56/56
f 17/56/56 72/73/73 71/74/74 18/55/55
f 19/57/57 70/71/71 69/72/72 20/58/58
f 21/59/59 68/69/69 67/70/70 22/60/60
f 23/61/61 66/19/19 65/22/22 24/62/62
f 73/75/75 74/76/76 75/77/77 76/78/78 77/79/79 78/80/80 79/18/18 80/17/17
f 3/4/4 5/6/6 75/77/77 74/76/76
f 9/10/10 11/12/12 78/80/80 77/79/79
f 15/16/16 1/1/1 73/75/75 80/17/17
f 1/1/1 3/4/4 74/76/76 73/75/75
f 5/6/6 7/8/8 76/78/78 75/77/77
f 11/12/12 13/14/14 79/18/18 78/80/80
f 7/8/8 9/10/10 77/79/79 76/78/78
