# Blender v2.93.1 OBJ File: ''
# www.blender.org
mtllib cutensil_grind_mortar_and_pestle.mtl
o cutensil_grind_mortar_and_pestle_Cylinder.006
v 0.000000 -0.179916 -0.892529
v 0.000000 1.000000 -0.840456
v 0.631113 -0.179916 -0.631113
v 0.594292 1.000000 -0.594292
v 0.892529 -0.179916 0.000000
v 0.840456 1.000000 -0.000000
v 0.631113 -0.179916 0.631113
v 0.594292 1.000000 0.594292
v -0.000000 -0.179916 0.892529
v -0.000000 1.000000 0.840456
v -0.631113 -0.179916 0.631113
v -0.594292 1.000000 0.594292
v -0.892529 -0.179916 0.000000
v -0.840456 1.000000 -0.000000
v -0.631113 -0.179916 -0.631113
v -0.594292 1.000000 -0.594292
v 0.000000 -0.340008 -0.728617
v 0.515210 -0.340008 -0.515210
v 0.728617 -0.340008 0.000000
v 0.515210 -0.340007 0.515210
v -0.000000 -0.340007 0.728618
v -0.515210 -0.340007 0.515211
v -0.728617 -0.340008 0.000000
v -0.515210 -0.340008 -0.515210
v 0.707107 1.000000 -0.707107
v 0.000000 1.000000 -1.000000
v 1.000000 1.000000 -0.000000
v 0.707107 1.000000 0.707107
v -0.000000 1.000000 1.000000
v -0.707107 1.000000 0.707107
v -1.000000 1.000000 -0.000000
v -0.707107 1.000000 -0.707107
v 0.594292 0.247992 -0.594292
v 0.000000 0.247992 -0.840456
v 0.840456 0.247992 0.000000
v 0.594292 0.247992 0.594292
v -0.000000 0.247992 0.840456
v -0.594292 0.247992 0.594292
v -0.840456 0.247992 -0.000000
v -0.594292 0.247992 -0.594292
v 0.530161 0.038725 -0.530161
v 0.000000 0.038725 -0.749761
v 0.749761 0.038725 0.000000
v 0.530161 0.038726 0.530161
v -0.000000 0.038726 0.749761
v -0.530161 0.038726 0.530161
v -0.749761 0.038725 -0.000000
v -0.530161 0.038725 -0.530161
v 0.369279 -0.074092 -0.369279
v -0.000000 -0.074092 -0.522239
v 0.522239 -0.074092 0.000000
v 0.369279 -0.074092 0.369279
v -0.000000 -0.074092 0.522239
v -0.369279 -0.074092 0.369279
v -0.522239 -0.074092 -0.000000
v -0.369279 -0.074092 -0.369279
v 0.000000 0.875883 -1.020822
v 0.721830 0.875883 -0.721830
v 1.020822 0.875883 -0.000000
v 0.721830 0.875883 0.721830
v -0.000000 0.875883 1.020822
v -0.721830 0.875883 0.721830
v -1.020822 0.875883 -0.000000
v -0.721830 0.875883 -0.721830
v 0.000000 -0.334578 -0.390404
v 0.276057 -0.334578 -0.276057
v 0.390404 -0.334578 0.000000
v 0.276057 -0.334578 0.276057
v -0.000000 -0.334578 0.390404
v -0.276057 -0.334578 0.276057
v -0.390404 -0.334578 0.000000
v -0.276057 -0.334578 -0.276057
v 0.000000 -0.524695 -0.465923
v 0.329458 -0.524695 -0.329458
v 0.465923 -0.524695 0.000000
v 0.329458 -0.524695 0.329458
v -0.000000 -0.524695 0.465923
v -0.329458 -0.524695 0.329458
v -0.465923 -0.524695 0.000000
v -0.329458 -0.524695 -0.329457
v 0.000000 -0.334578 -0.614325
v 0.434393 -0.334578 -0.434393
v 0.614325 -0.334578 0.000000
v 0.434393 -0.334578 0.434393
v -0.000000 -0.334578 0.614325
v -0.434393 -0.334578 0.434394
v -0.614325 -0.334578 0.000000
v -0.434393 -0.334578 -0.434393
v -0.000000 -0.524695 -0.733159
v 0.518422 -0.524695 -0.518422
v 0.733160 -0.524695 0.000000
v 0.518422 -0.524695 0.518422
v -0.000000 -0.524695 0.733160
v -0.518422 -0.524695 0.518422
v -0.733160 -0.524695 0.000000
v -0.518422 -0.524695 -0.518422
v 0.132074 -0.199522 0.031588
v 0.046928 -0.145367 -0.297891
v 0.005331 -0.098703 0.335744
v -0.259058 0.098032 0.436407
v -0.506217 0.275439 0.274609
v -0.591364 0.329594 -0.054870
v -0.464620 0.228775 -0.359026
v -0.200231 0.032040 -0.459688
v 0.935998 1.157611 -0.015580
v 0.880376 1.192989 -0.230813
v 0.853202 1.223471 0.183111
v 0.680489 1.351989 0.248869
v 0.519032 1.467881 0.143174
v 0.463409 1.503258 -0.072059
v 0.546205 1.437398 -0.270750
v 0.718918 1.308880 -0.336508
v -0.015024 -0.276153 0.027575
v -0.086263 -0.230843 -0.248088
v -0.121066 -0.191801 0.282051
v -0.342270 -0.027200 0.366271
v -0.549059 0.121229 0.230901
v -0.620298 0.166539 -0.044762
v -0.514256 0.082188 -0.299237
v -0.293052 -0.082413 -0.383458
v 0.934396 1.209327 -0.019494
v 0.884835 1.240849 -0.211271
v 0.860623 1.268010 0.157544
v 0.706732 1.382522 0.216136
v 0.562871 1.485784 0.121959
v 0.513310 1.517306 -0.069818
v 0.587083 1.458623 -0.246856
v 0.740974 1.344111 -0.305447
vt 0.029649 -0.491667
vt 0.029649 -0.491667
vt 0.029649 -0.491667
vt 0.029649 -0.491667
vt 0.029649 -0.491667
vt 0.029649 -0.491667
vt 0.029649 -0.491667
vt 0.029649 -0.491667
vt 0.029649 -0.491667
vt 0.029649 -0.491667
vt 0.029649 -0.491667
vt 0.029649 -0.491667
vt 0.029649 -0.491667
vt 0.029649 -0.491667
vt 0.029649 -0.491667
vt 0.029649 -0.491667
vt 0.029649 -0.491667
vt 0.029649 -0.491667
vt 0.029649 -0.491667
vt 0.029649 -0.491667
vt 0.029649 -0.491667
vt 0.029649 -0.491667
vt 0.029649 -0.491667
vt 0.029649 -0.491667
vt 0.029649 -0.491667
vt 0.029649 -0.491667
vt 0.029649 -0.491667
vt 0.029649 -0.491667
vt 0.029649 -0.491667
vt 0.029649 -0.491667
vt 0.029649 -0.491667
vt 0.029649 -0.491667
vt 0.029649 -0.491667
vt 0.029649 -0.491667
vt 0.029649 -0.491667
vt 0.029649 -0.491667
vt 0.029649 -0.491667
vt 0.029649 -0.491667
vt 0.029649 -0.491667
vt 0.029649 -0.491667
vt 0.029649 -0.491667
vt 0.029649 -0.491667
vt 0.029649 -0.491667
vt 0.029649 -0.491667
vt 0.029649 -0.491667
vt 0.029649 -0.491667
vt 0.029649 -0.491667
vt 0.029649 -0.491667
vt 0.029649 -0.491667
vt 0.029649 -0.491667
vt 0.029649 -0.491667
vt 0.029649 -0.491667
vt 0.029649 -0.491667
vt 0.029649 -0.491667
vt 0.029649 -0.491667
vt 0.029649 -0.491667
vt 0.029649 -0.491667
vt 0.029649 -0.491667
vt 0.029649 -0.491667
vt 0.029649 -0.491667
vt 0.029649 -0.491667
vt 0.029649 -0.491667
vt 0.029649 -0.491667
vt 0.029649 -0.491667
vt 0.029649 -0.491667
vt 0.029649 -0.491667
vt 0.029649 -0.491667
vt 0.029649 -0.491667
vt 0.029649 -0.491667
vt 0.029649 -0.491667
vt 0.029649 -0.491667
vt 0.029649 -0.491667
vt 0.029649 -0.491667
vt 0.029649 -0.491667
vt 0.029649 -0.491667
vt 0.029649 -0.491667
vt 0.029649 -0.491667
vt 0.029649 -0.491667
vt 0.029649 -0.491667
vt 0.029649 -0.491667
vt 0.029649 -0.491667
vt 0.029649 -0.491667
vt 0.029649 -0.491667
vt 0.029649 -0.491667
vt 0.029649 -0.491667
vt 0.029649 -0.491667
vt 0.029649 -0.491667
vt 0.029649 -0.491667
vt 0.029649 -0.491667
vt 0.029649 -0.491667
vt 0.029649 -0.491667
vt 0.029649 -0.491667
vt 0.029649 -0.491667
vt 0.029649 -0.491667
vt 0.029649 -0.491667
vt 0.029649 -0.491667
vt 0.029649 -0.491667
vt 0.029649 -0.491667
vt 0.029649 -0.491667
vt 0.029649 -0.491667
vt 0.029649 -0.491667
vt 0.029649 -0.491667
vt 0.029649 -0.491667
vt 0.029649 -0.491667
vt 0.029649 -0.491667
vt 0.029649 -0.491667
vt 0.029649 -0.491667
vt 0.029649 -0.491667
vt 0.029649 -0.491667
vt 0.029649 -0.491667
vt 0.029649 -0.491667
vt 0.029649 -0.491667
vt 0.029649 -0.491667
vt 0.029649 -0.491667
vt 0.029649 -0.491667
vt 0.029649 -0.491667
vt 0.029649 -0.491667
vt 0.029649 -0.491667
vt 0.029649 -0.491667
vt 0.029649 -0.491667
vt 0.029649 -0.491667
vt 0.029649 -0.491667
vt 0.029649 -0.491667
vt 0.029649 -0.491667
vt 0.029649 -0.491667
vt 0.029649 -0.491667
vt 0.029649 -0.491667
vt 0.029649 -0.491667
vn 0.0000 0.0219 -0.9998
vn 0.0000 0.6916 -0.7223
vn 0.5108 0.6916 -0.5108
vn 0.7069 0.0219 -0.7069
vn 0.7223 0.6916 -0.0000
vn 0.9998 0.0219 -0.0000
vn 0.5108 0.6916 0.5108
vn 0.7069 0.0219 0.7069
vn 0.0000 0.6916 0.7223
vn 0.0000 0.0219 0.9998
vn -0.5108 0.6916 0.5108
vn -0.7069 0.0219 0.7069
vn -0.7223 0.6916 -0.0000
vn -0.9998 0.0219 0.0000
vn -0.0000 0.8042 -0.5944
vn -0.4203 0.8042 -0.4203
vn -0.6937 0.1939 -0.6937
vn 0.0000 0.1939 -0.9810
vn -0.5108 0.6916 -0.5108
vn -0.7069 0.0219 -0.7069
vn -0.9104 -0.4138 0.0000
vn -0.6437 -0.4138 -0.6437
vn -0.3196 -0.8920 -0.3196
vn -0.4520 -0.8920 0.0000
vn 0.0000 -0.8920 -0.4520
vn 0.3196 -0.8920 -0.3196
vn 0.4520 -0.8920 0.0000
vn 0.3196 -0.8920 0.3196
vn -0.0000 -0.8920 0.4520
vn -0.3196 -0.8920 0.3196
vn 0.6437 -0.4138 -0.6437
vn 0.9104 -0.4138 0.0000
vn -0.0000 -0.4138 0.9104
vn -0.6437 -0.4138 0.6437
vn 0.0000 -0.4138 -0.9104
vn 0.6437 -0.4138 0.6437
vn 0.0000 0.8042 0.5944
vn -0.4203 0.8042 0.4203
vn -0.5944 0.8042 -0.0000
vn 0.4203 0.8042 -0.4203
vn 0.5944 0.8042 -0.0000
vn 0.4203 0.8042 0.4203
vn 0.0000 0.1939 0.9810
vn 0.6937 0.1939 0.6937
vn 0.5379 0.6491 0.5379
vn -0.0000 0.6491 0.7607
vn -0.6937 0.1939 0.6937
vn -0.9810 0.1939 0.0000
vn 0.9810 0.1939 -0.0000
vn 0.6937 0.1939 -0.6937
vn 0.5379 0.6491 -0.5379
vn 0.0000 0.6491 -0.7607
vn 0.0000 0.9598 -0.2806
vn 0.1984 0.9598 -0.1984
vn 0.7607 0.6491 -0.0000
vn -0.5379 0.6491 -0.5379
vn -0.5379 0.6491 0.5379
vn -0.7607 0.6491 -0.0000
vn -0.1984 0.9598 0.1984
vn -0.0000 0.9598 0.2806
vn 0.1984 0.9598 0.1984
vn 0.2806 0.9598 -0.0000
vn -0.1984 0.9598 -0.1984
vn -0.2806 0.9598 -0.0000
vn -0.4506 -0.8927 0.0000
vn -0.3186 -0.8927 -0.3186
vn -0.5192 0.6789 -0.5192
vn -0.7342 0.6789 -0.0000
vn -0.3186 -0.8927 0.3186
vn -0.5192 0.6789 0.5192
vn -0.0000 0.8241 -0.5665
vn 0.4006 0.8241 -0.4006
vn 0.6442 -0.4122 -0.6442
vn -0.0000 -0.4122 -0.9111
vn -0.4006 0.8241 -0.4006
vn -0.6442 -0.4122 -0.6442
vn -0.4006 0.8241 0.4006
vn -0.5665 0.8241 -0.0000
vn -0.9111 -0.4122 0.0000
vn -0.6442 -0.4122 0.6442
vn 0.4006 0.8241 0.4006
vn 0.0000 0.8241 0.5665
vn -0.0000 -0.4122 0.9111
vn 0.6442 -0.4122 0.6442
vn 0.5665 0.8241 -0.0000
vn 0.9111 -0.4122 0.0000
vn 0.0000 0.6789 0.7342
vn -0.0000 0.6789 -0.7342
vn 0.5192 0.6789 -0.5192
vn 0.7342 0.6789 -0.0000
vn 0.5192 0.6789 0.5192
vn -0.0000 -0.8927 0.4506
vn -0.0000 -0.8927 -0.4506
vn 0.3186 -0.8927 -0.3186
vn 0.4506 -0.8927 0.0000
vn 0.3186 -0.8927 0.3186
vn -0.6141 0.2229 -0.7571
vn -0.0352 -0.2079 -0.9775
vn -0.4292 -0.6833 -0.5906
vn -0.7873 -0.4168 -0.4543
vn 0.2692 0.2146 -0.9389
vn -0.2806 0.6237 -0.7296
vn 0.2369 0.8778 -0.4164
vn 0.5404 0.6519 -0.5319
vn -0.8916 0.4436 -0.0912
vn -0.7051 0.3251 0.6302
vn -0.3671 0.7207 0.5880
vn -0.5442 0.8333 -0.0971
vn -0.1640 -0.0634 0.9844
vn 0.4149 -0.4941 0.7640
vn 0.6966 -0.0573 0.7152
vn 0.1468 0.3518 0.9245
vn 0.6924 -0.7148 0.0981
vn 0.5059 -0.5963 -0.6233
vn 0.7831 -0.1543 -0.6024
vn 0.9602 -0.2669 0.0827
vn 0.0209 -0.9970 0.0748
vn -0.1508 -0.8604 0.4868
vn -0.5089 -0.5939 0.6231
vn -0.8437 -0.3536 0.4040
vn -0.9590 -0.2803 -0.0423
vn -0.0944 -0.9236 -0.3715
vn 0.9219 0.3861 0.0321
vn 0.8241 0.4483 -0.3462
vn 0.0914 0.9936 -0.0672
vn 0.1891 0.9314 0.3111
vn 0.4729 0.7277 0.4968
vn 0.7764 0.5018 0.3813
usemtl Solid.121
s 1
f 57/1/1 26/2/2 25/3/3 58/4/4
f 58/4/4 25/3/3 27/5/5 59/6/6
f 59/6/6 27/5/5 28/7/7 60/8/8
f 60/8/8 28/7/7 29/9/9 61/10/10
f 61/10/10 29/9/9 30/11/11 62/12/12
f 62/12/12 30/11/11 31/13/13 63/14/14
f 10/15/15 8/16/16 36/17/17 37/18/18
f 63/14/14 31/13/13 32/19/19 64/20/20
f 64/20/20 32/19/19 26/2/2 57/1/1
f 13/21/21 15/22/22 24/23/23 23/24/24
f 17/25/25 18/26/26 19/27/27 20/28/28 21/29/29 22/30/30 23/24/24 24/23/23
f 3/31/31 5/32/32 19/27/27 18/26/26
f 9/33/33 11/34/34 22/30/30 21/29/29
f 15/22/22 1/35/35 17/25/25 24/23/23
f 1/35/35 3/31/31 18/26/26 17/25/25
f 5/32/32 7/36/36 20/28/28 19/27/27
f 11/34/34 13/21/21 23/24/24 22/30/30
f 7/36/36 9/33/33 21/29/29 20/28/28
f 2/37/37 4/38/38 25/3/3 26/2/2
f 4/38/38 6/39/39 27/5/5 25/3/3
f 6/39/39 8/16/16 28/7/7 27/5/5
f 8/16/16 10/15/15 29/9/9 28/7/7
f 10/15/15 12/40/40 30/11/11 29/9/9
f 12/40/40 14/41/41 31/13/13 30/11/11
f 14/41/41 16/42/42 32/19/19 31/13/13
f 16/42/42 2/37/37 26/2/2 32/19/19
f 34/43/43 40/44/44 48/45/45 42/46/46
f 6/39/39 4/38/38 33/47/47 35/48/48
f 16/42/42 14/41/41 39/49/49 40/44/44
f 12/40/40 10/15/15 37/18/18 38/50/50
f 8/16/16 6/39/39 35/48/48 36/17/17
f 4/38/38 2/37/37 34/43/43 33/47/47
f 2/37/37 16/42/42 40/44/44 34/43/43
f 14/41/41 12/40/40 38/50/50 39/49/49
f 46/51/51 45/52/52 53/53/53 54/54/54
f 39/49/49 38/50/50 46/51/51 47/55/55
f 37/18/18 36/17/17 44/56/56 45/52/52
f 35/48/48 33/47/47 41/57/57 43/58/58
f 40/44/44 39/49/49 47/55/55 48/45/45
f 38/50/50 37/18/18 45/52/52 46/51/51
f 36/17/17 35/48/48 43/58/58 44/56/56
f 33/47/47 34/43/43 42/46/46 41/57/57
f 49/59/59 50/60/60 56/61/61 55/62/62 54/54/54 53/53/53 52/63/63 51/64/64
f 44/56/56 43/58/58 51/64/64 52/63/63
f 41/57/57 42/46/46 50/60/60 49/59/59
f 42/46/46 48/45/45 56/61/61 50/60/60
f 47/55/55 46/51/51 54/54/54 55/62/62
f 45/52/52 44/56/56 52/63/63 53/53/53
f 43/58/58 41/57/57 49/59/59 51/64/64
f 48/45/45 47/55/55 55/62/62 56/61/61
f 15/22/22 64/20/20 57/1/1 1/35/35
f 13/21/21 63/14/14 64/20/20 15/22/22
f 11/34/34 62/12/12 63/14/14 13/21/21
f 9/33/33 61/10/10 62/12/12 11/34/34
f 7/36/36 60/8/8 61/10/10 9/33/33
f 5/32/32 59/6/6 60/8/8 7/36/36
f 3/31/31 58/4/4 59/6/6 5/32/32
f 1/35/35 57/1/1 58/4/4 3/31/31
f 75/65/65 76/66/66 68/67/67 67/68/68
f 74/69/69 75/65/65 67/68/68 66/70/70
f 81/71/71 82/72/72 90/73/73 89/74/74
f 88/75/75 81/71/71 89/74/74 96/76/76
f 86/77/77 87/78/78 95/79/79 94/80/80
f 84/81/81 85/82/82 93/83/83 92/84/84
f 82/72/72 83/85/85 91/86/86 90/73/73
f 87/78/78 88/75/75 96/76/76 95/79/79
f 85/82/82 86/77/77 94/80/80 93/83/83
f 83/85/85 84/81/81 92/84/84 91/86/86
f 65/87/87 66/70/70 82/72/72 81/71/71
f 66/70/70 67/68/68 83/85/85 82/72/72
f 67/68/68 68/67/67 84/81/81 83/85/85
f 68/67/67 69/88/88 85/82/82 84/81/81
f 69/88/88 70/89/89 86/77/77 85/82/82
f 70/89/89 71/90/90 87/78/78 86/77/77
f 71/90/90 72/91/91 88/75/75 87/78/78
f 72/91/91 65/87/87 81/71/71 88/75/75
f 74/69/69 73/92/92 89/74/74 90/73/73
f 75/65/65 74/69/69 90/73/73 91/86/86
f 76/66/66 75/65/65 91/86/86 92/84/84
f 77/93/93 76/66/66 92/84/84 93/83/83
f 78/94/94 77/93/93 93/83/83 94/80/80
f 79/95/95 78/94/94 94/80/80 95/79/79
f 80/96/96 79/95/95 95/79/79 96/76/76
f 73/92/92 80/96/96 96/76/76 89/74/74
f 76/66/66 77/93/93 69/88/88 68/67/67
f 77/93/93 78/94/94 70/89/89 69/88/88
f 78/94/94 79/95/95 71/90/90 70/89/89
f 79/95/95 80/96/96 72/91/91 71/90/90
f 80/96/96 73/92/92 65/87/87 72/91/91
f 73/92/92 74/69/69 66/70/70 65/87/87
f 103/97/97 104/98/98 120/99/99 119/100/100
f 112/101/101 111/102/102 127/103/103 128/104/104
f 104/98/98 103/97/97 111/102/102 112/101/101
f 102/105/105 101/106/106 109/107/107 110/108/108
f 100/109/109 99/110/110 107/111/111 108/112/112
f 97/113/113 98/114/114 106/115/115 105/116/116
f 98/114/114 104/98/98 112/101/101 106/115/115
f 103/97/97 102/105/105 110/108/108 111/102/102
f 101/106/106 100/109/109 108/112/112 109/107/107
f 99/110/110 97/113/113 105/116/116 107/111/111
f 113/117/117 115/118/118 116/119/119 117/120/120 118/121/121 119/100/100 120/99/99 114/122/122
f 101/106/106 102/105/105 118/121/121 117/120/120
f 99/110/110 100/109/109 116/119/119 115/118/118
f 98/114/114 97/113/113 113/117/117 114/122/122
f 104/98/98 98/114/114 114/122/122 120/99/99
f 102/105/105 103/97/97 119/100/100 118/121/121
f 100/109/109 101/106/106 117/120/120 116/119/119
f 97/113/113 99/110/110 115/118/118 113/117/117
f 121/123/123 122/124/124 128/104/104 127/103/103 126/125/125 125/126/126 124/127/127 123/128/128
f 110/108/108 109/107/107 125/126/126 126/125/125
f 108/112/112 107/111/111 123/128/128 124/127/127
f 105/116/116 106/115/115 122/124/124 121/123/123
f 106/115/115 112/101/101 128/104/104 122/124/124
f 111/102/102 110/108/108 126/125/125 127/103/103
f 109/107/107 108/112/112 124/127/127 125/126/126
f 107/111/111 105/116/116 121/123/123 123/128/128
