# Blender v2.93.1 OBJ File: ''
# www.blender.org
mtllib board_cutting_board_001.mtl
o board_cutting_board.001_Cube.117
v -2.141914 -0.171156 1.492436
v -2.150162 -0.134274 1.532625
v -2.428139 -0.171156 1.135571
v -2.465021 -0.134274 1.142666
v -2.343349 -0.171156 1.389098
v -2.372801 -0.134274 1.418409
v -2.428139 0.171157 1.135571
v -2.465021 0.134275 1.142666
v -2.141914 0.171157 1.492436
v -2.150162 0.134275 1.532625
v -2.343349 0.171157 1.389098
v -2.372801 0.134275 1.418409
v -2.428139 -0.171157 -1.135571
v -2.465021 -0.134275 -1.142666
v -2.141914 -0.171157 -1.492436
v -2.150162 -0.134275 -1.532625
v -2.343349 -0.171157 -1.389098
v -2.372801 -0.134275 -1.418409
v -2.141914 0.171156 -1.492436
v -2.150162 0.134274 -1.532625
v -2.428139 0.171156 -1.135571
v -2.465021 0.134274 -1.142666
v -2.343349 0.171156 -1.389098
v -2.372801 0.134274 -1.418409
v 2.428139 -0.171156 1.135571
v 2.465021 -0.134274 1.142666
v 2.141914 -0.171156 1.492436
v 2.150162 -0.134274 1.532625
v 2.343349 -0.171156 1.389098
v 2.372801 -0.134274 1.418409
v 2.141914 0.171157 1.492436
v 2.150162 0.134275 1.532625
v 2.428139 0.171157 1.135571
v 2.465021 0.134275 1.142666
v 2.343349 0.171157 1.389098
v 2.372801 0.134275 1.418409
v 2.141914 -0.171157 -1.492436
v 2.150162 -0.134275 -1.532625
v 2.428139 -0.171157 -1.135571
v 2.465021 -0.134275 -1.142666
v 2.343349 -0.171157 -1.389098
v 2.372801 -0.134275 -1.418409
v 2.428139 0.171156 -1.135571
v 2.465021 0.134274 -1.142666
v 2.141914 0.171156 -1.492436
v 2.150162 0.134274 -1.532625
v 2.343349 0.171156 -1.389098
v 2.372801 0.134274 -1.418409
v -2.203645 0.171156 -0.813815
v -2.181634 0.171156 -0.945468
v -2.203645 0.171157 0.813815
v -2.181634 0.171157 0.945468
v -2.128495 0.171157 1.000000
v -2.128495 0.171156 -1.000000
v -1.911824 0.171156 -1.000000
v -1.836674 0.171157 0.813815
v -1.836674 0.171156 -0.813815
v -1.858685 0.171156 -0.945468
v -1.911824 0.171157 1.000000
v -1.858685 0.171157 0.945468
v -2.203645 -0.171156 0.813815
v -2.203645 -0.171157 -0.813815
v -2.181634 -0.171157 -0.945468
v -2.181634 -0.171156 0.945468
v -1.911824 -0.171157 -1.000000
v -1.836674 -0.171157 -0.813815
v -1.858685 -0.171157 -0.945468
v -2.128495 -0.171157 -1.000000
v -1.911824 -0.171156 1.000000
v -2.128495 -0.171156 1.000000
v -1.858685 -0.171156 0.945468
v -1.836674 -0.171156 0.813815
vt 0.084535 -0.699539
vt 0.084535 -0.699539
vt 0.084535 -0.699539
vt 0.084535 -0.699539
vt 0.084535 -0.699539
vt 0.084535 -0.699539
vt 0.084535 -0.699539
vt 0.084535 -0.699539
vt 0.084535 -0.699539
vt 0.084535 -0.699539
vt 0.084535 -0.699539
vt 0.084535 -0.699539
vt 0.084535 -0.699539
vt 0.084535 -0.699539
vt 0.084535 -0.699539
vt 0.084535 -0.699539
vt 0.084535 -0.699539
vt 0.084535 -0.699539
vt 0.084535 -0.699539
vt 0.084535 -0.699539
vt 0.084535 -0.699539
vt 0.084535 -0.699539
vt 0.084535 -0.699539
vt 0.084535 -0.699539
vt 0.084535 -0.699539
vt 0.084535 -0.699539
vt 0.084535 -0.699539
vt 0.084535 -0.699539
vt 0.084535 -0.699539
vt 0.084535 -0.699539
vt 0.084535 -0.699539
vt 0.084535 -0.699539
vt 0.084535 -0.699539
vt 0.084535 -0.699539
vt 0.084535 -0.699539
vt 0.084535 -0.699539
vt 0.084535 -0.699539
vt 0.084535 -0.699539
vt 0.084535 -0.699539
vt 0.084535 -0.699539
vt 0.084535 -0.699539
vt 0.084535 -0.699539
vt 0.084535 -0.699539
vt 0.084535 -0.699539
vt 0.084535 -0.699539
vt 0.084535 -0.699539
vt 0.084535 -0.699539
vt 0.084535 -0.699539
vt 0.084535 -0.699539
vt 0.084535 -0.699539
vt 0.084535 -0.699539
vt 0.084535 -0.699539
vt 0.084535 -0.699539
vt 0.084535 -0.699539
vt 0.084535 -0.699539
vt 0.084535 -0.699539
vt 0.084535 -0.699539
vt 0.084535 -0.699539
vt 0.084535 -0.699539
vt 0.084535 -0.699539
vt 0.084535 -0.699539
vt 0.084535 -0.699539
vt 0.084535 -0.699539
vt 0.084535 -0.699539
vt 0.084535 -0.699539
vt 0.084535 -0.699539
vt 0.084535 -0.699539
vt 0.084535 -0.699539
vt 0.084535 -0.699539
vt 0.084535 -0.699539
vt 0.084535 -0.699539
vt 0.084535 -0.699539
vn -0.9484 0.0000 0.3172
vn -0.9870 0.0000 0.1607
vn 0.2348 0.0000 0.9720
vn 0.4565 0.0000 0.8897
vn -0.9484 0.0000 -0.3172
vn -0.9870 0.0000 -0.1607
vn -0.0000 1.0000 -0.0000
vn 0.9484 0.0000 0.3172
vn 0.9870 0.0000 0.1607
vn -0.2348 0.0000 0.9720
vn -0.2348 0.0000 -0.9720
vn 0.2348 0.0000 -0.9720
vn -0.4565 0.0000 -0.8897
vn 0.9870 0.0000 -0.1607
vn 0.9484 0.0000 -0.3172
vn 0.4565 0.0000 -0.8897
vn -0.4565 0.0000 0.8897
vn -0.5124 -0.7465 0.4245
vn -0.1600 -0.7434 0.6494
vn -0.1549 -0.7435 0.6505
vn -0.4995 -0.7472 0.4383
vn -0.1600 0.7434 0.6494
vn -0.5124 0.7465 0.4245
vn -0.4995 0.7472 0.4383
vn -0.1549 0.7435 0.6505
vn -0.6920 -0.7133 0.1110
vn -0.6915 -0.7134 0.1139
vn -0.6920 0.7133 0.1110
vn -0.6915 0.7134 0.1139
vn -0.5124 0.7465 -0.4245
vn -0.1600 0.7434 -0.6494
vn -0.1549 0.7435 -0.6505
vn -0.4995 0.7472 -0.4383
vn -0.1600 -0.7434 -0.6494
vn -0.5124 -0.7465 -0.4245
vn -0.4995 -0.7472 -0.4383
vn -0.1549 -0.7435 -0.6505
vn -0.6920 0.7133 -0.1110
vn -0.6915 0.7134 -0.1139
vn -0.6920 -0.7133 -0.1110
vn -0.6915 -0.7134 -0.1139
vn 0.5124 0.7465 -0.4245
vn 0.6920 0.7133 -0.1110
vn 0.6915 0.7134 -0.1139
vn 0.4995 0.7472 -0.4383
vn 0.6920 -0.7133 -0.1110
vn 0.5124 -0.7465 -0.4245
vn 0.4995 -0.7472 -0.4383
vn 0.6915 -0.7134 -0.1139
vn 0.1600 0.7434 -0.6494
vn 0.1549 0.7435 -0.6505
vn 0.1600 -0.7434 -0.6494
vn 0.1549 -0.7435 -0.6505
vn 0.5124 0.7465 0.4245
vn 0.1600 0.7434 0.6494
vn 0.1549 0.7435 0.6505
vn 0.4995 0.7472 0.4383
vn 0.1600 -0.7434 0.6494
vn 0.5124 -0.7465 0.4245
vn 0.4995 -0.7472 0.4383
vn 0.1549 -0.7435 0.6505
vn 0.6920 0.7133 0.1110
vn 0.6915 0.7134 0.1139
vn 0.6920 -0.7133 0.1110
vn 0.6915 -0.7134 0.1139
vn -0.0000 -1.0000 0.0000
vn 0.0000 0.0000 -1.0000
vn -0.9966 0.0000 -0.0827
vn -0.9966 0.0000 0.0827
vn 0.9966 0.0000 0.0827
vn 0.9966 0.0000 -0.0827
vn 0.0000 0.0000 1.0000
vn 0.8920 0.0000 -0.4520
vn 0.7162 0.0000 -0.6979
vn 0.7162 0.0000 0.6979
vn 0.8920 0.0000 0.4520
vn -0.8920 0.0000 0.4520
vn -0.7162 0.0000 0.6979
vn -0.7162 0.0000 -0.6979
vn -0.8920 0.0000 -0.4520
usemtl Solid.092
s 1
f 6/1/1 12/2/1 8/3/2 4/4/2
f 32/5/3 28/6/3 30/7/4 36/8/4
f 24/9/5 18/10/5 14/11/6 22/12/6
f 50/13/7 21/14/7 7/15/7 11/16/7 53/17/7 52/18/7 51/19/7 49/20/7
f 53/17/7 11/16/7 9/21/7 31/22/7 35/23/7 33/24/7 43/25/7 47/26/7 45/27/7 19/28/7 23/29/7 21/14/7 50/13/7 54/30/7 55/31/7 58/32/7 57/33/7 56/34/7 60/35/7 59/36/7
f 36/8/8 30/7/8 26/37/9 34/38/9
f 28/6/3 32/5/3 10/39/10 2/40/10
f 4/4/2 8/3/2 22/12/6 14/11/6
f 16/41/11 20/42/11 46/43/12 38/44/12
f 20/42/11 16/41/11 18/10/13 24/9/13
f 44/45/14 40/46/14 42/47/15 48/48/15
f 48/48/16 42/47/16 38/44/12 46/43/12
f 40/46/14 44/45/14 34/38/9 26/37/9
f 2/40/10 10/39/10 12/2/17 6/1/17
f 5/49/18 1/50/19 2/40/20 6/1/21
f 9/21/22 11/16/23 12/2/24 10/39/25
f 3/51/26 5/49/18 6/1/21 4/4/27
f 11/16/23 7/15/28 8/3/29 12/2/24
f 23/29/30 19/28/31 20/42/32 24/9/33
f 15/52/34 17/53/35 18/10/36 16/41/37
f 21/14/38 23/29/30 24/9/33 22/12/39
f 17/53/35 13/54/40 14/11/41 18/10/36
f 47/26/42 43/25/43 44/45/44 48/48/45
f 39/55/46 41/56/47 42/47/48 40/46/49
f 45/27/50 47/26/42 48/48/45 46/43/51
f 41/56/47 37/57/52 38/44/53 42/47/48
f 35/23/54 31/22/55 32/5/56 36/8/57
f 27/58/58 29/59/59 30/7/60 28/6/61
f 33/24/62 35/23/54 36/8/57 34/38/63
f 29/59/59 25/60/64 26/37/65 30/7/60
f 4/4/27 14/11/41 13/54/40 3/51/26
f 16/41/37 38/44/53 37/57/52 15/52/34
f 40/46/49 26/37/65 25/60/64 39/55/46
f 28/6/61 2/40/20 1/50/19 27/58/58
f 7/15/28 21/14/38 22/12/39 8/3/29
f 31/22/55 9/21/22 10/39/25 32/5/56
f 34/38/63 44/45/44 43/25/43 33/24/62
f 46/43/51 20/42/32 19/28/31 45/27/50
f 64/61/66 3/51/66 13/54/66 17/53/66 68/62/66 63/63/66 62/64/66 61/65/66
f 68/62/66 17/53/66 15/52/66 37/57/66 41/56/66 39/55/66 25/60/66 29/59/66 27/58/66 1/50/66 5/49/66 3/51/66 64/61/66 70/66/66 69/67/66 71/68/66 72/69/66 66/70/66 67/71/66 65/72/66
f 53/17/67 59/36/67 69/67/67 70/66/67
f 56/34/68 57/33/69 66/70/69 72/69/68
f 62/64/70 49/20/70 51/19/71 61/65/71
f 65/72/72 55/31/72 54/30/72 68/62/72
f 64/61/73 52/18/73 53/17/74 70/66/74
f 61/65/71 51/19/71 52/18/73 64/61/73
f 68/62/75 54/30/75 50/13/76 63/63/76
f 63/63/76 50/13/76 49/20/70 62/64/70
f 57/33/69 58/32/77 67/71/77 66/70/69
f 58/32/77 55/31/78 65/72/78 67/71/77
f 59/36/79 60/35/80 71/68/80 69/67/79
f 60/35/80 56/34/68 72/69/68 71/68/80
