# Blender v2.93.1 OBJ File: ''
# www.blender.org
mtllib board_cutting_board_002.mtl
o board_cutting_board.002_Cube.125
v -2.141914 -0.171156 1.492436
v -2.150162 -0.134274 1.532625
v -2.428139 -0.171156 1.135571
v -2.465021 -0.134274 1.142666
v -2.343349 -0.171156 1.389098
v -2.372801 -0.134274 1.418409
v -2.428139 0.171157 1.135571
v -2.465021 0.134275 1.142666
v -2.141914 0.171157 1.492436
v -2.150162 0.134275 1.532625
v -2.343349 0.171157 1.389098
v -2.372801 0.134275 1.418409
v -2.428139 -0.171157 -1.135571
v -2.465021 -0.134275 -1.142666
v -2.141914 -0.171157 -1.492436
v -2.150162 -0.134275 -1.532625
v -2.343349 -0.171157 -1.389098
v -2.372801 -0.134275 -1.418409
v -2.141914 0.171156 -1.492436
v -2.150162 0.134274 -1.532625
v -2.428139 0.171156 -1.135571
v -2.465021 0.134274 -1.142666
v -2.343349 0.171156 -1.389098
v -2.372801 0.134274 -1.418409
v 2.428139 -0.171156 1.135571
v 2.465021 -0.134274 1.142666
v 2.141914 -0.171156 1.492436
v 2.150162 -0.134274 1.532625
v 2.343349 -0.171156 1.389098
v 2.372801 -0.134274 1.418409
v 2.141914 0.171157 1.492436
v 2.150162 0.134275 1.532625
v 2.428139 0.171157 1.135571
v 2.465021 0.134275 1.142666
v 2.343349 0.171157 1.389098
v 2.372801 0.134275 1.418409
v 2.141914 -0.171157 -1.492436
v 2.150162 -0.134275 -1.532625
v 2.428139 -0.171157 -1.135571
v 2.465021 -0.134275 -1.142666
v 2.343349 -0.171157 -1.389098
v 2.372801 -0.134275 -1.418409
v 2.428139 0.171156 -1.135571
v 2.465021 0.134274 -1.142666
v 2.141914 0.171156 -1.492436
v 2.150162 0.134274 -1.532625
v 2.343349 0.171156 -1.389098
v 2.372801 0.134274 -1.418409
vt 0.084535 -0.699539
vt 0.084535 -0.699539
vt 0.084535 -0.699539
vt 0.084535 -0.699539
vt 0.084535 -0.699539
vt 0.084535 -0.699539
vt 0.084535 -0.699539
vt 0.084535 -0.699539
vt 0.084535 -0.699539
vt 0.084535 -0.699539
vt 0.084535 -0.699539
vt 0.084535 -0.699539
vt 0.084535 -0.699539
vt 0.084535 -0.699539
vt 0.084535 -0.699539
vt 0.084535 -0.699539
vt 0.084535 -0.699539
vt 0.084535 -0.699539
vt 0.084535 -0.699539
vt 0.084535 -0.699539
vt 0.084535 -0.699539
vt 0.084535 -0.699539
vt 0.084535 -0.699539
vt 0.084535 -0.699539
vt 0.084535 -0.699539
vt 0.084535 -0.699539
vt 0.084535 -0.699539
vt 0.084535 -0.699539
vt 0.084535 -0.699539
vt 0.084535 -0.699539
vt 0.084535 -0.699539
vt 0.084535 -0.699539
vt 0.084535 -0.699539
vt 0.084535 -0.699539
vt 0.084535 -0.699539
vt 0.084535 -0.699539
vt 0.084535 -0.699539
vt 0.084535 -0.699539
vt 0.084535 -0.699539
vt 0.084535 -0.699539
vt 0.084535 -0.699539
vt 0.084535 -0.699539
vt 0.084535 -0.699539
vt 0.084535 -0.699539
vt 0.084535 -0.699539
vt 0.084535 -0.699539
vt 0.084535 -0.699539
vt 0.084535 -0.699539
vn -0.7003 -0.3767 0.6063
vn -0.7003 0.3767 0.6063
vn -0.9155 0.3734 0.1497
vn -0.9155 -0.3734 0.1497
vn 0.2155 0.3859 0.8970
vn 0.2155 -0.3859 0.8970
vn 0.7003 -0.3767 0.6063
vn 0.7003 0.3767 0.6063
vn -0.7003 0.3767 -0.6063
vn -0.7003 -0.3767 -0.6063
vn -0.9155 -0.3734 -0.1497
vn -0.9155 0.3734 -0.1497
vn 0.4057 0.9117 -0.0651
vn 0.3292 0.9040 -0.2727
vn 0.0965 0.9150 -0.3917
vn -0.0965 0.9150 -0.3917
vn -0.3292 0.9040 -0.2727
vn -0.4057 0.9117 -0.0651
vn -0.4057 0.9117 0.0651
vn -0.3292 0.9040 0.2727
vn -0.0965 0.9150 0.3917
vn 0.0965 0.9150 0.3917
vn 0.3292 0.9040 0.2727
vn 0.4057 0.9117 0.0651
vn 0.9155 -0.3734 0.1497
vn 0.9155 0.3734 0.1497
vn -0.2155 0.3859 0.8970
vn -0.2155 -0.3859 0.8970
vn -0.2155 -0.3859 -0.8970
vn -0.2155 0.3859 -0.8970
vn 0.2155 0.3859 -0.8970
vn 0.2155 -0.3859 -0.8970
vn 0.9155 0.3734 -0.1497
vn 0.9155 -0.3734 -0.1497
vn 0.7003 -0.3767 -0.6063
vn 0.7003 0.3767 -0.6063
vn -0.3292 -0.9040 0.2727
vn -0.0965 -0.9150 0.3917
vn -0.4057 -0.9117 0.0651
vn -0.0965 -0.9150 -0.3917
vn -0.3292 -0.9040 -0.2727
vn -0.4057 -0.9117 -0.0651
vn 0.4057 -0.9117 -0.0651
vn 0.3292 -0.9040 -0.2727
vn 0.0965 -0.9150 -0.3917
vn 0.0965 -0.9150 0.3917
vn 0.3292 -0.9040 0.2727
vn 0.4057 -0.9117 0.0651
usemtl Solid.093
s 1
f 6/1/1 12/2/2 8/3/3 4/4/4
f 32/5/5 28/6/6 30/7/7 36/8/8
f 24/9/9 18/10/10 14/11/11 22/12/12
f 43/13/13 47/14/14 45/15/15 19/16/16 23/17/17 21/18/18 7/19/19 11/20/20 9/21/21 31/22/22 35/23/23 33/24/24
f 36/8/8 30/7/7 26/25/25 34/26/26
f 28/6/6 32/5/5 10/27/27 2/28/28
f 4/4/4 8/3/3 22/12/12 14/11/11
f 16/29/29 20/30/30 46/31/31 38/32/32
f 20/30/30 16/29/29 18/10/10 24/9/9
f 44/33/33 40/34/34 42/35/35 48/36/36
f 48/36/36 42/35/35 38/32/32 46/31/31
f 40/34/34 44/33/33 34/26/26 26/25/25
f 2/28/28 10/27/27 12/2/2 6/1/1
f 5/37/37 1/38/38 2/28/28 6/1/1
f 9/21/21 11/20/20 12/2/2 10/27/27
f 3/39/39 5/37/37 6/1/1 4/4/4
f 11/20/20 7/19/19 8/3/3 12/2/2
f 23/17/17 19/16/16 20/30/30 24/9/9
f 15/40/40 17/41/41 18/10/10 16/29/29
f 21/18/18 23/17/17 24/9/9 22/12/12
f 17/41/41 13/42/42 14/11/11 18/10/10
f 47/14/14 43/13/13 44/33/33 48/36/36
f 39/43/43 41/44/44 42/35/35 40/34/34
f 45/15/15 47/14/14 48/36/36 46/31/31
f 41/44/44 37/45/45 38/32/32 42/35/35
f 35/23/23 31/22/22 32/5/5 36/8/8
f 27/46/46 29/47/47 30/7/7 28/6/6
f 33/24/24 35/23/23 36/8/8 34/26/26
f 29/47/47 25/48/48 26/25/25 30/7/7
f 4/4/4 14/11/11 13/42/42 3/39/39
f 16/29/29 38/32/32 37/45/45 15/40/40
f 40/34/34 26/25/25 25/48/48 39/43/43
f 28/6/6 2/28/28 1/38/38 27/46/46
f 7/19/19 21/18/18 22/12/12 8/3/3
f 31/22/22 9/21/21 10/27/27 32/5/5
f 34/26/26 44/33/33 43/13/13 33/24/24
f 46/31/31 20/30/30 19/16/16 45/15/15
f 13/42/42 17/41/41 15/40/40 37/45/45 41/44/44 39/43/43 25/48/48 29/47/47 27/46/46 1/38/38 5/37/37 3/39/39
