# Blender v2.93.1 OBJ File: ''
# www.blender.org
mtllib board_cutting_board_plastic.mtl
o board_cutting_board_plastic_Cube.119
v -1.770987 -0.047334 1.226142
v -1.773810 -0.033140 1.240336
v -2.040729 -0.047334 0.956400
v -2.054923 -0.033140 0.959223
v -1.961724 -0.047334 1.147136
v -1.972587 -0.033140 1.158000
v -2.040729 0.047334 0.956400
v -2.054923 0.033140 0.959223
v -1.770987 0.047334 1.226142
v -1.773810 0.033140 1.240336
v -1.961724 0.047334 1.147136
v -1.972587 0.033140 1.158000
v -2.040729 -0.047334 -0.956400
v -2.054923 -0.033140 -0.959223
v -1.770987 -0.047334 -1.226142
v -1.773810 -0.033140 -1.240336
v -1.961724 -0.047334 -1.147136
v -1.972587 -0.033140 -1.158000
v -1.770987 0.047334 -1.226142
v -1.773810 0.033140 -1.240336
v -2.040729 0.047334 -0.956400
v -2.054923 0.033140 -0.959223
v -1.961724 0.047334 -1.147136
v -1.972587 0.033140 -1.158000
v 2.040729 -0.047334 0.956400
v 2.054923 -0.033140 0.959223
v 1.770987 -0.047334 1.226142
v 1.773810 -0.033140 1.240336
v 1.961724 -0.047334 1.147136
v 1.972587 -0.033140 1.158000
v 1.770987 0.047334 1.226142
v 1.773810 0.033140 1.240336
v 2.040729 0.047334 0.956400
v 2.054923 0.033140 0.959223
v 1.961724 0.047334 1.147136
v 1.972587 0.033140 1.158000
v 1.770987 -0.047334 -1.226142
v 1.773810 -0.033140 -1.240336
v 2.040729 -0.047334 -0.956400
v 2.054923 -0.033140 -0.959223
v 1.961724 -0.047334 -1.147136
v 1.972587 -0.033140 -1.158000
v 2.040729 0.047334 -0.956400
v 2.054923 0.033140 -0.959223
v 1.770987 0.047334 -1.226142
v 1.773810 0.033140 -1.240336
v 1.961724 0.047334 -1.147136
v 1.972587 0.033140 -1.158000
v -1.372625 0.047334 -1.053851
v -1.315637 0.047334 -1.030246
v -1.835498 0.047334 -0.590979
v -1.835498 0.047334 -0.939875
v -1.802115 0.047334 -1.020468
v -1.811893 0.047334 -0.533990
v -1.721521 0.047334 -1.053851
v -1.339242 0.047334 -0.973258
v -1.754904 0.047334 -0.557596
v -1.835498 -0.047334 -0.590979
v -1.835498 -0.047334 -0.939875
v -1.811893 -0.047334 -0.533991
v -1.802115 -0.047334 -1.020468
v -1.721521 -0.047334 -1.053851
v -1.372625 -0.047334 -1.053851
v -1.339242 -0.047334 -0.973258
v -1.315637 -0.047334 -1.030246
v -1.754904 -0.047334 -0.557596
vt 0.060325 0.200115
vt 0.060325 0.200115
vt 0.060325 0.200115
vt 0.060325 0.200115
vt 0.060325 0.200115
vt 0.060325 0.200115
vt 0.060325 0.200115
vt 0.060325 0.200115
vt 0.060325 0.200115
vt 0.060325 0.200115
vt 0.060325 0.200115
vt 0.060325 0.200115
vt 0.060325 0.200115
vt 0.060325 0.200115
vt 0.060325 0.200115
vt 0.060325 0.200115
vt 0.060325 0.200115
vt 0.060325 0.200115
vt 0.060325 0.200115
vt 0.060325 0.200115
vt 0.060325 0.200115
vt 0.060325 0.200115
vt 0.060325 0.200115
vt 0.060325 0.200115
vt 0.060325 0.200115
vt 0.060325 0.200115
vt 0.060325 0.200115
vt 0.060325 0.200115
vt 0.060325 0.200115
vt 0.060325 0.200115
vt 0.060325 0.200115
vt 0.060325 0.200115
vt 0.060325 0.200115
vt 0.060325 0.200115
vt 0.060325 0.200115
vt 0.060325 0.200115
vt 0.060325 0.200115
vt 0.060325 0.200115
vt 0.060325 0.200115
vt 0.060325 0.200115
vt 0.060325 0.200115
vt 0.060325 0.200115
vt 0.060325 0.200115
vt 0.060325 0.200115
vt 0.060325 0.200115
vt 0.060325 0.200115
vt 0.060325 0.200115
vt 0.060325 0.200115
vt 0.060325 0.200115
vt 0.060325 0.200115
vt 0.060325 0.200115
vt 0.060325 0.200115
vt 0.060325 0.200115
vt 0.060325 0.200115
vt 0.060325 0.200115
vt 0.060325 0.200115
vt 0.060325 0.200115
vt 0.060325 0.200115
vt 0.060325 0.200115
vt 0.060325 0.200115
vt 0.060325 0.200115
vt 0.060325 0.200115
vt 0.060325 0.200115
vt 0.060325 0.200115
vt 0.060325 0.200115
vt 0.060325 0.200115
vn -0.9239 0.0000 0.3827
vn 0.3827 0.0000 0.9239
vn -0.9239 0.0000 -0.3827
vn 0.0000 1.0000 -0.0000
vn 0.9239 0.0000 0.3827
vn 0.0000 0.0000 1.0000
vn -1.0000 0.0000 0.0000
vn 0.0000 0.0000 -1.0000
vn -0.3827 0.0000 -0.9239
vn 0.9239 0.0000 -0.3827
vn 0.3827 0.0000 -0.9239
vn 1.0000 0.0000 0.0000
vn -0.3827 0.0000 0.9239
vn -0.2706 -0.7071 0.6533
vn -0.2706 0.7071 0.6533
vn -0.6533 -0.7071 0.2706
vn -0.6533 0.7071 0.2706
vn -0.2706 0.7071 -0.6533
vn -0.2706 -0.7071 -0.6533
vn -0.6533 0.7071 -0.2706
vn -0.6533 -0.7071 -0.2706
vn 0.6533 0.7071 -0.2706
vn 0.6533 -0.7071 -0.2706
vn 0.2706 0.7071 -0.6533
vn 0.2706 -0.7071 -0.6533
vn 0.2706 0.7071 0.6533
vn 0.2706 -0.7071 0.6533
vn 0.6533 0.7071 0.2706
vn 0.6533 -0.7071 0.2706
vn -0.7071 -0.7071 0.0000
vn 0.0000 -0.7071 -0.7071
vn 0.7071 -0.7071 0.0000
vn 0.0000 -0.7071 0.7071
vn -0.7071 0.7071 -0.0000
vn 0.0000 0.7071 0.7071
vn 0.7071 0.7071 -0.0000
vn 0.0000 0.7071 -0.7071
vn 0.0000 -1.0000 0.0000
vn -0.5556 0.0000 -0.8315
vn -0.8315 0.0000 -0.5556
vn 0.9808 0.0000 0.1951
vn 0.9808 0.0000 -0.1951
vn -0.1951 0.0000 0.9808
vn 0.1951 0.0000 0.9808
vn 0.7071 0.0000 0.7071
usemtl Solid.094
s 1
f 6/1/1 12/2/1 8/3/1 4/4/1
f 32/5/2 28/6/2 30/7/2 36/8/2
f 24/9/3 18/10/3 14/11/3 22/12/3
f 52/13/4 21/14/4 7/15/4 11/16/4 9/17/4 31/18/4 35/19/4 33/20/4 43/21/4 47/22/4 45/23/4 19/24/4 55/25/4 49/26/4 50/27/4 56/28/4 57/29/4 54/30/4 51/31/4
f 19/24/4 23/32/4 21/14/4 52/13/4 53/33/4 55/25/4
f 36/8/5 30/7/5 26/34/5 34/35/5
f 28/6/6 32/5/6 10/36/6 2/37/6
f 4/4/7 8/3/7 22/12/7 14/11/7
f 16/38/8 20/39/8 46/40/8 38/41/8
f 20/39/9 16/38/9 18/10/9 24/9/9
f 44/42/10 40/43/10 42/44/10 48/45/10
f 48/45/11 42/44/11 38/41/11 46/40/11
f 40/43/12 44/42/12 34/35/12 26/34/12
f 2/37/13 10/36/13 12/2/13 6/1/13
f 5/46/14 1/47/14 2/37/14 6/1/14
f 9/17/15 11/16/15 12/2/15 10/36/15
f 3/48/16 5/46/16 6/1/16 4/4/16
f 11/16/17 7/15/17 8/3/17 12/2/17
f 23/32/18 19/24/18 20/39/18 24/9/18
f 15/49/19 17/50/19 18/10/19 16/38/19
f 21/14/20 23/32/20 24/9/20 22/12/20
f 17/50/21 13/51/21 14/11/21 18/10/21
f 47/22/22 43/21/22 44/42/22 48/45/22
f 39/52/23 41/53/23 42/44/23 40/43/23
f 45/23/24 47/22/24 48/45/24 46/40/24
f 41/53/25 37/54/25 38/41/25 42/44/25
f 35/19/26 31/18/26 32/5/26 36/8/26
f 27/55/27 29/56/27 30/7/27 28/6/27
f 33/20/28 35/19/28 36/8/28 34/35/28
f 29/56/29 25/57/29 26/34/29 30/7/29
f 4/4/30 14/11/30 13/51/30 3/48/30
f 16/38/31 38/41/31 37/54/31 15/49/31
f 40/43/32 26/34/32 25/57/32 39/52/32
f 28/6/33 2/37/33 1/47/33 27/55/33
f 7/15/34 21/14/34 22/12/34 8/3/34
f 31/18/35 9/17/35 10/36/35 32/5/35
f 34/35/36 44/42/36 43/21/36 33/20/36
f 46/40/37 20/39/37 19/24/37 45/23/37
f 60/58/38 3/48/38 13/51/38 17/50/38 61/59/38 59/60/38 58/61/38
f 17/50/38 15/49/38 37/54/38 41/53/38 39/52/38 25/57/38 29/56/38 27/55/38 1/47/38 5/46/38 3/48/38 60/58/38 66/62/38 64/63/38 65/64/38 63/65/38 62/66/38 61/59/38
f 57/29/39 56/28/40 64/63/40 66/62/39
f 59/60/41 52/13/41 51/31/42 58/61/42
f 63/65/43 49/26/43 55/25/44 62/66/44
f 54/30/11 57/29/39 66/62/39 60/58/11
f 58/61/42 51/31/42 54/30/11 60/58/11
f 62/66/44 55/25/44 53/33/45 61/59/45
f 61/59/45 53/33/45 52/13/41 59/60/41
f 56/28/40 50/27/1 65/64/1 64/63/40
f 65/64/1 50/27/1 49/26/43 63/65/43
