# Blender v2.93.1 OBJ File: ''
# www.blender.org
mtllib serving_bowl_3.mtl
o serving_bowl_3.002_lid_Cylinder.141
v -1.415205 0.659817 1.415206
v -2.001403 0.659817 -0.000000
v -1.415206 0.659817 -1.415206
v 0.000001 0.659817 -2.001405
v 1.415207 0.659817 -1.415206
v 2.001405 0.659817 -0.000000
v 1.415207 0.659817 1.415206
v 0.000001 0.659817 2.001405
v 0.670480 1.155776 0.670479
v 0.000001 1.155776 0.948201
v 0.670480 1.155776 -0.670479
v 0.948201 1.155776 -0.000000
v -0.948199 1.155776 -0.000000
v -0.670478 1.155776 -0.670479
v -0.670478 1.155776 0.670479
v 0.000001 1.155776 -0.948201
v 0.535779 1.255498 0.535778
v 0.000001 1.255498 0.757705
v 0.535779 1.255497 -0.535778
v 0.757706 1.255497 -0.000000
v -0.757703 1.255498 -0.000000
v -0.535777 1.255497 -0.535778
v -0.535777 1.255498 0.535778
v 0.000001 1.255497 -0.757705
v 1.446397 0.753485 1.446395
v 0.000001 0.753485 2.045513
v 1.446397 0.753484 -1.446396
v 2.045514 0.753485 -0.000000
v -2.045512 0.753485 -0.000000
v -1.446395 0.753484 -1.446396
v -1.446395 0.753485 1.446395
v 0.000001 0.753484 -2.045514
v 0.690161 1.255498 0.690160
v 0.000001 1.255498 0.976034
v 0.690161 1.255497 -0.690161
v 0.976035 1.255497 -0.000000
v -0.976033 1.255498 -0.000000
v -0.690159 1.255497 -0.690161
v -0.690159 1.255498 0.690160
v 0.000001 1.255497 -0.976034
v 0.535779 1.382860 0.535778
v 0.000001 1.382860 0.757705
v 0.535779 1.382860 -0.535778
v 0.757706 1.382860 -0.000000
v -0.757703 1.382860 -0.000000
v -0.535777 1.382859 -0.535778
v -0.535777 1.382860 0.535778
v 0.000001 1.382859 -0.757705
vt 0.200754 -0.863112
vt 0.200754 -0.863112
vt 0.200754 -0.863112
vt 0.200754 -0.863112
vt 0.200754 -0.863112
vt 0.200754 -0.863112
vt 0.200754 -0.863112
vt 0.200754 -0.863112
vt 0.200754 -0.863112
vt 0.200754 -0.863112
vt 0.200754 -0.863112
vt 0.200754 -0.863112
vt 0.200754 -0.863112
vt 0.200754 -0.863112
vt 0.200754 -0.863112
vt 0.200754 -0.863112
vt 0.200754 -0.863112
vt 0.200754 -0.863112
vt 0.200754 -0.863112
vt 0.200754 -0.863112
vt 0.200754 -0.863112
vt 0.200754 -0.863112
vt 0.200754 -0.863112
vt 0.200754 -0.863112
vt 0.200754 -0.863112
vt 0.200754 -0.863112
vt 0.200754 -0.863112
vt 0.200754 -0.863112
vt 0.200754 -0.863112
vt 0.200754 -0.863112
vt 0.200754 -0.863112
vt 0.200754 -0.863112
vt 0.200754 -0.863112
vt 0.200754 -0.863112
vt 0.200754 -0.863112
vt 0.200754 -0.863112
vt 0.200754 -0.863112
vt 0.200754 -0.863112
vt 0.200754 -0.863112
vt 0.200754 -0.863112
vt 0.200754 -0.863112
vt 0.200754 -0.863112
vt 0.200754 -0.863112
vt 0.200754 -0.863112
vt 0.200754 -0.863112
vt 0.200754 -0.863112
vt 0.200754 -0.863112
vt 0.200754 -0.863112
vn -0.1901 -0.9632 -0.1901
vn 0.0000 -0.9632 -0.2688
vn 0.1901 -0.9632 -0.1901
vn 0.2688 -0.9632 0.0000
vn 0.1901 -0.9632 0.1901
vn -0.0000 -0.9632 0.2688
vn -0.1901 -0.9632 0.1901
vn -0.2688 -0.9632 0.0000
vn -0.3012 -0.9047 -0.3012
vn 0.0000 -0.9047 -0.4260
vn -0.3012 -0.9047 0.3012
vn -0.4260 -0.9047 0.0000
vn 0.4260 -0.9047 0.0000
vn 0.3012 -0.9047 0.3012
vn 0.3012 -0.9047 -0.3012
vn -0.0000 -0.9047 0.4260
vn 0.7071 -0.0000 -0.7071
vn 0.0000 -0.0000 -1.0000
vn 0.1896 0.9634 0.1896
vn -0.0000 0.9634 0.2681
vn -0.0000 0.9052 0.4249
vn 0.3005 0.9052 0.3005
vn 0.1896 0.9634 -0.1896
vn 0.2681 0.9634 -0.0000
vn 0.4249 0.9052 -0.0000
vn 0.3005 0.9052 -0.3005
vn -0.2681 0.9634 -0.0000
vn -0.1896 0.9634 -0.1896
vn -0.3005 0.9052 -0.3005
vn -0.4249 0.9052 -0.0000
vn -0.1896 0.9634 0.1896
vn -0.3005 0.9052 0.3005
vn -0.0000 0.9634 -0.2681
vn -0.0000 0.9052 -0.4249
vn 0.0000 -0.4260 -0.9047
vn -0.6397 -0.4260 -0.6397
vn 0.6397 -0.4260 0.6397
vn 0.9047 -0.4260 0.0000
vn -0.9047 -0.4260 0.0000
vn 0.0000 -0.4260 0.9047
vn -0.6397 -0.4260 0.6397
vn 0.6397 -0.4260 -0.6397
vn -0.0000 1.0000 -0.0000
vn -0.7071 0.0000 0.7071
vn -0.0000 0.0000 1.0000
vn 1.0000 0.0000 0.0000
vn -0.7071 -0.0000 -0.7071
vn 0.7071 0.0000 0.7071
vn -1.0000 0.0000 0.0000
usemtl Solid.184
s 1
f 9/1/1 10/2/2 15/3/3 13/4/4 14/5/5 16/6/6 11/7/7 12/8/8
f 9/1/1 7/9/9 8/10/10 10/2/2
f 11/7/7 5/11/11 6/12/12 12/8/8
f 13/4/4 2/13/13 3/14/14 14/5/5
f 10/2/2 8/10/10 1/15/15 15/3/3
f 12/8/8 6/12/12 7/9/9 9/1/1
f 16/6/6 4/16/16 5/11/11 11/7/7
f 14/5/5 3/14/14 4/16/16 16/6/6
f 15/3/3 1/15/15 2/13/13 13/4/4
f 19/17/17 24/18/18 48/19/18 43/20/17
f 33/21/19 34/22/20 26/23/21 25/24/22
f 35/25/23 36/26/24 28/27/25 27/28/26
f 37/29/27 38/30/28 30/31/29 29/32/30
f 34/22/20 39/33/31 31/34/32 26/23/21
f 36/26/24 33/21/19 25/24/22 28/27/25
f 40/35/33 35/25/23 27/28/26 32/36/34
f 38/30/28 40/35/33 32/36/34 30/31/29
f 39/33/31 37/29/27 29/32/30 31/34/32
f 4/16/35 3/14/36 30/31/36 32/36/35
f 7/9/37 6/12/38 28/27/38 25/24/37
f 3/14/36 2/13/39 29/32/39 30/31/36
f 8/10/40 7/9/37 25/24/37 26/23/40
f 2/13/39 1/15/41 31/34/41 29/32/39
f 5/11/42 4/16/35 32/36/35 27/28/42
f 1/15/41 8/10/40 26/23/40 31/34/41
f 6/12/38 5/11/42 27/28/42 28/27/38
f 17/37/43 18/38/43 34/22/20 33/21/19
f 19/17/43 20/39/43 36/26/24 35/25/23
f 21/40/43 22/41/43 38/30/28 37/29/27
f 18/38/43 23/42/43 39/33/31 34/22/20
f 20/39/43 17/37/43 33/21/19 36/26/24
f 24/18/43 19/17/43 35/25/23 40/35/33
f 22/41/43 24/18/43 40/35/33 38/30/28
f 23/42/43 21/40/43 37/29/27 39/33/31
f 41/43/43 44/44/43 43/20/43 48/19/43 46/45/43 45/46/43 47/47/43 42/48/43
f 23/42/44 18/38/45 42/48/45 47/47/44
f 20/39/46 19/17/17 43/20/17 44/44/46
f 24/18/18 22/41/47 46/45/47 48/19/18
f 17/37/48 20/39/46 44/44/46 41/43/48
f 22/41/47 21/40/49 45/46/49 46/45/47
f 18/38/45 17/37/48 41/43/48 42/48/45
f 21/40/49 23/42/44 47/47/44 45/46/49
o serving_bowl_3_Cylinder.137
v -0.000000 -0.524022 -1.310691
v 0.926798 -0.524022 -0.926799
v -0.000000 -0.922520 -1.001831
v -0.000000 -0.740479 -1.124961
v 0.708401 -0.922520 -0.708402
v 0.795467 -0.740479 -0.795467
v 1.001830 -0.922519 0.000000
v 1.124960 -0.740479 0.000000
v 0.708401 -0.922519 0.708402
v 0.795467 -0.740479 0.795467
v -0.000000 -0.922519 1.001831
v -0.000000 -0.740479 1.124961
v -0.708401 -0.922519 0.708402
v -0.795467 -0.740479 0.795467
v -1.001831 -0.922519 0.000000
v -1.124960 -0.740479 0.000000
v -0.708401 -0.922520 -0.708402
v -0.795467 -0.740479 -0.795467
v 1.310690 -0.524022 0.000000
v 0.926798 -0.524021 0.926799
v -0.000000 -0.524021 1.310691
v -0.926798 -0.524021 0.926799
v -1.310690 -0.524022 0.000000
v -0.926799 -0.524022 -0.926799
v -0.000000 -0.104572 -1.558462
v -1.101998 -0.104572 -1.101998
v -1.558460 -0.104571 0.000000
v -1.101998 -0.104571 1.101998
v -0.000000 -0.104571 1.558462
v 1.101998 -0.104571 1.101998
v 1.558460 -0.104571 0.000000
v 1.101998 -0.104572 -1.101998
v -0.000000 0.922519 -2.292332
v -1.620923 0.922519 -1.620923
v -2.292331 0.922519 -0.000000
v -1.620922 0.922520 1.620922
v -0.000000 0.922520 2.292332
v 1.620922 0.922520 1.620922
v 2.292331 0.922519 -0.000000
v 1.620922 0.922519 -1.620923
v -0.000000 -0.791816 -0.586763
v 0.414903 -0.791816 -0.414904
v 0.586762 -0.791816 0.000000
v 0.414903 -0.791816 0.414904
v -0.000000 -0.791816 0.586764
v -0.414904 -0.791816 0.414904
v -0.586763 -0.791816 0.000000
v -0.414904 -0.791816 -0.414904
v -0.000000 -0.088332 -1.476469
v -1.044021 -0.088332 -1.044020
v -1.476467 -0.088331 0.000000
v -1.044020 -0.088331 1.044020
v -0.000000 -0.088331 1.476469
v 1.044020 -0.088331 1.044020
v 1.476467 -0.088331 0.000000
v 1.044020 -0.088332 -1.044020
v -0.000000 0.891972 -2.126600
v -1.503733 0.891972 -1.503733
v -2.126598 0.891972 -0.000000
v -1.503732 0.891972 1.503733
v -0.000000 0.891973 2.126599
v 1.503732 0.891972 1.503733
v 2.126598 0.891972 -0.000000
v 1.503732 0.891972 -1.503733
v -0.000000 -0.625076 -1.161676
v -0.821429 -0.625076 -0.821429
v -1.161676 -0.625076 0.000000
v -0.821429 -0.625076 0.821429
v -0.000000 -0.625076 1.161677
v 0.821429 -0.625076 0.821429
v 1.161676 -0.625076 0.000000
v 0.821429 -0.625076 -0.821429
v -0.000000 -0.922520 -1.124961
v 0.795467 -0.922520 -0.795467
v 1.124960 -0.922519 0.000000
v 0.795467 -0.922519 0.795468
v -0.000000 -0.922519 1.124961
v -0.795467 -0.922519 0.795468
v -1.124960 -0.922519 0.000000
v -0.795467 -0.922520 -0.795467
v -0.000000 -0.809066 -0.910819
v 0.644046 -0.809066 -0.644047
v 0.910819 -0.809066 0.000000
v 0.644046 -0.809066 0.644047
v -0.000000 -0.809066 0.910820
v -0.644046 -0.809066 0.644047
v -0.910819 -0.809066 0.000000
v -0.644046 -0.809066 -0.644047
v -1.352386 0.407350 1.352385
v -1.912563 0.407350 -0.000000
v -1.352386 0.407349 -1.352386
v -0.000000 0.407349 -1.912563
v 1.352386 0.407349 -1.352386
v 1.912563 0.407350 -0.000000
v 1.352386 0.407350 1.352385
v -0.000000 0.407350 1.912563
v -1.267263 0.403446 1.267262
v -1.792180 0.403445 -0.000000
v -1.267263 0.403445 -1.267263
v -0.000000 0.403445 -1.792181
v 1.267262 0.403445 -1.267263
v 1.792180 0.403445 -0.000000
v 1.267262 0.403446 1.267262
v -0.000000 0.403446 1.792181
vt 0.200754 -0.863112
vt 0.200754 -0.863112
vt 0.200754 -0.863112
vt 0.200754 -0.863112
vt 0.200754 -0.863112
vt 0.200754 -0.863112
vt 0.200754 -0.863112
vt 0.200754 -0.863112
vt 0.200754 -0.863112
vt 0.200754 -0.863112
vt 0.200754 -0.863112
vt 0.200754 -0.863112
vt 0.200754 -0.863112
vt 0.200754 -0.863112
vt 0.200754 -0.863112
vt 0.200754 -0.863112
vt 0.200754 -0.863112
vt 0.200754 -0.863112
vt 0.200754 -0.863112
vt 0.200754 -0.863112
vt 0.200754 -0.863112
vt 0.200754 -0.863112
vt 0.200754 -0.863112
vt 0.200754 -0.863112
vt 0.200754 -0.863112
vt 0.200754 -0.863112
vt 0.200754 -0.863112
vt 0.200754 -0.863112
vt 0.200754 -0.863112
vt 0.200754 -0.863112
vt 0.200754 -0.863112
vt 0.200754 -0.863112
vt 0.200754 -0.863112
vt 0.200754 -0.863112
vt 0.200754 -0.863112
vt 0.200754 -0.863112
vt 0.200754 -0.863112
vt 0.200754 -0.863112
vt 0.200754 -0.863112
vt 0.200754 -0.863112
vt 0.200754 -0.863112
vt 0.200754 -0.863112
vt 0.200754 -0.863112
vt 0.200754 -0.863112
vt 0.200754 -0.863112
vt 0.200754 -0.863112
vt 0.200754 -0.863112
vt 0.200754 -0.863112
vt 0.200754 -0.863112
vt 0.200754 -0.863112
vt 0.200754 -0.863112
vt 0.200754 -0.863112
vt 0.200754 -0.863112
vt 0.200754 -0.863112
vt 0.200754 -0.863112
vt 0.200754 -0.863112
vt 0.200754 -0.863112
vt 0.200754 -0.863112
vt 0.200754 -0.863112
vt 0.200754 -0.863112
vt 0.200754 -0.863112
vt 0.200754 -0.863112
vt 0.200754 -0.863112
vt 0.200754 -0.863112
vt 0.200754 -0.863112
vt 0.200754 -0.863112
vt 0.200754 -0.863112
vt 0.200754 -0.863112
vt 0.200754 -0.863112
vt 0.200754 -0.863112
vt 0.200754 -0.863112
vt 0.200754 -0.863112
vt 0.200754 -0.863112
vt 0.200754 -0.863112
vt 0.200754 -0.863112
vt 0.200754 -0.863112
vt 0.200754 -0.863112
vt 0.200754 -0.863112
vt 0.200754 -0.863112
vt 0.200754 -0.863112
vt 0.200754 -0.863112
vt 0.200754 -0.863112
vt 0.200754 -0.863112
vt 0.200754 -0.863112
vt 0.200754 -0.863112
vt 0.200754 -0.863112
vt 0.200754 -0.863112
vt 0.200754 -0.863112
vt 0.200754 -0.863112
vt 0.200754 -0.863112
vt 0.200754 -0.863112
vt 0.200754 -0.863112
vt 0.200754 -0.863112
vt 0.200754 -0.863112
vt 0.200754 -0.863112
vt 0.200754 -0.863112
vt 0.200754 -0.863112
vt 0.200754 -0.863112
vt 0.200754 -0.863112
vt 0.200754 -0.863112
vt 0.200754 -0.863112
vt 0.200754 -0.863112
vt 0.200754 -0.863112
vt 0.200754 -0.863112
vn -0.5799 -0.5722 -0.5799
vn -0.8201 -0.5722 0.0000
vn -0.8397 -0.5431 0.0000
vn -0.5937 -0.5431 -0.5937
vn -0.5366 -0.6512 0.5366
vn 0.0000 -0.6512 0.7589
vn -0.0000 -0.5722 0.8201
vn -0.5799 -0.5722 0.5799
vn 0.0000 -0.0000 -1.0000
vn 0.7071 0.0000 -0.7071
vn -0.0000 -0.5431 0.8397
vn -0.5937 -0.5431 0.5937
vn 0.0000 -0.6512 -0.7589
vn -0.5366 -0.6512 -0.5366
vn 0.0000 -0.5722 -0.8201
vn 1.0000 0.0000 0.0000
vn 0.5366 -0.6512 0.5366
vn 0.5799 -0.5722 0.5799
vn 0.7071 0.0000 0.7071
vn 0.0000 -0.5431 -0.8397
vn -0.7589 -0.6512 0.0000
vn -0.0000 0.0000 1.0000
vn 0.8201 -0.5722 0.0000
vn 0.8397 -0.5431 0.0000
vn 0.5937 -0.5431 0.5937
vn 0.7589 -0.6512 0.0000
vn -0.7071 -0.0000 0.7071
vn -0.8125 -0.5829 0.0000
vn -0.5745 -0.5829 0.5745
vn -0.5692 -0.5934 0.5692
vn -0.8049 -0.5934 0.0000
vn 0.5366 -0.6512 -0.5366
vn 0.5799 -0.5722 -0.5799
vn -1.0000 -0.0000 0.0000
vn -0.7071 -0.0000 -0.7071
vn 0.5937 -0.5431 -0.5937
vn -0.5516 -0.6257 0.5516
vn -0.7800 -0.6257 0.0000
vn -0.5120 -0.8590 0.0000
vn -0.3620 -0.8590 0.3620
vn 0.0000 -0.5829 -0.8125
vn -0.5745 -0.5829 -0.5745
vn -0.5692 -0.5934 -0.5692
vn 0.0000 -0.5934 -0.8049
vn 0.5745 -0.5829 -0.5745
vn 0.5692 -0.5934 -0.5692
vn 0.5745 -0.5829 0.5745
vn 0.8125 -0.5829 0.0000
vn 0.8049 -0.5934 0.0000
vn 0.5692 -0.5934 0.5692
vn -0.0000 -0.5829 0.8125
vn 0.0000 -0.5934 0.8049
vn 0.4704 0.7466 0.4704
vn 0.6017 0.5254 0.6017
vn 0.8509 0.5254 -0.0000
vn 0.6652 0.7466 -0.0000
vn 0.4704 0.7466 -0.4704
vn 0.6017 0.5254 -0.6017
vn 0.0000 0.5254 -0.8509
vn 0.0000 0.7466 -0.6652
vn -0.0000 0.7466 0.6652
vn -0.0000 0.5254 0.8509
vn -0.4704 0.7466 -0.4704
vn -0.6017 0.5254 -0.6017
vn -0.8509 0.5254 -0.0000
vn -0.6652 0.7466 -0.0000
vn 0.8323 0.5543 -0.0000
vn 0.8252 0.5649 -0.0000
vn 0.5835 0.5649 -0.5835
vn 0.5885 0.5543 -0.5885
vn -0.6017 0.5254 0.6017
vn -0.4704 0.7466 0.4704
vn -0.0000 0.5543 0.8323
vn -0.0000 0.5649 0.8252
vn 0.5835 0.5649 0.5835
vn 0.5885 0.5543 0.5885
vn -0.5885 0.5543 0.5885
vn -0.5835 0.5649 0.5835
vn -0.5885 0.5543 -0.5885
vn -0.5835 0.5649 -0.5835
vn -0.8252 0.5649 -0.0000
vn -0.8323 0.5543 -0.0000
vn 0.0000 0.5649 -0.8252
vn 0.0000 0.5543 -0.8323
vn -0.1282 0.9834 -0.1282
vn 0.0000 0.9834 -0.1813
vn 0.1282 0.9834 -0.1282
vn 0.1813 0.9834 -0.0000
vn 0.1282 0.9834 0.1282
vn 0.0000 0.9834 0.1813
vn -0.1282 0.9834 0.1282
vn -0.1813 0.9834 -0.0000
vn -0.0000 0.9846 0.1747
vn 0.1236 0.9846 0.1236
vn 0.1747 0.9846 -0.0000
vn 0.1236 0.9846 -0.1236
vn 0.0000 0.9846 -0.1747
vn -0.1236 0.9846 -0.1236
vn -0.1747 0.9846 -0.0000
vn -0.1236 0.9846 0.1236
vn 0.0000 -1.0000 0.0000
vn -0.0000 -0.8590 0.5120
vn -0.3620 -0.8590 -0.3620
vn 0.0000 -0.8590 -0.5120
vn 0.3620 -0.8590 -0.3620
vn 0.5120 -0.8590 -0.0000
vn 0.3620 -0.8590 0.3620
vn 0.7800 -0.6257 -0.0000
vn 0.5516 -0.6257 0.5516
vn 0.0000 -0.6257 -0.7800
vn 0.5516 -0.6257 -0.5516
vn -0.5516 -0.6257 -0.5516
vn -0.0000 -0.6257 0.7800
usemtl Solid.184
s 1
f 72/49/50 71/50/51 75/51/52 74/52/53
f 62/53/54 60/54/55 69/55/56 70/56/57
f 121/57/58 52/58/58 54/59/59 122/60/59
f 70/56/57 69/55/56 77/61/60 76/62/61
f 52/58/62 66/63/63 72/49/50 49/64/64
f 122/60/59 54/59/59 56/65/65 123/66/65
f 71/50/51 70/56/57 76/62/61 75/51/52
f 60/54/55 58/67/66 68/68/67 69/55/56
f 123/66/65 56/65/65 58/67/68 124/69/68
f 49/64/64 72/49/50 74/52/53 73/70/69
f 66/63/63 64/71/70 71/50/51 72/49/50
f 124/69/68 58/67/68 60/54/71 125/72/71
f 68/68/67 67/73/72 79/74/73 78/75/74
f 58/67/66 56/65/75 67/73/72 68/68/67
f 125/72/71 60/54/71 62/53/76 126/76/76
f 138/77/77 137/78/78 84/79/79 83/80/80
f 54/59/81 52/58/62 49/64/64 50/81/82
f 126/76/76 62/53/76 64/71/83 127/82/83
f 64/71/70 62/53/54 70/56/57 71/50/51
f 69/55/56 68/68/67 78/75/74 77/61/60
f 127/82/83 64/71/83 66/63/84 128/83/84
f 67/73/72 50/81/82 80/84/85 79/74/73
f 56/65/75 54/59/81 50/81/82 67/73/72
f 128/83/84 66/63/84 52/58/58 121/57/58
f 53/85/86 55/86/87 131/87/88 130/88/89
f 50/81/82 49/64/64 73/70/69 80/84/85
f 140/89/90 139/90/91 82/91/92 81/92/93
f 141/93/94 140/89/90 81/92/93 88/94/95
f 143/95/96 142/96/97 87/97/98 86/98/99
f 137/78/78 144/99/100 85/100/101 84/79/79
f 139/90/91 138/77/77 83/80/80 82/91/92
f 142/96/97 141/93/94 88/94/95 87/97/98
f 144/99/100 143/95/96 86/98/99 85/100/101
f 114/101/102 98/102/103 99/103/104 115/104/105
f 116/105/106 100/106/107 101/107/108 117/108/109
f 115/104/105 99/103/104 100/106/107 116/105/106
f 113/109/110 97/110/111 98/102/103 114/101/102
f 118/111/112 102/112/113 103/113/114 119/114/115
f 146/115/116 107/116/117 108/117/118 145/118/119
f 117/108/109 101/107/108 102/112/113 118/111/112
f 119/114/115 103/113/114 104/119/120 120/120/121
f 120/120/121 104/119/120 97/110/111 113/109/110
f 148/121/122 105/122/123 106/123/124 147/124/125
f 149/125/126 112/126/127 105/122/123 148/121/122
f 151/127/128 110/128/129 111/129/130 150/130/131
f 145/118/119 108/117/118 109/131/132 152/132/133
f 147/124/125 106/123/124 107/116/117 146/115/116
f 150/130/131 111/129/130 112/126/127 149/125/126
f 152/132/133 109/131/132 110/128/129 151/127/128
f 86/98/134 110/128/134 109/131/135 85/100/135
f 85/100/135 109/131/135 108/117/136 84/79/136
f 84/79/136 108/117/136 107/116/137 83/80/137
f 83/80/137 107/116/137 106/123/138 82/91/138
f 82/91/138 106/123/138 105/122/139 81/92/139
f 81/92/139 105/122/139 112/126/140 88/94/140
f 88/94/140 112/126/140 111/129/141 87/97/141
f 87/97/141 111/129/141 110/128/134 86/98/134
f 89/133/142 96/134/143 95/135/144 94/136/145 93/137/146 92/138/147 91/139/148 90/140/149
f 89/133/142 113/109/110 114/101/102 96/134/143
f 96/134/143 114/101/102 115/104/105 95/135/144
f 95/135/144 115/104/105 116/105/106 94/136/145
f 94/136/145 116/105/106 117/108/109 93/137/146
f 93/137/146 117/108/109 118/111/112 92/138/147
f 92/138/147 118/111/112 119/114/115 91/139/148
f 91/139/148 119/114/115 120/120/121 90/140/149
f 90/140/149 120/120/121 113/109/110 89/133/142
f 53/85/150 51/141/150 121/57/150 122/60/150
f 55/86/150 53/85/150 122/60/150 123/66/150
f 57/142/150 55/86/150 123/66/150 124/69/150
f 59/143/150 57/142/150 124/69/150 125/72/150
f 61/144/150 59/143/150 125/72/150 126/76/150
f 63/145/150 61/144/150 126/76/150 127/82/150
f 65/146/150 63/145/150 127/82/150 128/83/150
f 51/141/150 65/146/150 128/83/150 121/57/150
f 129/147/151 130/88/89 131/87/88 132/148/152 133/149/153 134/150/154 135/151/155 136/152/156
f 63/145/157 65/146/158 136/152/156 135/151/155
f 59/143/159 61/144/160 134/150/154 133/149/153
f 55/86/87 57/142/161 132/148/152 131/87/88
f 51/141/162 53/85/86 130/88/89 129/147/151
f 65/146/158 51/141/162 129/147/151 136/152/156
f 61/144/160 63/145/157 135/151/155 134/150/154
f 57/142/161 59/143/159 133/149/153 132/148/152
f 77/61/60 78/75/74 143/95/96 144/99/100
f 79/74/73 80/84/85 141/93/94 142/96/97
f 74/52/53 75/51/52 138/77/77 139/90/91
f 76/62/61 77/61/60 144/99/100 137/78/78
f 78/75/74 79/74/73 142/96/97 143/95/96
f 80/84/85 73/70/69 140/89/90 141/93/94
f 73/70/69 74/52/53 139/90/91 140/89/90
f 75/51/52 76/62/61 137/78/78 138/77/77
f 101/107/108 152/132/133 151/127/128 102/112/113
f 103/113/114 150/130/131 149/125/126 104/119/120
f 98/102/103 147/124/125 146/115/116 99/103/104
f 100/106/107 145/118/119 152/132/133 101/107/108
f 102/112/113 151/127/128 150/130/131 103/113/114
f 104/119/120 149/125/126 148/121/122 97/110/111
f 97/110/111 148/121/122 147/124/125 98/102/103
f 99/103/104 146/115/116 145/118/119 100/106/107
