# Blender v2.93.1 OBJ File: ''
# www.blender.org
mtllib serving_bowl_1_002.mtl
o serving_bowl_1.002_Cylinder.124
v 0.000000 -0.741869 -0.514915
v 0.364100 -0.741869 -0.364100
v 0.514915 -0.741869 0.000000
v 0.364100 -0.741869 0.364100
v -0.000000 -0.741869 0.514915
v -0.364100 -0.741869 0.364100
v -0.514915 -0.741869 0.000000
v -0.364100 -0.741869 -0.364100
v 0.690685 -0.054466 -0.690685
v 0.000000 -0.054466 -0.976776
v 0.976776 -0.054466 0.000000
v 0.690685 -0.054466 0.690685
v -0.000000 -0.054466 0.976776
v -0.690685 -0.054466 0.690685
v -0.976776 -0.054466 -0.000000
v -0.690685 -0.054466 -0.690685
v 0.771586 0.362139 -0.771586
v 0.000000 0.362139 -1.091187
v 1.091187 0.362139 -0.000000
v 0.771586 0.362139 0.771586
v -0.000000 0.362139 1.091187
v -0.771586 0.362139 0.771586
v -1.091187 0.362139 -0.000000
v -0.771586 0.362139 -0.771586
v 0.771586 0.578349 -0.771586
v 0.000000 0.792692 -1.091188
v 1.091187 0.476332 -0.000000
v 0.771586 0.578349 0.771586
v -0.000000 0.792693 1.091187
v -0.771586 0.578349 0.771586
v -1.091187 0.476332 -0.000000
v -0.771586 0.578349 -0.771586
v 0.552393 -0.447417 0.552393
v -0.000000 -0.447417 0.781202
v 0.552393 -0.447418 -0.552393
v 0.781202 -0.447417 0.000000
v -0.781202 -0.447417 0.000000
v -0.552393 -0.447418 -0.552393
v -0.552393 -0.447417 0.552393
v 0.000000 -0.447418 -0.781202
v 0.383962 -0.792773 -0.383962
v -0.000000 -0.792773 -0.543005
v 0.543005 -0.792773 0.000000
v 0.383962 -0.792773 0.383963
v -0.000000 -0.792773 0.543005
v -0.383962 -0.792773 0.383963
v -0.543005 -0.792773 0.000000
v -0.383963 -0.792773 -0.383962
v 0.729208 -0.074770 -0.729208
v 0.000000 -0.074770 -1.031256
v 1.031256 -0.074770 0.000000
v 0.729208 -0.074770 0.729208
v -0.000000 -0.074770 1.031256
v -0.729208 -0.074770 0.729208
v -1.031256 -0.074770 0.000000
v -0.729208 -0.074770 -0.729208
v 0.586772 -0.479299 0.586772
v -0.000000 -0.479299 0.829821
v 0.586772 -0.479299 -0.586772
v 0.829821 -0.479299 0.000000
v -0.829821 -0.479299 0.000000
v -0.586772 -0.479299 -0.586772
v -0.586772 -0.479299 0.586772
v 0.000000 -0.479299 -0.829821
v 0.799304 0.287230 -0.799304
v 0.000000 0.287230 -1.130386
v 1.130386 0.287230 0.000000
v 0.799304 0.287230 0.799304
v -0.000000 0.287231 1.130386
v -0.799304 0.287230 0.799304
v -1.130386 0.287230 -0.000000
v -0.799304 0.287230 -0.799304
v 0.810713 0.578349 -0.814590
v 0.000000 0.792692 -1.149328
v 1.149328 0.476332 -0.000000
v 0.810713 0.578349 0.814590
v -0.000000 0.792693 1.149327
v -0.810713 0.578349 0.814590
v -1.149328 0.476332 -0.000000
v -0.810713 0.578349 -0.814590
v 0.306890 -0.879650 -0.306890
v 0.000000 -0.879650 -0.434008
v 0.434008 -0.879650 0.000000
v 0.306890 -0.879650 0.306890
v -0.000000 -0.879650 0.434008
v -0.306890 -0.879650 0.306890
v -0.434008 -0.879650 0.000000
v -0.306890 -0.879650 -0.306890
v 0.383962 -0.879650 -0.383962
v -0.000000 -0.879650 -0.543005
v 0.543005 -0.879650 0.000000
v 0.383962 -0.879650 0.383963
v -0.000000 -0.879650 0.543005
v -0.383962 -0.879650 0.383963
v -0.543005 -0.879650 0.000000
v -0.383963 -0.879650 -0.383962
v 0.306890 -0.787872 -0.306890
v 0.000000 -0.787872 -0.434008
v 0.434008 -0.787872 0.000000
v 0.306890 -0.787872 0.306890
v -0.000000 -0.787872 0.434008
v -0.306890 -0.787872 0.306890
v -0.434008 -0.787872 0.000000
v -0.306890 -0.787872 -0.306890
vt 0.111300 -0.590490
vt 0.111300 -0.590490
vt 0.111300 -0.590490
vt 0.111300 -0.590490
vt 0.111300 -0.590490
vt 0.111300 -0.590490
vt 0.111300 -0.590490
vt 0.111300 -0.590490
vt 0.111300 -0.590490
vt 0.111300 -0.590490
vt 0.111300 -0.590490
vt 0.111300 -0.590490
vt 0.111300 -0.590490
vt 0.111300 -0.590490
vt 0.111300 -0.590490
vt 0.111300 -0.590490
vt 0.111300 -0.590490
vt 0.111300 -0.590490
vt 0.111300 -0.590490
vt 0.111300 -0.590490
vt 0.111300 -0.590490
vt 0.111300 -0.590490
vt 0.111300 -0.590490
vt 0.111300 -0.590490
vt 0.111300 -0.590490
vt 0.111300 -0.590490
vt 0.111300 -0.590490
vt 0.111300 -0.590490
vt 0.111300 -0.590490
vt 0.111300 -0.590490
vt 0.111300 -0.590490
vt 0.111300 -0.590490
vt 0.111300 -0.590490
vt 0.111300 -0.590490
vt 0.111300 -0.590490
vt 0.111300 -0.590490
vt 0.111300 -0.590490
vt 0.111300 -0.590490
vt 0.111300 -0.590490
vt 0.111300 -0.590490
vt 0.111300 -0.590490
vt 0.111300 -0.590490
vt 0.111300 -0.590490
vt 0.111300 -0.590490
vt 0.111300 -0.590490
vt 0.111300 -0.590490
vt 0.111300 -0.590490
vt 0.111300 -0.590490
vt 0.111300 -0.590490
vt 0.111300 -0.590490
vt 0.111300 -0.590490
vt 0.111300 -0.590490
vt 0.111300 -0.590490
vt 0.111300 -0.590490
vt 0.111300 -0.590490
vt 0.111300 -0.590490
vt 0.111300 -0.590490
vt 0.111300 -0.590490
vt 0.111300 -0.590490
vt 0.111300 -0.590490
vt 0.111300 -0.590490
vt 0.111300 -0.590490
vt 0.111300 -0.590490
vt 0.111300 -0.590490
vt 0.111300 -0.590490
vt 0.111300 -0.590490
vt 0.111300 -0.590490
vt 0.111300 -0.590490
vt 0.111300 -0.590490
vt 0.111300 -0.590490
vt 0.111300 -0.590490
vt 0.111300 -0.590490
vt 0.111300 -0.590490
vt 0.111300 -0.590490
vt 0.111300 -0.590490
vt 0.111300 -0.590490
vt 0.111300 -0.590490
vt 0.111300 -0.590490
vt 0.111300 -0.590490
vt 0.111300 -0.590490
vt 0.111300 -0.590490
vt 0.111300 -0.590490
vt 0.111300 -0.590490
vt 0.111300 -0.590490
vt 0.111300 -0.590490
vt 0.111300 -0.590490
vt 0.111300 -0.590490
vt 0.111300 -0.590490
vt 0.111300 -0.590490
vt 0.111300 -0.590490
vt 0.111300 -0.590490
vt 0.111300 -0.590490
vt 0.111300 -0.590490
vt 0.111300 -0.590490
vt 0.111300 -0.590490
vt 0.111300 -0.590490
vt 0.111300 -0.590490
vt 0.111300 -0.590490
vt 0.111300 -0.590490
vt 0.111300 -0.590490
vt 0.111300 -0.590490
vt 0.111300 -0.590490
vt 0.111300 -0.590490
vt 0.111300 -0.590490
vn -0.3416 0.8755 0.3416
vn 0.0000 0.8755 0.4831
vn 0.3416 0.8755 0.3416
vn 0.4831 0.8755 -0.0000
vn 0.3416 0.8755 -0.3416
vn 0.0000 0.8755 -0.4831
vn -0.3416 0.8755 -0.3416
vn -0.4831 0.8755 -0.0000
vn 0.6626 0.3492 0.6626
vn 0.7012 0.1295 0.7012
vn 0.9916 0.1295 -0.0000
vn 0.9370 0.3492 -0.0000
vn -0.0000 0.5484 -0.8362
vn 0.0000 0.3492 -0.9370
vn -0.6626 0.3492 -0.6626
vn -0.5913 0.5484 -0.5913
vn -0.8362 0.5484 -0.0000
vn -0.9370 0.3492 -0.0000
vn -0.6626 0.3492 0.6626
vn -0.5913 0.5484 0.5913
vn 0.5913 0.5484 0.5913
vn 0.8362 0.5484 -0.0000
vn 0.5913 0.5484 -0.5913
vn 0.6626 0.3492 -0.6626
vn 0.0000 0.3492 0.9370
vn 0.0000 0.5484 0.8362
vn -0.9916 0.1295 -0.0000
vn -1.0000 -0.0000 -0.0000
vn -0.6730 -0.0000 0.7397
vn -0.7012 0.1295 0.7012
vn 0.7012 0.1295 -0.7012
vn 0.0000 0.1295 -0.9916
vn -0.7012 0.1295 -0.7012
vn 0.0000 0.1295 0.9916
vn 0.6730 0.0000 0.7397
vn 1.0000 0.0000 -0.0000
vn 0.6730 0.0000 -0.7397
vn 0.0000 -0.0000 -1.0000
vn -0.6730 -0.0000 -0.7397
vn 0.0000 0.0000 1.0000
vn -0.7071 0.0000 0.7071
vn -0.6627 -0.3489 -0.6627
vn -0.9371 -0.3489 0.0000
vn -0.9859 -0.1670 0.0000
vn -0.6967 -0.1603 -0.6992
vn -0.0000 -0.5505 0.8348
vn 0.5903 -0.5505 0.5903
vn 0.6627 -0.3489 0.6627
vn -0.0000 -0.3489 0.9371
vn 0.8348 -0.5505 0.0000
vn 0.5903 -0.5505 -0.5903
vn 0.6627 -0.3489 -0.6627
vn 0.9371 -0.3489 0.0000
vn -0.5903 -0.5505 -0.5903
vn -0.8348 -0.5505 0.0000
vn -0.5903 -0.5505 0.5903
vn -0.6627 -0.3489 0.6627
vn -0.0000 -0.5505 -0.8348
vn -0.0000 -0.3489 -0.9371
vn 0.9859 -0.1670 0.0000
vn 0.6967 -0.1603 -0.6992
vn 0.6670 -0.0609 -0.7426
vn 0.9971 -0.0763 0.0000
vn -0.0000 -0.1534 0.9882
vn -0.6967 -0.1603 0.6992
vn 0.6967 -0.1603 0.6992
vn -0.0000 -0.1534 -0.9882
vn -0.7378 -0.6750 0.0000
vn -0.5217 -0.6750 0.5217
vn -0.9971 -0.0763 0.0000
vn -0.6670 -0.0609 -0.7426
vn -0.0000 -0.0487 0.9988
vn -0.6670 -0.0609 0.7426
vn 0.6670 -0.0609 0.7426
vn -0.0000 -0.0487 -0.9988
vn -0.0000 -0.6750 -0.7378
vn -0.5217 -0.6750 -0.5217
vn 0.5217 -0.6750 -0.5217
vn 0.5217 -0.6750 0.5217
vn 0.7378 -0.6750 0.0000
vn -0.0000 -0.6750 0.7378
vn -0.0000 0.9959 -0.0900
vn -0.1354 0.9859 -0.0985
vn -0.1415 0.9851 -0.0978
vn 0.0480 0.9988 -0.0000
vn 0.1354 0.9859 -0.0985
vn 0.1415 0.9851 -0.0978
vn 0.0000 0.9959 0.0900
vn 0.1354 0.9859 0.0985
vn 0.1415 0.9851 0.0978
vn -0.1354 0.9859 0.0985
vn -0.1415 0.9851 0.0978
vn -0.0480 0.9988 -0.0000
vn 0.7071 0.0000 0.7071
vn 0.7071 -0.0000 -0.7071
vn -0.7071 -0.0000 -0.7071
vn 0.0000 -1.0000 0.0000
usemtl Solid_-_75%.005
s 1
f 2/1/1 1/2/2 8/3/3 7/4/4 6/5/5 5/6/6 4/7/7 3/8/8
f 16/9/9 24/10/10 23/11/11 15/12/12
f 34/13/13 13/14/14 12/15/15 33/16/16
f 36/17/17 11/18/18 9/19/19 35/20/20
f 38/21/21 16/9/9 15/12/12 37/22/22
f 39/23/23 14/24/24 13/14/14 34/13/13
f 33/16/16 12/15/15 11/18/18 36/17/17
f 35/20/20 9/19/19 10/25/25 40/26/26
f 40/26/26 10/25/25 16/9/9 38/21/21
f 37/22/22 15/12/12 14/24/24 39/23/23
f 19/27/27 27/28/28 25/29/29 17/30/30
f 14/24/24 22/31/31 21/32/32 13/14/14
f 12/15/15 20/33/33 19/27/27 11/18/18
f 9/19/19 17/30/30 18/34/34 10/25/25
f 10/25/25 18/34/34 24/10/10 16/9/9
f 15/12/12 23/11/11 22/31/31 14/24/24
f 13/14/14 21/32/32 20/33/33 12/15/15
f 11/18/18 19/27/27 17/30/30 9/19/19
f 7/4/4 37/22/22 39/23/23 6/5/5
f 24/10/10 32/35/35 31/36/36 23/11/11
f 22/31/31 30/37/37 29/38/38 21/32/32
f 20/33/33 28/39/39 27/28/28 19/27/27
f 17/30/30 25/29/29 26/40/40 18/34/34
f 18/34/34 26/40/40 32/35/35 24/10/10
f 23/11/11 31/36/36 30/37/37 22/31/31
f 21/32/32 29/38/38 28/39/39 20/33/33
f 1/2/2 40/26/26 38/21/21 8/3/3
f 2/1/1 35/20/20 40/26/26 1/2/2
f 4/7/7 33/16/16 36/17/17 3/8/8
f 6/5/5 39/23/23 34/13/13 5/6/6
f 8/3/3 38/21/21 37/22/22 7/4/4
f 3/8/8 36/17/17 35/20/20 2/1/1
f 5/6/6 34/13/13 33/16/16 4/7/7
f 46/41/41 47/42/28 95/43/28 94/44/41
f 56/45/42 55/46/43 71/47/44 72/48/45
f 58/49/46 57/50/47 52/51/48 53/52/49
f 60/53/50 59/54/51 49/55/52 51/56/53
f 62/57/54 61/58/55 55/46/43 56/45/42
f 63/59/56 58/49/46 53/52/49 54/60/57
f 57/50/47 60/53/50 51/56/53 52/51/48
f 59/54/51 64/61/58 50/62/59 49/55/52
f 64/61/58 62/57/54 56/45/42 50/62/59
f 61/58/55 63/59/56 54/60/57 55/46/43
f 67/63/60 65/64/61 73/65/62 75/66/63
f 54/60/57 53/52/49 69/67/64 70/68/65
f 52/51/48 51/56/53 67/63/60 68/69/66
f 49/55/52 50/62/59 66/70/67 65/64/61
f 50/62/59 56/45/42 72/48/45 66/70/67
f 55/46/43 54/60/57 70/68/65 71/47/44
f 53/52/49 52/51/48 68/69/66 69/67/64
f 51/56/53 49/55/52 65/64/61 67/63/60
f 47/42/68 46/41/69 63/59/56 61/58/55
f 72/48/45 71/47/44 79/71/70 80/72/71
f 70/68/65 69/67/64 77/73/72 78/74/73
f 68/69/66 67/63/60 75/66/63 76/75/74
f 65/64/61 66/70/67 74/76/75 73/65/62
f 66/70/67 72/48/45 80/72/71 74/76/75
f 71/47/44 70/68/65 78/74/73 79/71/70
f 69/67/64 68/69/66 76/75/74 77/73/72
f 42/77/76 48/78/77 62/57/54 64/61/58
f 41/79/78 42/77/76 64/61/58 59/54/51
f 44/80/79 43/81/80 60/53/50 57/50/47
f 46/41/69 45/82/81 58/49/46 63/59/56
f 48/78/77 47/42/68 61/58/55 62/57/54
f 43/81/80 41/79/78 59/54/51 60/53/50
f 45/82/81 44/80/79 57/50/47 58/49/46
f 29/38/82 30/37/83 78/74/84 77/73/82
f 27/28/85 28/39/86 76/75/87 75/66/85
f 26/40/88 25/29/89 73/65/90 74/76/88
f 32/35/91 26/40/88 74/76/88 80/72/92
f 30/37/83 31/36/93 79/71/93 78/74/84
f 28/39/86 29/38/82 77/73/82 76/75/87
f 25/29/89 27/28/85 75/66/85 73/65/90
f 31/36/93 32/35/91 80/72/92 79/71/93
f 87/83/36 88/84/94 104/85/94 103/86/36
f 44/80/94 45/82/40 93/87/40 92/88/94
f 41/79/95 43/81/36 91/89/36 89/90/95
f 47/42/28 48/78/96 96/91/96 95/43/28
f 45/82/40 46/41/41 94/44/41 93/87/40
f 43/81/36 44/80/94 92/88/94 91/89/36
f 42/77/38 41/79/95 89/90/95 90/92/38
f 48/78/96 42/77/38 90/92/38 96/91/96
f 81/93/97 82/94/97 90/92/97 89/90/97
f 83/95/97 81/93/97 89/90/97 91/89/97
f 84/96/97 83/95/97 91/89/97 92/88/97
f 85/97/97 84/96/97 92/88/97 93/87/97
f 86/98/97 85/97/97 93/87/97 94/44/97
f 87/83/97 86/98/97 94/44/97 95/43/97
f 88/84/97 87/83/97 95/43/97 96/91/97
f 82/94/97 88/84/97 96/91/97 90/92/97
f 97/99/97 99/100/97 100/101/97 101/102/97 102/103/97 103/86/97 104/85/97 98/104/97
f 85/97/38 86/98/95 102/103/95 101/102/38
f 83/95/28 84/96/96 100/101/96 99/100/28
f 82/94/40 81/93/41 97/99/41 98/104/40
f 88/84/94 82/94/40 98/104/40 104/85/94
f 86/98/95 87/83/36 103/86/36 102/103/95
f 84/96/96 85/97/38 101/102/38 100/101/96
f 81/93/41 83/95/28 99/100/28 97/99/41
o serving_bowl_3_lid.001_Cylinder.125
v -0.792515 0.369498 0.792523
v -1.120786 0.369498 0.000008
v -0.792516 0.369498 -0.792508
v 0.000000 0.369498 -1.120779
v 0.792516 0.369498 -0.792508
v 1.120786 0.369498 0.000008
v 0.792516 0.369498 0.792523
v -0.000000 0.369498 1.120795
v 0.375468 0.647235 0.375476
v -0.000000 0.647235 0.531000
v 0.375468 0.647235 -0.375461
v 0.530992 0.647235 0.000008
v -0.530992 0.647235 0.000008
v -0.375468 0.647235 -0.375461
v -0.375468 0.647235 0.375476
v 0.000000 0.647235 -0.530985
v 0.300036 0.703079 0.300043
v -0.000000 0.703079 0.424322
v 0.300036 0.703079 -0.300028
v 0.424315 0.703079 0.000008
v -0.424314 0.703079 0.000008
v -0.300036 0.703079 -0.300028
v -0.300036 0.703079 0.300043
v -0.000000 0.703079 -0.424307
v 0.809982 0.421952 0.809989
v -0.000000 0.421952 1.145495
v 0.809982 0.421952 -0.809974
v 1.145487 0.421952 0.000008
v -1.145487 0.421952 0.000008
v -0.809982 0.421952 -0.809974
v -0.809982 0.421952 0.809989
v 0.000000 0.421952 -1.145480
v 0.386490 0.703079 0.386497
v -0.000000 0.703079 0.546587
v 0.386490 0.703079 -0.386482
v 0.546579 0.703079 0.000008
v -0.546579 0.703079 0.000008
v -0.386490 0.703079 -0.386482
v -0.386490 0.703079 0.386497
v 0.000000 0.703079 -0.546572
v 0.300036 0.774402 0.300043
v -0.000000 0.774402 0.424322
v 0.300036 0.774402 -0.300028
v 0.424315 0.774402 0.000008
v -0.424314 0.774402 0.000008
v -0.300036 0.774402 -0.300028
v -0.300036 0.774402 0.300043
v -0.000000 0.774402 -0.424307
vt 0.200754 -0.863112
vt 0.200754 -0.863112
vt 0.200754 -0.863112
vt 0.200754 -0.863112
vt 0.200754 -0.863112
vt 0.200754 -0.863112
vt 0.200754 -0.863112
vt 0.200754 -0.863112
vt 0.200754 -0.863112
vt 0.200754 -0.863112
vt 0.200754 -0.863112
vt 0.200754 -0.863112
vt 0.200754 -0.863112
vt 0.200754 -0.863112
vt 0.200754 -0.863112
vt 0.200754 -0.863112
vt 0.200754 -0.863112
vt 0.200754 -0.863112
vt 0.200754 -0.863112
vt 0.200754 -0.863112
vt 0.200754 -0.863112
vt 0.200754 -0.863112
vt 0.200754 -0.863112
vt 0.200754 -0.863112
vt 0.200754 -0.863112
vt 0.200754 -0.863112
vt 0.200754 -0.863112
vt 0.200754 -0.863112
vt 0.200754 -0.863112
vt 0.200754 -0.863112
vt 0.200754 -0.863112
vt 0.200754 -0.863112
vt 0.200754 -0.863112
vt 0.200754 -0.863112
vt 0.200754 -0.863112
vt 0.200754 -0.863112
vt 0.200754 -0.863112
vt 0.200754 -0.863112
vt 0.200754 -0.863112
vt 0.200754 -0.863112
vt 0.200754 -0.863112
vt 0.200754 -0.863112
vt 0.200754 -0.863112
vt 0.200754 -0.863112
vt 0.200754 -0.863112
vt 0.200754 -0.863112
vt 0.200754 -0.863112
vt 0.200754 -0.863112
vn -0.1901 -0.9632 -0.1901
vn 0.0000 -0.9632 -0.2688
vn 0.1901 -0.9632 -0.1901
vn 0.2688 -0.9632 0.0000
vn 0.1901 -0.9632 0.1901
vn 0.0000 -0.9632 0.2688
vn -0.1901 -0.9632 0.1901
vn -0.2688 -0.9632 0.0000
vn -0.3012 -0.9047 -0.3012
vn 0.0000 -0.9047 -0.4260
vn -0.3012 -0.9047 0.3012
vn -0.4260 -0.9047 0.0000
vn 0.4260 -0.9047 0.0000
vn 0.3012 -0.9047 0.3012
vn 0.3012 -0.9047 -0.3012
vn 0.0000 -0.9047 0.4260
vn 0.7071 -0.0000 -0.7071
vn 0.0000 0.0000 -1.0000
vn 0.1896 0.9634 0.1896
vn -0.0000 0.9634 0.2681
vn -0.0000 0.9052 0.4249
vn 0.3005 0.9052 0.3005
vn 0.1896 0.9634 -0.1896
vn 0.2681 0.9634 -0.0000
vn 0.4249 0.9052 -0.0000
vn 0.3005 0.9052 -0.3005
vn -0.2681 0.9634 -0.0000
vn -0.1896 0.9634 -0.1896
vn -0.3005 0.9052 -0.3005
vn -0.4249 0.9052 -0.0000
vn -0.1896 0.9634 0.1896
vn -0.3005 0.9052 0.3005
vn 0.0000 0.9634 -0.2681
vn 0.0000 0.9052 -0.4249
vn 0.0000 -0.4260 -0.9047
vn -0.6397 -0.4260 -0.6397
vn 0.6397 -0.4260 0.6397
vn 0.9047 -0.4260 -0.0000
vn -0.9047 -0.4260 -0.0000
vn -0.0000 -0.4260 0.9047
vn -0.6397 -0.4260 0.6397
vn 0.6397 -0.4260 -0.6397
vn 0.0000 1.0000 -0.0000
vn -0.7071 0.0000 0.7071
vn 0.0000 0.0000 1.0000
vn 1.0000 -0.0000 0.0000
vn -0.7071 -0.0000 -0.7071
vn 0.7071 0.0000 0.7071
vn -1.0000 -0.0000 0.0000
usemtl Solid.182
s 1
f 113/105/98 114/106/99 119/107/100 117/108/101 118/109/102 120/110/103 115/111/104 116/112/105
f 113/105/98 111/113/106 112/114/107 114/106/99
f 115/111/104 109/115/108 110/116/109 116/112/105
f 117/108/101 106/117/110 107/118/111 118/109/102
f 114/106/99 112/114/107 105/119/112 119/107/100
f 116/112/105 110/116/109 111/113/106 113/105/98
f 120/110/103 108/120/113 109/115/108 115/111/104
f 118/109/102 107/118/111 108/120/113 120/110/103
f 119/107/100 105/119/112 106/117/110 117/108/101
f 123/121/114 128/122/115 152/123/115 147/124/114
f 137/125/116 138/126/117 130/127/118 129/128/119
f 139/129/120 140/130/121 132/131/122 131/132/123
f 141/133/124 142/134/125 134/135/126 133/136/127
f 138/126/117 143/137/128 135/138/129 130/127/118
f 140/130/121 137/125/116 129/128/119 132/131/122
f 144/139/130 139/129/120 131/132/123 136/140/131
f 142/134/125 144/139/130 136/140/131 134/135/126
f 143/137/128 141/133/124 133/136/127 135/138/129
f 108/120/132 107/118/133 134/135/133 136/140/132
f 111/113/134 110/116/135 132/131/135 129/128/134
f 107/118/133 106/117/136 133/136/136 134/135/133
f 112/114/137 111/113/134 129/128/134 130/127/137
f 106/117/136 105/119/138 135/138/138 133/136/136
f 109/115/139 108/120/132 136/140/132 131/132/139
f 105/119/138 112/114/137 130/127/137 135/138/138
f 110/116/135 109/115/139 131/132/139 132/131/135
f 121/141/140 122/142/140 138/126/117 137/125/116
f 123/121/140 124/143/140 140/130/121 139/129/120
f 125/144/140 126/145/140 142/134/125 141/133/124
f 122/142/140 127/146/140 143/137/128 138/126/117
f 124/143/140 121/141/140 137/125/116 140/130/121
f 128/122/140 123/121/140 139/129/120 144/139/130
f 126/145/140 128/122/140 144/139/130 142/134/125
f 127/146/140 125/144/140 141/133/124 143/137/128
f 145/147/140 148/148/140 147/124/140 152/123/140 150/149/140 149/150/140 151/151/140 146/152/140
f 127/146/141 122/142/142 146/152/142 151/151/141
f 124/143/143 123/121/114 147/124/114 148/148/143
f 128/122/115 126/145/144 150/149/144 152/123/115
f 121/141/145 124/143/143 148/148/143 145/147/145
f 126/145/144 125/144/146 149/150/146 150/149/144
f 122/142/142 121/141/145 145/147/145 146/152/142
f 125/144/146 127/146/141 151/151/141 149/150/146
