# Blender v2.93.1 OBJ File: ''
# www.blender.org
mtllib serving_bowl_2.mtl
o serving_bowl_2.006_lid_Cylinder.127
v -0.508835 0.392412 0.508838
v -0.719601 0.392412 0.000004
v -0.508835 0.392412 -0.508831
v -0.000000 0.392412 -0.719598
v 0.508835 0.392412 -0.508831
v 0.719601 0.392412 0.000004
v 0.508835 0.392413 0.508838
v -0.000000 0.392412 0.719605
v 0.332221 0.586610 0.332225
v -0.000000 0.586609 0.469836
v 0.332221 0.586609 -0.332217
v 0.469832 0.586609 0.000004
v -0.469832 0.586610 0.000004
v -0.332221 0.586609 -0.332217
v -0.332221 0.586609 0.332225
v -0.000000 0.586609 -0.469828
v 0.619577 0.392413 0.619581
v -0.000000 0.392412 0.876219
v 0.619577 0.392412 -0.619573
v 0.876215 0.392412 0.000004
v -0.876215 0.392412 0.000004
v -0.619577 0.392412 -0.619573
v -0.619577 0.392412 0.619581
v -0.000000 0.392412 -0.876211
v 0.508835 0.392413 0.508838
v -0.000000 0.392412 0.719605
v 0.508835 0.392412 -0.508831
v 0.719601 0.392412 0.000004
v -0.719601 0.392412 0.000004
v -0.508835 0.392412 -0.508831
v -0.508835 0.392412 0.508838
v -0.000000 0.392412 -0.719598
v 0.426061 0.531968 0.392164
v 0.013963 0.531968 0.562862
v 0.426061 0.531968 -0.432032
v 0.596758 0.531968 -0.019934
v -0.568832 0.531968 -0.019934
v -0.398135 0.531968 -0.432032
v -0.398135 0.531968 0.392164
v 0.013963 0.531968 -0.602729
v 0.476772 0.586610 0.476776
v -0.000000 0.586610 0.674262
v 0.476772 0.586609 -0.476768
v 0.674258 0.586609 0.000004
v -0.674257 0.586610 0.000004
v -0.476772 0.586609 -0.476768
v -0.476772 0.586609 0.476776
v -0.000000 0.586609 -0.674254
v 0.332221 0.650249 0.332225
v -0.000000 0.650249 0.469836
v 0.332221 0.650249 -0.332218
v 0.469832 0.650249 0.000004
v -0.469832 0.650249 0.000004
v -0.332221 0.650249 -0.332218
v -0.332221 0.650249 0.332225
v -0.000000 0.650249 -0.469828
vt 0.185845 -0.181556
vt 0.185845 -0.181556
vt 0.185845 -0.181556
vt 0.185845 -0.181556
vt 0.185845 -0.181556
vt 0.185845 -0.181556
vt 0.185845 -0.181556
vt 0.185845 -0.181556
vt 0.185845 -0.181556
vt 0.185845 -0.181556
vt 0.185845 -0.181556
vt 0.185845 -0.181556
vt 0.185845 -0.181556
vt 0.185845 -0.181556
vt 0.185845 -0.181556
vt 0.185845 -0.181556
vt 0.185845 -0.181556
vt 0.185845 -0.181556
vt 0.185845 -0.181556
vt 0.185845 -0.181556
vt 0.185845 -0.181556
vt 0.185845 -0.181556
vt 0.185845 -0.181556
vt 0.185845 -0.181556
vt 0.185845 -0.181556
vt 0.185845 -0.181556
vt 0.185845 -0.181556
vt 0.185845 -0.181556
vt 0.185845 -0.181556
vt 0.185845 -0.181556
vt 0.185845 -0.181556
vt 0.185845 -0.181556
vt 0.185845 -0.181556
vt 0.185845 -0.181556
vt 0.185845 -0.181556
vt 0.185845 -0.181556
vt 0.185845 -0.181556
vt 0.185845 -0.181556
vt 0.185845 -0.181556
vt 0.185845 -0.181556
vt 0.185845 -0.181556
vt 0.185845 -0.181556
vt 0.185845 -0.181556
vt 0.185845 -0.181556
vt 0.185845 -0.181556
vt 0.185845 -0.181556
vt 0.185845 -0.181556
vt 0.185845 -0.181556
vt 0.185845 -0.181556
vt 0.185845 -0.181556
vt 0.185845 -0.181556
vt 0.185845 -0.181556
vt 0.185845 -0.181556
vt 0.185845 -0.181556
vt 0.185845 -0.181556
vt 0.185845 -0.181556
vn 0.0000 0.0000 1.0000
vn 1.0000 0.0000 0.0000
vn 0.7071 -0.0000 0.7071
vn -0.0000 0.7208 0.6931
vn -0.4901 0.7208 0.4901
vn 0.4901 0.7208 -0.4901
vn 0.6931 0.7208 -0.0000
vn -0.4901 0.7208 -0.4901
vn -0.0000 0.7208 -0.6931
vn 0.4901 0.7208 0.4901
vn -0.6931 0.7208 -0.0000
vn 0.0000 -1.0000 0.0000
vn 0.6783 -0.7346 -0.0127
vn 0.4392 -0.8983 0.0141
vn 0.3001 -0.9068 -0.2961
vn 0.4617 -0.7552 -0.4653
vn -0.3358 -0.8893 -0.3104
vn -0.0095 -0.9034 -0.4286
vn 0.3208 -0.8811 0.3476
vn -0.0122 -0.8645 0.5024
vn -0.3581 -0.8601 0.3634
vn -0.4910 -0.8710 0.0168
vn -0.5524 -0.6288 0.5472
vn 0.0116 -0.6427 0.7660
vn 0.0085 -0.7472 -0.6645
vn -0.7494 -0.6619 -0.0158
vn 0.5239 -0.6902 0.4991
vn -0.4847 -0.7121 -0.5079
vn -0.0000 1.0000 -0.0000
vn -1.0000 -0.0000 0.0000
vn -0.7071 0.0000 -0.7071
vn -0.7071 -0.0000 0.7071
vn -0.0000 -0.0000 -1.0000
vn 0.7071 0.0000 -0.7071
usemtl Solid.183
s 1
f 6/1/1 28/2/1 27/3/1 5/4/1
f 12/5/2 52/6/2 49/7/3 9/8/3
f 18/9/4 42/10/4 47/11/5 23/12/5
f 19/13/6 43/14/6 44/15/7 20/16/7
f 22/17/8 46/18/8 48/19/9 24/20/9
f 20/16/7 44/15/7 41/21/10 17/22/10
f 21/23/11 45/24/11 46/18/8 22/17/8
f 17/22/10 41/21/10 42/10/4 18/9/4
f 23/12/5 47/11/5 45/24/11 21/23/11
f 24/20/9 48/19/9 43/14/6 19/13/6
f 7/25/12 17/22/12 18/9/12 8/26/12
f 5/4/12 19/13/12 20/16/12 6/1/12
f 2/27/12 21/23/12 22/17/12 3/28/12
f 8/26/12 18/9/12 23/12/12 1/29/12
f 6/1/12 20/16/12 17/22/12 7/25/12
f 4/30/12 24/20/12 19/13/12 5/4/12
f 3/28/12 22/17/12 24/20/12 4/30/12
f 1/29/12 23/12/12 21/23/12 2/27/12
f 29/31/13 37/32/14 39/33/15 31/34/16
f 4/30/1 32/35/1 30/36/1 3/28/1
f 7/25/1 25/37/1 28/2/1 6/1/1
f 3/28/1 30/36/1 29/31/1 2/27/1
f 8/26/1 26/38/1 25/37/1 7/25/1
f 2/27/1 29/31/1 31/34/1 1/29/1
f 5/4/1 27/3/1 32/35/1 4/30/1
f 1/29/1 31/34/1 26/38/1 8/26/1
f 33/39/17 34/40/18 39/33/15 37/32/14 38/41/19 40/42/20 35/43/21 36/44/22
f 27/3/23 35/43/21 40/42/20 32/35/24
f 31/34/16 39/33/15 34/40/18 26/38/25
f 28/2/26 36/44/22 35/43/21 27/3/23
f 32/35/24 40/42/20 38/41/19 30/36/27
f 25/37/28 33/39/17 36/44/22 28/2/26
f 30/36/27 38/41/19 37/32/14 29/31/13
f 26/38/25 34/40/18 33/39/17 25/37/28
f 10/45/29 42/10/29 41/21/29 9/8/29
f 12/5/29 44/15/29 43/14/29 11/46/29
f 14/47/29 46/18/29 45/24/29 13/48/29
f 15/49/29 47/11/29 42/10/29 10/45/29
f 9/8/29 41/21/29 44/15/29 12/5/29
f 11/46/29 43/14/29 48/19/29 16/50/29
f 16/50/29 48/19/29 46/18/29 14/47/29
f 13/48/29 45/24/29 47/11/29 15/49/29
f 49/7/29 52/6/29 51/51/29 56/52/29 54/53/29 53/54/29 55/55/29 50/56/29
f 13/48/30 53/54/30 54/53/31 14/47/31
f 9/8/3 49/7/3 50/56/1 10/45/1
f 15/49/32 55/55/32 53/54/30 13/48/30
f 16/50/33 56/52/33 51/51/34 11/46/34
f 10/45/1 50/56/1 55/55/32 15/49/32
f 11/46/34 51/51/34 52/6/2 12/5/2
f 14/47/31 54/53/31 56/52/33 16/50/33
o serving_bowl_2_Cylinder.126
v -0.000000 -0.290643 -0.777722
v 0.549932 -0.290643 -0.549932
v -0.000000 -0.515488 -0.561025
v 0.000000 -0.413546 -0.629978
v 0.396705 -0.515488 -0.396705
v 0.445462 -0.413546 -0.445462
v 0.561025 -0.515488 0.000000
v 0.629978 -0.413546 0.000000
v 0.396705 -0.515488 0.396705
v 0.445462 -0.413546 0.445462
v -0.000000 -0.515488 0.561025
v -0.000000 -0.413546 0.629978
v -0.396705 -0.515488 0.396705
v -0.445462 -0.413546 0.445462
v -0.561025 -0.515488 0.000000
v -0.629978 -0.413546 0.000000
v -0.396705 -0.515488 -0.396705
v -0.445462 -0.413546 -0.445462
v 0.777721 -0.290643 0.000000
v 0.549932 -0.290643 0.549932
v -0.000000 -0.290643 0.777722
v -0.549932 -0.290643 0.549932
v -0.777721 -0.290643 0.000000
v -0.549932 -0.290643 -0.549932
v -0.000000 -0.057357 -0.857250
v -0.606167 -0.057357 -0.606167
v -0.857249 -0.057357 0.000000
v -0.606167 -0.057356 0.606167
v -0.000000 -0.057356 0.857250
v 0.606167 -0.057356 0.606167
v 0.857249 -0.057357 0.000000
v 0.606167 -0.057357 -0.606167
v -0.000000 0.515488 -0.946679
v -0.669403 0.515488 -0.669403
v -0.946678 0.515488 -0.000000
v -0.669402 0.515488 0.669402
v -0.000000 0.515488 0.946678
v 0.669402 0.515488 0.669402
v 0.946678 0.515488 -0.000000
v 0.669402 0.515488 -0.669403
v -0.000000 -0.442294 -0.328587
v 0.232346 -0.442294 -0.232346
v 0.328587 -0.442294 0.000000
v 0.232346 -0.442294 0.232346
v -0.000000 -0.442294 0.328588
v -0.232346 -0.442294 0.232346
v -0.328587 -0.442294 0.000000
v -0.232346 -0.442294 -0.232346
v -0.000000 -0.048424 -0.812149
v -0.574276 -0.048424 -0.574275
v -0.812148 -0.048424 0.000000
v -0.574275 -0.048424 0.574275
v -0.000000 -0.048423 0.812149
v 0.574275 -0.048424 0.574275
v 0.812148 -0.048424 0.000000
v 0.574275 -0.048424 -0.574275
v -0.000000 0.502873 -0.878235
v -0.621006 0.502873 -0.621006
v -0.878234 0.502873 -0.000000
v -0.621006 0.502873 0.621006
v -0.000000 0.502873 0.878235
v 0.621006 0.502873 0.621006
v 0.878234 0.502873 -0.000000
v 0.621006 0.502873 -0.621006
v 0.000000 -0.350606 -0.689301
v -0.487409 -0.350606 -0.487409
v -0.689301 -0.350606 0.000000
v -0.487409 -0.350606 0.487409
v -0.000000 -0.350606 0.689301
v 0.487409 -0.350606 0.487409
v 0.689301 -0.350606 0.000000
v 0.487409 -0.350606 -0.487409
v 0.000000 -0.515488 -0.629978
v 0.445462 -0.515488 -0.445462
v 0.629978 -0.515488 0.000000
v 0.445462 -0.515488 0.445462
v -0.000000 -0.515488 0.629978
v -0.445462 -0.515488 0.445462
v -0.629978 -0.515488 0.000000
v -0.445462 -0.515488 -0.445462
v -0.000000 -0.451954 -0.510059
v 0.360666 -0.451954 -0.360666
v 0.510059 -0.451954 0.000000
v 0.360666 -0.451954 0.360666
v -0.000000 -0.451954 0.510059
v -0.360666 -0.451954 0.360666
v -0.510059 -0.451954 0.000000
v -0.360666 -0.451954 -0.360666
v -0.661195 0.229100 0.661195
v -0.935071 0.229100 -0.000000
v -0.661195 0.229099 -0.661195
v -0.000000 0.229099 -0.935071
v 0.661195 0.229099 -0.661195
v 0.935071 0.229100 -0.000000
v 0.661195 0.229100 0.661195
v -0.000000 0.229100 0.935071
v -0.619577 0.227191 0.619577
v -0.876215 0.227191 -0.000000
v -0.619577 0.227191 -0.619577
v -0.000000 0.227191 -0.876215
v 0.619577 0.227191 -0.619577
v 0.876215 0.227191 -0.000000
v 0.619577 0.227191 0.619577
v -0.000000 0.227191 0.876215
vt 0.292338 -0.454179
vt 0.292338 -0.454179
vt 0.292338 -0.454179
vt 0.292338 -0.454179
vt 0.292338 -0.454179
vt 0.292338 -0.454179
vt 0.292338 -0.454179
vt 0.292338 -0.454179
vt 0.292338 -0.454179
vt 0.292338 -0.454179
vt 0.292338 -0.454179
vt 0.292338 -0.454179
vt 0.292338 -0.454179
vt 0.292338 -0.454179
vt 0.292338 -0.454179
vt 0.292338 -0.454179
vt 0.292338 -0.454179
vt 0.292338 -0.454179
vt 0.292338 -0.454179
vt 0.292338 -0.454179
vt 0.292338 -0.454179
vt 0.292338 -0.454179
vt 0.292338 -0.454179
vt 0.292338 -0.454179
vt 0.292338 -0.454179
vt 0.292338 -0.454179
vt 0.292338 -0.454179
vt 0.292338 -0.454179
vt 0.292338 -0.454179
vt 0.292338 -0.454179
vt 0.292338 -0.454179
vt 0.292338 -0.454179
vt 0.292338 -0.454179
vt 0.292338 -0.454179
vt 0.292338 -0.454179
vt 0.292338 -0.454179
vt 0.292338 -0.454179
vt 0.292338 -0.454179
vt 0.292338 -0.454179
vt 0.292338 -0.454179
vt 0.292338 -0.454179
vt 0.292338 -0.454179
vt 0.292338 -0.454179
vt 0.292338 -0.454179
vt 0.292338 -0.454179
vt 0.292338 -0.454179
vt 0.292338 -0.454179
vt 0.292338 -0.454179
vt 0.292338 -0.454179
vt 0.292338 -0.454179
vt 0.292338 -0.454179
vt 0.292338 -0.454179
vt 0.292338 -0.454179
vt 0.292338 -0.454179
vt 0.292338 -0.454179
vt 0.292338 -0.454179
vt 0.292338 -0.454179
vt 0.292338 -0.454179
vt 0.292338 -0.454179
vt 0.292338 -0.454179
vt 0.292338 -0.454179
vt 0.292338 -0.454179
vt 0.292338 -0.454179
vt 0.292338 -0.454179
vt 0.292338 -0.454179
vt 0.292338 -0.454179
vt 0.292338 -0.454179
vt 0.292338 -0.454179
vt 0.292338 -0.454179
vt 0.292338 -0.454179
vt 0.292338 -0.454179
vt 0.292338 -0.454179
vt 0.292338 -0.454179
vt 0.292338 -0.454179
vt 0.292338 -0.454179
vt 0.292338 -0.454179
vt 0.292338 -0.454179
vt 0.292338 -0.454179
vt 0.292338 -0.454179
vt 0.292338 -0.454179
vt 0.292338 -0.454179
vt 0.292338 -0.454179
vt 0.292338 -0.454179
vt 0.292338 -0.454179
vt 0.292338 -0.454179
vt 0.292338 -0.454179
vt 0.292338 -0.454179
vt 0.292338 -0.454179
vt 0.292338 -0.454179
vt 0.292338 -0.454179
vt 0.292338 -0.454179
vt 0.292338 -0.454179
vt 0.292338 -0.454179
vt 0.292338 -0.454179
vt 0.292338 -0.454179
vt 0.292338 -0.454179
vt 0.292338 -0.454179
vt 0.292338 -0.454179
vt 0.292338 -0.454179
vt 0.292338 -0.454179
vt 0.292338 -0.454179
vt 0.292338 -0.454179
vt 0.292338 -0.454179
vt 0.292338 -0.454179
vn -0.5961 -0.5379 -0.5961
vn -0.8430 -0.5379 0.0000
vn -0.9569 -0.2904 0.0000
vn -0.6766 -0.2904 -0.6766
vn -0.4522 -0.7688 0.4522
vn -0.0000 -0.7688 0.6395
vn -0.0000 -0.5379 0.8430
vn -0.5961 -0.5379 0.5961
vn 0.0000 -0.0000 -1.0000
vn 0.7071 -0.0000 -0.7071
vn -0.0000 -0.2904 0.9569
vn -0.6766 -0.2904 0.6766
vn 0.0000 -0.7688 -0.6395
vn -0.4522 -0.7688 -0.4522
vn 0.0000 -0.5379 -0.8430
vn 1.0000 0.0000 0.0000
vn 0.4522 -0.7688 0.4522
vn 0.5961 -0.5379 0.5961
vn 0.7071 0.0000 0.7071
vn 0.0000 -0.2904 -0.9569
vn -0.6395 -0.7688 0.0000
vn 0.0000 0.0000 1.0000
vn 0.8430 -0.5379 0.0000
vn 0.9569 -0.2904 0.0000
vn 0.6766 -0.2904 0.6766
vn 0.6395 -0.7688 0.0000
vn -0.7071 0.0000 0.7071
vn -0.9889 -0.1483 0.0000
vn -0.6993 -0.1483 0.6993
vn -0.7065 -0.0405 0.7065
vn -0.9992 -0.0405 0.0000
vn 0.4522 -0.7688 -0.4522
vn 0.5961 -0.5379 -0.5961
vn -1.0000 -0.0000 0.0000
vn -0.7071 -0.0000 -0.7071
vn 0.6766 -0.2904 -0.6766
vn -0.5516 -0.6257 0.5516
vn -0.7800 -0.6257 -0.0000
vn -0.5120 -0.8590 -0.0000
vn -0.3620 -0.8590 0.3620
vn 0.0000 -0.1483 -0.9889
vn -0.6993 -0.1483 -0.6993
vn -0.7065 -0.0405 -0.7065
vn 0.0000 -0.0405 -0.9992
vn 0.6993 -0.1483 -0.6993
vn 0.7065 -0.0405 -0.7065
vn 0.6993 -0.1483 0.6993
vn 0.9889 -0.1483 0.0000
vn 0.9992 -0.0405 0.0000
vn 0.7065 -0.0405 0.7065
vn 0.0000 -0.1483 0.9889
vn 0.0000 -0.0405 0.9992
vn 0.5034 0.7022 0.5034
vn 0.6752 0.2970 0.6752
vn 0.9549 0.2970 -0.0000
vn 0.7119 0.7022 -0.0000
vn 0.5034 0.7022 -0.5034
vn 0.6752 0.2970 -0.6752
vn 0.0000 0.2970 -0.9549
vn 0.0000 0.7022 -0.7119
vn -0.0000 0.7022 0.7119
vn -0.0000 0.2970 0.9549
vn -0.5034 0.7022 -0.5034
vn -0.6752 0.2970 -0.6752
vn -0.9549 0.2970 -0.0000
vn -0.7119 0.7022 -0.0000
vn 0.9934 0.1146 -0.0000
vn 1.0000 0.0073 -0.0000
vn 0.7071 0.0073 -0.7071
vn 0.7025 0.1146 -0.7025
vn -0.6752 0.2970 0.6752
vn -0.5034 0.7022 0.5034
vn -0.0000 0.1146 0.9934
vn -0.0000 0.0073 1.0000
vn 0.7071 0.0073 0.7071
vn 0.7025 0.1146 0.7025
vn -0.7025 0.1146 0.7025
vn -0.7071 0.0073 0.7071
vn -0.7025 0.1146 -0.7025
vn -0.7071 0.0073 -0.7071
vn -1.0000 0.0073 0.0000
vn -0.9934 0.1146 -0.0000
vn 0.0000 0.0073 -1.0000
vn 0.0000 0.1146 -0.9934
vn -0.1282 0.9834 -0.1282
vn 0.0000 0.9834 -0.1813
vn 0.1282 0.9834 -0.1282
vn 0.1813 0.9834 -0.0000
vn 0.1282 0.9834 0.1282
vn -0.0000 0.9834 0.1813
vn -0.1282 0.9834 0.1282
vn -0.1813 0.9834 -0.0000
vn -0.0000 0.9880 0.1544
vn 0.1092 0.9880 0.1092
vn 0.1544 0.9880 -0.0000
vn 0.1092 0.9880 -0.1092
vn 0.0000 0.9880 -0.1544
vn -0.1092 0.9880 -0.1092
vn -0.1544 0.9880 -0.0000
vn -0.1092 0.9880 0.1092
vn 0.0000 -1.0000 0.0000
vn 0.0000 -0.8590 0.5120
vn -0.3620 -0.8590 -0.3620
vn 0.0000 -0.8590 -0.5120
vn 0.3620 -0.8590 -0.3620
vn 0.5120 -0.8590 -0.0000
vn 0.3620 -0.8590 0.3620
vn 0.7800 -0.6257 -0.0000
vn 0.5516 -0.6257 0.5516
vn 0.0000 -0.6257 -0.7800
vn 0.5516 -0.6257 -0.5516
vn -0.5516 -0.6257 -0.5516
vn 0.0000 -0.6257 0.7800
usemtl Solid.183
s 1
f 80/57/35 79/58/36 83/59/37 82/60/38
f 70/61/39 68/62/40 77/63/41 78/64/42
f 129/65/43 60/66/43 62/67/44 130/68/44
f 78/64/42 77/63/41 85/69/45 84/70/46
f 60/66/47 74/71/48 80/57/35 57/72/49
f 130/68/44 62/67/44 64/73/50 131/74/50
f 79/58/36 78/64/42 84/70/46 83/59/37
f 68/62/40 66/75/51 76/76/52 77/63/41
f 131/74/50 64/73/50 66/75/53 132/77/53
f 57/72/49 80/57/35 82/60/38 81/78/54
f 74/71/48 72/79/55 79/58/36 80/57/35
f 132/77/53 66/75/53 68/62/56 133/80/56
f 76/76/52 75/81/57 87/82/58 86/83/59
f 66/75/51 64/73/60 75/81/57 76/76/52
f 133/80/56 68/62/56 70/61/61 134/84/61
f 146/85/62 145/86/63 92/87/64 91/88/65
f 62/67/66 60/66/47 57/72/49 58/89/67
f 134/84/61 70/61/61 72/79/68 135/90/68
f 72/79/55 70/61/39 78/64/42 79/58/36
f 77/63/41 76/76/52 86/83/59 85/69/45
f 135/90/68 72/79/68 74/71/69 136/91/69
f 75/81/57 58/89/67 88/92/70 87/82/58
f 64/73/60 62/67/66 58/89/67 75/81/57
f 136/91/69 74/71/69 60/66/43 129/65/43
f 61/93/71 63/94/72 139/95/73 138/96/74
f 58/89/67 57/72/49 81/78/54 88/92/70
f 148/97/75 147/98/76 90/99/77 89/100/78
f 149/101/79 148/97/75 89/100/78 96/102/80
f 151/103/81 150/104/82 95/105/83 94/106/84
f 145/86/63 152/107/85 93/108/86 92/87/64
f 147/98/76 146/85/62 91/88/65 90/99/77
f 150/104/82 149/101/79 96/102/80 95/105/83
f 152/107/85 151/103/81 94/106/84 93/108/86
f 122/109/87 106/110/88 107/111/89 123/112/90
f 124/113/91 108/114/92 109/115/93 125/116/94
f 123/112/90 107/111/89 108/114/92 124/113/91
f 121/117/95 105/118/96 106/110/88 122/109/87
f 126/119/97 110/120/98 111/121/99 127/122/100
f 154/123/101 115/124/102 116/125/103 153/126/104
f 125/116/94 109/115/93 110/120/98 126/119/97
f 127/122/100 111/121/99 112/127/105 128/128/106
f 128/128/106 112/127/105 105/118/96 121/117/95
f 156/129/107 113/130/108 114/131/109 155/132/110
f 157/133/111 120/134/112 113/130/108 156/129/107
f 159/135/113 118/136/114 119/137/115 158/138/116
f 153/126/104 116/125/103 117/139/117 160/140/118
f 155/132/110 114/131/109 115/124/102 154/123/101
f 158/138/116 119/137/115 120/134/112 157/133/111
f 160/140/118 117/139/117 118/136/114 159/135/113
f 94/106/119 118/136/119 117/139/120 93/108/120
f 93/108/120 117/139/120 116/125/121 92/87/121
f 92/87/121 116/125/121 115/124/122 91/88/122
f 91/88/122 115/124/122 114/131/123 90/99/123
f 90/99/123 114/131/123 113/130/124 89/100/124
f 89/100/124 113/130/124 120/134/125 96/102/125
f 96/102/125 120/134/125 119/137/126 95/105/126
f 95/105/126 119/137/126 118/136/119 94/106/119
f 97/141/127 104/142/128 103/143/129 102/144/130 101/145/131 100/146/132 99/147/133 98/148/134
f 97/141/127 121/117/95 122/109/87 104/142/128
f 104/142/128 122/109/87 123/112/90 103/143/129
f 103/143/129 123/112/90 124/113/91 102/144/130
f 102/144/130 124/113/91 125/116/94 101/145/131
f 101/145/131 125/116/94 126/119/97 100/146/132
f 100/146/132 126/119/97 127/122/100 99/147/133
f 99/147/133 127/122/100 128/128/106 98/148/134
f 98/148/134 128/128/106 121/117/95 97/141/127
f 61/93/135 59/149/135 129/65/135 130/68/135
f 63/94/135 61/93/135 130/68/135 131/74/135
f 65/150/135 63/94/135 131/74/135 132/77/135
f 67/151/135 65/150/135 132/77/135 133/80/135
f 69/152/135 67/151/135 133/80/135 134/84/135
f 71/153/135 69/152/135 134/84/135 135/90/135
f 73/154/135 71/153/135 135/90/135 136/91/135
f 59/149/135 73/154/135 136/91/135 129/65/135
f 137/155/136 138/96/74 139/95/73 140/156/137 141/157/138 142/158/139 143/159/140 144/160/141
f 71/153/142 73/154/143 144/160/141 143/159/140
f 67/151/144 69/152/145 142/158/139 141/157/138
f 63/94/72 65/150/146 140/156/137 139/95/73
f 59/149/147 61/93/71 138/96/74 137/155/136
f 73/154/143 59/149/147 137/155/136 144/160/141
f 69/152/145 71/153/142 143/159/140 142/158/139
f 65/150/146 67/151/144 141/157/138 140/156/137
f 85/69/45 86/83/59 151/103/81 152/107/85
f 87/82/58 88/92/70 149/101/79 150/104/82
f 82/60/38 83/59/37 146/85/62 147/98/76
f 84/70/46 85/69/45 152/107/85 145/86/63
f 86/83/59 87/82/58 150/104/82 151/103/81
f 88/92/70 81/78/54 148/97/75 149/101/79
f 81/78/54 82/60/38 147/98/76 148/97/75
f 83/59/37 84/70/46 145/86/63 146/85/62
f 109/115/93 160/140/118 159/135/113 110/120/98
f 111/121/99 158/138/116 157/133/111 112/127/105
f 106/110/88 155/132/110 154/123/101 107/111/89
f 108/114/92 153/126/104 160/140/118 109/115/93
f 110/120/98 159/135/113 158/138/116 111/121/99
f 112/127/105 157/133/111 156/129/107 105/118/96
f 105/118/96 156/129/107 155/132/110 106/110/88
f 107/111/89 154/123/101 153/126/104 108/114/92
