# Blender v2.93.1 OBJ File: ''
# www.blender.org
mtllib knife_naikiri_knife.mtl
o knife_naikiri_knife_Cube.008
v -0.278142 -0.036281 0.070837
v -0.278142 1.454389 0.070837
v 0.300654 -0.369630 0.070837
v 0.221632 1.454389 0.070837
v -0.039212 -0.566849 0.070837
v -0.278142 2.261021 0.070837
v 0.267370 2.062749 0.070837
v -0.240806 2.195483 0.086393
v -0.311999 2.219137 0.060992
v -0.291147 2.212209 0.078953
v 0.301228 2.015395 0.060992
v 0.230035 2.039048 0.086393
v 0.280376 2.022322 0.078953
v -0.311999 2.525923 0.060992
v -0.240806 2.502270 0.086393
v -0.291147 2.518995 0.078953
v 0.230035 2.345834 0.086393
v 0.301228 2.322181 0.060992
v 0.280376 2.329109 0.078953
v -0.278142 -0.261663 0.070837
v -0.185100 -0.498507 0.070837
v -0.250890 -0.385992 0.070837
v 0.000000 -0.032527 0.087697
v 0.077018 -0.064429 0.087697
v 0.108919 -0.141446 0.087697
v 0.077018 -0.218464 0.087697
v -0.000000 -0.250366 0.087697
v -0.077018 -0.218464 0.087697
v -0.108919 -0.141446 0.087697
v -0.077018 -0.064429 0.087697
v 0.000000 1.713347 0.087697
v 0.077018 1.681445 0.087697
v 0.108919 1.604428 0.087697
v 0.077018 1.527410 0.087697
v -0.000000 1.495508 0.087697
v -0.077018 1.527410 0.087697
v -0.108919 1.604428 0.087697
v -0.077018 1.681445 0.087697
v -0.303767 -0.036281 0.000000
v -0.303767 1.454389 -0.000000
v 0.357186 -0.369630 0.000000
v 0.247258 1.454389 -0.000000
v -0.042390 -0.566849 0.000000
v -0.303767 2.261021 -0.000000
v 0.292996 2.062749 -0.000000
v -0.311999 2.219137 -0.000000
v -0.311999 2.525923 -0.000000
v 0.301228 2.015395 -0.000000
v 0.301228 2.322181 -0.000000
v -0.201984 -0.498507 0.000000
v -0.273956 -0.385992 0.000000
v -0.303767 -0.261663 0.000000
v 0.000000 -0.032527 0.000000
v 0.077018 -0.064429 0.000000
v 0.108919 -0.141446 0.000000
v 0.077018 -0.218464 0.000000
v -0.000000 -0.250366 0.000000
v -0.077018 -0.218464 0.000000
v -0.108919 -0.141446 0.000000
v -0.077018 -0.064429 0.000000
v 0.000000 1.713347 -0.000000
v 0.077018 1.681446 -0.000000
v 0.108919 1.604428 -0.000000
v 0.077018 1.527410 -0.000000
v -0.000000 1.495508 -0.000000
v -0.077018 1.527410 -0.000000
v -0.108919 1.604428 -0.000000
v -0.077018 1.681446 -0.000000
v -0.278142 0.263402 0.070837
v 0.449275 -0.033167 0.070837
v 0.505807 -0.033167 0.000000
v -0.303767 0.263402 -0.000000
v 0.231932 1.631185 0.070837
v -0.278142 1.730321 0.070837
v 0.257557 1.631185 -0.000000
v -0.303767 1.730321 -0.000000
v -0.278142 0.384318 0.070837
v 0.243411 0.152077 0.070837
v 0.296805 0.152077 -0.000000
v -0.303767 0.384318 -0.000000
v 0.000000 0.922948 0.087697
v 0.077018 0.891046 0.087697
v 0.108919 0.814028 0.087697
v 0.077018 0.737011 0.087697
v -0.000000 0.705109 0.087697
v -0.077018 0.737011 0.087697
v -0.108919 0.814028 0.087697
v -0.077018 0.891046 0.087697
v 0.000000 0.922948 -0.000000
v 0.077018 0.891046 -0.000000
v 0.108919 0.814028 -0.000000
v 0.077018 0.737011 -0.000000
v -0.000000 0.705109 -0.000000
v -0.077018 0.737011 -0.000000
v -0.108919 0.814028 -0.000000
v -0.077018 0.891046 -0.000000
v 0.967335 2.536228 0.030263
v 0.986481 2.706796 0.030263
v -0.266733 2.706796 0.030263
v 0.204108 2.706796 0.030263
v -0.266733 2.536228 0.030263
v 0.204108 2.276421 0.030263
v -0.266733 2.432856 0.030263
v 0.222689 2.555864 0.030263
v 0.163571 2.498715 0.030263
v 0.360370 2.498863 0.030263
v 0.261106 2.530803 0.030263
v 0.273616 2.457443 0.030263
v 0.258325 2.442662 0.030263
v 0.187464 2.456924 0.030263
v 0.212921 2.357464 0.030263
v 0.957762 4.254457 0.030263
v -0.245193 4.254457 0.030263
v 0.204108 4.254457 0.030263
v 0.720734 5.937738 0.030263
v -0.212724 5.937738 0.030263
v 0.204108 5.937738 0.030263
v -0.235794 5.096098 0.030263
v 0.204108 5.096098 0.030263
v 0.863860 5.096098 0.030263
v 0.680550 6.183294 0.030263
v -0.153882 6.035758 0.030263
v 0.204108 6.137368 0.030263
v 1.076779 2.706796 -0.000000
v 1.057633 2.536228 -0.000000
v -0.266733 2.706796 -0.000000
v -0.266733 2.536228 -0.000000
v 0.204108 2.276421 -0.000000
v -0.266733 2.432856 -0.000000
v 0.273616 2.457443 -0.000000
v 0.360370 2.498863 -0.000000
v 0.212921 2.357464 -0.000000
v 0.258325 2.442662 -0.000000
v 1.048060 4.254457 -0.000001
v -0.245193 4.254457 -0.000001
v 0.811032 5.937738 -0.000001
v -0.212724 5.937738 -0.000001
v -0.235794 5.096098 -0.000001
v 0.954159 5.096098 -0.000001
v 0.770848 6.183294 -0.000001
v 0.204108 6.137368 -0.000001
v -0.153882 6.035758 -0.000001
v -0.278142 0.919353 0.070837
v 0.263563 0.786124 0.070837
v 0.303073 0.786124 -0.000000
v -0.303767 0.919353 -0.000000
v -0.278142 -0.036281 -0.070837
v -0.278142 1.454389 -0.070838
v 0.300654 -0.369630 -0.070837
v 0.221632 1.454389 -0.070838
v -0.039212 -0.566849 -0.070837
v -0.278142 2.261021 -0.070838
v 0.267370 2.062749 -0.070838
v -0.240806 2.195483 -0.086393
v -0.311999 2.219137 -0.060993
v -0.291147 2.212209 -0.078954
v 0.301228 2.015395 -0.060993
v 0.230035 2.039048 -0.086393
v 0.280376 2.022322 -0.078954
v -0.311999 2.525923 -0.060993
v -0.240806 2.502270 -0.086393
v -0.291147 2.518995 -0.078954
v 0.230035 2.345834 -0.086393
v 0.301228 2.322181 -0.060993
v 0.280376 2.329109 -0.078954
v -0.278142 -0.261663 -0.070837
v -0.185100 -0.498507 -0.070837
v -0.250890 -0.385992 -0.070837
v 0.000000 -0.032527 -0.087697
v 0.077018 -0.064429 -0.087697
v 0.108919 -0.141446 -0.087697
v 0.077018 -0.218464 -0.087697
v -0.000000 -0.250366 -0.087697
v -0.077018 -0.218464 -0.087697
v -0.108919 -0.141446 -0.087697
v -0.077018 -0.064429 -0.087697
v 0.000000 1.713347 -0.087697
v 0.077018 1.681445 -0.087697
v 0.108919 1.604428 -0.087697
v 0.077018 1.527410 -0.087697
v -0.000000 1.495508 -0.087697
v -0.077018 1.527410 -0.087697
v -0.108919 1.604428 -0.087697
v -0.077018 1.681445 -0.087697
v -0.278142 0.263402 -0.070837
v 0.449275 -0.033167 -0.070837
v 0.231932 1.631185 -0.070838
v -0.278142 1.730321 -0.070838
v -0.278142 0.384318 -0.070837
v 0.243411 0.152077 -0.070837
v 0.000000 0.922948 -0.087697
v 0.077018 0.891046 -0.087697
v 0.108919 0.814028 -0.087697
v 0.077018 0.737011 -0.087697
v -0.000000 0.705109 -0.087697
v -0.077018 0.737011 -0.087697
v -0.108919 0.814028 -0.087697
v -0.077018 0.891046 -0.087697
v 0.967335 2.536228 -0.030264
v 0.986481 2.706796 -0.030264
v -0.266733 2.706796 -0.030264
v 0.204108 2.706796 -0.030264
v -0.266733 2.536228 -0.030264
v 0.204108 2.276421 -0.030264
v -0.266733 2.432856 -0.030264
v 0.222689 2.555864 -0.030264
v 0.163571 2.498715 -0.030264
v 0.360370 2.498863 -0.030264
v 0.261106 2.530803 -0.030264
v 0.273616 2.457443 -0.030264
v 0.258325 2.442662 -0.030264
v 0.187464 2.456924 -0.030264
v 0.212921 2.357464 -0.030264
v 0.957762 4.254457 -0.030264
v -0.245193 4.254457 -0.030264
v 0.204108 4.254457 -0.030264
v 0.720734 5.937738 -0.030265
v -0.212724 5.937738 -0.030265
v 0.204108 5.937738 -0.030265
v -0.235794 5.096098 -0.030265
v 0.204108 5.096098 -0.030265
v 0.863860 5.096098 -0.030265
v 0.680550 6.183294 -0.030265
v -0.153882 6.035758 -0.030265
v 0.204108 6.137368 -0.030265
v -0.278142 0.919353 -0.070838
v 0.263563 0.786124 -0.070838
vt 0.005856 1.032032
vt 0.005856 1.032032
vt 0.005856 1.032032
vt 0.005856 1.032032
vt 0.005856 1.032032
vt 0.005856 1.032032
vt 0.005856 1.032032
vt 0.005856 1.032032
vt 0.005856 1.032032
vt 0.005856 1.032032
vt 0.005856 1.032032
vt 0.005856 1.032032
vt 0.005856 1.032032
vt 0.005856 1.032032
vt 0.005856 1.032032
vt 0.005856 1.032032
vt 0.005856 1.032032
vt 0.005856 1.032032
vt 0.005856 1.032032
vt 0.005856 1.032032
vt 0.005856 1.032032
vt 0.005856 1.032032
vt 0.021653 1.424160
vt 0.021653 1.424160
vt 0.021653 1.424160
vt 0.021653 1.424160
vt 0.021653 1.424160
vt 0.021653 1.424160
vt 0.021653 1.424160
vt 0.021653 1.424160
vt 0.021653 1.424160
vt 0.021653 1.424160
vt 0.021653 1.424160
vt 0.021653 1.424160
vt 0.021653 1.424160
vt 0.021653 1.424160
vt 0.021653 1.424160
vt 0.021653 1.424160
vt 0.005856 1.032032
vt 0.005856 1.032032
vt 0.021363 0.996106
vt 0.021363 0.996106
vt 0.021363 0.996106
vt 0.021363 0.996106
vt 0.021363 0.996106
vt 0.021363 0.996106
vt 0.021363 0.996106
vt 0.021363 0.996106
vt 0.021363 0.996106
vt 0.021363 0.996106
vt 0.021363 0.996106
vt 0.021363 0.996106
vt 0.021363 0.996106
vt 0.021363 0.996106
vt 0.021363 0.996106
vt 0.021363 0.996106
vt 0.021363 0.996106
vt 0.021363 0.996106
vt 0.021363 0.996106
vt 0.021363 0.996106
vt 0.021363 0.996106
vt 0.021363 0.996106
vt 0.021363 0.996106
vt 0.021363 0.996106
vt 0.021363 0.996106
vt 0.021363 0.996106
vt 0.021363 0.996106
vt 0.021363 0.996106
vt 0.021363 0.996106
vt 0.021363 0.996106
vt 0.021363 0.996106
vt 0.021363 0.996106
vt 0.005856 1.032032
vt 0.005856 1.032032
vt 0.005856 1.032032
vt 0.005856 1.032032
vt 0.005856 1.032032
vt 0.005856 1.032032
vt 0.005856 1.032032
vt 0.005856 1.032032
vt 0.005856 1.032032
vt 0.005856 1.032032
vt 0.005856 1.032032
vt 0.005856 1.032032
vt 0.021363 0.996106
vt 0.021363 0.996106
vt 0.021363 0.996106
vt 0.021363 0.996106
vt 0.021363 0.996106
vt 0.021363 0.996106
vt 0.021363 0.996106
vt 0.021363 0.996106
vt 0.021363 0.996106
vt 0.021363 0.996106
vt 0.021363 0.996106
vt 0.021363 0.996106
vt 0.021363 0.996106
vt 0.021363 0.996106
vt 0.021363 0.996106
vt 0.021363 0.996106
vt 0.021683 0.466527
vt 0.021683 0.466527
vt 0.021683 0.466527
vt 0.021683 0.466527
vt 0.021683 0.466527
vt 0.021683 0.466527
vt 0.021683 0.466527
vt 0.021683 0.466527
vt 0.021683 0.466527
vt 0.021683 0.466527
vt 0.021683 0.466527
vt 0.021683 0.466527
vt 0.021683 0.466527
vt 0.021683 0.466527
vt 0.021683 0.466527
vt 0.021683 0.466527
vt 0.021683 0.466527
vt 0.021683 0.466527
vt 0.021683 0.466527
vt 0.021683 0.466527
vt 0.021683 0.466527
vt 0.021683 0.466527
vt 0.021683 0.466527
vt 0.021683 0.466527
vt 0.021683 0.466527
vt 0.021683 0.466527
vt 0.021683 0.466527
vt 0.021683 0.466527
vt 0.021683 0.466527
vt 0.021683 0.466527
vt 0.021683 0.466527
vt 0.021683 0.466527
vt 0.021683 0.466527
vt 0.021683 0.466527
vt 0.021683 0.466527
vt 0.021683 0.466527
vt 0.021683 0.466527
vt 0.021683 0.466527
vt 0.021683 0.466527
vt 0.021683 0.466527
vt 0.021683 0.466527
vt 0.021683 0.466527
vt 0.021683 0.466527
vt 0.021683 0.466527
vt 0.021683 0.466527
vt 0.021683 0.466527
vt 0.005856 1.032032
vt 0.005856 1.032032
vt 0.005856 1.032032
vt 0.005856 1.032032
vt 0.005856 1.032032
vt 0.005856 1.032032
vt 0.005856 1.032032
vt 0.005856 1.032032
vt 0.005856 1.032032
vt 0.005856 1.032032
vt 0.005856 1.032032
vt 0.005856 1.032032
vt 0.005856 1.032032
vt 0.005856 1.032032
vt 0.021653 1.424160
vt 0.021653 1.424160
vt 0.021653 1.424160
vt 0.021653 1.424160
vt 0.021653 1.424160
vt 0.021653 1.424160
vt 0.021653 1.424160
vt 0.021653 1.424160
vt 0.021653 1.424160
vt 0.021653 1.424160
vt 0.021653 1.424160
vt 0.021653 1.424160
vt 0.021363 0.996106
vt 0.021363 0.996106
vt 0.021363 0.996106
vt 0.021363 0.996106
vt 0.021363 0.996106
vt 0.021363 0.996106
vt 0.021363 0.996106
vt 0.021363 0.996106
vt 0.021363 0.996106
vt 0.021363 0.996106
vt 0.021363 0.996106
vt 0.021363 0.996106
vt 0.021363 0.996106
vt 0.021363 0.996106
vt 0.021363 0.996106
vt 0.021363 0.996106
vt 0.005856 1.032032
vt 0.005856 1.032032
vt 0.005856 1.032032
vt 0.005856 1.032032
vt 0.021363 0.996106
vt 0.021363 0.996106
vt 0.021363 0.996106
vt 0.021363 0.996106
vt 0.021363 0.996106
vt 0.021363 0.996106
vt 0.021363 0.996106
vt 0.021363 0.996106
vt 0.021683 0.466527
vt 0.021683 0.466527
vt 0.021683 0.466527
vt 0.021683 0.466527
vt 0.021683 0.466527
vt 0.021683 0.466527
vt 0.021683 0.466527
vt 0.021683 0.466527
vt 0.021683 0.466527
vt 0.021683 0.466527
vt 0.021683 0.466527
vt 0.021683 0.466527
vt 0.021683 0.466527
vt 0.021683 0.466527
vt 0.021683 0.466527
vt 0.021683 0.466527
vt 0.021683 0.466527
vt 0.021683 0.466527
vt 0.021683 0.466527
vt 0.021683 0.466527
vt 0.021683 0.466527
vt 0.021683 0.466527
vt 0.021683 0.466527
vt 0.021683 0.466527
vt 0.021683 0.466527
vt 0.021683 0.466527
vt 0.021683 0.466527
vn 0.8741 0.0240 0.4851
vn 1.0000 0.0065 -0.0000
vn 0.9253 0.0058 0.3792
vn 0.8747 0.0247 0.4840
vn 0.0000 0.0000 1.0000
vn 0.7801 -0.6256 0.0000
vn 0.6085 -0.7092 0.3561
vn 0.4634 -0.8688 0.1745
vn 0.4707 -0.8823 0.0000
vn -0.6828 -0.7306 -0.0000
vn -0.4084 -0.9128 -0.0000
vn -0.4077 -0.9113 0.0577
vn -0.6266 -0.7660 0.1436
vn 0.3280 0.9447 -0.0000
vn -1.0000 -0.0000 -0.0000
vn -0.9404 0.0000 0.3402
vn -0.0584 0.0000 0.9983
vn 0.0882 0.0000 0.9961
vn 0.0584 0.0000 0.9983
vn -0.0882 0.0000 0.9961
vn 0.3153 0.9490 -0.0000
vn -0.3153 -0.9490 0.0000
vn 0.4636 0.0000 0.8860
vn 0.3691 0.0000 0.9294
vn 0.6526 0.0000 0.7577
vn -0.4636 0.0000 0.8860
vn -0.3691 0.0000 0.9294
vn -0.6526 0.0000 0.7577
vn -0.8849 -0.3749 0.2764
vn -0.9299 -0.3678 -0.0000
vn -0.9375 -0.1091 0.3305
vn -0.9939 -0.1101 0.0000
vn 0.0000 1.0000 -0.0000
vn 0.7071 0.7071 0.0000
vn 1.0000 0.0000 0.0000
vn 0.7071 -0.7071 0.0000
vn -0.0000 -1.0000 0.0000
vn -0.7071 -0.7071 0.0000
vn -0.7071 0.7071 0.0000
vn 0.9383 -0.0657 0.3394
vn 0.9975 -0.0702 -0.0000
vn 0.9966 -0.0818 -0.0000
vn 0.9376 -0.0770 0.3392
vn 0.7388 -0.3263 0.5896
vn 0.5917 0.6626 0.4591
vn 0.7488 0.3925 0.5340
vn 0.7868 0.2847 0.5477
vn -0.1812 0.9813 -0.0653
vn -0.6079 0.7940 0.0000
vn 0.3175 0.0455 0.9472
vn 0.3175 0.0439 0.9473
vn 0.3173 0.0530 0.9468
vn 0.3173 0.0528 0.9468
vn -0.9999 0.0125 0.0000
vn -1.0000 0.0070 0.0000
vn -0.9599 0.2802 0.0000
vn 0.7985 -0.6020 0.0000
vn 0.5704 -0.8214 0.0000
vn -0.9998 0.0193 0.0000
vn 0.3176 -0.0356 0.9476
vn 0.3177 -0.0143 0.9481
vn 0.3177 -0.0154 0.9481
vn 0.2488 -0.9676 0.0434
vn 0.3177 0.0201 0.9480
vn 0.3177 0.0212 0.9480
vn 0.3174 0.0519 0.9469
vn 0.0570 -0.9947 0.0850
vn 0.9941 -0.1081 0.0000
vn 0.9556 -0.2945 0.0000
vn -0.0870 0.9877 -0.1297
vn 0.8741 0.0240 -0.4851
vn 0.8747 0.0247 -0.4840
vn 0.9253 0.0058 -0.3792
vn -0.0000 -0.0000 -1.0000
vn 0.4634 -0.8688 -0.1745
vn 0.6085 -0.7092 -0.3561
vn -0.6266 -0.7660 -0.1436
vn -0.4077 -0.9113 -0.0577
vn -0.9404 -0.0000 -0.3402
vn -0.0584 -0.0000 -0.9983
vn -0.0882 -0.0000 -0.9961
vn 0.0584 -0.0000 -0.9983
vn 0.0882 -0.0000 -0.9961
vn 0.3691 -0.0000 -0.9294
vn 0.4636 -0.0000 -0.8860
vn 0.6526 -0.0000 -0.7577
vn -0.3691 -0.0000 -0.9294
vn -0.4636 -0.0000 -0.8860
vn -0.6526 -0.0000 -0.7577
vn -0.8849 -0.3749 -0.2764
vn -0.9375 -0.1091 -0.3305
vn 0.9383 -0.0657 -0.3394
vn 0.9376 -0.0770 -0.3392
vn 0.7388 -0.3263 -0.5896
vn 0.5917 0.6626 -0.4591
vn 0.7868 0.2847 -0.5477
vn 0.7488 0.3925 -0.5340
vn -0.1812 0.9813 0.0653
vn 0.3175 0.0455 -0.9472
vn 0.3173 0.0528 -0.9468
vn 0.3173 0.0530 -0.9468
vn 0.3175 0.0439 -0.9473
vn 0.3176 -0.0356 -0.9476
vn 0.3177 -0.0154 -0.9481
vn 0.3177 -0.0143 -0.9481
vn 0.2488 -0.9676 -0.0434
vn 0.3177 0.0212 -0.9480
vn 0.3177 0.0201 -0.9480
vn 0.3174 0.0519 -0.9469
vn 0.0570 -0.9947 -0.0850
vn -0.0870 0.9877 0.1297
usemtl Solid.134
s 1
f 145/1/1 42/2/2 4/3/3 144/4/4
f 144/4/5 4/3/5 2/5/5 143/6/5
f 41/7/6 3/8/7 5/9/8 43/10/9
f 3/8/5 1/11/5 20/12/5 22/13/5 21/14/5 5/9/5
f 50/15/10 43/10/11 5/9/12 21/14/13
f 45/16/14 44/17/14 6/18/14 7/19/14
f 76/20/15 74/21/16 6/18/16 44/17/15
f 74/21/5 73/22/5 7/19/5 6/18/5
f 8/23/17 12/24/18 17/25/19 15/26/20
f 49/27/21 47/28/21 14/29/21 16/30/21 15/26/21 17/25/21 19/31/21 18/32/21
f 46/33/22 48/34/22 11/35/22 13/36/22 12/24/22 8/23/22 10/37/22 9/38/22
f 17/25/19 12/24/18 13/36/23 19/31/24
f 19/31/24 13/36/23 11/35/25 18/32/25
f 8/23/17 15/26/20 16/30/26 10/37/27
f 10/37/27 16/30/26 14/29/28 9/38/28
f 46/33/15 9/38/15 14/29/15 47/28/15
f 50/15/10 21/14/13 22/13/29 51/39/30
f 51/39/30 22/13/29 20/12/31 52/40/32
f 53/41/33 23/42/33 24/43/34 54/44/34
f 54/44/34 24/43/34 25/45/35 55/46/35
f 55/46/35 25/45/35 26/47/36 56/48/36
f 56/48/36 26/47/36 27/49/37 57/50/37
f 57/50/37 27/49/37 28/51/38 58/52/38
f 58/52/38 28/51/38 29/53/15 59/54/15
f 24/43/5 23/42/5 30/55/5 29/53/5 28/51/5 27/49/5 26/47/5 25/45/5
f 59/54/15 29/53/15 30/55/39 60/56/39
f 60/56/39 30/55/39 23/42/33 53/41/33
f 61/57/33 31/58/33 32/59/34 62/60/34
f 62/60/34 32/59/34 33/61/35 63/62/35
f 63/62/35 33/61/35 34/63/36 64/64/36
f 64/64/36 34/63/36 35/65/37 65/66/37
f 65/66/37 35/65/37 36/67/38 66/68/38
f 66/68/38 36/67/38 37/69/15 67/70/15
f 32/59/5 31/58/5 38/71/5 37/69/5 36/67/5 35/65/5 34/63/5 33/61/5
f 67/70/15 37/69/15 38/71/39 68/72/39
f 68/72/39 38/71/39 31/58/33 61/57/33
f 11/35/35 48/34/35 49/27/35 18/32/35
f 73/22/40 75/73/41 45/16/42 7/19/43
f 143/6/16 2/5/16 40/74/15 146/75/15
f 1/11/16 39/76/15 52/40/32 20/12/31
f 1/11/16 69/77/16 72/78/15 39/76/15
f 3/8/5 70/79/5 69/77/5 1/11/5
f 41/7/6 71/80/44 70/79/44 3/8/7
f 4/3/3 42/2/2 75/73/41 73/22/40
f 2/5/5 4/3/5 73/22/5 74/21/5
f 40/74/15 2/5/16 74/21/16 76/20/15
f 69/77/16 77/81/16 80/82/15 72/78/15
f 70/79/5 78/83/5 77/81/5 69/77/5
f 71/80/45 79/84/46 78/83/47 70/79/45
f 89/85/33 81/86/33 82/87/34 90/88/34
f 90/88/34 82/87/34 83/89/35 91/90/35
f 91/90/35 83/89/35 84/91/36 92/92/36
f 92/92/36 84/91/36 85/93/37 93/94/37
f 93/94/37 85/93/37 86/95/38 94/96/38
f 94/96/38 86/95/38 87/97/15 95/98/15
f 82/87/5 81/86/5 88/99/5 87/97/5 86/95/5 85/93/5 84/91/5 83/89/5
f 95/98/15 87/97/15 88/99/39 96/100/39
f 96/100/39 88/99/39 81/86/33 89/85/33
f 101/101/5 105/102/5 104/103/5 100/104/5 99/105/5
f 100/104/5 104/103/5 107/106/5 106/107/5 97/108/5 98/109/5
f 103/110/5 102/111/5 111/112/5 110/113/5 105/102/5 101/101/5
f 106/107/5 107/106/5 108/114/5
f 109/115/5 110/113/5 111/112/5
f 108/114/5 107/106/5 104/103/5 105/102/5 110/113/5 109/115/5
f 99/105/5 100/104/5 114/116/5 113/117/5
f 100/104/5 98/109/5 112/118/5 114/116/5
f 118/119/5 119/120/5 117/121/5 116/122/5
f 119/120/5 120/123/5 115/124/5 117/121/5
f 114/116/5 112/118/5 120/123/5 119/120/5
f 113/117/5 114/116/5 119/120/5 118/119/5
f 116/122/5 117/121/5 123/125/5 122/126/5
f 117/121/5 115/124/5 121/127/5 123/125/5
f 123/125/48 141/128/48 142/129/49 122/126/49
f 120/123/50 139/130/51 136/131/52 115/124/53
f 113/117/54 135/132/54 126/133/55 99/105/55
f 122/126/49 142/129/49 137/134/56 116/122/56
f 109/115/57 133/135/57 130/136/58 108/114/58
f 116/122/56 137/134/56 138/137/59 118/119/59
f 97/108/60 125/138/60 124/139/61 98/109/62
f 108/114/58 130/136/58 131/140/63 106/107/63
f 98/109/62 124/139/61 134/141/64 112/118/65
f 115/124/53 136/131/52 140/142/66 121/127/66
f 99/105/55 126/133/55 127/143/15 101/101/15
f 112/118/65 134/141/64 139/130/51 120/123/50
f 106/107/63 131/140/63 125/138/67 97/108/67
f 103/110/22 129/144/22 128/145/22 102/111/22
f 102/111/68 128/145/68 132/146/69 111/112/69
f 111/112/69 132/146/69 133/135/57 109/115/57
f 118/119/59 138/137/59 135/132/54 113/117/54
f 101/101/15 127/143/15 129/144/15 103/110/15
f 121/127/70 140/142/70 141/128/48 123/125/48
f 77/81/16 143/6/16 146/75/15 80/82/15
f 78/83/5 144/4/5 143/6/5 77/81/5
f 79/84/46 145/1/1 144/4/4 78/83/47
f 145/1/71 227/147/72 150/148/73 42/2/2
f 227/147/74 226/149/74 148/150/74 150/148/74
f 41/7/6 43/10/9 151/151/75 149/152/76
f 149/152/74 151/151/74 167/153/74 168/154/74 166/155/74 147/156/74
f 50/15/10 167/153/77 151/151/78 43/10/11
f 45/16/14 153/157/14 152/158/14 44/17/14
f 76/20/15 44/17/15 152/158/79 188/159/79
f 188/159/74 152/158/74 153/157/74 187/160/74
f 154/161/80 161/162/81 163/163/82 158/164/83
f 49/27/21 164/165/21 165/166/21 163/163/21 161/162/21 162/167/21 160/168/21 47/28/21
f 46/33/22 155/169/22 156/170/22 154/161/22 158/164/22 159/171/22 157/172/22 48/34/22
f 163/163/82 165/166/84 159/171/85 158/164/83
f 165/166/84 164/165/86 157/172/86 159/171/85
f 154/161/80 156/170/87 162/167/88 161/162/81
f 156/170/87 155/169/89 160/168/89 162/167/88
f 46/33/15 47/28/15 160/168/15 155/169/15
f 50/15/10 51/39/30 168/154/90 167/153/77
f 51/39/30 52/40/32 166/155/91 168/154/90
f 53/41/33 54/44/34 170/173/34 169/174/33
f 54/44/34 55/46/35 171/175/35 170/173/34
f 55/46/35 56/48/36 172/176/36 171/175/35
f 56/48/36 57/50/37 173/177/37 172/176/36
f 57/50/37 58/52/38 174/178/38 173/177/37
f 58/52/38 59/54/15 175/179/15 174/178/38
f 170/173/74 171/175/74 172/176/74 173/177/74 174/178/74 175/179/74 176/180/74 169/174/74
f 59/54/15 60/56/39 176/180/39 175/179/15
f 60/56/39 53/41/33 169/174/33 176/180/39
f 61/57/33 62/60/34 178/181/34 177/182/33
f 62/60/34 63/62/35 179/183/35 178/181/34
f 63/62/35 64/64/36 180/184/36 179/183/35
f 64/64/36 65/66/37 181/185/37 180/184/36
f 65/66/37 66/68/38 182/186/38 181/185/37
f 66/68/38 67/70/15 183/187/15 182/186/38
f 178/181/74 179/183/74 180/184/74 181/185/74 182/186/74 183/187/74 184/188/74 177/182/74
f 67/70/15 68/72/39 184/188/39 183/187/15
f 68/72/39 61/57/33 177/182/33 184/188/39
f 157/172/35 164/165/35 49/27/35 48/34/35
f 187/160/92 153/157/93 45/16/42 75/73/41
f 226/149/79 146/75/15 40/74/15 148/150/79
f 147/156/79 166/155/91 52/40/32 39/76/15
f 147/156/79 39/76/15 72/78/15 185/189/79
f 149/152/74 147/156/74 185/189/74 186/190/74
f 41/7/6 149/152/76 186/190/94 71/80/94
f 150/148/73 187/160/92 75/73/41 42/2/2
f 148/150/74 188/159/74 187/160/74 150/148/74
f 40/74/15 76/20/15 188/159/79 148/150/79
f 185/189/79 72/78/15 80/82/15 189/191/79
f 186/190/74 185/189/74 189/191/74 190/192/74
f 71/80/95 186/190/95 190/192/96 79/84/97
f 89/85/33 90/88/34 192/193/34 191/194/33
f 90/88/34 91/90/35 193/195/35 192/193/34
f 91/90/35 92/92/36 194/196/36 193/195/35
f 92/92/36 93/94/37 195/197/37 194/196/36
f 93/94/37 94/96/38 196/198/38 195/197/37
f 94/96/38 95/98/15 197/199/15 196/198/38
f 192/193/74 193/195/74 194/196/74 195/197/74 196/198/74 197/199/74 198/200/74 191/194/74
f 95/98/15 96/100/39 198/200/39 197/199/15
f 96/100/39 89/85/33 191/194/33 198/200/39
f 203/201/74 201/202/74 202/203/74 206/204/74 207/205/74
f 202/203/74 200/206/74 199/207/74 208/208/74 209/209/74 206/204/74
f 205/210/74 203/201/74 207/205/74 212/211/74 213/212/74 204/213/74
f 208/208/74 210/214/74 209/209/74
f 211/215/74 213/212/74 212/211/74
f 210/214/74 211/215/74 212/211/74 207/205/74 206/204/74 209/209/74
f 201/202/74 215/216/74 216/217/74 202/203/74
f 202/203/74 216/217/74 214/218/74 200/206/74
f 220/219/74 218/220/74 219/221/74 221/222/74
f 221/222/74 219/221/74 217/223/74 222/224/74
f 216/217/74 221/222/74 222/224/74 214/218/74
f 215/216/74 220/219/74 221/222/74 216/217/74
f 218/220/74 224/225/74 225/226/74 219/221/74
f 219/221/74 225/226/74 223/227/74 217/223/74
f 225/226/98 224/225/49 142/129/49 141/128/98
f 222/224/99 217/223/100 136/131/101 139/130/102
f 215/216/54 201/202/55 126/133/55 135/132/54
f 224/225/49 218/220/56 137/134/56 142/129/49
f 211/215/57 210/214/58 130/136/58 133/135/57
f 218/220/56 220/219/59 138/137/59 137/134/56
f 199/207/103 200/206/104 124/139/105 125/138/103
f 210/214/58 208/208/106 131/140/106 130/136/58
f 200/206/104 214/218/107 134/141/108 124/139/105
f 217/223/100 223/227/109 140/142/109 136/131/101
f 201/202/55 203/201/15 127/143/15 126/133/55
f 214/218/107 222/224/99 139/130/102 134/141/108
f 208/208/106 199/207/110 125/138/110 131/140/106
f 205/210/22 204/213/22 128/145/22 129/144/22
f 204/213/68 213/212/69 132/146/69 128/145/68
f 213/212/69 211/215/57 133/135/57 132/146/69
f 220/219/59 215/216/54 135/132/54 138/137/59
f 203/201/15 205/210/15 129/144/15 127/143/15
f 223/227/111 225/226/98 141/128/98 140/142/111
f 189/191/79 80/82/15 146/75/15 226/149/79
f 190/192/74 189/191/74 226/149/74 227/147/74
f 79/84/97 190/192/96 227/147/72 145/1/71
