# Blender v2.93.1 OBJ File: ''
# www.blender.org
mtllib cutensils_big_spoon.mtl
o cutensils_big_spoon_Cylinder.025
v 0.000000 -0.819149 0.146930
v 0.000000 0.776527 0.029378
v 0.197200 -0.813148 0.228391
v 0.197200 0.782528 0.110839
v 0.278883 -0.798659 0.425058
v 0.278883 0.797017 0.307506
v 0.197200 -0.784171 0.621724
v 0.197200 0.811505 0.504172
v 0.000000 -0.778170 0.703186
v 0.000000 0.817506 0.585634
v -0.197200 -0.784171 0.621724
v -0.197200 0.811505 0.504172
v -0.278883 -0.798659 0.425058
v -0.278883 0.797017 0.307506
v -0.197200 -0.813148 0.228391
v -0.197200 0.782528 0.110839
v 0.163368 0.870611 0.138274
v 0.000000 0.865640 0.070788
v 0.231037 0.882614 0.301200
v 0.163368 0.894617 0.464126
v 0.000000 0.899588 0.531612
v -0.163368 0.894617 0.464126
v -0.231037 0.882614 0.301200
v -0.163368 0.870611 0.138274
v 0.000000 -0.945220 0.182912
v 0.178375 -0.939792 0.256597
v 0.252260 -0.926686 0.434489
v 0.178375 -0.913581 0.612381
v 0.000000 -0.908153 0.686067
v -0.178375 -0.913581 0.612381
v -0.252260 -0.926686 0.434489
v -0.178375 -0.939792 0.256597
v 0.000000 -0.861756 0.326603
v 0.247857 -0.964144 0.334146
v 0.350523 -1.211331 0.352356
v 0.247857 -1.458518 0.370566
v 0.000000 -1.560906 0.378108
v -0.247857 -1.458518 0.370566
v -0.350523 -1.211331 0.352356
v -0.247857 -0.964144 0.334146
v 0.000000 -1.038398 0.339616
v 0.122614 -1.089049 0.343347
v 0.173402 -1.211331 0.352356
v 0.122614 -1.333614 0.361364
v 0.000000 -1.384264 0.365095
v -0.122614 -1.333614 0.361364
v -0.173402 -1.211331 0.352356
v -0.122614 -1.089049 0.343347
v 0.000000 -1.024993 0.521577
v 0.122614 -1.075644 0.525308
v 0.173402 -1.197926 0.534317
v 0.122614 -1.320209 0.543325
v 0.000000 -1.370859 0.547056
v -0.122614 -1.320209 0.543325
v -0.173402 -1.197926 0.534317
v -0.122614 -1.075644 0.525308
v 0.000000 -0.848351 0.508564
v 0.247857 -0.950740 0.516107
v 0.350523 -1.197926 0.534317
v 0.247857 -1.445113 0.552527
v 0.000000 -1.547501 0.560070
v -0.247857 -1.445113 0.552527
v -0.350523 -1.197926 0.534317
v -0.247857 -0.950740 0.516107
v 0.105536 0.858908 0.197124
v 0.000000 0.855697 0.153528
v 0.149251 0.866662 0.302375
v 0.105536 0.874416 0.407625
v 0.000000 0.877627 0.451222
v -0.105536 0.874416 0.407625
v -0.149251 0.866662 0.302375
v -0.105536 0.858908 0.197124
v 0.102454 3.310443 0.014495
v 0.000000 3.309952 -0.039754
v 0.144535 3.309827 0.133341
v 0.102401 3.308400 0.223022
v 0.000000 3.307631 0.250230
v -0.102401 3.308400 0.223022
v -0.144535 3.309827 0.133341
v -0.102454 3.310443 0.014495
v 0.268932 3.479483 0.009641
v 0.000000 3.468169 -0.098215
v 0.380260 3.485017 0.175371
v 0.227439 3.471124 0.201692
v 0.000000 3.464952 0.195268
v -0.227439 3.471124 0.201692
v -0.380260 3.485017 0.175371
v -0.268932 3.479483 0.009641
v 0.489339 3.680454 -0.147748
v 0.000000 3.651421 -0.294956
v 0.678729 3.693502 0.085422
v 0.527757 3.689859 0.180112
v -0.527757 3.689859 0.180112
v -0.678729 3.693502 0.085422
v -0.489339 3.680454 -0.147748
v 0.619418 3.890413 -0.068577
v 0.000000 3.875132 -0.364804
v 0.861297 3.890939 0.074748
v 0.746160 3.896056 0.196092
v -0.746160 3.896056 0.196092
v -0.861297 3.890939 0.074748
v -0.619418 3.890413 -0.068577
v 0.508670 5.608411 -0.012272
v -0.003995 5.694587 -0.115763
v 0.735418 5.505077 0.138652
v 0.687843 5.508569 0.223584
v -0.688817 5.515054 0.233988
v -0.736201 5.505388 0.139660
v -0.510024 5.601942 -0.012347
v 0.295386 5.948111 0.204999
v -0.002363 5.993430 0.151696
v 0.433554 5.882173 0.274268
v 0.422605 5.909658 0.364707
v -0.416010 5.890167 0.342170
v -0.436694 5.905850 0.301805
v -0.289648 5.931710 0.192655
v 0.179367 6.074845 0.292297
v 0.000455 6.085668 0.251268
v 0.263254 6.041074 0.354477
v 0.196910 6.086366 0.441377
v 0.000456 6.118397 0.451729
v -0.197559 6.078969 0.429201
v -0.265625 6.048901 0.359730
v -0.182846 6.050796 0.281133
v -0.718016 4.820559 -0.194009
v -0.699354 4.137784 -0.154363
v -0.950222 4.130614 0.063877
v -0.974227 4.752045 0.086699
v -0.874162 4.786602 0.199628
v -0.834065 4.136495 0.170952
v 0.874162 4.786602 0.199628
v 0.834065 4.136495 0.170952
v 0.950222 4.130614 0.063877
v 0.974227 4.752045 0.086699
v 0.718016 4.820559 -0.194009
v 0.699354 4.137784 -0.154363
v 0.000000 4.163671 -0.420046
v 0.000000 4.873424 -0.356297
v 0.000000 3.559777 0.071195
v 0.211940 3.564242 0.087549
v -0.211940 3.564242 0.087549
v 0.000000 3.739593 -0.133406
v 0.495574 3.756526 0.043845
v -0.495574 3.756526 0.043845
v 0.000000 3.943552 -0.202712
v 0.702764 3.943720 0.101814
v -0.702764 3.943720 0.101814
v -0.005669 5.668918 0.036063
v 0.571251 5.536587 0.137914
v -0.573195 5.526867 0.138979
v -0.005267 5.951537 0.277157
v 0.309226 5.922967 0.311646
v -0.317297 5.899142 0.301106
v -0.003591 6.086417 0.408239
v 0.163562 6.062402 0.408268
v -0.175761 6.065223 0.419552
v 0.000000 4.205621 -0.237605
v 0.000000 4.904496 -0.187840
v 0.820629 4.779467 0.060594
v 0.783797 4.162312 0.051730
v -0.820629 4.779467 0.060594
v -0.783797 4.162312 0.051730
vt 0.005646 0.699263
vt 0.005646 0.699263
vt 0.005646 0.699263
vt 0.005646 0.699263
vt 0.005646 0.699263
vt 0.005646 0.699263
vt 0.005646 0.699263
vt 0.005646 0.699263
vt 0.005646 0.699263
vt 0.005646 0.699263
vt 0.005646 0.699263
vt 0.005646 0.699263
vt 0.005646 0.699263
vt 0.005646 0.699263
vt 0.005646 0.699263
vt 0.005646 0.699263
vt 0.005646 0.699263
vt 0.005646 0.699263
vt 0.005646 0.699263
vt 0.005646 0.699263
vt 0.005646 0.699263
vt 0.005646 0.699263
vt 0.005646 0.699263
vt 0.005646 0.699263
vt 0.005646 0.699263
vt 0.005646 0.699263
vt 0.005646 0.699263
vt 0.005646 0.699263
vt 0.005646 0.699263
vt 0.005646 0.699263
vt 0.005646 0.699263
vt 0.005646 0.699263
vt 0.017961 0.410023
vt 0.017961 0.410023
vt 0.017961 0.410023
vt 0.017961 0.410023
vt 0.017961 0.410023
vt 0.017961 0.410023
vt 0.017961 0.410023
vt 0.017961 0.410023
vt 0.017961 0.410023
vt 0.017961 0.410023
vt 0.017961 0.410023
vt 0.017961 0.410023
vt 0.017961 0.410023
vt 0.017961 0.410023
vt 0.017961 0.410023
vt 0.017961 0.410023
vt 0.017961 0.410023
vt 0.017961 0.410023
vt 0.017961 0.410023
vt 0.017961 0.410023
vt 0.017961 0.410023
vt 0.017961 0.410023
vt 0.017961 0.410023
vt 0.017961 0.410023
vt 0.017961 0.410023
vt 0.017961 0.410023
vt 0.017961 0.410023
vt 0.017961 0.410023
vt 0.017961 0.410023
vt 0.017961 0.410023
vt 0.017961 0.410023
vt 0.017961 0.410023
vt 0.017961 0.410023
vt 0.017961 0.410023
vt 0.017961 0.410023
vt 0.017961 0.410023
vt 0.017961 0.410023
vt 0.017961 0.410023
vt 0.017961 0.410023
vt 0.017961 0.410023
vt 0.017961 0.410023
vt 0.017961 0.410023
vt 0.017961 0.410023
vt 0.017961 0.410023
vt 0.017961 0.410023
vt 0.017961 0.410023
vt 0.017961 0.410023
vt 0.017961 0.410023
vt 0.017961 0.410023
vt 0.017961 0.410023
vt 0.017961 0.410023
vt 0.017961 0.410023
vt 0.017961 0.410023
vt 0.017961 0.410023
vt 0.017961 0.410023
vt 0.017961 0.410023
vt 0.017961 0.410023
vt 0.017961 0.410023
vt 0.017961 0.410023
vt 0.017961 0.410023
vt 0.017961 0.410023
vt 0.017961 0.410023
vt 0.017961 0.410023
vt 0.017961 0.410023
vt 0.017961 0.410023
vt 0.017961 0.410023
vt 0.017961 0.410023
vt 0.017961 0.410023
vt 0.017961 0.410023
vt 0.017961 0.410023
vt 0.017961 0.410023
vt 0.017961 0.410023
vt 0.017961 0.410023
vt 0.017961 0.410023
vt 0.017961 0.410023
vt 0.017961 0.410023
vt 0.017961 0.410023
vt 0.017961 0.410023
vt 0.017961 0.410023
vt 0.017961 0.410023
vt 0.017961 0.410023
vt 0.017961 0.410023
vt 0.017961 0.410023
vt 0.017961 0.410023
vt 0.017961 0.410023
vt 0.017961 0.410023
vt 0.017961 0.410023
vt 0.017961 0.410023
vt 0.017961 0.410023
vt 0.017961 0.410023
vt 0.017961 0.410023
vt 0.017961 0.410023
vt 0.017961 0.410023
vt 0.017961 0.410023
vt 0.017961 0.410023
vt 0.017961 0.410023
vt 0.017961 0.410023
vt 0.017961 0.410023
vt 0.017961 0.410023
vt 0.017961 0.410023
vt 0.017961 0.410023
vt 0.017961 0.410023
vt 0.017961 0.410023
vt 0.017961 0.410023
vt 0.017961 0.410023
vt 0.017961 0.410023
vt 0.017961 0.410023
vt 0.017961 0.410023
vt 0.017961 0.410023
vt 0.017961 0.410023
vt 0.017961 0.410023
vt 0.017961 0.410023
vt 0.017961 0.410023
vt 0.017961 0.410023
vt 0.017961 0.410023
vt 0.017961 0.410023
vt 0.017961 0.410023
vt 0.017961 0.410023
vt 0.017961 0.410023
vt 0.017961 0.410023
vt 0.017961 0.410023
vt 0.017961 0.410023
vt 0.017961 0.410023
vt 0.017961 0.410023
vt 0.017961 0.410023
vt 0.017961 0.410023
vt 0.017961 0.410023
vt 0.017961 0.410023
vt 0.017961 0.410023
vt 0.017961 0.410023
vn -0.0000 -0.1725 -0.9850
vn -0.0000 0.1658 -0.9862
vn 0.6868 0.1867 -0.7024
vn 0.7036 -0.1511 -0.6944
vn 0.9713 0.2371 -0.0175
vn 0.9950 -0.0994 0.0073
vn 0.6868 0.2876 0.6675
vn 0.7036 -0.0477 0.7090
vn 0.0000 0.3085 0.9512
vn 0.0000 -0.0263 0.9997
vn -0.6868 0.2876 0.6675
vn -0.7036 -0.0477 0.7090
vn -0.9713 0.2371 -0.0175
vn -0.9950 -0.0994 0.0073
vn -0.6868 0.1867 -0.7024
vn -0.4162 0.7756 -0.4745
vn 0.0000 0.7629 -0.6465
vn -0.7036 -0.1511 -0.6944
vn 0.7089 -0.7034 0.0518
vn 0.5013 -0.7402 -0.4481
vn 0.4162 0.7756 -0.4745
vn -0.5887 0.8062 -0.0594
vn -0.4162 0.8368 0.3557
vn 0.0000 0.8494 0.5277
vn 0.4162 0.8368 0.3557
vn 0.5887 0.8062 -0.0594
vn 0.0000 -0.7555 -0.6552
vn 0.5013 -0.6666 0.5517
vn 0.0000 -0.6513 0.7588
vn -0.5013 -0.6666 0.5517
vn -0.7089 -0.7034 0.0518
vn -0.5013 -0.7402 -0.4481
vn -0.0000 0.0735 0.9973
vn 0.0000 -0.0735 -0.9973
vn -0.0000 -0.9973 0.0735
vn -0.7071 -0.7052 0.0520
vn 1.0000 -0.0000 0.0000
vn 0.7071 0.7052 -0.0520
vn -1.0000 0.0000 -0.0000
vn 0.7071 -0.7052 0.0520
vn -0.7071 0.7052 -0.0520
vn 0.0000 0.9973 -0.0735
vn 0.9997 -0.0034 -0.0234
vn 0.7330 0.0501 0.6784
vn 0.6258 0.3141 0.7139
vn 0.8988 0.4233 -0.1138
vn 0.0000 -0.0792 -0.9969
vn 0.6756 -0.0577 -0.7350
vn 0.4632 0.0012 -0.8863
vn 0.0000 -0.1445 -0.9895
vn -0.9997 -0.0034 -0.0234
vn -0.6756 -0.0577 -0.7350
vn -0.4632 0.0012 -0.8863
vn -0.8988 0.4233 -0.1138
vn 0.0000 0.0761 0.9971
vn -0.7330 0.0501 0.6784
vn -0.6258 0.3141 0.7139
vn 0.0000 0.2466 0.9691
vn 0.0000 -0.5271 -0.8498
vn -0.1500 -0.1730 -0.9734
vn 0.4615 0.7228 0.5144
vn 0.0000 0.6103 0.7921
vn 0.0000 0.4425 0.8968
vn 0.4652 0.4938 0.7347
vn -0.5926 0.6996 -0.3994
vn -0.4615 0.7228 0.5144
vn 0.5926 0.6996 -0.3994
vn 0.1500 -0.1730 -0.9734
vn 0.2342 0.7433 -0.6266
vn 0.4416 0.6283 -0.6405
vn 0.2938 0.6437 -0.7067
vn 0.1706 0.7249 -0.6674
vn 0.7246 0.6876 -0.0464
vn -0.0710 -0.2038 -0.9764
vn 0.6885 0.3958 -0.6077
vn 0.8675 0.1191 -0.4830
vn 0.6502 0.1201 -0.7502
vn 0.4563 0.4214 -0.7837
vn -0.7246 0.6876 -0.0464
vn -0.4652 0.4938 0.7347
vn -0.2463 -0.7194 -0.6494
vn 0.0000 -0.7271 -0.6866
vn 0.0710 -0.2038 -0.9764
vn 0.5085 0.3009 0.8068
vn 0.0000 0.2116 0.9774
vn -0.0000 0.1424 0.9898
vn 0.4980 0.1645 0.8514
vn -0.6001 0.4116 -0.6859
vn -0.6370 0.3300 -0.6966
vn -0.5085 0.3009 0.8068
vn 0.6371 0.3300 -0.6966
vn 0.6001 0.4116 -0.6859
vn 0.8700 -0.2262 -0.4380
vn 0.7121 -0.4982 -0.4948
vn 0.6063 -0.3916 -0.6921
vn 0.6649 -0.1494 -0.7318
vn -0.5766 0.3484 0.7391
vn 0.5766 0.3484 0.7391
vn 0.8099 -0.3509 -0.4701
vn 0.8950 -0.4337 0.1045
vn 0.7341 -0.6787 0.0202
vn 0.7242 -0.5245 -0.4478
vn -0.7121 -0.4982 -0.4948
vn -0.6063 -0.3916 -0.6921
vn -0.4554 -0.5019 -0.7353
vn -0.6956 0.1372 -0.7052
vn -0.6973 0.1268 -0.7055
vn -0.4980 0.1645 0.8514
vn 0.6414 0.1769 0.7465
vn 0.2463 -0.7194 -0.6494
vn -0.9943 -0.1012 0.0341
vn -0.7732 -0.0956 -0.6269
vn -0.8422 -0.4181 -0.3405
vn -0.8862 -0.4434 0.1343
vn 0.0003 -0.1534 0.9882
vn -0.5091 -0.1492 0.8477
vn -0.4606 -0.4929 0.7382
vn 0.0044 -0.4878 0.8730
vn 0.0111 -0.6922 0.7216
vn -0.4180 -0.7116 0.5647
vn -0.1907 -0.8925 0.4087
vn 0.0063 -0.8841 0.4672
vn -0.4150 0.6089 -0.6760
vn -0.2104 0.6954 -0.6871
vn -0.1630 0.6992 -0.6961
vn -0.2809 0.6241 -0.7291
vn -0.7102 -0.6820 0.1747
vn 0.4556 -0.4887 0.7440
vn 0.3904 -0.6978 0.6005
vn 0.0089 0.7640 -0.6452
vn -0.0089 0.7236 -0.6902
vn -0.7072 -0.7063 -0.0317
vn -0.4801 -0.8578 0.1836
vn -0.1225 -0.9825 0.1400
vn 0.0112 -0.9873 0.1585
vn 0.1359 -0.9893 0.0538
vn 0.5082 -0.8612 -0.0100
vn 0.2135 -0.8772 0.4301
vn -0.8700 -0.2262 -0.4380
vn -0.8685 0.1218 -0.4805
vn -0.6518 0.1211 -0.7486
vn -0.6649 -0.1494 -0.7318
vn -0.6766 0.4036 -0.6159
vn -0.4619 0.4114 -0.7858
vn 0.7831 -0.0955 -0.6145
vn 0.9941 -0.1008 0.0401
vn 0.6973 0.1268 -0.7055
vn 0.6956 0.1372 -0.7052
vn -0.6414 0.1769 0.7465
vn 0.5092 -0.1492 0.8476
vn 0.4554 -0.5019 -0.7353
vn 0.0000 -0.4482 -0.8939
vn -0.0000 -0.2364 -0.9716
vn 0.0000 -0.0950 -0.9955
vn -0.0005 0.1454 -0.9894
vn -0.0058 0.4391 -0.8984
vn -0.0107 0.6377 -0.7702
usemtl Solid.097
s 1
f 1/1/1 2/2/2 4/3/3 3/4/4
f 3/4/4 4/3/3 6/5/5 5/6/6
f 5/6/6 6/5/5 8/7/7 7/8/8
f 7/8/8 8/7/7 10/9/9 9/10/10
f 9/10/10 10/9/9 12/11/11 11/12/12
f 11/12/12 12/11/11 14/13/13 13/14/14
f 2/2/2 16/15/15 24/16/16 18/17/17
f 13/14/14 14/13/13 16/15/15 15/18/18
f 15/18/18 16/15/15 2/2/2 1/1/1
f 3/4/4 5/6/6 27/19/19 26/20/20
f 17/21/21 18/17/17 24/16/16 23/22/22 22/23/23 21/24/24 20/25/25 19/26/26
f 4/3/3 2/2/2 18/17/17 17/21/21
f 8/7/7 6/5/5 19/26/26 20/25/25
f 14/13/13 12/11/11 22/23/23 23/22/22
f 10/9/9 8/7/7 20/25/25 21/24/24
f 16/15/15 14/13/13 23/22/22 24/16/16
f 6/5/5 4/3/3 17/21/21 19/26/26
f 12/11/11 10/9/9 21/24/24 22/23/23
f 25/27/27 26/20/20 27/19/19 28/28/28 29/29/29 30/30/30 31/31/31 32/32/32
f 9/10/10 11/12/12 30/30/30 29/29/29
f 15/18/18 1/1/1 25/27/27 32/32/32
f 1/1/1 3/4/4 26/20/20 25/27/27
f 5/6/6 7/8/8 28/28/28 27/19/19
f 11/12/12 13/14/14 31/31/31 30/30/30
f 7/8/8 9/10/10 29/29/29 28/28/28
f 13/14/14 15/18/18 32/32/32 31/31/31
f 50/33/33 58/34/33 57/35/33 49/36/33
f 42/37/34 41/38/34 33/39/34 34/40/34
f 43/41/34 42/37/34 34/40/34 35/42/34
f 44/43/34 43/41/34 35/42/34 36/44/34
f 45/45/34 44/43/34 36/44/34 37/46/34
f 46/47/34 45/45/34 37/46/34 38/48/34
f 47/49/34 46/47/34 38/48/34 39/50/34
f 48/51/34 47/49/34 39/50/34 40/52/34
f 41/38/34 48/51/34 40/52/34 33/39/34
f 51/53/33 59/54/33 58/34/33 50/33/33
f 52/55/33 60/56/33 59/54/33 51/53/33
f 53/57/33 61/58/33 60/56/33 52/55/33
f 54/59/33 62/60/33 61/58/33 53/57/33
f 55/61/33 63/62/33 62/60/33 54/59/33
f 56/63/33 64/64/33 63/62/33 55/61/33
f 49/36/33 57/35/33 64/64/33 56/63/33
f 37/46/35 61/58/35 62/60/36 38/48/36
f 47/49/37 55/61/37 54/59/38 46/47/38
f 38/48/36 62/60/36 63/62/39 39/50/39
f 48/51/40 56/63/40 55/61/37 47/49/37
f 39/50/39 63/62/39 64/64/41 40/52/41
f 41/38/35 49/36/35 56/63/40 48/51/40
f 42/37/36 50/33/36 49/36/35 41/38/35
f 40/52/41 64/64/41 57/35/42 33/39/42
f 33/39/42 57/35/42 58/34/38 34/40/38
f 43/41/39 51/53/39 50/33/36 42/37/36
f 34/40/38 58/34/38 59/54/37 35/42/37
f 44/43/41 52/55/41 51/53/39 43/41/39
f 35/42/37 59/54/37 60/56/40 36/44/40
f 45/45/42 53/57/42 52/55/41 44/43/41
f 36/44/40 60/56/40 61/58/35 37/46/35
f 46/47/38 54/59/38 53/57/42 45/45/42
f 71/65/43 72/66/44 80/67/45 79/68/46
f 69/69/47 70/70/48 78/71/49 77/72/50
f 67/73/51 68/74/52 76/75/53 75/76/54
f 66/77/55 65/78/56 73/79/57 74/80/58
f 72/66/44 66/77/55 74/80/58 80/67/45
f 70/70/48 71/65/43 79/68/46 78/71/49
f 68/74/52 69/69/47 77/72/50 76/75/53
f 65/78/56 67/73/51 75/76/54 73/79/57
f 76/75/53 77/72/50 85/81/59 84/82/60
f 88/83/61 82/84/62 90/85/63 95/86/64
f 73/79/57 75/76/54 83/87/65 81/88/66
f 79/68/46 80/67/45 88/83/61 87/89/67
f 77/72/50 78/71/49 86/90/68 85/81/59
f 75/76/54 76/75/53 84/82/60 83/87/65
f 74/80/58 73/79/57 81/88/66 82/84/62
f 80/67/45 74/80/58 82/84/62 88/83/61
f 78/71/49 79/68/46 87/89/67 86/90/68
f 120/91/69 113/92/70 152/93/71 155/94/72
f 86/90/68 87/89/67 94/95/73 93/96/74
f 106/97/75 131/98/76 159/99/77 149/100/78
f 81/88/66 83/87/65 91/101/79 89/102/80
f 87/89/67 88/83/61 95/86/64 94/95/73
f 85/81/59 86/90/68 141/103/81 139/104/82
f 83/87/65 84/82/60 92/105/83 91/101/79
f 82/84/62 81/88/66 89/102/80 90/85/63
f 102/106/84 97/107/85 137/108/86 126/109/87
f 91/101/79 92/105/83 99/110/88 98/111/89
f 90/85/63 89/102/80 96/112/90 97/107/85
f 95/86/64 90/85/63 97/107/85 102/106/84
f 93/96/74 94/95/73 101/113/91 100/114/92
f 132/115/93 99/110/94 146/116/95 160/117/96
f 89/102/80 91/101/79 98/111/97 96/112/90
f 94/95/73 95/86/64 102/106/84 101/113/98
f 107/118/99 108/119/100 115/120/101 114/121/102
f 93/96/74 100/114/103 147/122/104 144/123/105
f 98/111/89 99/110/88 132/115/106 133/124/107
f 97/107/85 96/112/90 136/125/108 137/108/86
f 101/113/98 102/106/84 126/109/87 127/126/109
f 84/82/60 85/81/59 139/104/82 140/127/110
f 134/128/111 131/98/112 106/97/113 105/129/114
f 138/130/115 135/131/116 103/132/117 104/133/118
f 111/134/119 110/135/120 117/136/121 118/137/122
f 114/121/123 122/138/124 156/139/125 153/140/126
f 103/132/117 105/129/114 112/141/127 110/135/120
f 108/119/100 109/142/128 116/143/129 115/120/101
f 122/138/124 121/144/130 154/145/131 156/139/125
f 105/129/114 106/97/113 113/92/132 112/141/127
f 104/133/118 103/132/117 110/135/120 111/134/119
f 109/142/128 104/133/118 111/134/119 116/143/129
f 117/136/121 119/146/133 120/91/134 121/144/135 122/138/136 123/147/137 124/148/138 118/137/122
f 116/143/129 111/134/119 118/137/122 124/148/138
f 114/121/102 115/120/101 123/147/137 122/138/136
f 130/149/139 129/150/140 161/151/141 162/152/142
f 110/135/120 112/141/127 119/146/133 117/136/121
f 115/120/101 116/143/129 124/148/138 123/147/137
f 121/144/130 120/91/69 155/94/72 154/145/131
f 112/141/127 113/92/132 120/91/134 119/146/133
f 135/131/116 134/128/111 105/129/114 103/132/117
f 129/150/140 107/118/143 150/153/144 161/151/141
f 129/150/145 128/154/146 108/119/100 107/118/99
f 100/114/92 101/113/91 127/126/147 130/149/148
f 96/112/90 98/111/97 133/124/149 136/125/108
f 113/92/70 106/97/75 149/100/78 152/93/71
f 128/154/146 125/155/150 109/142/128 108/119/100
f 134/128/111 135/131/116 136/125/108 133/124/149
f 100/114/103 130/149/139 162/152/142 147/122/104
f 128/154/146 129/150/145 130/149/148 127/126/147
f 138/130/115 125/155/150 126/109/87 137/108/86
f 135/131/116 138/130/115 137/108/86 136/125/108
f 131/98/112 134/128/111 133/124/107 132/115/106
f 92/105/83 84/82/60 140/127/110 143/156/151
f 125/155/150 128/154/146 127/126/109 126/109/87
f 125/155/150 138/130/115 104/133/118 109/142/128
f 142/157/152 144/123/105 147/122/104 145/158/153
f 140/127/110 139/104/82 142/157/152 143/156/151
f 139/104/82 141/103/81 144/123/105 142/157/152
f 143/156/151 142/157/152 145/158/153 146/116/95
f 145/158/153 147/122/104 162/152/142 157/159/154
f 158/160/155 161/151/141 150/153/144 148/161/156
f 149/100/78 148/161/156 151/162/157 152/93/71
f 148/161/156 150/153/144 153/140/126 151/162/157
f 152/93/71 151/162/157 154/145/131 155/94/72
f 151/162/157 153/140/126 156/139/125 154/145/131
f 159/99/77 158/160/155 148/161/156 149/100/78
f 146/116/95 145/158/153 157/159/154 160/117/96
f 158/160/155 159/99/77 160/117/96 157/159/154
f 161/151/141 158/160/155 157/159/154 162/152/142
f 86/90/68 93/96/74 144/123/105 141/103/81
f 99/110/94 92/105/83 143/156/151 146/116/95
f 131/98/76 132/115/93 160/117/96 159/99/77
f 107/118/143 114/121/123 153/140/126 150/153/144
