# Blender v2.93.1 OBJ File: ''
# www.blender.org
mtllib sercups_beer_mug.mtl
o sercups_beer_mug_Cylinder.101
v -0.593846 -0.879849 -0.485509
v -0.794951 -0.879849 0.000000
v -0.593846 -0.879849 0.485509
v -0.108337 -0.879849 0.686614
v 0.377172 -0.879849 0.485509
v 0.578277 -0.879849 0.000000
v 0.377172 -0.879849 -0.485509
v -0.108337 -0.879849 -0.686614
v -0.570708 1.661228 -0.462371
v -0.762228 1.661228 -0.000000
v -0.570708 1.661228 0.462370
v -0.108337 1.661228 0.653890
v 0.354033 1.661228 0.462370
v 0.545554 1.661228 -0.000000
v 0.354033 1.661228 -0.462371
v -0.108337 1.661228 -0.653891
v -0.108337 1.661228 -0.734180
v 0.410806 1.661228 -0.519143
v 0.625842 1.661228 -0.000000
v 0.410806 1.661228 0.519143
v -0.108337 1.661228 0.734179
v -0.627480 1.661228 0.519143
v -0.842516 1.661228 -0.000000
v -0.627480 1.661228 -0.519143
v -0.108337 -0.941538 -0.734179
v 0.410806 -0.941538 -0.519143
v 0.625842 -0.941538 0.000000
v 0.410806 -0.941538 0.519143
v -0.108337 -0.941538 0.734179
v -0.627480 -0.941538 0.519143
v -0.842516 -0.941538 0.000000
v -0.627480 -0.941538 -0.519143
v -0.108337 -1.006243 -0.466583
v 0.221587 -1.006243 -0.329924
v 0.358246 -1.006243 0.000000
v 0.221587 -1.006243 0.329924
v -0.108337 -1.006243 0.466583
v -0.438261 -1.006243 0.329924
v -0.574920 -1.006243 0.000000
v -0.438261 -1.006243 -0.329924
v -0.108337 -1.084051 -0.676928
v -0.586998 -1.084051 -0.478661
v -0.785266 -1.084051 0.000000
v -0.586998 -1.084051 0.478661
v -0.108337 -1.084051 0.676929
v 0.370324 -1.084051 0.478661
v 0.568591 -1.084051 0.000000
v 0.370324 -1.084051 -0.478661
v -0.416071 -0.933598 -0.307734
v -0.108337 -0.933598 -0.435202
v -0.543539 -0.933598 0.000000
v -0.416071 -0.933598 0.307734
v -0.108337 -0.933598 0.435202
v 0.199397 -0.933598 0.307734
v 0.326865 -0.933598 0.000000
v 0.199397 -0.933598 -0.307734
v 0.534185 1.016274 -0.210457
v 0.578681 1.079878 -0.074005
v 0.578681 1.079878 0.074005
v 0.523139 1.016274 0.210457
v 0.536614 -0.375253 -0.210457
v 0.578681 -0.439956 -0.074005
v 0.578681 -0.439956 0.074005
v 0.530346 -0.375253 0.210457
v 0.578681 0.902969 -0.047546
v 0.534185 0.947856 -0.185806
v 0.523139 0.947857 0.185806
v 0.578681 0.902969 0.047545
v 0.578681 -0.259992 -0.047546
v 0.536614 -0.305654 -0.185806
v 0.530346 -0.305654 0.185806
v 0.578681 -0.259992 0.047546
v 1.141403 0.844049 -0.210457
v 0.970039 1.016274 -0.210457
v 1.091056 0.965830 -0.210457
v 1.031098 1.079878 -0.074005
v 1.202603 0.908554 -0.074005
v 1.151865 1.029699 -0.074005
v 1.202603 0.908554 0.074005
v 1.031098 1.079878 0.074005
v 1.151865 1.029699 0.074005
v 0.970039 1.016274 0.210457
v 1.141403 0.844049 0.210457
v 1.091056 0.965830 0.210457
v 0.970587 -0.375253 -0.210457
v 1.143692 -0.203134 -0.210457
v 1.093146 -0.324840 -0.210457
v 1.210987 -0.268436 -0.074005
v 1.039540 -0.439956 -0.074005
v 1.161277 -0.389719 -0.074005
v 1.039540 -0.439956 0.074005
v 1.210987 -0.268436 0.074005
v 1.161277 -0.389719 0.074005
v 1.143692 -0.203133 0.210457
v 0.970587 -0.375253 0.210457
v 1.093146 -0.324840 0.210457
v 1.031908 0.731127 -0.047546
v 0.863689 0.902969 -0.047546
v 0.983300 0.852638 -0.047546
v 0.905441 0.947856 -0.185806
v 1.075368 0.775105 -0.185806
v 1.025902 0.897259 -0.185806
v 1.075368 0.775105 0.185806
v 0.905441 0.947857 0.185806
v 1.025902 0.897259 0.185806
v 0.863689 0.902969 0.047545
v 1.031908 0.731127 0.047546
v 0.983300 0.852638 0.047545
v 0.850609 -0.259992 -0.047546
v 1.024264 -0.090011 -0.047546
v 0.972746 -0.210206 -0.047546
v 1.071498 -0.134745 -0.185806
v 0.897722 -0.305654 -0.185806
v 1.020299 -0.255596 -0.185806
v 0.897721 -0.305654 0.185806
v 1.071498 -0.134745 0.185806
v 1.020299 -0.255596 0.185806
v 1.024264 -0.090011 0.047546
v 0.850609 -0.259992 0.047546
v 0.972746 -0.210205 0.047546
vt 0.029445 0.504401
vt 0.029445 0.504401
vt 0.029445 0.504401
vt 0.029445 0.504401
vt 0.029445 0.504401
vt 0.029445 0.504401
vt 0.029445 0.504401
vt 0.029445 0.504401
vt 0.029445 0.504401
vt 0.029445 0.504401
vt 0.029445 0.504401
vt 0.029445 0.504401
vt 0.029445 0.504401
vt 0.029445 0.504401
vt 0.029445 0.504401
vt 0.029445 0.504401
vt 0.029445 0.504401
vt 0.029445 0.504401
vt 0.029445 0.504401
vt 0.029445 0.504401
vt 0.029445 0.504401
vt 0.029445 0.504401
vt 0.029445 0.504401
vt 0.029445 0.504401
vt 0.029445 0.504401
vt 0.029445 0.504401
vt 0.029445 0.504401
vt 0.029445 0.504401
vt 0.029445 0.504401
vt 0.029445 0.504401
vt 0.029445 0.504401
vt 0.029445 0.504401
vt 0.029445 0.504401
vt 0.029445 0.504401
vt 0.029445 0.504401
vt 0.029445 0.504401
vt 0.029445 0.504401
vt 0.029445 0.504401
vt 0.029445 0.504401
vt 0.029445 0.504401
vt 0.029445 0.504401
vt 0.029445 0.504401
vt 0.029445 0.504401
vt 0.029445 0.504401
vt 0.029445 0.504401
vt 0.029445 0.504401
vt 0.029445 0.504401
vt 0.029445 0.504401
vt 0.029445 0.504401
vt 0.029445 0.504401
vt 0.029445 0.504401
vt 0.029445 0.504401
vt 0.029445 0.504401
vt 0.029445 0.504401
vt 0.029445 0.504401
vt 0.029445 0.504401
vt 0.029445 0.504401
vt 0.029445 0.504401
vt 0.029445 0.504401
vt 0.029445 0.504401
vt 0.029445 0.504401
vt 0.029445 0.504401
vt 0.029445 0.504401
vt 0.029445 0.504401
vt 0.029445 0.504401
vt 0.029445 0.504401
vt 0.029445 0.504401
vt 0.029445 0.504401
vt 0.029445 0.504401
vt 0.029445 0.504401
vt 0.029445 0.504401
vt 0.029445 0.504401
vt 0.029445 0.504401
vt 0.029445 0.504401
vt 0.029445 0.504401
vt 0.029445 0.504401
vt 0.029445 0.504401
vt 0.029445 0.504401
vt 0.029445 0.504401
vt 0.029445 0.504401
vt 0.029445 0.504401
vt 0.029445 0.504401
vt 0.029445 0.504401
vt 0.029445 0.504401
vt 0.029445 0.504401
vt 0.029445 0.504401
vt 0.029445 0.504401
vt 0.029445 0.504401
vt 0.029445 0.504401
vt 0.029445 0.504401
vt 0.029445 0.504401
vt 0.029445 0.504401
vt 0.029445 0.504401
vt 0.029445 0.504401
vt 0.029445 0.504401
vt 0.029445 0.504401
vt 0.029445 0.504401
vt 0.029445 0.504401
vt 0.029445 0.504401
vt 0.029445 0.504401
vt 0.029445 0.504401
vt 0.029445 0.504401
vt 0.029445 0.504401
vt 0.029445 0.504401
vt 0.029445 0.504401
vt 0.029445 0.504401
vt 0.029445 0.504401
vt 0.029445 0.504401
vt 0.029445 0.504401
vt 0.029445 0.504401
vt 0.029445 0.504401
vt 0.029445 0.504401
vt 0.029445 0.504401
vt 0.029445 0.504401
vt 0.029445 0.504401
vt 0.029445 0.504401
vt 0.029445 0.504401
vt 0.029445 0.504401
vt 0.029445 0.504401
vt 0.029445 0.504401
vn -0.0000 1.0000 -0.0000
vn -0.9999 -0.0129 -0.0000
vn -0.7070 -0.0129 0.7070
vn 0.0000 -0.0129 -0.9999
vn -0.7070 -0.0129 -0.7070
vn 0.9999 -0.0129 -0.0000
vn 0.7070 -0.0129 -0.7070
vn -0.0000 -0.0129 0.9999
vn 0.7070 -0.0129 0.7070
vn -0.1478 0.9779 0.1478
vn -0.0000 0.9779 0.2091
vn -0.0000 0.9914 0.1309
vn -0.0926 0.9914 0.0926
vn 0.2453 -0.9379 0.2453
vn -0.0000 -0.9379 0.3469
vn -0.0000 -0.9759 0.2181
vn 0.1543 -0.9759 0.1543
vn -0.7071 -0.0000 -0.7071
vn -0.6953 -0.1817 -0.6953
vn -0.9833 -0.1817 0.0000
vn -1.0000 0.0000 0.0000
vn -0.7071 0.0000 0.7071
vn -0.6953 -0.1817 0.6953
vn -0.0000 -0.1817 0.9833
vn -0.0000 0.0000 1.0000
vn 0.7071 0.0000 0.7071
vn 0.6953 -0.1817 0.6953
vn 0.9833 -0.1817 0.0000
vn 1.0000 -0.0000 0.0000
vn 0.7071 -0.0000 -0.7071
vn 0.6953 -0.1817 -0.6953
vn -0.0000 -0.1817 -0.9833
vn 0.0000 -0.0000 -1.0000
vn -0.1543 -0.9759 0.1543
vn -0.2181 -0.9759 0.0000
vn -0.1543 -0.9759 -0.1543
vn -0.0000 -0.9759 -0.2181
vn 0.1543 -0.9759 -0.1543
vn 0.2181 -0.9759 -0.0000
vn 0.2453 -0.9379 -0.2453
vn 0.3469 -0.9379 -0.0000
vn -0.2453 -0.9379 -0.2453
vn 0.0000 -0.9379 -0.3469
vn -0.2453 -0.9379 0.2453
vn -0.3469 -0.9379 -0.0000
vn 0.6561 -0.3728 -0.6561
vn -0.0000 -0.3728 -0.9279
vn 0.6561 -0.3728 0.6561
vn 0.9279 -0.3728 0.0000
vn -0.6561 -0.3728 0.6561
vn -0.0000 -0.3728 0.9279
vn -0.6561 -0.3728 -0.6561
vn -0.9279 -0.3728 0.0000
vn 0.0926 0.9914 0.0926
vn 0.1309 0.9914 -0.0000
vn 0.0926 0.9914 -0.0926
vn 0.0000 0.9914 -0.1309
vn -0.0926 0.9914 -0.0926
vn -0.1309 0.9914 -0.0000
vn -0.1478 0.9779 -0.1478
vn -0.2091 0.9779 -0.0000
vn 0.1478 0.9779 -0.1478
vn -0.0000 0.9779 -0.2091
vn 0.1478 0.9779 0.1478
vn 0.2091 0.9779 -0.0000
vn 0.0000 -0.9855 -0.1698
vn 0.0000 -0.6818 -0.7315
vn -0.1267 -0.6453 -0.7533
vn -0.1808 -0.9668 -0.1809
vn 0.0000 0.6746 0.7381
vn 0.0000 -0.2911 0.9567
vn 0.0498 -0.4465 0.8934
vn -0.1231 0.6403 0.7582
vn -0.9646 0.1862 -0.1866
vn -0.9646 0.1862 0.1866
vn -0.9693 -0.1682 0.1796
vn -0.9693 -0.1682 -0.1796
vn 0.0000 0.9848 0.1735
vn -0.1736 0.9673 0.1849
vn 0.4468 -0.0504 0.8932
vn 0.9468 -0.1997 0.2525
vn 0.9471 0.2094 0.2432
vn 0.4469 0.0533 0.8930
vn 0.0000 0.6801 -0.7331
vn 0.0000 0.9851 -0.1719
vn -0.1736 0.9673 -0.1849
vn -0.1231 0.6403 -0.7582
vn 0.0000 0.2981 -0.9545
vn 0.0000 0.9721 -0.2345
vn 0.2044 0.9480 -0.2440
vn 0.0539 0.4476 -0.8926
vn 0.0000 -0.9715 -0.2370
vn 0.0000 -0.3037 -0.9528
vn 0.0498 -0.4465 -0.8934
vn 0.2044 -0.9460 -0.2515
vn 0.0000 -0.9710 0.2392
vn 0.2044 -0.9460 0.2515
vn 0.4468 -0.0504 -0.8932
vn -0.6366 0.1277 -0.7605
vn -0.6485 -0.1218 -0.7514
vn 0.4469 0.0533 -0.8930
vn -0.6366 0.1277 0.7605
vn -0.6485 -0.1218 0.7514
vn 0.0000 -0.6721 0.7405
vn 0.0000 -0.9850 0.1726
vn -0.1808 -0.9668 0.1809
vn -0.1267 -0.6453 0.7533
vn 0.0000 0.2755 0.9613
vn 0.0539 0.4476 0.8926
vn 0.0000 0.9712 0.2382
vn 0.2044 0.9480 0.2440
vn 0.9468 -0.1997 -0.2525
vn 0.9471 0.2093 -0.2432
vn -0.6967 -0.6828 -0.2199
vn -0.4090 -0.4029 -0.8188
vn -0.4090 -0.4029 0.8188
vn -0.6967 -0.6828 0.2199
vn -0.3928 0.3987 -0.8287
vn -0.6808 0.6948 -0.2319
vn -0.6808 0.6948 0.2319
vn -0.3928 0.3987 0.8287
vn 0.3379 0.3342 -0.8798
vn 0.6803 0.6829 -0.2661
vn 0.6803 0.6829 0.2661
vn 0.3379 0.3342 0.8798
vn 0.6804 -0.6780 -0.2781
vn 0.3279 -0.3318 -0.8845
vn 0.3279 -0.3318 0.8845
vn 0.6804 -0.6780 0.2781
usemtl Solid_-_25%.034
s 1
f 19/1/1 18/2/1 15/3/1 14/4/1
f 21/5/1 20/6/1 13/7/1 12/8/1
f 23/9/1 22/10/1 11/11/1 10/12/1
f 17/13/1 24/14/1 9/15/1 16/16/1
f 18/2/1 17/13/1 16/16/1 15/3/1
f 20/6/1 19/1/1 14/4/1 13/7/1
f 22/10/1 21/5/1 12/8/1 11/11/1
f 24/14/1 23/9/1 10/12/1 9/15/1
f 14/4/2 15/3/3 7/17/3 6/18/2
f 12/8/4 13/7/5 5/19/5 4/20/4
f 10/12/6 11/11/7 3/21/7 2/22/6
f 16/16/8 9/15/9 1/23/9 8/24/8
f 15/3/3 16/16/8 8/24/8 7/17/3
f 13/7/5 14/4/2 6/18/2 5/19/5
f 11/11/7 12/8/4 4/20/4 3/21/7
f 9/15/9 10/12/6 2/22/6 1/23/9
f 7/17/10 8/24/11 50/25/12 56/26/13
f 42/27/14 41/28/15 33/29/16 40/30/17
f 24/14/18 32/31/19 31/32/20 23/9/21
f 22/10/22 30/33/23 29/34/24 21/5/25
f 20/6/26 28/35/27 27/36/28 19/1/29
f 18/2/30 26/37/31 25/38/32 17/13/33
f 17/13/33 25/38/32 32/31/19 24/14/18
f 23/9/21 31/32/20 30/33/23 22/10/22
f 21/5/25 29/34/24 28/35/27 20/6/26
f 19/1/29 27/36/28 26/37/31 18/2/30
f 33/29/16 34/39/34 35/40/35 36/41/36 37/42/37 38/43/38 39/44/39 40/30/17
f 44/45/40 43/46/41 39/44/39 38/43/38
f 46/47/42 45/48/43 37/42/37 36/41/36
f 48/49/44 47/50/45 35/40/35 34/39/34
f 43/46/41 42/27/14 40/30/17 39/44/39
f 45/48/43 44/45/40 38/43/38 37/42/37
f 47/50/45 46/47/42 36/41/36 35/40/35
f 41/28/15 48/49/44 34/39/34 33/29/16
f 25/38/32 26/37/31 48/49/46 41/28/47
f 27/36/28 28/35/27 46/47/48 47/50/49
f 29/34/24 30/33/23 44/45/50 45/48/51
f 31/32/20 32/31/19 42/27/52 43/46/53
f 26/37/31 27/36/28 47/50/49 48/49/46
f 28/35/27 29/34/24 45/48/51 46/47/48
f 30/33/23 31/32/20 43/46/53 44/45/50
f 32/31/19 25/38/32 41/28/47 42/27/52
f 50/25/12 49/51/54 51/52/55 52/53/56 53/54/57 54/55/58 55/56/59 56/26/13
f 5/19/60 6/18/61 55/56/59 54/55/58
f 3/21/62 4/20/63 53/54/57 52/53/56
f 1/23/64 2/22/65 51/52/55 49/51/54
f 6/18/61 7/17/10 56/26/13 55/56/59
f 4/20/63 5/19/60 54/55/58 53/54/57
f 2/22/65 3/21/62 52/53/56 51/52/55
f 8/24/11 1/23/64 49/51/54 50/25/12
f 65/57/66 66/58/67 100/59/68 98/60/69
f 71/61/70 64/62/71 95/63/72 115/64/73
f 110/65/74 118/66/75 107/67/76 97/68/77
f 72/69/78 71/61/70 115/64/73 119/70/79
f 94/71/80 92/72/81 79/73/82 83/74/83
f 70/75/84 69/76/85 109/77/86 113/78/87
f 57/79/88 58/80/89 76/81/90 74/82/91
f 69/76/85 72/69/78 119/70/79 109/77/86
f 62/83/92 61/84/93 85/85/94 89/86/95
f 64/62/71 63/87/96 91/88/97 95/63/72
f 86/89/98 112/90/99 101/91/100 73/92/101
f 63/87/96 62/83/92 89/86/95 91/88/97
f 116/93/102 94/71/80 83/74/83 103/94/103
f 112/90/99 110/65/74 97/68/77 101/91/100
f 61/84/93 70/75/84 113/78/87 85/85/94
f 118/66/75 116/93/102 103/94/103 107/67/76
f 67/95/104 68/96/105 106/97/106 104/98/107
f 60/99/108 67/95/104 104/98/107 82/100/109
f 59/101/110 60/99/108 82/100/109 80/102/111
f 58/80/89 59/101/110 80/102/111 76/81/90
f 66/58/67 57/79/88 74/82/91 100/59/68
f 92/72/81 88/103/112 77/104/113 79/73/82
f 68/96/105 65/57/66 98/60/69 106/97/106
f 101/91/100 97/68/77 99/105/114 102/106/115
f 102/106/115 99/105/114 98/60/69 100/59/68
f 107/67/76 103/94/103 105/107/116 108/108/117
f 108/108/117 105/107/116 104/98/107 106/97/106
f 110/65/74 112/90/99 114/109/118 111/110/119
f 111/110/119 114/109/118 113/78/87 109/77/86
f 116/93/102 118/66/75 120/111/120 117/112/121
f 117/112/121 120/111/120 119/70/79 115/64/73
f 77/104/113 73/92/101 75/113/122 78/114/123
f 78/114/123 75/113/122 74/82/91 76/81/90
f 83/74/83 79/73/82 81/115/124 84/116/125
f 84/116/125 81/115/124 80/102/111 82/100/109
f 86/89/98 88/103/112 90/117/126 87/118/127
f 87/118/127 90/117/126 89/86/95 85/85/94
f 92/72/81 94/71/80 96/119/128 93/120/129
f 93/120/129 96/119/128 95/63/72 91/88/97
f 79/73/82 77/104/113 78/114/123 81/115/124
f 81/115/124 78/114/123 76/81/90 80/102/111
f 73/92/101 101/91/100 102/106/115 75/113/122
f 75/113/122 102/106/115 100/59/68 74/82/91
f 103/94/103 83/74/83 84/116/125 105/107/116
f 105/107/116 84/116/125 82/100/109 104/98/107
f 88/103/112 92/72/81 93/120/129 90/117/126
f 90/117/126 93/120/129 91/88/97 89/86/95
f 112/90/99 86/89/98 87/118/127 114/109/118
f 114/109/118 87/118/127 85/85/94 113/78/87
f 94/71/80 116/93/102 117/112/121 96/119/128
f 96/119/128 117/112/121 115/64/73 95/63/72
f 97/68/77 107/67/76 108/108/117 99/105/114
f 99/105/114 108/108/117 106/97/106 98/60/69
f 118/66/75 110/65/74 111/110/119 120/111/120
f 120/111/120 111/110/119 109/77/86 119/70/79
f 88/103/112 86/89/98 73/92/101 77/104/113
