# Blender v2.93.1 OBJ File: ''
# www.blender.org
mtllib sercups_vodka_glass.mtl
o sercups_vodka_glass_Cylinder.120
v -0.002853 0.951030 -0.789838
v 0.555646 0.951030 -0.558500
v 0.786984 0.951030 -0.000000
v 0.555646 0.951031 0.558499
v -0.002853 0.951031 0.789837
v -0.561352 0.951031 0.558499
v -0.792691 0.951030 -0.000000
v -0.561353 0.951030 -0.558499
v -0.002853 -0.915003 -0.671808
v 0.472187 -0.915003 -0.475040
v 0.668955 -0.915003 0.000000
v 0.472187 -0.915003 0.475040
v -0.002853 -0.915003 0.671808
v -0.477893 -0.915003 0.475040
v -0.674661 -0.915003 0.000000
v -0.477893 -0.915003 -0.475040
v -0.002853 -1.006243 -0.312269
v 0.217955 -1.006243 -0.220808
v 0.309416 -1.006243 0.000000
v 0.217955 -1.006243 0.220808
v -0.002853 -1.006243 0.312270
v -0.223661 -1.006243 0.220808
v -0.315123 -1.006243 0.000000
v -0.223661 -1.006243 -0.220808
v -0.002853 -1.110586 -0.621756
v -0.442502 -1.110586 -0.439648
v -0.624610 -1.110586 0.000000
v -0.442501 -1.110586 0.439649
v -0.002853 -1.110586 0.621757
v 0.436795 -1.110586 0.439649
v 0.618904 -1.110586 0.000000
v 0.436795 -1.110586 -0.439648
v 0.535672 0.482984 -0.538525
v 0.535672 0.482984 0.538525
v -0.541378 0.482984 0.538525
v -0.541378 0.482984 -0.538525
v -0.764442 0.482984 -0.000000
v -0.002853 0.482984 0.761589
v 0.758736 0.482984 -0.000000
v -0.002853 0.482984 -0.761589
v -0.002853 -0.915003 -0.671808
v 0.472187 -0.915003 -0.475040
v 0.668955 -0.915003 0.000000
v 0.472187 -0.915003 0.475040
v -0.002853 -0.915003 0.671808
v -0.477893 -0.915003 0.475040
v -0.674661 -0.915003 0.000000
v -0.477893 -0.915003 -0.475040
vt 0.029445 0.504401
vt 0.029445 0.504401
vt 0.029445 0.504401
vt 0.029445 0.504401
vt 0.029445 0.504401
vt 0.029445 0.504401
vt 0.029445 0.504401
vt 0.029445 0.504401
vt 0.029445 0.504401
vt 0.029445 0.504401
vt 0.029445 0.504401
vt 0.029445 0.504401
vt 0.029445 0.504401
vt 0.029445 0.504401
vt 0.029445 0.504401
vt 0.029445 0.504401
vt 0.029445 0.504401
vt 0.029445 0.504401
vt 0.029445 0.504401
vt 0.029445 0.504401
vt 0.029445 0.504401
vt 0.029445 0.504401
vt 0.029445 0.504401
vt 0.029445 0.504401
vt 0.029445 0.504401
vt 0.029445 0.504401
vt 0.029445 0.504401
vt 0.029445 0.504401
vt 0.029445 0.504401
vt 0.029445 0.504401
vt 0.029445 0.504401
vt 0.029445 0.504401
vt 0.029445 0.504401
vt 0.029445 0.504401
vt 0.029445 0.504401
vt 0.029445 0.504401
vt 0.029445 0.504401
vt 0.029445 0.504401
vt 0.029445 0.504401
vt 0.029445 0.504401
vt 0.029445 0.504401
vt 0.029445 0.504401
vt 0.029445 0.504401
vt 0.029445 0.504401
vt 0.029445 0.504401
vt 0.029445 0.504401
vt 0.029445 0.504401
vt 0.029445 0.504401
vn 0.2259 -0.9476 0.2259
vn -0.0000 -0.9476 0.3195
vn -0.0000 -0.9797 0.2007
vn 0.1419 -0.9797 0.1419
vn -0.7057 -0.0621 -0.7057
vn -0.6988 -0.1533 -0.6988
vn -0.9882 -0.1533 0.0000
vn -0.9981 -0.0621 0.0000
vn -0.7057 -0.0621 0.7057
vn -0.6988 -0.1533 0.6988
vn -0.0000 -0.1533 0.9882
vn -0.0000 -0.0621 0.9981
vn 0.7057 -0.0621 0.7057
vn 0.6988 -0.1533 0.6988
vn 0.9882 -0.1533 0.0000
vn 0.9981 -0.0621 0.0000
vn 0.7057 -0.0621 -0.7057
vn 0.6988 -0.1533 -0.6988
vn -0.0000 -0.1533 -0.9882
vn -0.0000 -0.0621 -0.9981
vn -0.1419 -0.9797 0.1419
vn -0.2007 -0.9797 -0.0000
vn -0.1419 -0.9797 -0.1419
vn 0.0000 -0.9797 -0.2007
vn 0.1419 -0.9797 -0.1419
vn 0.2007 -0.9797 -0.0000
vn 0.2259 -0.9476 -0.2259
vn 0.3195 -0.9476 -0.0000
vn -0.2259 -0.9476 -0.2259
vn 0.0000 -0.9476 -0.3195
vn -0.2259 -0.9476 0.2259
vn -0.3195 -0.9476 0.0000
vn 0.6850 -0.2479 -0.6850
vn 0.0000 -0.2479 -0.9688
vn 0.6850 -0.2479 0.6850
vn 0.9688 -0.2479 0.0000
vn -0.6850 -0.2479 0.6850
vn 0.0000 -0.2479 0.9688
vn -0.6850 -0.2479 -0.6850
vn -0.9688 -0.2479 0.0000
vn 0.9982 -0.0602 0.0000
vn 0.7058 -0.0602 -0.7058
vn -0.0000 -0.0602 0.9982
vn 0.7058 -0.0602 0.7058
vn -0.9982 -0.0602 0.0000
vn -0.7058 -0.0602 0.7058
vn -0.0000 -0.0602 -0.9982
vn -0.7058 -0.0602 -0.7058
vn 0.0000 1.0000 -0.0000
usemtl Solid_-_25%.046
s 1
f 26/1/1 25/2/2 17/3/3 24/4/4
f 36/5/5 16/6/6 15/7/7 37/8/8
f 35/9/9 14/10/10 13/11/11 38/12/12
f 34/13/13 12/14/14 11/15/15 39/16/16
f 33/17/17 10/18/18 9/19/19 40/20/20
f 40/20/20 9/19/19 16/6/6 36/5/5
f 37/8/8 15/7/7 14/10/10 35/9/9
f 38/12/12 13/11/11 12/14/14 34/13/13
f 39/16/16 11/15/15 10/18/18 33/17/17
f 17/3/3 18/21/21 19/22/22 20/23/23 21/24/24 22/25/25 23/26/26 24/4/4
f 28/27/27 27/28/28 23/26/26 22/25/25
f 30/29/29 29/30/30 21/24/24 20/23/23
f 32/31/31 31/32/32 19/22/22 18/21/21
f 27/28/28 26/1/1 24/4/4 23/26/26
f 29/30/30 28/27/27 22/25/25 21/24/24
f 31/32/32 30/29/29 20/23/23 19/22/22
f 25/2/2 32/31/31 18/21/21 17/3/3
f 9/19/19 10/18/18 32/31/33 25/2/34
f 11/15/15 12/14/14 30/29/35 31/32/36
f 13/11/11 14/10/10 28/27/37 29/30/38
f 15/7/7 16/6/6 26/1/39 27/28/40
f 10/18/18 11/15/15 31/32/36 32/31/33
f 12/14/14 13/11/11 29/30/38 30/29/35
f 14/10/10 15/7/7 27/28/40 28/27/37
f 16/6/6 9/19/19 25/2/34 26/1/39
f 3/33/41 39/16/16 33/17/17 2/34/42
f 5/35/43 38/12/12 34/13/13 4/36/44
f 7/37/45 37/8/8 35/9/9 6/38/46
f 1/39/47 40/20/20 36/5/5 8/40/48
f 2/34/42 33/17/17 40/20/20 1/39/47
f 4/36/44 34/13/13 39/16/16 3/33/41
f 6/38/46 35/9/9 38/12/12 5/35/43
f 8/40/48 36/5/5 37/8/8 7/37/45
f 41/41/49 48/42/49 47/43/49 46/44/49 45/45/49 44/46/49 43/47/49 42/48/49
