# Blender v2.93.1 OBJ File: ''
# www.blender.org
mtllib sercups_glass.mtl
o sercups_glass_Cylinder.108
v -0.002853 1.670342 -0.868352
v 0.611164 1.670342 -0.614018
v 0.865499 1.670342 -0.000000
v 0.611164 1.670342 0.614017
v -0.002853 1.670342 0.868351
v -0.616870 1.670342 0.614017
v -0.871205 1.670342 -0.000000
v -0.616871 1.670342 -0.614017
v -0.002853 -0.915003 -0.671808
v 0.472187 -0.915003 -0.475040
v 0.668955 -0.915003 0.000000
v 0.472187 -0.915003 0.475040
v -0.002853 -0.915003 0.671808
v -0.477893 -0.915003 0.475040
v -0.674661 -0.915003 0.000000
v -0.477893 -0.915003 -0.475040
v -0.002853 -1.006243 -0.312269
v 0.217955 -1.006243 -0.220808
v 0.309416 -1.006243 0.000000
v 0.217955 -1.006243 0.220808
v -0.002853 -1.006243 0.312270
v -0.223661 -1.006243 0.220808
v -0.315123 -1.006243 0.000000
v -0.223661 -1.006243 -0.220808
v -0.002853 -1.100283 -0.643631
v -0.457969 -1.100283 -0.455116
v -0.646485 -1.100283 0.000000
v -0.457969 -1.100283 0.455116
v -0.002853 -1.100283 0.643632
v 0.452263 -1.100283 0.455116
v 0.640778 -1.100283 0.000000
v 0.452263 -1.100283 -0.455116
v -0.002853 -0.915003 -0.669818
v 0.470780 -0.915003 -0.473633
v 0.666965 -0.915003 0.000000
v 0.470780 -0.915003 0.473633
v -0.002853 -0.915003 0.669818
v -0.476486 -0.915003 0.473633
v -0.672671 -0.915003 0.000000
v -0.476486 -0.915003 -0.473633
v -0.002853 -1.100283 -0.580362
v -0.583216 -1.100283 0.000000
v -0.002853 -1.100283 0.580363
v 0.577509 -1.100283 0.000000
v -0.413231 -1.100283 -0.410378
v -0.413231 -1.100283 0.410378
v 0.407525 -1.100283 0.410378
v 0.407525 -1.100283 -0.410378
vt 0.029445 0.504401
vt 0.029445 0.504401
vt 0.029445 0.504401
vt 0.029445 0.504401
vt 0.029445 0.504401
vt 0.029445 0.504401
vt 0.029445 0.504401
vt 0.029445 0.504401
vt 0.029445 0.504401
vt 0.029445 0.504401
vt 0.029445 0.504401
vt 0.029445 0.504401
vt 0.029445 0.504401
vt 0.029445 0.504401
vt 0.029445 0.504401
vt 0.029445 0.504401
vt 0.029445 0.504401
vt 0.029445 0.504401
vt 0.029445 0.504401
vt 0.029445 0.504401
vt 0.029445 0.504401
vt 0.029445 0.504401
vt 0.029445 0.504401
vt 0.029445 0.504401
vt 0.029445 0.504401
vt 0.029445 0.504401
vt 0.029445 0.504401
vt 0.029445 0.504401
vt 0.029445 0.504401
vt 0.029445 0.504401
vt 0.029445 0.504401
vt 0.029445 0.504401
vt 0.029445 0.504401
vt 0.029445 0.504401
vt 0.029445 0.504401
vt 0.029445 0.504401
vt 0.029445 0.504401
vt 0.029445 0.504401
vt 0.029445 0.504401
vt 0.029445 0.504401
vt 0.029445 0.504401
vt 0.029445 0.504401
vt 0.029445 0.504401
vt 0.029445 0.504401
vt 0.029445 0.504401
vt 0.029445 0.504401
vt 0.029445 0.504401
vt 0.029445 0.504401
vn 0.2341 -0.9436 0.2341
vn -0.0000 -0.9436 0.3310
vn 0.0000 -0.9781 0.2080
vn 0.1471 -0.9781 0.1471
vn -0.7051 -0.0758 -0.7051
vn -0.7026 -0.1121 -0.7026
vn -0.9937 -0.1121 0.0000
vn -0.9971 -0.0758 0.0000
vn -0.7051 -0.0758 0.7051
vn -0.7026 -0.1121 0.7026
vn -0.0000 -0.1121 0.9937
vn -0.0000 -0.0758 0.9971
vn 0.7051 -0.0758 0.7051
vn 0.7026 -0.1121 0.7026
vn 0.9937 -0.1121 0.0000
vn 0.9971 -0.0758 0.0000
vn 0.7051 -0.0758 -0.7051
vn 0.7026 -0.1121 -0.7026
vn 0.0000 -0.1121 -0.9937
vn 0.0000 -0.0758 -0.9971
vn -0.1471 -0.9781 0.1471
vn -0.2080 -0.9781 -0.0000
vn -0.1471 -0.9781 -0.1471
vn -0.0000 -0.9781 -0.2080
vn 0.1471 -0.9781 -0.1471
vn 0.2080 -0.9781 -0.0000
vn 0.2341 -0.9436 -0.2341
vn 0.3310 -0.9436 0.0000
vn -0.2341 -0.9436 -0.2341
vn -0.0000 -0.9436 -0.3310
vn -0.2341 -0.9436 0.2341
vn -0.3310 -0.9436 -0.0000
vn 0.6991 -0.1503 -0.6991
vn 0.0000 -0.1503 -0.9886
vn 0.6991 -0.1503 0.6991
vn 0.9886 -0.1503 -0.0000
vn -0.6991 -0.1503 0.6991
vn 0.0000 -0.1503 0.9886
vn -0.6991 -0.1503 -0.6991
vn -0.9886 -0.1503 0.0000
vn 0.0000 1.0000 -0.0000
vn 0.0000 -1.0000 -0.0000
usemtl Solid_-_25%.039
s 1
f 45/1/1 41/2/2 17/3/3 24/4/4
f 8/5/5 16/6/6 15/7/7 7/8/8
f 6/9/9 14/10/10 13/11/11 5/12/12
f 4/13/13 12/14/14 11/15/15 3/16/16
f 2/17/17 10/18/18 9/19/19 1/20/20
f 1/20/20 9/19/19 16/6/6 8/5/5
f 7/8/8 15/7/7 14/10/10 6/9/9
f 5/12/12 13/11/11 12/14/14 4/13/13
f 17/3/3 18/21/21 19/22/22 20/23/23 21/24/24 22/25/25 23/26/26 24/4/4
f 46/27/27 42/28/28 23/26/26 22/25/25
f 47/29/29 43/30/30 21/24/24 20/23/23
f 48/31/31 44/32/32 19/22/22 18/21/21
f 42/28/28 45/1/1 24/4/4 23/26/26
f 43/30/30 46/27/27 22/25/25 21/24/24
f 44/32/32 47/29/29 20/23/23 19/22/22
f 41/2/2 48/31/31 18/21/21 17/3/3
f 9/19/19 10/18/18 32/33/33 25/34/34
f 11/15/15 12/14/14 30/35/35 31/36/36
f 13/11/11 14/10/10 28/37/37 29/38/38
f 15/7/7 16/6/6 26/39/39 27/40/40
f 10/18/18 11/15/15 31/36/36 32/33/33
f 12/14/14 13/11/11 29/38/38 30/35/35
f 14/10/10 15/7/7 27/40/40 28/37/37
f 16/6/6 9/19/19 25/34/34 26/39/39
f 33/41/41 40/42/41 39/43/41 38/44/41 37/45/41 36/46/41 35/47/41 34/48/41
f 3/16/16 11/15/15 10/18/18 2/17/17
f 25/34/42 32/33/42 48/31/42 41/2/42
f 31/36/42 30/35/42 47/29/42 44/32/42
f 29/38/42 28/37/42 46/27/42 43/30/42
f 27/40/42 26/39/42 45/1/42 42/28/42
f 32/33/42 31/36/42 44/32/42 48/31/42
f 30/35/42 29/38/42 43/30/42 47/29/42
f 28/37/42 27/40/42 42/28/42 46/27/42
f 26/39/42 25/34/42 41/2/42 45/1/42
