# Blender v2.93.1 OBJ File: ''
# www.blender.org
mtllib sercups_hurricane_glass.mtl
o sercups_hurricane_glass_Cylinder.110
v 0.000000 -0.866479 -0.820666
v 0.000000 -0.244131 -0.087663
v 0.580299 -0.866479 -0.580298
v 0.061987 -0.244131 -0.061987
v 0.820666 -0.866479 0.000000
v 0.087663 -0.244131 0.000000
v 0.580299 -0.866479 0.580299
v 0.061987 -0.244131 0.061987
v -0.000000 -0.866479 0.820666
v -0.000000 -0.244131 0.087663
v -0.580298 -0.866479 0.580299
v -0.061987 -0.244131 0.061987
v -0.820666 -0.866479 0.000000
v -0.087663 -0.244131 0.000000
v -0.580299 -0.866479 -0.580298
v -0.061987 -0.244131 -0.061987
v -0.751369 3.199723 -0.000001
v 0.531296 3.199723 0.531297
v -0.000001 3.199723 -0.751368
v -0.531299 3.199723 -0.531297
v -0.531298 3.199723 0.531297
v -0.000001 3.199723 0.751367
v 0.751366 3.199723 -0.000000
v 0.531296 3.199723 -0.531298
v 0.415461 2.263274 -0.415463
v 0.587551 2.263274 -0.000000
v -0.000001 2.263274 0.587552
v -0.415463 2.263274 0.415462
v -0.415464 2.263274 -0.415463
v -0.000001 2.263274 -0.587553
v 0.415461 2.263274 0.415462
v -0.587554 2.263274 -0.000000
v -0.885740 1.238837 -0.000000
v 0.626310 1.238837 0.626311
v -0.000002 1.238837 -0.885738
v -0.626313 1.238837 -0.626311
v -0.626313 1.238837 0.626311
v -0.000002 1.238837 0.885738
v 0.885736 1.238837 -0.000000
v 0.626310 1.238837 -0.626312
v 0.000000 -0.928831 -0.889753
v 0.629151 -0.928831 -0.629151
v 0.889754 -0.928831 0.000000
v 0.629151 -0.928831 0.629151
v -0.000000 -0.928831 0.889754
v -0.629151 -0.928831 0.629151
v -0.889754 -0.928831 0.000000
v -0.629151 -0.928831 -0.629151
v 0.000000 -0.981286 -0.835910
v 0.591077 -0.981286 -0.591077
v 0.835910 -0.981286 0.000000
v 0.591077 -0.981286 0.591078
v -0.000000 -0.981286 0.835910
v -0.591077 -0.981286 0.591078
v -0.835910 -0.981286 0.000000
v -0.591078 -0.981286 -0.591077
v 0.000000 -0.626392 -0.137135
v 0.096969 -0.626392 -0.096969
v 0.137135 -0.626392 0.000000
v 0.096969 -0.626392 0.096969
v -0.000000 -0.626392 0.137135
v -0.096969 -0.626392 0.096969
v -0.137135 -0.626392 0.000000
v -0.096969 -0.626392 -0.096969
v 0.000000 -0.435261 -0.102239
v 0.072294 -0.435261 -0.072294
v 0.102239 -0.435261 0.000000
v 0.072294 -0.435261 0.072294
v -0.000000 -0.435261 0.102239
v -0.072294 -0.435261 0.072294
v -0.102239 -0.435261 0.000000
v -0.072294 -0.435261 -0.072294
v 0.178800 -0.746435 -0.178800
v 0.252862 -0.746435 0.000000
v 0.178800 -0.746435 0.178800
v -0.000000 -0.746435 0.252862
v -0.178800 -0.746435 0.178800
v -0.252862 -0.746435 0.000000
v -0.178800 -0.746435 -0.178800
v 0.000000 -0.746435 -0.252862
v 0.284136 -0.806457 -0.284136
v 0.401829 -0.806457 0.000000
v 0.284136 -0.806457 0.284136
v -0.000000 -0.806457 0.401829
v -0.284136 -0.806457 0.284136
v -0.401829 -0.806457 0.000000
v -0.284136 -0.806457 -0.284136
v 0.000000 -0.806457 -0.401828
v 0.265601 0.365236 -0.265602
v 0.375617 0.365237 -0.000000
v -0.000001 0.365237 0.375618
v -0.265602 0.365237 0.265602
v -0.265603 0.365236 -0.265602
v -0.000001 0.365237 -0.375618
v 0.265601 0.365237 0.265602
v -0.375619 0.365237 -0.000000
v 0.174613 0.060553 -0.000000
v -0.123470 0.060553 0.123470
v -0.000000 0.060553 -0.174613
v 0.123470 0.060553 0.123470
v -0.174614 0.060553 -0.000000
v 0.123470 0.060553 -0.123470
v -0.000000 0.060553 0.174613
v -0.123471 0.060553 -0.123470
v 0.171741 0.212895 -0.171742
v -0.000000 0.212895 0.242880
v -0.171742 0.212895 -0.171742
v 0.242879 0.212895 -0.000000
v -0.171742 0.212895 0.171742
v -0.000000 0.212895 -0.242880
v 0.171741 0.212895 0.171742
v -0.242880 0.212895 -0.000000
v -0.566221 1.751056 0.566220
v -0.800757 1.751056 -0.000000
v 0.566219 1.751055 -0.566220
v 0.800754 1.751056 -0.000000
v -0.566221 1.751055 -0.566220
v -0.000001 1.751056 -0.800756
v 0.566219 1.751056 0.566220
v -0.000002 1.751056 0.800756
v -0.480043 2.007165 0.480042
v -0.678883 2.007165 -0.000000
v 0.480041 2.007165 -0.480043
v -0.480044 2.007165 -0.480042
v 0.480041 2.007165 0.480042
v 0.678881 2.007165 -0.000000
v -0.000001 2.007165 -0.678883
v -0.000001 2.007165 0.678882
v -0.000001 2.731498 0.612117
v 0.432831 2.731499 0.432832
v -0.000001 2.731499 -0.612118
v 0.432831 2.731498 -0.432833
v 0.612116 2.731499 -0.000000
v -0.432834 2.731498 -0.432833
v -0.432833 2.731499 0.432832
v -0.612119 2.731499 -0.000000
v 0.475475 2.965611 -0.475477
v -0.475477 2.965611 0.475476
v -0.000001 2.965611 0.672425
v 0.475475 2.965611 0.475476
v -0.000001 2.965611 -0.672426
v 0.672424 2.965611 -0.000000
v -0.475478 2.965611 -0.475477
v -0.672426 2.965611 -0.000000
v -0.521055 3.240575 0.521054
v -0.000001 3.240575 0.736881
v 0.521053 3.240575 0.521054
v 0.736881 3.240575 -0.000000
v -0.000001 3.240575 -0.736883
v -0.521056 3.240575 -0.521055
v 0.521053 3.240575 -0.521055
v -0.736883 3.240575 -0.000001
v -0.752594 0.802037 -0.000000
v -0.532165 0.802037 -0.532164
v 0.532162 0.802037 -0.532164
v 0.752592 0.802037 -0.000000
v -0.000001 0.802037 -0.752593
v 0.532162 0.802037 0.532164
v -0.000001 0.802037 0.752593
v -0.532165 0.802037 0.532164
v -0.358675 0.592455 0.358674
v -0.000001 0.592455 0.507241
v 0.358672 0.592455 0.358674
v -0.000001 0.592455 -0.507241
v 0.358672 0.592455 -0.358674
v 0.507240 0.592455 -0.000000
v -0.507243 0.592455 -0.000000
v -0.358675 0.592455 -0.358674
v -0.746566 0.800379 -0.000000
v -0.527903 0.800378 -0.527901
v 0.527900 0.800378 -0.527901
v 0.746564 0.800379 -0.000000
v -0.000001 0.800379 -0.746565
v 0.527900 0.800379 0.527901
v -0.000001 0.800379 0.746565
v -0.527902 0.800379 0.527901
v -0.118654 0.389682 -0.000000
v -0.083901 0.389682 -0.083901
v 0.083900 0.389682 -0.083901
v 0.118653 0.389682 -0.000000
v -0.000000 0.389682 -0.118653
v 0.083900 0.389682 0.083901
v -0.000000 0.389682 0.118653
v -0.083901 0.389682 0.083901
vt 0.029445 0.504401
vt 0.029445 0.504401
vt 0.029445 0.504401
vt 0.029445 0.504401
vt 0.029445 0.504401
vt 0.029445 0.504401
vt 0.029445 0.504401
vt 0.029445 0.504401
vt 0.029445 0.504401
vt 0.029445 0.504401
vt 0.029445 0.504401
vt 0.029445 0.504401
vt 0.029445 0.504401
vt 0.029445 0.504401
vt 0.029445 0.504401
vt 0.029445 0.504401
vt 0.029445 0.504401
vt 0.029445 0.504401
vt 0.029445 0.504401
vt 0.029445 0.504401
vt 0.029445 0.504401
vt 0.029445 0.504401
vt 0.029445 0.504401
vt 0.029445 0.504401
vt 0.029445 0.504401
vt 0.029445 0.504401
vt 0.029445 0.504401
vt 0.029445 0.504401
vt 0.029445 0.504401
vt 0.029445 0.504401
vt 0.029445 0.504401
vt 0.029445 0.504401
vt 0.029445 0.504401
vt 0.029445 0.504401
vt 0.029445 0.504401
vt 0.029445 0.504401
vt 0.029445 0.504401
vt 0.029445 0.504401
vt 0.029445 0.504401
vt 0.029445 0.504401
vt 0.029445 0.504401
vt 0.029445 0.504401
vt 0.029445 0.504401
vt 0.029445 0.504401
vt 0.029445 0.504401
vt 0.029445 0.504401
vt 0.029445 0.504401
vt 0.029445 0.504401
vt 0.029445 0.504401
vt 0.029445 0.504401
vt 0.029445 0.504401
vt 0.029445 0.504401
vt 0.029445 0.504401
vt 0.029445 0.504401
vt 0.029445 0.504401
vt 0.029445 0.504401
vt 0.029445 0.504401
vt 0.029445 0.504401
vt 0.029445 0.504401
vt 0.029445 0.504401
vt 0.029445 0.504401
vt 0.029445 0.504401
vt 0.029445 0.504401
vt 0.029445 0.504401
vt 0.029445 0.504401
vt 0.029445 0.504401
vt 0.029445 0.504401
vt 0.029445 0.504401
vt 0.029445 0.504401
vt 0.029445 0.504401
vt 0.029445 0.504401
vt 0.029445 0.504401
vt 0.029445 0.504401
vt 0.029445 0.504401
vt 0.029445 0.504401
vt 0.029445 0.504401
vt 0.029445 0.504401
vt 0.029445 0.504401
vt 0.029445 0.504401
vt 0.029445 0.504401
vt 0.029445 0.504401
vt 0.029445 0.504401
vt 0.029445 0.504401
vt 0.029445 0.504401
vt 0.029445 0.504401
vt 0.029445 0.504401
vt 0.029445 0.504401
vt 0.029445 0.504401
vt 0.029445 0.504401
vt 0.029445 0.504401
vt 0.029445 0.504401
vt 0.029445 0.504401
vt 0.029445 0.504401
vt 0.029445 0.504401
vt 0.029445 0.504401
vt 0.029445 0.504401
vt 0.029445 0.504401
vt 0.029445 0.504401
vt 0.029445 0.504401
vt 0.029445 0.504401
vt 0.029445 0.504401
vt 0.029445 0.504401
vt 0.029445 0.504401
vt 0.029445 0.504401
vt 0.029445 0.504401
vt 0.029445 0.504401
vt 0.029445 0.504401
vt 0.029445 0.504401
vt 0.029445 0.504401
vt 0.029445 0.504401
vt 0.029445 0.504401
vt 0.029445 0.504401
vt 0.029445 0.504401
vt 0.029445 0.504401
vt 0.029445 0.504401
vt 0.029445 0.504401
vt 0.029445 0.504401
vt 0.029445 0.504401
vt 0.029445 0.504401
vt 0.029445 0.504401
vt 0.029445 0.504401
vt 0.029445 0.504401
vt 0.029445 0.504401
vt 0.029445 0.504401
vt 0.029445 0.504401
vt 0.029445 0.504401
vt 0.029445 0.504401
vt 0.029445 0.504401
vt 0.029445 0.504401
vt 0.029445 0.504401
vt 0.029445 0.504401
vt 0.029445 0.504401
vt 0.029445 0.504401
vt 0.029445 0.504401
vt 0.029445 0.504401
vt 0.029445 0.504401
vt 0.029445 0.504401
vt 0.029445 0.504401
vt 0.029445 0.504401
vt 0.029445 0.504401
vt 0.029445 0.504401
vt 0.029445 0.504401
vt 0.029445 0.504401
vt 0.029445 0.504401
vt 0.029445 0.504401
vt 0.029445 0.504401
vt 0.029445 0.504401
vt 0.029445 0.504401
vt 0.029445 0.504401
vt 0.029445 0.504401
vt 0.029445 0.504401
vt 0.029445 0.504401
vt 0.029445 0.504401
vt 0.029445 0.504401
vt 0.029445 0.504401
vt 0.029445 0.504401
vt 0.029445 0.504401
vt 0.029445 0.504401
vt 0.029445 0.504401
vt 0.029445 0.504401
vt 0.029445 0.504401
vt 0.029445 0.504401
vt 0.029445 0.504401
vt 0.029445 0.504401
vt 0.029445 0.504401
vt 0.029445 0.504401
vt 0.029445 0.504401
vt 0.029445 0.504401
vt 0.029445 0.504401
vt 0.029445 0.504401
vt 0.029445 0.504401
vt 0.029445 0.504401
vt 0.029445 0.504401
vt 0.029445 0.504401
vt 0.029445 0.504401
vt 0.029445 0.504401
vt 0.029445 0.504401
vt 0.029445 0.504401
vt 0.029445 0.504401
vt 0.029445 0.504401
vt 0.029445 0.504401
vt 0.029445 0.504401
vt 0.029445 0.504401
vt 0.029445 0.504401
vn -0.0000 0.1296 -0.9916
vn -0.0000 0.0760 -0.9971
vn 0.7051 0.0760 -0.7051
vn 0.7011 0.1296 -0.7011
vn 0.9971 0.0760 -0.0000
vn 0.9916 0.1296 -0.0000
vn 0.7051 0.0760 0.7051
vn 0.7011 0.1296 0.7011
vn -0.0000 0.0760 0.9971
vn -0.0000 0.1296 0.9916
vn -0.7051 0.0760 0.7051
vn -0.7011 0.1296 0.7011
vn -0.9971 0.0760 0.0000
vn -0.9916 0.1296 0.0000
vn -0.7051 0.0760 -0.7051
vn -0.7011 0.1296 -0.7011
vn 0.6773 -0.2871 -0.6773
vn -0.0000 -0.2871 -0.9579
vn -0.0000 0.0072 -1.0000
vn 0.7071 0.0072 -0.7071
vn -0.6773 -0.2871 0.6773
vn -0.0000 -0.2871 0.9579
vn -0.0000 0.0072 1.0000
vn -0.7071 0.0072 0.7071
vn 0.6773 -0.2871 0.6773
vn 0.7071 0.0072 0.7071
vn 0.9579 -0.2871 0.0000
vn 1.0000 0.0072 -0.0000
vn -0.6773 -0.2871 -0.6773
vn -0.7071 0.0072 -0.7071
vn -0.9579 -0.2871 0.0000
vn -1.0000 0.0072 0.0000
vn 0.6518 0.3878 -0.6518
vn -0.0000 0.3878 -0.9218
vn -0.0000 0.1519 -0.9884
vn 0.6989 0.1519 -0.6989
vn -0.6518 0.3878 0.6518
vn 0.0000 0.3878 0.9218
vn -0.0000 0.1519 0.9884
vn -0.6989 0.1519 0.6989
vn 0.6518 0.3878 0.6518
vn 0.9218 0.3878 -0.0000
vn 0.9884 0.1519 0.0000
vn 0.6989 0.1519 0.6989
vn -0.9218 0.3878 0.0000
vn -0.9884 0.1519 0.0000
vn -0.6518 0.3878 -0.6518
vn -0.6989 0.1519 -0.6989
vn -0.8865 -0.4627 0.0000
vn -0.6269 -0.4627 0.6269
vn -0.7057 -0.0623 0.7057
vn -0.9981 -0.0623 0.0000
vn 0.6269 -0.4627 -0.6269
vn -0.0000 -0.4627 -0.8865
vn -0.0000 -0.0623 -0.9981
vn 0.7057 -0.0623 -0.7057
vn -0.0000 -0.4627 0.8865
vn -0.0000 -0.0623 0.9981
vn 0.6269 -0.4627 0.6269
vn 0.7057 -0.0623 0.7057
vn 0.8865 -0.4627 0.0000
vn 0.9981 -0.0623 0.0000
vn -0.6269 -0.4627 -0.6269
vn -0.7057 -0.0623 -0.7057
vn 0.0000 -1.0000 0.0000
vn 0.4802 0.8772 -0.0000
vn 0.3395 0.8772 0.3395
vn 0.7070 0.0164 0.7070
vn 0.9999 0.0164 0.0000
vn -0.3395 0.8772 0.3395
vn -0.4802 0.8772 -0.0000
vn -0.9999 0.0164 -0.0000
vn -0.7070 0.0164 0.7070
vn -0.0000 0.8772 0.4802
vn -0.0000 0.0164 0.9999
vn -0.3395 0.8772 -0.3395
vn -0.7070 0.0164 -0.7070
vn 0.3395 0.8772 -0.3395
vn 0.7070 0.0164 -0.7070
vn -0.0000 0.8772 -0.4802
vn 0.0000 0.0164 -0.9999
vn -0.4513 -0.8924 -0.0000
vn -0.3191 -0.8924 0.3191
vn 0.0000 -0.8924 -0.4513
vn 0.3191 -0.8924 -0.3191
vn 0.4513 -0.8924 0.0000
vn 0.3191 -0.8924 0.3191
vn -0.0000 -0.8924 0.4513
vn -0.3191 -0.8924 -0.3191
vn -0.3687 0.8533 -0.3687
vn -0.6173 0.4877 -0.6173
vn -0.0000 0.4877 -0.8730
vn -0.0000 0.8533 -0.5215
vn -0.5215 0.8533 -0.0000
vn -0.8730 0.4877 0.0000
vn -0.3687 0.8533 0.3687
vn -0.6173 0.4877 0.6173
vn -0.0000 0.8533 0.5215
vn -0.0000 0.4877 0.8730
vn 0.3687 0.8533 0.3687
vn 0.6173 0.4877 0.6173
vn 0.5215 0.8533 -0.0000
vn 0.8730 0.4877 -0.0000
vn 0.3687 0.8533 -0.3687
vn 0.6173 0.4877 -0.6173
vn -0.0000 0.9729 -0.2313
vn 0.1636 0.9729 -0.1636
vn 0.2313 0.9729 -0.0000
vn 0.1636 0.9729 0.1636
vn -0.0000 0.9729 0.2313
vn -0.1636 0.9729 0.1636
vn -0.2313 0.9729 -0.0000
vn -0.1636 0.9729 -0.1636
vn -0.5878 -0.5559 -0.5878
vn -0.8313 -0.5559 0.0000
vn -0.7557 -0.6549 0.0000
vn -0.5344 -0.6549 -0.5344
vn -0.0000 -0.5559 0.8313
vn 0.5878 -0.5559 0.5878
vn 0.5344 -0.6549 0.5344
vn -0.0000 -0.6549 0.7558
vn -0.5878 -0.5559 0.5878
vn -0.5344 -0.6549 0.5344
vn 0.8313 -0.5559 0.0000
vn 0.7558 -0.6549 0.0000
vn 0.5878 -0.5559 -0.5878
vn -0.0000 -0.5559 -0.8313
vn -0.0000 -0.6549 -0.7558
vn 0.5344 -0.6549 -0.5344
vn 0.9616 -0.2744 0.0000
vn 0.6800 -0.2744 -0.6800
vn 0.6628 -0.3483 -0.6628
vn 0.9374 -0.3483 0.0000
vn -0.6800 -0.2744 0.6800
vn 0.0000 -0.2744 0.9616
vn -0.0000 -0.3483 0.9374
vn -0.6628 -0.3483 0.6628
vn -0.0000 -0.2744 -0.9616
vn -0.6800 -0.2744 -0.6800
vn -0.6628 -0.3483 -0.6628
vn -0.0000 -0.3483 -0.9374
vn 0.6800 -0.2744 0.6800
vn 0.6628 -0.3483 0.6628
vn -0.9616 -0.2744 0.0000
vn -0.9374 -0.3483 0.0000
vn 0.6767 0.2903 0.6767
vn -0.0000 0.2903 0.9569
vn -0.6767 0.2903 -0.6767
vn -0.0000 0.2903 -0.9569
vn 0.6767 0.2903 -0.6767
vn 0.9569 0.2903 -0.0000
vn -0.9569 0.2903 0.0000
vn -0.6767 0.2903 0.6767
vn -0.6985 -0.1555 0.6985
vn -0.9878 -0.1555 0.0000
vn -0.6985 -0.1555 -0.6985
vn 0.6985 -0.1555 -0.6985
vn 0.9878 -0.1555 0.0000
vn -0.0000 -0.1555 -0.9878
vn 0.6985 -0.1555 0.6985
vn -0.0000 -0.1555 0.9878
vn -0.0000 0.3342 -0.9425
vn 0.6664 0.3342 -0.6664
vn -0.6665 0.3342 0.6664
vn -0.9425 0.3342 0.0000
vn -0.6665 0.3342 -0.6664
vn 0.9425 0.3342 -0.0000
vn 0.6664 0.3342 0.6665
vn -0.0000 0.3342 0.9425
vn 0.4117 0.8130 0.4117
vn 0.5823 0.8130 -0.0000
vn 0.2925 0.9563 -0.0000
vn 0.2068 0.9563 0.2068
vn 0.4638 0.7549 0.4638
vn 0.6558 0.7549 -0.0000
vn -0.4117 0.8130 0.4117
vn -0.5823 0.8130 -0.0000
vn -0.6558 0.7549 -0.0000
vn -0.4638 0.7549 0.4638
vn 0.0000 0.8130 0.5823
vn 0.0000 0.7549 0.6558
vn -0.4117 0.8130 -0.4117
vn -0.4638 0.7549 -0.4638
vn 0.0000 0.8130 -0.5823
vn 0.0000 0.7549 -0.6558
vn 0.4117 0.8130 -0.4117
vn 0.4638 0.7549 -0.4638
vn 0.2068 0.9563 -0.2068
vn -0.0000 0.9563 -0.2925
vn -0.2068 0.9563 -0.2068
vn -0.2925 0.9563 -0.0000
vn -0.2068 0.9563 0.2068
vn -0.0000 0.9563 0.2925
usemtl Solid_-_25%.041
s 1
f 65/1/1 2/2/2 4/3/3 66/4/4
f 66/4/4 4/3/3 6/5/5 67/6/6
f 67/6/6 6/5/5 8/7/7 68/8/8
f 68/8/8 8/7/7 10/9/9 69/10/10
f 69/10/10 10/9/9 12/11/11 70/12/12
f 70/12/12 12/11/11 14/13/13 71/14/14
f 71/14/14 14/13/13 16/15/15 72/16/16
f 72/16/16 16/15/15 2/2/2 65/1/1
f 137/17/17 141/18/18 19/19/19 24/20/20
f 138/21/21 139/22/22 22/23/23 21/24/24
f 139/22/22 140/25/25 18/26/26 22/23/23
f 140/25/25 142/27/27 23/28/28 18/26/26
f 141/18/18 143/29/29 20/30/30 19/19/19
f 142/27/27 137/17/17 24/20/20 23/28/28
f 143/29/29 144/31/31 17/32/32 20/30/30
f 144/31/31 138/21/21 21/24/24 17/32/32
f 123/33/33 127/34/34 30/35/35 25/36/36
f 121/37/37 128/38/38 27/39/39 28/40/40
f 125/41/41 126/42/42 26/43/43 31/44/44
f 122/45/45 121/37/37 28/40/40 32/46/46
f 124/47/47 122/45/45 32/46/46 29/48/48
f 126/42/42 123/33/33 25/36/36 26/43/43
f 127/34/34 124/47/47 29/48/48 30/35/35
f 128/38/38 125/41/41 31/44/44 27/39/39
f 153/49/49 160/50/50 37/51/51 33/52/52
f 155/53/53 157/54/54 35/55/55 40/56/56
f 160/50/50 159/57/57 38/58/58 37/51/51
f 159/57/57 158/59/59 34/60/60 38/58/58
f 158/59/59 156/61/61 39/62/62 34/60/60
f 157/54/54 154/63/63 36/64/64 35/55/55
f 156/61/61 155/53/53 40/56/56 39/62/62
f 154/63/63 153/49/49 33/52/52 36/64/64
f 4/3/65 6/5/65 8/7/65 10/9/65 12/11/65 14/13/65 16/15/65 2/2/65
f 5/65/66 7/66/67 44/67/68 43/68/69
f 11/69/70 13/70/71 47/71/72 46/72/73
f 7/66/67 9/73/74 45/74/75 44/67/68
f 13/70/71 15/75/76 48/76/77 47/71/72
f 3/77/78 5/65/66 43/68/69 42/78/79
f 9/73/74 11/69/70 46/72/73 45/74/75
f 15/75/76 1/79/80 41/80/81 48/76/77
f 1/79/80 3/77/78 42/78/79 41/80/81
f 46/72/73 47/71/72 55/81/82 54/82/83
f 49/83/84 50/84/85 51/85/86 52/86/87 53/87/88 54/82/83 55/81/82 56/88/89
f 44/67/68 45/74/75 53/87/88 52/86/87
f 42/78/79 43/68/69 51/85/86 50/84/85
f 47/71/72 48/76/77 56/88/89 55/81/82
f 45/74/75 46/72/73 54/82/83 53/87/88
f 43/68/69 44/67/68 52/86/87 51/85/86
f 41/80/81 42/78/79 50/84/85 49/83/84
f 48/76/77 41/80/81 49/83/84 56/88/89
f 79/89/90 64/90/91 57/91/92 80/92/93
f 78/93/94 63/94/95 64/90/91 79/89/90
f 77/95/96 62/96/97 63/94/95 78/93/94
f 76/97/98 61/98/99 62/96/97 77/95/96
f 75/99/100 60/100/101 61/98/99 76/97/98
f 74/101/102 59/102/103 60/100/101 75/99/100
f 73/103/104 58/104/105 59/102/103 74/101/102
f 80/92/93 57/91/92 58/104/105 73/103/104
f 64/90/91 72/16/16 65/1/1 57/91/92
f 63/94/95 71/14/14 72/16/16 64/90/91
f 62/96/97 70/12/12 71/14/14 63/94/95
f 61/98/99 69/10/10 70/12/12 62/96/97
f 60/100/101 68/8/8 69/10/10 61/98/99
f 59/102/103 67/6/6 68/8/8 60/100/101
f 58/104/105 66/4/4 67/6/6 59/102/103
f 57/91/92 65/1/1 66/4/4 58/104/105
f 88/105/106 80/92/93 73/103/104 81/106/107
f 81/106/107 73/103/104 74/101/102 82/107/108
f 82/107/108 74/101/102 75/99/100 83/108/109
f 83/108/109 75/99/100 76/97/98 84/109/110
f 84/109/110 76/97/98 77/95/96 85/110/111
f 85/110/111 77/95/96 78/93/94 86/111/112
f 86/111/112 78/93/94 79/89/90 87/112/113
f 87/112/113 79/89/90 80/92/93 88/105/106
f 15/75/76 87/112/113 88/105/106 1/79/80
f 13/70/71 86/111/112 87/112/113 15/75/76
f 11/69/70 85/110/111 86/111/112 13/70/71
f 9/73/74 84/109/110 85/110/111 11/69/70
f 7/66/67 83/108/109 84/109/110 9/73/74
f 5/65/66 82/107/108 83/108/109 7/66/67
f 3/77/78 81/106/107 82/107/108 5/65/66
f 1/79/80 88/105/106 81/106/107 3/77/78
f 107/113/114 112/114/115 96/115/116 93/116/117
f 106/117/118 111/118/119 95/119/120 91/120/121
f 112/114/115 109/121/122 92/122/123 96/115/116
f 111/118/119 108/123/124 90/124/125 95/119/120
f 105/125/126 110/126/127 94/127/128 89/128/129
f 110/126/127 107/113/114 93/116/117 94/127/128
f 109/121/122 106/117/118 91/120/121 92/122/123
f 108/123/124 105/125/126 89/128/129 90/124/125
f 6/5/130 4/3/131 102/129/132 97/130/133
f 12/11/134 10/9/135 103/131/136 98/132/137
f 2/2/138 16/15/139 104/133/140 99/134/141
f 4/3/131 2/2/138 99/134/141 102/129/132
f 8/7/142 6/5/130 97/130/133 100/135/143
f 14/13/144 12/11/134 98/132/137 101/136/145
f 10/9/135 8/7/142 100/135/143 103/131/136
f 16/15/139 14/13/144 101/136/145 104/133/140
f 97/130/133 102/129/132 105/125/126 108/123/124
f 98/132/137 103/131/136 106/117/118 109/121/122
f 99/134/141 104/133/140 107/113/114 110/126/127
f 102/129/132 99/134/141 110/126/127 105/125/126
f 100/135/143 97/130/133 108/123/124 111/118/119
f 101/136/145 98/132/137 109/121/122 112/114/115
f 103/131/136 100/135/143 111/118/119 106/117/118
f 104/133/140 101/136/145 112/114/115 107/113/114
f 93/116/117 96/115/116 153/49/49 154/63/63
f 90/124/125 89/128/129 155/53/53 156/61/61
f 94/127/128 93/116/117 154/63/63 157/54/54
f 95/119/120 90/124/125 156/61/61 158/59/59
f 91/120/121 95/119/120 158/59/59 159/57/57
f 92/122/123 91/120/121 159/57/57 160/50/50
f 89/128/129 94/127/128 157/54/54 155/53/53
f 96/115/116 92/122/123 160/50/50 153/49/49
f 38/58/58 34/60/60 119/137/146 120/138/147
f 35/55/55 36/64/64 117/139/148 118/140/149
f 39/62/62 40/56/56 115/141/150 116/142/151
f 36/64/64 33/52/52 114/143/152 117/139/148
f 33/52/52 37/51/51 113/144/153 114/143/152
f 34/60/60 39/62/62 116/142/151 119/137/146
f 37/51/51 38/58/58 120/138/147 113/144/153
f 40/56/56 35/55/55 118/140/149 115/141/150
f 120/138/147 119/137/146 125/41/41 128/38/38
f 118/140/149 117/139/148 124/47/47 127/34/34
f 116/142/151 115/141/150 123/33/33 126/42/42
f 117/139/148 114/143/152 122/45/45 124/47/47
f 114/143/152 113/144/153 121/37/37 122/45/45
f 119/137/146 116/142/151 126/42/42 125/41/41
f 113/144/153 120/138/147 128/38/38 121/37/37
f 115/141/150 118/140/149 127/34/34 123/33/33
f 32/46/46 28/40/40 135/145/154 136/146/155
f 29/48/48 32/46/46 136/146/155 134/147/156
f 26/43/43 25/36/36 132/148/157 133/149/158
f 30/35/35 29/48/48 134/147/156 131/150/159
f 31/44/44 26/43/43 133/149/158 130/151/160
f 27/39/39 31/44/44 130/151/160 129/152/161
f 28/40/40 27/39/39 129/152/161 135/145/154
f 25/36/36 30/35/35 131/150/159 132/148/157
f 136/146/155 135/145/154 138/21/21 144/31/31
f 134/147/156 136/146/155 144/31/31 143/29/29
f 133/149/158 132/148/157 137/17/17 142/27/27
f 131/150/159 134/147/156 143/29/29 141/18/18
f 130/151/160 133/149/158 142/27/27 140/25/25
f 129/152/161 130/151/160 140/25/25 139/22/22
f 135/145/154 129/152/161 139/22/22 138/21/21
f 132/148/157 131/150/159 141/18/18 137/17/17
f 24/20/20 19/19/19 149/153/162 151/154/163
f 17/32/32 21/24/24 145/155/164 152/156/165
f 20/30/30 17/32/32 152/156/165 150/157/166
f 23/28/28 24/20/20 151/154/163 148/158/167
f 19/19/19 20/30/30 150/157/166 149/153/162
f 18/26/26 23/28/28 148/158/167 147/159/168
f 22/23/23 18/26/26 147/159/168 146/160/169
f 21/24/24 22/23/23 146/160/169 145/155/164
f 168/161/170 167/162/171 177/163/172 178/164/173
f 167/162/171 168/161/170 170/165/174 169/166/175
f 165/167/176 166/168/177 172/169/178 171/170/179
f 168/161/170 164/171/180 173/172/181 170/165/174
f 166/168/177 163/173/182 174/174/183 172/169/178
f 163/173/182 162/175/184 175/176/185 174/174/183
f 162/175/184 161/177/186 176/178/187 175/176/185
f 164/171/180 165/167/176 171/170/179 173/172/181
f 161/177/186 167/162/171 169/166/175 176/178/187
f 177/163/172 184/179/188 183/180/189 182/181/190 180/182/191 179/183/192 181/184/193 178/164/173
f 167/162/171 161/177/186 184/179/188 177/163/172
f 161/177/186 162/175/184 183/180/189 184/179/188
f 163/173/182 166/168/177 180/182/191 182/181/190
f 166/168/177 165/167/176 179/183/192 180/182/191
f 165/167/176 164/171/180 181/184/193 179/183/192
f 162/175/184 163/173/182 182/181/190 183/180/189
f 164/171/180 168/161/170 178/164/173 181/184/193
