# Blender v2.93.1 OBJ File: ''
# www.blender.org
mtllib sercups_cognac_balloon.mtl
o sercups_cognac_balloon_Cylinder.105
v 0.000000 -0.809218 -0.516204
v 0.000000 -0.244131 -0.215005
v 0.365011 -0.809218 -0.365011
v 0.152031 -0.244131 -0.152031
v 0.516204 -0.809218 0.000000
v 0.215005 -0.244131 0.000000
v 0.365011 -0.809218 0.365011
v 0.152031 -0.244131 0.152031
v -0.000000 -0.809218 0.516204
v -0.000000 -0.244131 0.215005
v -0.365011 -0.809218 0.365012
v -0.152031 -0.244131 0.152031
v -0.516204 -0.809218 0.000000
v -0.215005 -0.244131 0.000000
v -0.365011 -0.809218 -0.365011
v -0.152031 -0.244131 -0.152031
v -1.075566 1.238837 -0.000000
v 0.760537 1.238837 0.760538
v -0.000002 1.238837 -1.075564
v -0.760540 1.238837 -0.760538
v -0.760540 1.238837 0.760538
v -0.000002 1.238837 1.075563
v 1.075562 1.238837 -0.000000
v 0.760537 1.238837 -0.760539
v 0.000000 -0.854241 -0.716552
v 0.506679 -0.854241 -0.506679
v 0.716553 -0.854241 0.000000
v 0.506679 -0.854241 0.506679
v -0.000000 -0.854241 0.716553
v -0.506679 -0.854241 0.506679
v -0.716553 -0.854241 0.000000
v -0.506679 -0.854241 -0.506679
v 0.000000 -0.886730 -0.576447
v 0.407610 -0.886730 -0.407609
v 0.576447 -0.886730 0.000000
v 0.407610 -0.886730 0.407610
v -0.000000 -0.886730 0.576447
v -0.407610 -0.886730 0.407610
v -0.576447 -0.886730 0.000000
v -0.407610 -0.886730 -0.407609
v 0.000000 -0.591357 -0.177828
v 0.125744 -0.591357 -0.125743
v 0.177828 -0.591357 0.000000
v 0.125744 -0.591357 0.125744
v -0.000000 -0.591357 0.177828
v -0.125744 -0.591357 0.125744
v -0.177828 -0.591357 0.000000
v -0.125744 -0.591357 -0.125743
v 0.000000 -0.435261 -0.142273
v 0.100603 -0.435261 -0.100602
v 0.142273 -0.435261 0.000000
v 0.100603 -0.435261 0.100603
v -0.000000 -0.435261 0.142274
v -0.100603 -0.435261 0.100603
v -0.142273 -0.435261 0.000000
v -0.100603 -0.435261 -0.100602
v 0.200533 -0.706503 -0.200533
v 0.283597 -0.706503 0.000000
v 0.200533 -0.706503 0.200534
v -0.000000 -0.706503 0.283597
v -0.200533 -0.706503 0.200534
v -0.283597 -0.706503 0.000000
v -0.200533 -0.706503 -0.200533
v 0.000000 -0.706503 -0.283597
v 0.265806 -0.773683 -0.265806
v 0.375906 -0.773683 0.000000
v 0.265806 -0.773683 0.265806
v -0.000000 -0.773683 0.375906
v -0.265806 -0.773683 0.265806
v -0.375906 -0.773683 0.000000
v -0.265806 -0.773683 -0.265806
v 0.000000 -0.773683 -0.375906
v 0.658884 0.365237 -0.658886
v 0.931803 0.365237 -0.000000
v -0.000002 0.365237 0.931805
v -0.658887 0.365237 0.658886
v -0.658888 0.365237 -0.658885
v -0.000002 0.365237 -0.931805
v 0.658884 0.365237 0.658886
v -0.931807 0.365237 -0.000000
v 0.276036 -0.178972 0.000000
v -0.195188 -0.178972 0.195188
v -0.000000 -0.178972 -0.276037
v 0.195187 -0.178972 0.195188
v -0.276037 -0.178972 0.000000
v 0.195187 -0.178973 -0.195188
v -0.000000 -0.178972 0.276037
v -0.195188 -0.178973 -0.195187
v 0.307621 -0.060410 -0.307622
v -0.000001 -0.060410 0.435043
v -0.307623 -0.060410 -0.307622
v 0.435042 -0.060410 0.000000
v -0.307622 -0.060410 0.307622
v -0.000001 -0.060410 -0.435043
v 0.307621 -0.060410 0.307622
v -0.435044 -0.060410 0.000000
v -0.566221 1.751056 0.566220
v -0.800757 1.751056 -0.000000
v 0.566219 1.751055 -0.566220
v 0.800754 1.751056 -0.000000
v -0.566221 1.751055 -0.566220
v -0.000001 1.751056 -0.800756
v 0.566219 1.751056 0.566220
v -0.000002 1.751056 0.800756
v -0.431794 1.914657 0.431793
v -0.610649 1.914657 -0.000000
v 0.431792 1.914656 -0.431793
v -0.431794 1.914656 -0.431793
v 0.431792 1.914657 0.431793
v 0.610646 1.914657 -0.000000
v -0.000001 1.914657 -0.610648
v -0.000001 1.914657 0.610647
v -0.904185 0.360346 -0.000000
v 0.639353 0.360347 0.639355
v -0.000002 0.360346 -0.904184
v -0.639356 0.360346 -0.639354
v -0.639356 0.360347 0.639355
v -0.000002 0.360346 0.904184
v 0.904182 0.360346 -0.000000
v 0.639353 0.360346 -0.639355
v -1.106518 0.802037 -0.000000
v -0.782427 0.802036 -0.782424
v 0.782423 0.802036 -0.782425
v 1.106514 0.802037 -0.000000
v -0.000002 0.802037 -1.106516
v 0.782423 0.802037 0.782425
v -0.000002 0.802037 1.106516
v -0.782426 0.802037 0.782425
v 0.421970 0.214041 -0.421972
v 0.596757 0.214041 -0.000000
v -0.000002 0.214041 0.596758
v -0.421973 0.214041 0.421972
v -0.421974 0.214041 -0.421972
v -0.000002 0.214041 -0.596758
v 0.421970 0.214041 0.421972
v -0.596760 0.214041 -0.000000
v 0.182043 0.040147 -0.182044
v 0.257448 0.040148 0.000000
v -0.000001 0.040148 0.257449
v -0.182045 0.040148 0.182044
v -0.182045 0.040147 -0.182044
v -0.000001 0.040148 -0.257449
v 0.182043 0.040148 0.182044
v -0.257450 0.040148 -0.000000
vt 0.029445 0.504401
vt 0.029445 0.504401
vt 0.029445 0.504401
vt 0.029445 0.504401
vt 0.029445 0.504401
vt 0.029445 0.504401
vt 0.029445 0.504401
vt 0.029445 0.504401
vt 0.029445 0.504401
vt 0.029445 0.504401
vt 0.029445 0.504401
vt 0.029445 0.504401
vt 0.029445 0.504401
vt 0.029445 0.504401
vt 0.029445 0.504401
vt 0.029445 0.504401
vt 0.029445 0.504401
vt 0.029445 0.504401
vt 0.029445 0.504401
vt 0.029445 0.504401
vt 0.029445 0.504401
vt 0.029445 0.504401
vt 0.029445 0.504401
vt 0.029445 0.504401
vt 0.029445 0.504401
vt 0.029445 0.504401
vt 0.029445 0.504401
vt 0.029445 0.504401
vt 0.029445 0.504401
vt 0.029445 0.504401
vt 0.029445 0.504401
vt 0.029445 0.504401
vt 0.029445 0.504401
vt 0.029445 0.504401
vt 0.029445 0.504401
vt 0.029445 0.504401
vt 0.029445 0.504401
vt 0.029445 0.504401
vt 0.029445 0.504401
vt 0.029445 0.504401
vt 0.029445 0.504401
vt 0.029445 0.504401
vt 0.029445 0.504401
vt 0.029445 0.504401
vt 0.029445 0.504401
vt 0.029445 0.504401
vt 0.029445 0.504401
vt 0.029445 0.504401
vt 0.029445 0.504401
vt 0.029445 0.504401
vt 0.029445 0.504401
vt 0.029445 0.504401
vt 0.029445 0.504401
vt 0.029445 0.504401
vt 0.029445 0.504401
vt 0.029445 0.504401
vt 0.029445 0.504401
vt 0.029445 0.504401
vt 0.029445 0.504401
vt 0.029445 0.504401
vt 0.029445 0.504401
vt 0.029445 0.504401
vt 0.029445 0.504401
vt 0.029445 0.504401
vt 0.029445 0.504401
vt 0.029445 0.504401
vt 0.029445 0.504401
vt 0.029445 0.504401
vt 0.029445 0.504401
vt 0.029445 0.504401
vt 0.029445 0.504401
vt 0.029445 0.504401
vt 0.029445 0.504401
vt 0.029445 0.504401
vt 0.029445 0.504401
vt 0.029445 0.504401
vt 0.029445 0.504401
vt 0.029445 0.504401
vt 0.029445 0.504401
vt 0.029445 0.504401
vt 0.029445 0.504401
vt 0.029445 0.504401
vt 0.029445 0.504401
vt 0.029445 0.504401
vt 0.029445 0.504401
vt 0.029445 0.504401
vt 0.029445 0.504401
vt 0.029445 0.504401
vt 0.029445 0.504401
vt 0.029445 0.504401
vt 0.029445 0.504401
vt 0.029445 0.504401
vt 0.029445 0.504401
vt 0.029445 0.504401
vt 0.029445 0.504401
vt 0.029445 0.504401
vt 0.029445 0.504401
vt 0.029445 0.504401
vt 0.029445 0.504401
vt 0.029445 0.504401
vt 0.029445 0.504401
vt 0.029445 0.504401
vt 0.029445 0.504401
vt 0.029445 0.504401
vt 0.029445 0.504401
vt 0.029445 0.504401
vt 0.029445 0.504401
vt 0.029445 0.504401
vt 0.029445 0.504401
vt 0.029445 0.504401
vt 0.029445 0.504401
vt 0.029445 0.504401
vt 0.029445 0.504401
vt 0.029445 0.504401
vt 0.029445 0.504401
vt 0.029445 0.504401
vt 0.029445 0.504401
vt 0.029445 0.504401
vt 0.029445 0.504401
vt 0.029445 0.504401
vt 0.029445 0.504401
vt 0.029445 0.504401
vt 0.029445 0.504401
vt 0.029445 0.504401
vt 0.029445 0.504401
vt 0.029445 0.504401
vt 0.029445 0.504401
vt 0.029445 0.504401
vt 0.029445 0.504401
vt 0.029445 0.504401
vt 0.029445 0.504401
vt 0.029445 0.504401
vt 0.029445 0.504401
vt 0.029445 0.504401
vt 0.029445 0.504401
vt 0.029445 0.504401
vt 0.029445 0.504401
vt 0.029445 0.504401
vt 0.029445 0.504401
vt 0.029445 0.504401
vt 0.029445 0.504401
vt 0.029445 0.504401
vt 0.029445 0.504401
vt 0.029445 0.504401
vn -0.0000 -0.0753 -0.9972
vn 0.0000 -0.5521 -0.8338
vn 0.5896 -0.5521 -0.5896
vn 0.7051 -0.0753 -0.7051
vn 0.8338 -0.5521 0.0000
vn 0.9972 -0.0753 0.0000
vn 0.5896 -0.5521 0.5896
vn 0.7051 -0.0753 0.7051
vn 0.0000 -0.5521 0.8338
vn -0.0000 -0.0753 0.9972
vn -0.5896 -0.5521 0.5896
vn -0.7051 -0.0752 0.7051
vn -0.8338 -0.5521 0.0000
vn -0.9972 -0.0753 0.0000
vn -0.5896 -0.5521 -0.5896
vn -0.7051 -0.0753 -0.7051
vn -0.9892 -0.1465 0.0000
vn -0.6995 -0.1465 0.6995
vn -0.6818 0.2651 0.6818
vn -0.9642 0.2651 0.0000
vn 0.6995 -0.1465 -0.6995
vn -0.0000 -0.1465 -0.9892
vn -0.0000 0.2651 -0.9642
vn 0.6818 0.2651 -0.6818
vn -0.0000 -0.1465 0.9892
vn -0.0000 0.2651 0.9642
vn 0.6995 -0.1465 0.6995
vn 0.6818 0.2651 0.6818
vn 0.9892 -0.1465 0.0000
vn 0.9642 0.2651 -0.0000
vn -0.6995 -0.1465 -0.6995
vn -0.6818 0.2651 -0.6818
vn -0.0000 -0.8980 -0.4400
vn 0.3111 -0.8980 -0.3111
vn 0.2038 -0.9575 -0.2038
vn 0.0000 -0.9575 -0.2883
vn 0.2292 0.9734 -0.0000
vn 0.1621 0.9734 0.1621
vn 0.7071 0.0028 0.7071
vn 1.0000 0.0028 0.0000
vn -0.1621 0.9734 0.1621
vn -0.2292 0.9734 -0.0000
vn -1.0000 0.0028 0.0000
vn -0.7071 0.0028 0.7071
vn -0.0000 0.9734 0.2292
vn -0.0000 0.0028 1.0000
vn -0.1621 0.9734 -0.1621
vn -0.7071 0.0028 -0.7071
vn 0.1621 0.9734 -0.1621
vn 0.7071 0.0028 -0.7071
vn -0.0000 0.9734 -0.2292
vn 0.0000 0.0028 -1.0000
vn -0.1415 -0.9899 0.0000
vn -0.1001 -0.9899 0.1001
vn 0.0000 -0.9899 -0.1415
vn 0.1001 -0.9899 -0.1001
vn 0.1415 -0.9899 0.0000
vn 0.1001 -0.9899 0.1001
vn 0.0000 -0.9899 0.1415
vn -0.1001 -0.9899 -0.1001
vn -0.4608 0.7585 -0.4608
vn -0.6153 0.4928 -0.6153
vn -0.0000 0.4928 -0.8702
vn 0.0000 0.7585 -0.6516
vn -0.6516 0.7585 -0.0000
vn -0.8702 0.4928 0.0000
vn -0.4608 0.7585 0.4608
vn -0.6153 0.4928 0.6153
vn -0.0000 0.7585 0.6516
vn -0.0000 0.4928 0.8702
vn 0.4608 0.7585 0.4608
vn 0.6153 0.4928 0.6153
vn 0.6516 0.7585 -0.0000
vn 0.8702 0.4928 -0.0000
vn 0.4608 0.7585 -0.4608
vn 0.6153 0.4928 -0.6153
vn 0.0000 0.9231 -0.3845
vn 0.2719 0.9231 -0.2719
vn 0.3845 0.9231 -0.0000
vn 0.2719 0.9231 0.2719
vn -0.0000 0.9231 0.3845
vn -0.2719 0.9231 0.2719
vn -0.3845 0.9231 -0.0000
vn -0.2719 0.9231 -0.2719
vn -0.4452 -0.7769 -0.4452
vn -0.6296 -0.7769 0.0000
vn -0.8312 -0.5560 0.0000
vn -0.5877 -0.5560 -0.5877
vn -0.0000 -0.7769 0.6296
vn 0.4452 -0.7769 0.4452
vn 0.5877 -0.5560 0.5877
vn -0.0000 -0.5560 0.8312
vn -0.4452 -0.7769 0.4452
vn -0.5877 -0.5560 0.5877
vn 0.6296 -0.7769 0.0000
vn 0.8312 -0.5560 0.0000
vn 0.4452 -0.7769 -0.4452
vn -0.0000 -0.7769 -0.6296
vn -0.0000 -0.5560 -0.8312
vn 0.5877 -0.5560 -0.5877
vn 0.4624 -0.7566 -0.4624
vn 0.6539 -0.7566 0.0000
vn -0.0000 -0.7566 0.6539
vn -0.4624 -0.7566 0.4624
vn -0.4624 -0.7566 -0.4624
vn -0.0000 -0.7566 -0.6539
vn 0.4624 -0.7566 0.4624
vn -0.6539 -0.7566 0.0000
vn 0.5631 0.6048 0.5631
vn -0.0000 0.6048 0.7963
vn -0.5631 0.6048 -0.5631
vn -0.0000 0.6048 -0.7963
vn 0.5631 0.6048 -0.5631
vn 0.7963 0.6048 -0.0000
vn -0.7963 0.6048 -0.0000
vn -0.5631 0.6048 0.5631
vn 0.4612 0.7580 0.4612
vn 0.0000 0.7580 0.6523
vn -0.4612 0.7580 -0.4612
vn 0.0000 0.7580 -0.6523
vn 0.4612 0.7580 -0.4612
vn 0.6523 0.7580 -0.0000
vn -0.6523 0.7580 -0.0000
vn -0.4612 0.7580 0.4612
vn 0.4400 -0.8980 0.0000
vn 0.3039 -0.9030 -0.3039
vn 0.4297 -0.9030 0.0000
vn -0.3111 -0.8980 0.3111
vn -0.0000 -0.8980 0.4400
vn -0.0000 -0.9030 0.4297
vn -0.3039 -0.9030 0.3039
vn -0.3111 -0.8980 -0.3111
vn -0.3039 -0.9030 -0.3039
vn -0.0000 -0.9030 -0.4297
vn 0.3111 -0.8980 0.3111
vn 0.3039 -0.9030 0.3039
vn -0.4400 -0.8980 0.0000
vn -0.4297 -0.9030 0.0000
vn 0.2883 -0.9575 0.0000
vn 0.2038 -0.9575 0.2038
vn 0.0000 -0.9575 0.2883
vn -0.2038 -0.9575 0.2038
vn -0.2883 -0.9575 0.0000
vn -0.2038 -0.9575 -0.2038
usemtl Solid_-_25%.037
s 1
f 49/1/1 2/2/2 4/3/3 50/4/4
f 50/4/4 4/3/3 6/5/5 51/6/6
f 51/6/6 6/5/5 8/7/7 52/8/8
f 52/8/8 8/7/7 10/9/9 53/10/10
f 53/10/10 10/9/9 12/11/11 54/12/12
f 54/12/12 12/11/11 14/13/13 55/14/14
f 55/14/14 14/13/13 16/15/15 56/16/16
f 56/16/16 16/15/15 2/2/2 49/1/1
f 121/17/17 128/18/18 21/19/19 17/20/20
f 123/21/21 125/22/22 19/23/23 24/24/24
f 128/18/18 127/25/25 22/26/26 21/19/19
f 127/25/25 126/27/27 18/28/28 22/26/26
f 126/27/27 124/29/29 23/30/30 18/28/28
f 125/22/22 122/31/31 20/32/32 19/23/23
f 124/29/29 123/21/21 24/24/24 23/30/30
f 122/31/31 121/17/17 17/20/20 20/32/32
f 134/33/33 129/34/34 137/35/35 142/36/36
f 5/37/37 7/38/38 28/39/39 27/40/40
f 11/41/41 13/42/42 31/43/43 30/44/44
f 7/38/38 9/45/45 29/46/46 28/39/39
f 13/42/42 15/47/47 32/48/48 31/43/43
f 3/49/49 5/37/37 27/40/40 26/50/50
f 9/45/45 11/41/41 30/44/44 29/46/46
f 15/47/47 1/51/51 25/52/52 32/48/48
f 1/51/51 3/49/49 26/50/50 25/52/52
f 30/44/44 31/43/43 39/53/53 38/54/54
f 33/55/55 34/56/56 35/57/57 36/58/58 37/59/59 38/54/54 39/53/53 40/60/60
f 28/39/39 29/46/46 37/59/59 36/58/58
f 26/50/50 27/40/40 35/57/57 34/56/56
f 31/43/43 32/48/48 40/60/60 39/53/53
f 29/46/46 30/44/44 38/54/54 37/59/59
f 27/40/40 28/39/39 36/58/58 35/57/57
f 25/52/52 26/50/50 34/56/56 33/55/55
f 32/48/48 25/52/52 33/55/55 40/60/60
f 63/61/61 48/62/62 41/63/63 64/64/64
f 62/65/65 47/66/66 48/62/62 63/61/61
f 61/67/67 46/68/68 47/66/66 62/65/65
f 60/69/69 45/70/70 46/68/68 61/67/67
f 59/71/71 44/72/72 45/70/70 60/69/69
f 58/73/73 43/74/74 44/72/72 59/71/71
f 57/75/75 42/76/76 43/74/74 58/73/73
f 64/64/64 41/63/63 42/76/76 57/75/75
f 48/62/62 56/16/16 49/1/1 41/63/63
f 47/66/66 55/14/14 56/16/16 48/62/62
f 46/68/68 54/12/12 55/14/14 47/66/66
f 45/70/70 53/10/10 54/12/12 46/68/68
f 44/72/72 52/8/8 53/10/10 45/70/70
f 43/74/74 51/6/6 52/8/8 44/72/72
f 42/76/76 50/4/4 51/6/6 43/74/74
f 41/63/63 49/1/1 50/4/4 42/76/76
f 72/77/77 64/64/64 57/75/75 65/78/78
f 65/78/78 57/75/75 58/73/73 66/79/79
f 66/79/79 58/73/73 59/71/71 67/80/80
f 67/80/80 59/71/71 60/69/69 68/81/81
f 68/81/81 60/69/69 61/67/67 69/82/82
f 69/82/82 61/67/67 62/65/65 70/83/83
f 70/83/83 62/65/65 63/61/61 71/84/84
f 71/84/84 63/61/61 64/64/64 72/77/77
f 15/47/47 71/84/84 72/77/77 1/51/51
f 13/42/42 70/83/83 71/84/84 15/47/47
f 11/41/41 69/82/82 70/83/83 13/42/42
f 9/45/45 68/81/81 69/82/82 11/41/41
f 7/38/38 67/80/80 68/81/81 9/45/45
f 5/37/37 66/79/79 67/80/80 7/38/38
f 3/49/49 65/78/78 66/79/79 5/37/37
f 1/51/51 72/77/77 65/78/78 3/49/49
f 91/85/85 96/86/86 80/87/87 77/88/88
f 90/89/89 95/90/90 79/91/91 75/92/92
f 96/86/86 93/93/93 76/94/94 80/87/87
f 95/90/90 92/95/95 74/96/96 79/91/91
f 89/97/97 94/98/98 78/99/99 73/100/100
f 94/98/98 91/85/85 77/88/88 78/99/99
f 93/93/93 90/89/89 75/92/92 76/94/94
f 92/95/95 89/97/97 73/100/100 74/96/96
f 6/5/5 4/3/3 86/101/101 81/102/102
f 12/11/11 10/9/9 87/103/103 82/104/104
f 2/2/2 16/15/15 88/105/105 83/106/106
f 4/3/3 2/2/2 83/106/106 86/101/101
f 8/7/7 6/5/5 81/102/102 84/107/107
f 14/13/13 12/11/11 82/104/104 85/108/108
f 10/9/9 8/7/7 84/107/107 87/103/103
f 16/15/15 14/13/13 85/108/108 88/105/105
f 81/102/102 86/101/101 89/97/97 92/95/95
f 82/104/104 87/103/103 90/89/89 93/93/93
f 83/106/106 88/105/105 91/85/85 94/98/98
f 86/101/101 83/106/106 94/98/98 89/97/97
f 84/107/107 81/102/102 92/95/95 95/90/90
f 85/108/108 82/104/104 93/93/93 96/86/86
f 87/103/103 84/107/107 95/90/90 90/89/89
f 88/105/105 85/108/108 96/86/86 91/85/85
f 77/88/88 80/87/87 121/17/17 122/31/31
f 74/96/96 73/100/100 123/21/21 124/29/29
f 78/99/99 77/88/88 122/31/31 125/22/22
f 79/91/91 74/96/96 124/29/29 126/27/27
f 75/92/92 79/91/91 126/27/27 127/25/25
f 76/94/94 75/92/92 127/25/25 128/18/18
f 73/100/100 78/99/99 125/22/22 123/21/21
f 80/87/87 76/94/94 128/18/18 121/17/17
f 22/26/26 18/28/28 103/109/109 104/110/110
f 19/23/23 20/32/32 101/111/111 102/112/112
f 23/30/30 24/24/24 99/113/113 100/114/114
f 20/32/32 17/20/20 98/115/115 101/111/111
f 17/20/20 21/19/19 97/116/116 98/115/115
f 18/28/28 23/30/30 100/114/114 103/109/109
f 21/19/19 22/26/26 104/110/110 97/116/116
f 24/24/24 19/23/23 102/112/112 99/113/113
f 104/110/110 103/109/109 109/117/117 112/118/118
f 102/112/112 101/111/111 108/119/119 111/120/120
f 100/114/114 99/113/113 107/121/121 110/122/122
f 101/111/111 98/115/115 106/123/123 108/119/119
f 98/115/115 97/116/116 105/124/124 106/123/123
f 103/109/109 100/114/114 110/122/122 109/117/117
f 97/116/116 104/110/110 112/118/118 105/124/124
f 99/113/113 102/112/112 111/120/120 107/121/121
f 130/125/125 129/34/34 120/126/126 119/127/127
f 132/128/128 131/129/129 118/130/130 117/131/131
f 134/33/33 133/132/132 116/133/133 115/134/134
f 129/34/34 134/33/33 115/134/134 120/126/126
f 135/135/135 130/125/125 119/127/127 114/136/136
f 136/137/137 132/128/128 117/131/131 113/138/138
f 131/129/129 135/135/135 114/136/136 118/130/130
f 133/132/132 136/137/137 113/138/138 116/133/133
f 137/35/35 138/139/139 143/140/140 139/141/141 140/142/142 144/143/143 141/144/144 142/36/36
f 131/129/129 132/128/128 140/142/142 139/141/141
f 135/135/135 131/129/129 139/141/141 143/140/140
f 130/125/125 135/135/135 143/140/140 138/139/139
f 133/132/132 134/33/33 142/36/36 141/144/144
f 129/34/34 130/125/125 138/139/139 137/35/35
f 136/137/137 133/132/132 141/144/144 144/143/143
f 132/128/128 136/137/137 144/143/143 140/142/142
