# Blender v2.93.1 OBJ File: ''
# www.blender.org
mtllib mbowl_mixing_bowl.mtl
o mbowl_mixing_bowl_Sphere.003
v -0.000000 0.388472 -1.065546
v -0.000000 0.195930 -1.046844
v 0.753453 0.388472 -0.753453
v -0.753453 0.388472 -0.753453
v -0.000000 0.513665 -1.110069
v -0.000000 0.577665 -1.147718
v -0.784936 0.513665 -0.784936
v 0.784936 0.513665 -0.784936
v 0.811558 0.577665 -0.811558
v 1.110069 0.513666 -0.000000
v 1.147718 0.577665 -0.000000
v 1.065546 0.388472 -0.000000
v 0.784936 0.513666 0.784936
v 0.753453 0.388472 0.753453
v 0.811558 0.577665 0.811558
v -0.000000 0.513666 1.110069
v -0.000000 0.577665 1.147717
v -0.000000 0.388472 1.065546
v -0.784937 0.513666 0.784936
v -0.753454 0.388472 0.753453
v -0.811558 0.577665 0.811558
v -1.110069 0.513666 -0.000000
v -1.147718 0.577665 -0.000000
v -1.065546 0.388472 -0.000000
v -1.046844 0.195930 0.000000
v -0.986279 -0.004028 0.000000
v -0.740230 0.195930 0.740230
v -0.740230 0.195930 -0.740230
v -0.697404 -0.004028 -0.697404
v -0.627814 -0.188440 -0.627814
v -0.000000 -0.004028 -0.986279
v -0.000000 -0.188440 -0.887864
v 0.697404 -0.004028 -0.697404
v 0.740230 0.195930 -0.740230
v 0.627814 -0.188440 -0.627814
v 0.986279 -0.004028 0.000000
v 1.046843 0.195930 0.000000
v 0.887864 -0.188440 0.000000
v 0.697404 -0.004028 0.697404
v 0.740230 0.195930 0.740230
v 0.627814 -0.188440 0.627814
v -0.000000 -0.004028 0.986279
v -0.000000 0.195930 1.046844
v -0.000000 -0.188440 0.887864
v -0.697404 -0.004028 0.697404
v -0.627814 -0.188440 0.627814
v -0.533541 -0.350094 0.533541
v -0.887864 -0.188440 0.000000
v -0.754541 -0.350094 0.000000
v -0.590782 -0.473238 0.000000
v -0.533541 -0.350094 -0.533541
v -0.417746 -0.473238 -0.417746
v -0.000000 -0.350094 -0.754540
v -0.000000 -0.473238 -0.590781
v 0.533541 -0.350094 -0.533541
v 0.417746 -0.473238 -0.417746
v 0.754540 -0.350094 0.000000
v 0.590781 -0.473239 0.000000
v 0.533541 -0.350094 0.533541
v 0.417746 -0.473238 0.417746
v -0.000000 -0.350094 0.754541
v -0.000000 -0.473238 0.590782
v -0.000000 -0.554848 0.404843
v -0.417746 -0.473238 0.417746
v -0.286266 -0.554848 0.286266
v -0.145433 -0.598999 0.145433
v -0.404843 -0.554848 0.000000
v -0.205674 -0.598999 0.000000
v -0.286266 -0.554848 -0.286266
v -0.145433 -0.598999 -0.145432
v -0.000000 -0.554848 -0.404843
v 0.286266 -0.554848 -0.286266
v -0.000000 -0.598999 -0.205673
v -0.000000 -0.612207 0.000000
v 0.145432 -0.598999 -0.145432
v 0.205673 -0.598999 0.000000
v 0.404843 -0.554848 0.000000
v 0.145432 -0.598999 0.145433
v 0.286266 -0.554848 0.286266
v -0.000000 -0.598999 0.205673
v -0.811558 0.577665 -0.811558
v -0.000000 0.403844 -0.998790
v -0.000000 0.208990 -0.979598
v 0.706251 0.403844 -0.706251
v -0.706251 0.403844 -0.706251
v -0.000000 0.543137 -1.048230
v -0.000000 0.612207 -1.088561
v -0.741211 0.543137 -0.741211
v 0.741210 0.543137 -0.741211
v 0.769729 0.612207 -0.769729
v 1.048230 0.543137 -0.000000
v 1.088561 0.612207 -0.000000
v 0.998789 0.403845 -0.000000
v 0.741210 0.543137 0.741211
v 0.706251 0.403845 0.706251
v 0.769729 0.612207 0.769729
v -0.000000 0.543137 1.048230
v -0.000000 0.612207 1.088561
v -0.000000 0.403845 0.998789
v -0.741211 0.543137 0.741210
v -0.706251 0.403845 0.706251
v -0.769729 0.612207 0.769729
v -1.048230 0.543137 -0.000000
v -1.088561 0.612207 -0.000000
v -0.998790 0.403845 -0.000000
v -0.979598 0.208990 0.000000
v -0.922762 0.021624 0.000000
v -0.692681 0.208991 0.692680
v -0.692681 0.208990 -0.692680
v -0.652491 0.021624 -0.652491
v -0.587226 -0.151053 -0.587226
v -0.000000 0.021624 -0.922761
v -0.000000 -0.151053 -0.830463
v 0.652491 0.021624 -0.652491
v 0.692680 0.208990 -0.692680
v 0.587226 -0.151053 -0.587226
v 0.922761 0.021624 0.000000
v 0.979598 0.208990 0.000000
v 0.830463 -0.151053 0.000000
v 0.652491 0.021625 0.652491
v 0.692680 0.208991 0.692680
v 0.587226 -0.151053 0.587226
v -0.000000 0.021625 0.922761
v -0.000000 0.208991 0.979598
v -0.000000 -0.151053 0.830463
v -0.652491 0.021625 0.652491
v -0.587226 -0.151053 0.587226
v -0.499395 -0.301507 0.499395
v -0.830463 -0.151053 0.000000
v -0.706251 -0.301507 0.000000
v -0.554898 -0.414886 0.000000
v -0.499395 -0.301507 -0.499395
v -0.392372 -0.414887 -0.392372
v -0.000000 -0.301507 -0.706251
v -0.000000 -0.414887 -0.554898
v 0.499395 -0.301507 -0.499395
v 0.392372 -0.414887 -0.392372
v 0.706251 -0.301507 0.000000
v 0.554898 -0.414887 0.000000
v 0.499395 -0.301507 0.499395
v 0.392372 -0.414887 0.392372
v -0.000000 -0.301507 0.706251
v -0.000000 -0.414887 0.554898
v -0.000000 -0.490189 0.382220
v -0.392372 -0.414887 0.392372
v -0.270271 -0.490189 0.270271
v -0.137783 -0.531356 0.137783
v -0.382221 -0.490189 0.000000
v -0.194854 -0.531356 0.000000
v -0.270271 -0.490189 -0.270270
v -0.137783 -0.531356 -0.137783
v -0.000000 -0.490189 -0.382220
v 0.270270 -0.490189 -0.270270
v -0.000000 -0.531356 -0.194854
v -0.000000 -0.543703 0.000000
v 0.137783 -0.531356 -0.137783
v 0.194854 -0.531356 0.000000
v 0.382220 -0.490189 0.000000
v 0.137783 -0.531356 0.137783
v 0.270270 -0.490189 0.270271
v -0.000000 -0.531356 0.194854
v -0.769729 0.612207 -0.769729
vt 0.020329 0.346003
vt 0.020329 0.346003
vt 0.020329 0.346003
vt 0.020329 0.346003
vt 0.020329 0.346003
vt 0.020329 0.346003
vt 0.020329 0.346003
vt 0.020329 0.346003
vt 0.020329 0.346003
vt 0.020329 0.346003
vt 0.020329 0.346003
vt 0.020329 0.346003
vt 0.020329 0.346003
vt 0.020329 0.346003
vt 0.020329 0.346003
vt 0.020329 0.346003
vt 0.020329 0.346003
vt 0.020329 0.346003
vt 0.020329 0.346003
vt 0.020329 0.346003
vt 0.020329 0.346003
vt 0.020329 0.346003
vt 0.020329 0.346003
vt 0.020329 0.346003
vt 0.020329 0.346003
vt 0.020329 0.346003
vt 0.020329 0.346003
vt 0.020329 0.346003
vt 0.020329 0.346003
vt 0.020329 0.346003
vt 0.020329 0.346003
vt 0.020329 0.346003
vt 0.020329 0.346003
vt 0.020329 0.346003
vt 0.020329 0.346003
vt 0.020329 0.346003
vt 0.020329 0.346003
vt 0.020329 0.346003
vt 0.020329 0.346003
vt 0.020329 0.346003
vt 0.020329 0.346003
vt 0.020329 0.346003
vt 0.020329 0.346003
vt 0.020329 0.346003
vt 0.020329 0.346003
vt 0.020329 0.346003
vt 0.020329 0.346003
vt 0.020329 0.346003
vt 0.020329 0.346003
vt 0.020329 0.346003
vt 0.020329 0.346003
vt 0.020329 0.346003
vt 0.020329 0.346003
vt 0.020329 0.346003
vt 0.020329 0.346003
vt 0.020329 0.346003
vt 0.020329 0.346003
vt 0.020329 0.346003
vt 0.020329 0.346003
vt 0.020329 0.346003
vt 0.020329 0.346003
vt 0.020329 0.346003
vt 0.020329 0.346003
vt 0.020329 0.346003
vt 0.020329 0.346003
vt 0.020329 0.346003
vt 0.020329 0.346003
vt 0.020329 0.346003
vt 0.020329 0.346003
vt 0.020329 0.346003
vt 0.020329 0.346003
vt 0.020329 0.346003
vt 0.020329 0.346003
vt 0.020329 0.346003
vt 0.020329 0.346003
vt 0.020329 0.346003
vt 0.020329 0.346003
vt 0.020329 0.346003
vt 0.020329 0.346003
vt 0.020329 0.346003
vt 0.020329 0.346003
vt 0.020329 0.346003
vt 0.020329 0.346003
vt 0.020329 0.346003
vt 0.020329 0.346003
vt 0.020329 0.346003
vt 0.020329 0.346003
vt 0.020329 0.346003
vt 0.020329 0.346003
vt 0.020329 0.346003
vt 0.020329 0.346003
vt 0.020329 0.346003
vt 0.020329 0.346003
vt 0.020329 0.346003
vt 0.020329 0.346003
vt 0.020329 0.346003
vt 0.020329 0.346003
vt 0.020329 0.346003
vt 0.020329 0.346003
vt 0.020329 0.346003
vt 0.020329 0.346003
vt 0.020329 0.346003
vt 0.020329 0.346003
vt 0.020329 0.346003
vt 0.020329 0.346003
vt 0.020329 0.346003
vt 0.020329 0.346003
vt 0.020329 0.346003
vt 0.020329 0.346003
vt 0.020329 0.346003
vt 0.020329 0.346003
vt 0.020329 0.346003
vt 0.020329 0.346003
vt 0.020329 0.346003
vt 0.020329 0.346003
vt 0.020329 0.346003
vt 0.020329 0.346003
vt 0.020329 0.346003
vt 0.020329 0.346003
vt 0.020329 0.346003
vt 0.020329 0.346003
vt 0.020329 0.346003
vt 0.020329 0.346003
vt 0.020329 0.346003
vt 0.020329 0.346003
vt 0.020329 0.346003
vt 0.020329 0.346003
vt 0.020329 0.346003
vt 0.020329 0.346003
vt 0.020329 0.346003
vt 0.020329 0.346003
vt 0.020329 0.346003
vt 0.020329 0.346003
vt 0.020329 0.346003
vt 0.020329 0.346003
vt 0.020329 0.346003
vt 0.020329 0.346003
vt 0.020329 0.346003
vt 0.020329 0.346003
vt 0.020329 0.346003
vt 0.020329 0.346003
vt 0.020329 0.346003
vt 0.020329 0.346003
vt 0.020329 0.346003
vt 0.020329 0.346003
vt 0.020329 0.346003
vt 0.020329 0.346003
vt 0.020329 0.346003
vt 0.020329 0.346003
vt 0.020329 0.346003
vt 0.020329 0.346003
vt 0.020329 0.346003
vt 0.020329 0.346003
vt 0.020329 0.346003
vt 0.020329 0.346003
vt 0.020329 0.346003
vt 0.020329 0.346003
vt 0.020329 0.346003
vt 0.020329 0.346003
vt 0.020329 0.346003
vt 0.020329 0.346003
vt 0.020329 0.346003
vn -0.6943 -0.1898 -0.6943
vn -0.6891 -0.2241 -0.6891
vn -0.0000 -0.2241 -0.9746
vn -0.0000 -0.1898 -0.9818
vn 0.6891 -0.2241 -0.6891
vn 0.6943 -0.1898 -0.6943
vn 0.0000 -0.4321 -0.9018
vn 0.6377 -0.4321 -0.6377
vn -0.6377 -0.4321 -0.6377
vn -0.6900 0.2184 -0.6900
vn 0.0000 0.2184 -0.9758
vn 0.6900 0.2184 -0.6900
vn 0.9746 -0.2241 0.0000
vn 0.9018 -0.4321 -0.0000
vn 0.9758 0.2184 -0.0000
vn 0.6377 -0.4321 0.6377
vn 0.6900 0.2184 0.6900
vn 0.6891 -0.2241 0.6891
vn -0.0000 -0.2241 0.9746
vn -0.0000 -0.4321 0.9018
vn -0.0000 0.2184 0.9758
vn -0.6377 -0.4321 0.6377
vn -0.6900 0.2184 0.6900
vn -0.6891 -0.2241 0.6891
vn -0.9746 -0.2241 -0.0000
vn -0.9018 -0.4321 -0.0000
vn -0.9758 0.2184 -0.0000
vn -0.9818 -0.1898 0.0000
vn -0.6943 -0.1898 0.6943
vn -0.9274 -0.3740 0.0000
vn -0.6558 -0.3740 -0.6558
vn -0.6558 -0.3740 0.6558
vn -0.0000 -0.3740 -0.9274
vn -0.5927 -0.5453 -0.5927
vn -0.0000 -0.5453 -0.8382
vn -0.8382 -0.5453 0.0000
vn 0.6558 -0.3740 -0.6558
vn 0.5927 -0.5453 -0.5927
vn 0.9818 -0.1898 0.0000
vn 0.9274 -0.3740 0.0000
vn 0.8382 -0.5453 0.0000
vn 0.6943 -0.1898 0.6943
vn 0.6558 -0.3740 0.6558
vn 0.5927 -0.5453 0.5927
vn -0.0000 -0.1898 0.9818
vn -0.0000 -0.3740 0.9274
vn -0.0000 -0.5453 0.8382
vn -0.5927 -0.5453 0.5927
vn -0.4990 -0.7085 0.4990
vn -0.7057 -0.7085 0.0000
vn -0.0000 -0.7085 0.7057
vn -0.4990 -0.7085 -0.4990
vn -0.5256 -0.8508 0.0000
vn -0.3716 -0.8508 -0.3716
vn -0.3716 -0.8508 0.3716
vn -0.0000 -0.7085 -0.7057
vn -0.0000 -0.8508 -0.5256
vn 0.4990 -0.7085 -0.4990
vn 0.3716 -0.8508 -0.3716
vn 0.7057 -0.7085 0.0000
vn 0.5256 -0.8508 0.0000
vn 0.4990 -0.7085 0.4990
vn 0.3716 -0.8508 0.3716
vn -0.0000 -0.8508 0.5256
vn 0.0000 -0.9432 0.3323
vn -0.2350 -0.9432 0.2350
vn 0.2350 -0.9432 0.2350
vn -0.3323 -0.9432 0.0000
vn -0.1127 -0.9872 0.1127
vn -0.1594 -0.9872 0.0000
vn 0.0000 -0.9872 0.1594
vn -0.2350 -0.9432 -0.2350
vn -0.1127 -0.9872 -0.1127
vn -0.0000 -0.9432 -0.3323
vn -0.0000 -0.9872 -0.1594
vn 0.2350 -0.9432 -0.2350
vn 0.1127 -0.9872 -0.1127
vn 0.0000 -1.0000 0.0000
vn 0.3323 -0.9432 0.0000
vn 0.1594 -0.9872 0.0000
vn 0.1127 -0.9872 0.1127
vn 0.6941 0.1907 0.6941
vn 0.0000 0.1907 0.9817
vn 0.0000 0.2244 0.9745
vn 0.6891 0.2244 0.6891
vn -0.6941 0.1907 0.6941
vn -0.6891 0.2244 0.6891
vn -0.6383 0.4302 0.6383
vn 0.0000 0.4302 0.9027
vn 0.6383 0.4302 0.6383
vn -0.0000 0.9969 0.0782
vn 0.0553 0.9969 0.0553
vn -0.0553 0.9969 0.0553
vn -0.9745 0.2244 0.0000
vn -0.9027 0.4302 -0.0000
vn -0.0782 0.9969 -0.0000
vn -0.6383 0.4302 -0.6383
vn -0.0553 0.9969 -0.0553
vn -0.6891 0.2244 -0.6891
vn 0.0000 0.2244 -0.9745
vn 0.0000 0.4302 -0.9027
vn 0.0000 0.9969 -0.0782
vn 0.6383 0.4302 -0.6383
vn 0.0553 0.9969 -0.0553
vn 0.6891 0.2244 -0.6891
vn 0.9745 0.2244 0.0000
vn 0.9027 0.4302 0.0000
vn 0.0782 0.9969 -0.0000
vn 0.9817 0.1907 0.0000
vn 0.6941 0.1907 -0.6941
vn 0.9272 0.3745 -0.0000
vn 0.6557 0.3745 0.6557
vn 0.6557 0.3745 -0.6557
vn 0.0000 0.3745 0.9272
vn 0.5925 0.5458 0.5925
vn 0.0000 0.5458 0.8379
vn 0.8379 0.5458 -0.0000
vn -0.6557 0.3745 0.6557
vn -0.5925 0.5458 0.5925
vn -0.9272 0.3745 -0.0000
vn -0.9817 0.1907 -0.0000
vn -0.8379 0.5458 -0.0000
vn -0.6557 0.3745 -0.6557
vn -0.6941 0.1907 -0.6941
vn -0.5925 0.5458 -0.5925
vn 0.0000 0.3745 -0.9272
vn 0.0000 0.1907 -0.9817
vn 0.0000 0.5458 -0.8379
vn 0.5925 0.5458 -0.5925
vn 0.4985 0.7093 -0.4985
vn 0.7049 0.7093 -0.0000
vn 0.0000 0.7093 -0.7049
vn 0.4985 0.7093 0.4985
vn 0.5238 0.8518 -0.0000
vn 0.3704 0.8518 0.3704
vn 0.3704 0.8518 -0.3704
vn 0.0000 0.7093 0.7049
vn 0.0000 0.8518 0.5238
vn -0.4985 0.7093 0.4985
vn -0.3704 0.8518 0.3704
vn -0.7049 0.7093 -0.0000
vn -0.5238 0.8518 -0.0000
vn -0.4985 0.7093 -0.4985
vn -0.3704 0.8518 -0.3704
vn 0.0000 0.8518 -0.5238
vn 0.0000 0.9439 -0.3302
vn 0.2335 0.9439 -0.2335
vn -0.2335 0.9439 -0.2335
vn 0.3302 0.9439 -0.0000
vn 0.1117 0.9874 -0.1117
vn 0.1579 0.9874 -0.0000
vn -0.0000 0.9874 -0.1579
vn 0.2335 0.9439 0.2335
vn 0.1117 0.9874 0.1117
vn 0.0000 0.9439 0.3302
vn 0.0000 0.9874 0.1579
vn -0.2335 0.9439 0.2335
vn -0.1117 0.9874 0.1117
vn 0.0000 1.0000 -0.0000
vn -0.1579 0.9874 -0.0000
vn -0.3302 0.9439 0.0000
vn -0.1117 0.9874 -0.1117
usemtl Solid.145
s 1
f 28/1/1 4/2/2 1/3/3 2/4/4
f 2/4/4 1/3/3 3/5/5 34/6/6
f 3/5/5 1/3/3 5/7/7 8/8/8
f 1/3/3 4/2/2 7/9/9 5/7/7
f 5/7/7 7/9/9 81/10/10 6/11/11
f 8/8/8 5/7/7 6/11/11 9/12/12
f 12/13/13 3/5/5 8/8/8 10/14/14
f 10/14/14 8/8/8 9/12/12 11/15/15
f 13/16/16 10/14/14 11/15/15 15/17/17
f 14/18/18 12/13/13 10/14/14 13/16/16
f 18/19/19 14/18/18 13/16/16 16/20/20
f 16/20/20 13/16/16 15/17/17 17/21/21
f 19/22/22 16/20/20 17/21/21 21/23/23
f 20/24/24 18/19/19 16/20/20 19/22/22
f 24/25/25 20/24/24 19/22/22 22/26/26
f 22/26/26 19/22/22 21/23/23 23/27/27
f 7/9/9 22/26/26 23/27/27 81/10/10
f 4/2/2 24/25/25 22/26/26 7/9/9
f 25/28/28 24/25/25 4/2/2 28/1/1
f 27/29/29 20/24/24 24/25/25 25/28/28
f 26/30/30 25/28/28 28/1/1 29/31/31
f 45/32/32 27/29/29 25/28/28 26/30/30
f 29/31/31 28/1/1 2/4/4 31/33/33
f 30/34/34 29/31/31 31/33/33 32/35/35
f 48/36/36 26/30/30 29/31/31 30/34/34
f 31/33/33 2/4/4 34/6/6 33/37/37
f 32/35/35 31/33/33 33/37/37 35/38/38
f 33/37/37 34/6/6 37/39/39 36/40/40
f 35/38/38 33/37/37 36/40/40 38/41/41
f 36/40/40 37/39/39 40/42/42 39/43/43
f 38/41/41 36/40/40 39/43/43 41/44/44
f 39/43/43 40/42/42 43/45/45 42/46/46
f 41/44/44 39/43/43 42/46/46 44/47/47
f 42/46/46 43/45/45 27/29/29 45/32/32
f 44/47/47 42/46/46 45/32/32 46/48/48
f 46/48/48 45/32/32 26/30/30 48/36/36
f 47/49/49 46/48/48 48/36/36 49/50/50
f 61/51/51 44/47/47 46/48/48 47/49/49
f 49/50/50 48/36/36 30/34/34 51/52/52
f 50/53/53 49/50/50 51/52/52 52/54/54
f 64/55/55 47/49/49 49/50/50 50/53/53
f 51/52/52 30/34/34 32/35/35 53/56/56
f 52/54/54 51/52/52 53/56/56 54/57/57
f 53/56/56 32/35/35 35/38/38 55/58/58
f 54/57/57 53/56/56 55/58/58 56/59/59
f 55/58/58 35/38/38 38/41/41 57/60/60
f 56/59/59 55/58/58 57/60/60 58/61/61
f 57/60/60 38/41/41 41/44/44 59/62/62
f 58/61/61 57/60/60 59/62/62 60/63/63
f 59/62/62 41/44/44 44/47/47 61/51/51
f 60/63/63 59/62/62 61/51/51 62/64/64
f 62/64/64 61/51/51 47/49/49 64/55/55
f 63/65/65 62/64/64 64/55/55 65/66/66
f 79/67/67 60/63/63 62/64/64 63/65/65
f 65/66/66 64/55/55 50/53/53 67/68/68
f 66/69/69 65/66/66 67/68/68 68/70/70
f 80/71/71 63/65/65 65/66/66 66/69/69
f 67/68/68 50/53/53 52/54/54 69/72/72
f 68/70/70 67/68/68 69/72/72 70/73/73
f 69/72/72 52/54/54 54/57/57 71/74/74
f 70/73/73 69/72/72 71/74/74 73/75/75
f 71/74/74 54/57/57 56/59/59 72/76/76
f 73/75/75 71/74/74 72/76/76 75/77/77
f 74/78/78 70/73/73 73/75/75
f 74/78/78 73/75/75 75/77/77
f 75/77/77 72/76/76 77/79/79 76/80/80
f 74/78/78 75/77/77 76/80/80
f 76/80/80 77/79/79 79/67/67 78/81/81
f 74/78/78 76/80/80 78/81/81
f 78/81/81 79/67/67 63/65/65 80/71/71
f 74/78/78 78/81/81 80/71/71
f 74/78/78 80/71/71 66/69/69
f 77/79/79 58/61/61 60/63/63 79/67/67
f 72/76/76 56/59/59 58/61/61 77/79/79
f 74/78/78 68/70/70 70/73/73
f 74/78/78 66/69/69 68/70/70
f 43/45/45 18/19/19 20/24/24 27/29/29
f 40/42/42 14/18/18 18/19/19 43/45/45
f 37/39/39 12/13/13 14/18/18 40/42/42
f 34/6/6 3/5/5 12/13/13 37/39/39
f 109/82/82 83/83/83 82/84/84 85/85/85
f 83/83/83 115/86/86 84/87/87 82/84/84
f 84/87/87 89/88/88 86/89/89 82/84/84
f 82/84/84 86/89/89 88/90/90 85/85/85
f 86/89/89 87/91/91 162/92/92 88/90/90
f 89/88/88 90/93/93 87/91/91 86/89/89
f 93/94/94 91/95/95 89/88/88 84/87/87
f 91/95/95 92/96/96 90/93/93 89/88/88
f 94/97/97 96/98/98 92/96/96 91/95/95
f 95/99/99 94/97/97 91/95/95 93/94/94
f 99/100/100 97/101/101 94/97/97 95/99/99
f 97/101/101 98/102/102 96/98/98 94/97/97
f 100/103/103 102/104/104 98/102/102 97/101/101
f 101/105/105 100/103/103 97/101/101 99/100/100
f 105/106/106 103/107/107 100/103/103 101/105/105
f 103/107/107 104/108/108 102/104/104 100/103/103
f 88/90/90 162/92/92 104/108/108 103/107/107
f 85/85/85 88/90/90 103/107/107 105/106/106
f 106/109/109 109/82/82 85/85/85 105/106/106
f 108/110/110 106/109/109 105/106/106 101/105/105
f 107/111/111 110/112/112 109/82/82 106/109/109
f 126/113/113 107/111/111 106/109/109 108/110/110
f 110/112/112 112/114/114 83/83/83 109/82/82
f 111/115/115 113/116/116 112/114/114 110/112/112
f 129/117/117 111/115/115 110/112/112 107/111/111
f 112/114/114 114/118/118 115/86/86 83/83/83
f 113/116/116 116/119/119 114/118/118 112/114/114
f 114/118/118 117/120/120 118/121/121 115/86/86
f 116/119/119 119/122/122 117/120/120 114/118/118
f 117/120/120 120/123/123 121/124/124 118/121/121
f 119/122/122 122/125/125 120/123/123 117/120/120
f 120/123/123 123/126/126 124/127/127 121/124/124
f 122/125/125 125/128/128 123/126/126 120/123/123
f 123/126/126 126/113/113 108/110/110 124/127/127
f 125/128/128 127/129/129 126/113/113 123/126/126
f 127/129/129 129/117/117 107/111/111 126/113/113
f 128/130/130 130/131/131 129/117/117 127/129/129
f 142/132/132 128/130/130 127/129/129 125/128/128
f 130/131/131 132/133/133 111/115/115 129/117/117
f 131/134/134 133/135/135 132/133/133 130/131/131
f 145/136/136 131/134/134 130/131/131 128/130/130
f 132/133/133 134/137/137 113/116/116 111/115/115
f 133/135/135 135/138/138 134/137/137 132/133/133
f 134/137/137 136/139/139 116/119/119 113/116/116
f 135/138/138 137/140/140 136/139/139 134/137/137
f 136/139/139 138/141/141 119/122/122 116/119/119
f 137/140/140 139/142/142 138/141/141 136/139/139
f 138/141/141 140/143/143 122/125/125 119/122/122
f 139/142/142 141/144/144 140/143/143 138/141/141
f 140/143/143 142/132/132 125/128/128 122/125/125
f 141/144/144 143/145/145 142/132/132 140/143/143
f 143/145/145 145/136/136 128/130/130 142/132/132
f 144/146/146 146/147/147 145/136/136 143/145/145
f 160/148/148 144/146/146 143/145/145 141/144/144
f 146/147/147 148/149/149 131/134/134 145/136/136
f 147/150/150 149/151/151 148/149/149 146/147/147
f 161/152/152 147/150/150 146/147/147 144/146/146
f 148/149/149 150/153/153 133/135/135 131/134/134
f 149/151/151 151/154/154 150/153/153 148/149/149
f 150/153/153 152/155/155 135/138/138 133/135/135
f 151/154/154 154/156/156 152/155/155 150/153/153
f 152/155/155 153/157/157 137/140/140 135/138/138
f 154/156/156 156/158/158 153/157/157 152/155/155
f 155/159/159 154/156/156 151/154/154
f 155/159/159 156/158/158 154/156/156
f 156/158/158 157/160/160 158/161/161 153/157/157
f 155/159/159 157/160/160 156/158/158
f 157/160/160 159/162/162 160/148/148 158/161/161
f 155/159/159 159/162/162 157/160/160
f 159/162/162 161/152/152 144/146/146 160/148/148
f 155/159/159 161/152/152 159/162/162
f 155/159/159 147/150/150 161/152/152
f 158/161/161 160/148/148 141/144/144 139/142/142
f 153/157/157 158/161/161 139/142/142 137/140/140
f 155/159/159 151/154/154 149/151/151
f 155/159/159 149/151/151 147/150/150
f 124/127/127 108/110/110 101/105/105 99/100/100
f 121/124/124 124/127/127 99/100/100 95/99/99
f 118/121/121 121/124/124 95/99/99 93/94/94
f 115/86/86 118/121/121 93/94/94 84/87/87
f 23/27/27 21/23/23 102/104/104 104/108/108
f 81/10/10 23/27/27 104/108/108 162/92/92
f 6/11/11 81/10/10 162/92/92 87/91/91
f 21/23/23 17/21/21 98/102/102 102/104/104
f 17/21/21 15/17/17 96/98/98 98/102/102
f 15/17/17 11/15/15 92/96/96 96/98/98
f 11/15/15 9/12/12 90/93/93 92/96/96
f 9/12/12 6/11/11 87/91/91 90/93/93
