# Blender v2.93.1 OBJ File: ''
# www.blender.org
mtllib utensil_shaker.mtl
o utensil_shaker_Cylinder.150
v 0.000000 -0.500000 -0.580007
v 0.010454 1.738016 -0.046008
v 0.000000 1.575484 -0.421074
v 0.410127 -0.500000 -0.410127
v 0.041035 1.738016 -0.033341
v 0.297744 1.575485 -0.297744
v 0.580007 -0.500000 0.000000
v 0.053702 1.738016 -0.002760
v 0.421073 1.575485 -0.000000
v 0.410127 -0.500000 0.410127
v 0.041035 1.738016 0.027821
v 0.297744 1.575485 0.297744
v 0.010454 1.738016 0.040488
v -0.000000 -0.500000 0.580008
v -0.000000 1.575485 0.421073
v -0.410127 -0.500000 0.410127
v -0.020127 1.738016 0.027821
v -0.297744 1.575485 0.297744
v -0.032795 1.738016 -0.002760
v -0.580007 -0.500000 0.000000
v -0.421073 1.575485 -0.000000
v -0.020127 1.738016 -0.033341
v -0.410127 -0.500000 -0.410127
v -0.297744 1.575485 -0.297744
v 0.000000 -0.613635 -0.548959
v 0.010454 1.738016 -0.296551
v 0.388173 -0.613634 -0.388173
v 0.041035 1.738016 -0.283884
v 0.548959 -0.613634 0.000000
v 0.388173 -0.613634 0.388173
v -0.000000 -0.613634 0.548959
v 0.053702 1.738016 -0.253303
v -0.388173 -0.613634 0.388173
v 0.041035 1.738016 -0.222722
v -0.548959 -0.613634 0.000000
v -0.388173 -0.613634 -0.388173
v 0.000000 -0.724383 -0.429986
v 0.010454 1.738016 -0.210055
v 0.304046 -0.724383 -0.304046
v 0.429986 -0.724383 0.000000
v -0.020127 1.738016 -0.222722
v 0.304046 -0.724383 0.304046
v -0.000000 -0.724383 0.429986
v -0.032795 1.738016 -0.253303
v -0.304046 -0.724383 0.304046
v -0.429986 -0.724383 0.000000
v -0.020127 1.738016 -0.283884
v -0.304046 -0.724383 -0.304046
v 0.000000 1.575484 -0.482529
v 0.219318 1.738016 -0.204143
v 0.341199 1.575485 -0.341200
v 0.482529 1.575485 -0.000000
v 0.231985 1.738016 -0.173561
v 0.341199 1.575485 0.341199
v -0.000000 1.575485 0.482529
v 0.219318 1.738016 -0.142980
v -0.341199 1.575485 0.341199
v 0.188737 1.738016 -0.130313
v -0.482529 1.575485 -0.000000
v -0.341200 1.575485 -0.341200
v 0.158156 1.738016 -0.142980
v 0.341199 1.909448 -0.341200
v 0.000000 1.909447 -0.482529
v 0.482529 1.909448 -0.000000
v 0.145489 1.738016 -0.173561
v 0.341199 1.909448 0.341199
v 0.158156 1.738016 -0.204143
v -0.000000 1.909448 0.482529
v -0.341199 1.909448 0.341199
v -0.482529 1.909448 -0.000000
v 0.188737 1.738016 -0.216810
v -0.341200 1.909448 -0.341200
v 0.301665 1.738016 0.008890
v 0.308166 2.010334 -0.308166
v 0.000000 2.010334 -0.435812
v 0.288998 1.738016 0.039471
v 0.435812 2.010334 -0.000000
v 0.308166 2.010334 0.308165
v -0.000000 2.010334 0.435812
v 0.258417 1.738016 0.052138
v -0.308165 2.010334 0.308165
v 0.227835 1.738016 0.039471
v -0.435812 2.010334 -0.000000
v -0.308166 2.010334 -0.308166
v 0.237045 2.057439 -0.237045
v 0.215168 1.738016 0.008890
v 0.000000 2.057439 -0.335232
v 0.335232 2.057439 -0.000000
v 0.227835 1.738016 -0.021691
v 0.237045 2.057439 0.237045
v 0.258417 1.738016 -0.034358
v -0.000000 2.057439 0.335232
v -0.237045 2.057439 0.237045
v 0.288998 1.738016 -0.021691
v -0.335232 2.057439 -0.000000
v -0.237045 2.057439 -0.237045
v 0.209256 1.738016 0.217754
v 0.178675 1.738016 0.230422
v 0.148094 1.738016 0.217754
v 0.135427 1.738016 0.187173
v 0.148094 1.738016 0.156592
v 0.178675 1.738016 0.143925
v 0.209256 1.738016 0.156592
v 0.221923 1.738016 0.187173
v -0.003776 1.738016 0.300101
v -0.034357 1.738016 0.287434
v -0.047025 1.738016 0.256853
v -0.034357 1.738016 0.226272
v -0.003776 1.738016 0.213604
v 0.026805 1.738016 0.226272
v 0.039472 1.738016 0.256853
v 0.026805 1.738016 0.287434
v -0.212641 1.738016 0.207692
v -0.225308 1.738016 0.177111
v -0.212641 1.738016 0.146530
v -0.182060 1.738016 0.133863
v -0.151478 1.738016 0.146530
v -0.138811 1.738016 0.177111
v -0.151478 1.738016 0.207692
v -0.182060 1.738016 0.220360
v -0.294988 1.738016 -0.005340
v -0.282320 1.738016 -0.035921
v -0.251739 1.738016 -0.048588
v -0.221158 1.738016 -0.035921
v -0.208491 1.738016 -0.005340
v -0.221158 1.738016 0.025241
v -0.251739 1.738016 0.037908
v -0.282320 1.738016 0.025241
v -0.202579 1.738016 -0.214205
v -0.171998 1.738016 -0.226872
v -0.141416 1.738016 -0.214205
v -0.128749 1.738016 -0.183624
v -0.141416 1.738016 -0.153042
v -0.171998 1.738016 -0.140375
v -0.202579 1.738016 -0.153042
v -0.215246 1.738016 -0.183624
v 0.041035 2.057439 -0.222722
v -0.151478 2.057439 0.146530
v 0.301665 2.057439 0.008890
v 0.010454 2.057439 -0.210055
v 0.209256 2.057439 0.217754
v -0.138811 2.057439 0.177111
v 0.178675 2.057439 0.230421
v 0.158156 2.057439 -0.204143
v 0.188737 2.057439 -0.216810
v 0.231985 2.057439 -0.173561
v 0.219318 2.057439 -0.142980
v 0.219318 2.057439 -0.204143
v -0.020127 2.057439 -0.222722
v -0.144467 2.057439 0.190765
v -0.028663 2.057439 -0.243329
v 0.148094 2.057439 0.217754
v -0.151478 2.057439 0.207692
v -0.032795 2.057439 -0.253303
v 0.135427 2.057439 0.187173
v -0.215246 2.057439 -0.183624
v -0.202579 2.057439 -0.153042
v -0.182060 2.057439 0.220359
v -0.202579 2.057439 -0.214205
v -0.141416 2.057439 -0.214205
v -0.135445 2.057439 -0.199788
v -0.171998 2.057439 -0.226872
v -0.020127 2.057439 -0.283884
v -0.188162 2.057439 -0.147071
v -0.212641 2.057439 0.207692
v 0.148094 2.057439 0.156592
v -0.294988 2.057439 -0.005340
v 0.010454 2.057439 -0.296551
v -0.282320 2.057439 -0.035921
v 0.178675 2.057439 0.143925
v -0.225308 2.057439 0.177111
v 0.187607 2.057439 0.147625
v -0.212641 2.057439 0.146530
v -0.251739 2.057439 -0.048588
v -0.231132 2.057439 -0.040053
v 0.209256 2.057439 0.156592
v -0.221158 2.057439 -0.035921
v 0.221923 2.057439 0.187173
v 0.188737 2.057439 -0.130313
v -0.208491 2.057439 -0.005340
v 0.158156 2.057439 -0.142980
v -0.003776 2.057439 0.300101
v -0.221158 2.057439 0.025241
v -0.034357 2.057439 0.287434
v 0.145489 2.057439 -0.173561
v -0.251739 2.057439 0.037908
v -0.047025 2.057439 0.256853
v -0.038489 2.057439 0.236246
v -0.282320 2.057439 0.025241
v -0.034357 2.057439 0.226272
v -0.003776 2.057439 0.213604
v 0.288998 2.057439 0.039471
v 0.026805 2.057439 0.226272
v 0.258417 2.057439 0.052138
v -0.171998 2.057439 -0.140375
v 0.039472 2.057439 0.256853
v 0.227835 2.057439 0.039471
v 0.215168 2.057439 0.008890
v 0.026805 2.057439 0.287434
v 0.227835 2.057439 -0.021691
v 0.258417 2.057439 -0.034359
v -0.128749 2.057439 -0.183624
v -0.020127 2.057439 -0.033341
v -0.032795 2.057439 -0.002760
v 0.288998 2.057439 -0.021691
v -0.141416 2.057439 -0.153042
v 0.010454 2.057439 -0.046008
v 0.052559 2.057439 -0.000000
v 0.053702 2.057439 -0.002760
v 0.053702 2.057439 -0.253303
v 0.041035 2.057439 -0.033341
v 0.041035 2.057439 -0.283884
v -0.182060 2.057439 0.133863
v -0.020127 2.057439 0.027821
v 0.010454 2.057439 0.040488
v 0.041035 2.057439 0.027821
vt 0.021133 0.380417
vt 0.021133 0.380417
vt 0.021133 0.380417
vt 0.021133 0.380417
vt 0.021133 0.380417
vt 0.021133 0.380417
vt 0.021133 0.380417
vt 0.021133 0.380417
vt 0.021133 0.380417
vt 0.021133 0.380417
vt 0.021133 0.380417
vt 0.021133 0.380417
vt 0.021133 0.380417
vt 0.021133 0.380417
vt 0.021133 0.380417
vt 0.021133 0.380417
vt 0.021133 0.380417
vt 0.021133 0.380417
vt 0.021133 0.380417
vt 0.021133 0.380417
vt 0.021133 0.380417
vt 0.021133 0.380417
vt 0.021133 0.380417
vt 0.021133 0.380417
vt 0.021133 0.380417
vt 0.021133 0.380417
vt 0.021133 0.380417
vt 0.021133 0.380417
vt 0.021133 0.380417
vt 0.021133 0.380417
vt 0.021133 0.380417
vt 0.021133 0.380417
vt 0.021133 0.380417
vt 0.021133 0.380417
vt 0.021133 0.380417
vt 0.021133 0.380417
vt 0.021133 0.380417
vt 0.021133 0.380417
vt 0.021133 0.380417
vt 0.021133 0.380417
vt 0.021133 0.380417
vt 0.021133 0.380417
vt 0.021133 0.380417
vt 0.021133 0.380417
vt 0.021133 0.380417
vt 0.021133 0.380417
vt 0.021133 0.380417
vt 0.021133 0.380417
vt 0.021133 0.380417
vt 0.021133 0.380417
vt 0.021133 0.380417
vt 0.021133 0.380417
vt 0.021133 0.380417
vt 0.021133 0.380417
vt 0.021133 0.380417
vt 0.021133 0.380417
vt 0.021133 0.380417
vt 0.021133 0.380417
vt 0.021133 0.380417
vt 0.021133 0.380417
vt 0.021133 0.380417
vt 0.021133 0.380417
vt 0.021133 0.380417
vt 0.021133 0.380417
vt 0.021133 0.380417
vt 0.021133 0.380417
vt 0.021133 0.380417
vt 0.021133 0.380417
vt 0.021133 0.380417
vt 0.021133 0.380417
vt 0.021133 0.380417
vt 0.021133 0.380417
vt 0.021133 0.380417
vt 0.021133 0.380417
vt 0.021133 0.380417
vt 0.021133 0.380417
vt 0.021133 0.380417
vt 0.021133 0.380417
vt 0.021133 0.380417
vt 0.021133 0.380417
vt 0.021133 0.380417
vt 0.021133 0.380417
vt 0.021133 0.380417
vt 0.021133 0.380417
vt 0.021133 0.380417
vt 0.021133 0.380417
vt 0.021133 0.380417
vt 0.021133 0.380417
vt 0.021133 0.380417
vt 0.021133 0.380417
vt 0.021133 0.380417
vt 0.021133 0.380417
vt 0.021133 0.380417
vt 0.021133 0.380417
vt 0.021133 0.380417
vt 0.021133 0.380417
vt 0.021133 0.380417
vt 0.021133 0.380417
vt 0.021133 0.380417
vt 0.021133 0.380417
vt 0.021133 0.380417
vt 0.021133 0.380417
vt 0.021133 0.380417
vt 0.021133 0.380417
vt 0.021133 0.380417
vt 0.021133 0.380417
vt 0.021133 0.380417
vt 0.021133 0.380417
vt 0.021133 0.380417
vt 0.021133 0.380417
vt 0.021133 0.380417
vt 0.021133 0.380417
vt 0.021133 0.380417
vt 0.021133 0.380417
vt 0.021133 0.380417
vt 0.021133 0.380417
vt 0.021133 0.380417
vt 0.021133 0.380417
vt 0.021133 0.380417
vt 0.021133 0.380417
vt 0.021133 0.380417
vt 0.021133 0.380417
vt 0.021133 0.380417
vt 0.021133 0.380417
vt 0.021133 0.380417
vt 0.021133 0.380417
vt 0.021133 0.380417
vt 0.021133 0.380417
vt 0.021133 0.380417
vt 0.021133 0.380417
vt 0.021133 0.380417
vt 0.021133 0.380417
vt 0.021133 0.380417
vt 0.021133 0.380417
vt 0.021133 0.380417
vt 0.021133 0.380417
vt 0.021133 0.380417
vt 0.021133 0.380417
vt 0.021133 0.380417
vt 0.021133 0.380417
vt 0.021133 0.380417
vt 0.021133 0.380417
vt 0.021133 0.380417
vt 0.021133 0.380417
vt 0.021133 0.380417
vt 0.021133 0.380417
vt 0.021133 0.380417
vt 0.021133 0.380417
vt 0.021133 0.380417
vt 0.021133 0.380417
vt 0.021133 0.380417
vt 0.021133 0.380417
vt 0.021133 0.380417
vt 0.021133 0.380417
vt 0.021133 0.380417
vt 0.021133 0.380417
vt 0.021133 0.380417
vt 0.021133 0.380417
vt 0.021133 0.380417
vt 0.021133 0.380417
vt 0.021133 0.380417
vt 0.021133 0.380417
vt 0.021133 0.380417
vt 0.021133 0.380417
vt 0.021133 0.380417
vt 0.021133 0.380417
vt 0.021133 0.380417
vt 0.021133 0.380417
vt 0.021133 0.380417
vt 0.021133 0.380417
vt 0.021133 0.380417
vt 0.021133 0.380417
vt 0.021133 0.380417
vt 0.021133 0.380417
vt 0.021133 0.380417
vt 0.021133 0.380417
vt 0.021133 0.380417
vt 0.021133 0.380417
vt 0.021133 0.380417
vt 0.021133 0.380417
vt 0.021133 0.380417
vt 0.021133 0.380417
vt 0.021133 0.380417
vt 0.021133 0.380417
vt 0.028919 0.380417
vt 0.028919 0.380417
vt 0.028919 0.380417
vt 0.028919 0.380417
vt 0.028919 0.380417
vt 0.028919 0.380417
vt 0.028919 0.380417
vt 0.028919 0.380417
vt 0.028919 0.380417
vt 0.028919 0.380417
vt 0.028919 0.380417
vt 0.028919 0.380417
vt 0.028919 0.380417
vt 0.028919 0.380417
vt 0.028919 0.380417
vt 0.028919 0.380417
vt 0.028919 0.380417
vt 0.028919 0.380417
vt 0.028919 0.380417
vt 0.028919 0.380417
vt 0.028919 0.380417
vt 0.028919 0.380417
vt 0.028919 0.380417
vt 0.028919 0.380417
vt 0.028919 0.380417
vt 0.028919 0.380417
vt 0.028919 0.380417
vt 0.028919 0.380417
vt 0.028919 0.380417
vt 0.028919 0.380417
vt 0.028919 0.380417
vt 0.028919 0.380417
vn 0.0000 -1.0000 0.0000
vn -0.6921 0.2049 -0.6921
vn -0.9788 0.2049 0.0000
vn -0.7461 0.6658 0.0000
vn -0.5276 0.6658 -0.5276
vn -1.0000 0.0000 0.0000
vn -0.7071 0.0000 0.7071
vn -0.6921 0.2049 0.6921
vn -0.0000 0.0000 1.0000
vn 0.7071 0.0000 0.7071
vn 0.6921 0.2049 0.6921
vn -0.0000 0.2049 0.9788
vn 1.0000 0.0000 0.0000
vn 0.7071 -0.0000 -0.7071
vn 0.6921 0.2049 -0.6921
vn 0.9788 0.2049 -0.0000
vn -0.7071 -0.0000 -0.7071
vn -0.0000 -0.0000 -1.0000
vn -0.0000 0.2049 -0.9788
vn 0.0000 0.6658 0.7461
vn 0.5276 0.6658 0.5276
vn 0.1892 0.9635 0.1892
vn -0.0000 0.9635 0.2676
vn -0.5276 0.6658 0.5276
vn 0.7461 0.6658 -0.0000
vn -0.0000 0.6658 -0.7461
vn 0.5276 0.6658 -0.5276
vn 0.0000 1.0000 0.0000
vn 0.2676 0.9635 0.0000
vn 0.1892 0.9635 -0.1892
vn -0.1892 0.9635 0.1892
vn -0.0000 0.9635 -0.2676
vn -0.2676 0.9635 -0.0000
vn -0.1892 0.9635 -0.1892
vn -0.9239 -0.0000 -0.3827
vn 0.9239 -0.0000 -0.3827
vn -0.3827 0.0000 0.9239
vn 0.9239 0.0000 0.3827
vn -0.9239 0.0000 0.3827
vn 0.3827 -0.0000 -0.9239
vn -0.0000 -0.0913 -0.9958
vn 0.0000 0.0764 -0.9971
vn 0.7050 0.0764 -0.7050
vn 0.7042 -0.0913 -0.7042
vn 0.9971 0.0764 -0.0000
vn 0.9958 -0.0913 -0.0000
vn 0.7050 0.0764 0.7050
vn 0.7042 -0.0913 0.7042
vn 0.0000 0.0764 0.9971
vn -0.0000 -0.0913 0.9958
vn -0.7050 0.0764 0.7050
vn -0.7042 -0.0913 0.7042
vn -0.9971 0.0764 0.0000
vn -0.9958 -0.0913 0.0000
vn -0.7050 0.0764 -0.7050
vn -0.7042 -0.0913 -0.7042
vn 0.8718 -0.4899 0.0000
vn 0.6164 -0.4899 -0.6164
vn -0.0000 -0.4899 0.8718
vn -0.6164 -0.4899 0.6164
vn -0.3109 -0.8982 0.3109
vn -0.0000 -0.8982 0.4396
vn 0.0000 -0.4899 -0.8718
vn -0.6164 -0.4899 -0.6164
vn 0.6164 -0.4899 0.6164
vn -0.8718 -0.4899 0.0000
vn -0.3109 -0.8982 -0.3109
vn 0.0000 -0.8982 -0.4396
vn 0.3109 -0.8982 -0.3109
vn 0.4396 -0.8982 0.0000
vn 0.3109 -0.8982 0.3109
vn -0.4396 -0.8982 0.0000
usemtl Solid.190
s 1
f 59/1/1 60/2/1 49/3/1 51/4/1 52/5/1 54/6/1 55/7/1 57/8/1
f 72/9/2 70/10/3 83/11/4 84/12/5
f 59/1/6 57/8/7 69/13/8 70/10/3
f 55/7/9 54/6/10 66/14/11 68/15/12
f 52/5/13 51/4/14 62/16/15 64/17/16
f 60/2/17 59/1/6 70/10/3 72/9/2
f 57/8/7 55/7/9 68/15/12 69/13/8
f 54/6/10 52/5/13 64/17/16 66/14/11
f 51/4/14 49/3/18 63/18/19 62/16/15
f 49/3/18 60/2/17 72/9/2 63/18/19
f 79/19/20 78/20/21 90/21/22 92/22/23
f 69/13/8 68/15/12 79/19/20 81/23/24
f 66/14/11 64/17/16 77/24/25 78/20/21
f 62/16/15 63/18/19 75/25/26 74/26/27
f 63/18/19 72/9/2 84/12/5 75/25/26
f 70/10/3 69/13/8 81/23/24 83/11/4
f 68/15/12 66/14/11 78/20/21 79/19/20
f 64/17/16 62/16/15 74/26/27 77/24/25
f 141/27/28 90/21/22 88/28/29 85/29/30 148/30/28 146/31/28 147/32/28 179/33/28 181/34/28 211/35/28 209/36/28 208/37/28 198/38/28 200/39/28 201/40/28 205/41/28 139/42/28 192/43/28 194/44/28 197/45/28 172/46/28 176/47/28 178/48/28
f 165/49/28 93/50/31 92/22/23 182/51/28 184/52/28 187/53/28 188/54/28 150/55/28 153/56/28 158/57/28
f 92/22/23 90/21/22 141/27/28 143/58/28 152/59/28 155/60/28 166/61/28 170/62/28 172/46/28 197/45/28 198/38/28 208/37/28 216/63/28 215/64/28 214/65/28 204/66/28 203/67/28 207/68/28 211/35/28 181/34/28 185/69/28 144/70/28 145/71/28 148/30/28 85/29/30 87/72/32 168/73/28 212/74/28 210/75/28 137/76/28 140/77/28 149/78/28 151/79/28 161/80/28 202/81/28 206/82/28 195/83/28 164/84/28 175/85/28 177/86/28 180/87/28 183/88/28 186/89/28 189/90/28 167/91/28 95/92/33 93/50/31 165/49/28 171/93/28 173/94/28 213/95/28 138/96/28 142/97/28 150/55/28 188/54/28 190/98/28 191/99/28 193/100/28 196/101/28 199/102/28 182/51/28
f 87/72/32 96/103/34 95/92/33 167/91/28 169/104/28 174/105/28 175/85/28 164/84/28 157/106/28 156/107/28 159/108/28 162/109/28 160/110/28 161/80/28 151/79/28 154/111/28 163/112/28 168/73/28
f 77/24/25 74/26/27 85/29/30 88/28/29
f 84/12/5 83/11/4 95/92/33 96/103/34
f 81/23/24 79/19/20 92/22/23 93/50/31
f 78/20/21 77/24/25 88/28/29 90/21/22
f 74/26/27 75/25/26 87/72/32 85/29/30
f 75/25/26 84/12/5 96/103/34 87/72/32
f 83/11/4 81/23/24 93/50/31 95/92/33
f 207/68/9 2/113/9 5/114/7 211/35/7
f 5/114/7 8/115/6 209/36/6 211/35/7
f 8/115/6 11/116/17 216/63/17 208/37/35 209/36/6
f 11/116/17 13/117/18 215/64/18 216/63/17
f 13/117/18 17/118/14 214/65/14 215/64/18
f 214/65/14 17/118/14 19/119/13 204/66/13
f 204/66/13 19/119/13 22/120/10 203/67/10
f 203/67/10 22/120/10 2/113/9 207/68/9
f 11/116/28 8/115/28 5/114/28 2/113/28 22/120/28 19/119/28 17/118/28 13/117/28
f 168/73/9 26/121/9 28/122/7 212/74/7
f 28/122/7 32/123/6 210/75/6 212/74/7
f 32/123/6 34/124/17 137/76/17 210/75/6
f 34/124/17 38/125/18 140/77/18 137/76/17
f 38/125/18 41/126/14 149/78/14 140/77/18
f 149/78/14 41/126/14 44/127/13 154/111/13 151/79/36
f 154/111/13 44/127/13 47/128/10 163/112/10
f 163/112/10 47/128/10 26/121/9 168/73/9
f 28/122/28 26/121/28 47/128/28 44/127/28 41/126/28 38/125/28 34/124/28 32/123/28
f 50/129/7 53/130/6 146/31/6 148/30/7
f 53/130/6 56/131/17 147/32/17 146/31/6
f 56/131/17 58/132/18 179/33/18 147/32/17
f 58/132/18 61/133/14 181/34/14 179/33/18
f 181/34/14 61/133/14 65/134/13 185/69/13
f 185/69/13 65/134/13 67/135/10 144/70/10
f 144/70/10 67/135/10 71/136/9 145/71/9
f 145/71/9 71/136/9 50/129/7 148/30/7
f 58/132/28 56/131/28 53/130/28 50/129/28 71/136/28 67/135/28 65/134/28 61/133/28
f 73/137/6 76/138/17 192/43/17 139/42/6
f 76/138/17 80/139/18 194/44/18 192/43/17
f 80/139/18 82/140/14 197/45/14 194/44/18
f 197/45/14 82/140/14 86/141/13 198/38/13
f 198/38/13 86/141/13 89/142/10 200/39/10
f 200/39/10 89/142/10 91/143/9 201/40/9
f 201/40/9 91/143/9 94/144/7 205/41/7
f 94/144/7 73/137/6 139/42/6 205/41/7
f 89/142/28 86/141/28 82/140/28 80/139/28 76/138/28 73/137/28 94/144/28 91/143/28
f 97/145/17 98/146/18 143/58/18 141/27/17
f 98/146/18 99/147/14 152/59/14 143/58/18
f 152/59/14 99/147/14 100/148/13 155/60/13
f 155/60/13 100/148/13 101/149/10 166/61/10
f 166/61/10 101/149/10 102/150/9 170/62/9
f 170/62/9 102/150/9 103/151/7 176/47/7 172/46/37
f 103/151/7 104/152/6 178/48/6 176/47/7
f 104/152/6 97/145/17 141/27/17 178/48/6
f 100/148/28 99/147/28 98/146/28 97/145/28 104/152/28 103/151/28 102/150/28 101/149/28
f 105/153/18 106/154/14 184/52/14 182/51/18
f 184/52/14 106/154/14 107/155/13 187/53/13
f 187/53/13 107/155/13 108/156/10 190/98/10 188/54/38
f 190/98/10 108/156/10 109/157/9 191/99/9
f 191/99/9 109/157/9 110/158/7 193/100/7
f 110/158/7 111/159/6 196/101/6 193/100/7
f 111/159/6 112/160/17 199/102/17 196/101/6
f 112/160/17 105/153/18 182/51/18 199/102/17
f 108/156/28 107/155/28 106/154/28 105/153/28 112/160/28 111/159/28 110/158/28 109/157/28
f 165/49/14 113/161/14 114/162/13 171/93/13
f 171/93/13 114/162/13 115/163/10 173/94/10
f 173/94/10 115/163/10 116/164/9 213/95/9
f 213/95/9 116/164/9 117/165/7 138/96/7
f 117/165/7 118/166/6 142/97/6 138/96/7
f 118/166/6 119/167/17 153/56/17 150/55/35 142/97/6
f 119/167/17 120/168/18 158/57/18 153/56/17
f 120/168/18 113/161/14 165/49/14 158/57/18
f 116/164/28 115/163/28 114/162/28 113/161/28 120/168/28 119/167/28 118/166/28 117/165/28
f 167/91/13 121/169/13 122/170/10 169/104/10
f 169/104/10 122/170/10 123/171/9 174/105/9
f 174/105/9 123/171/9 124/172/7 177/86/7 175/85/37
f 124/172/7 125/173/6 180/87/6 177/86/7
f 125/173/6 126/174/17 183/88/17 180/87/6
f 126/174/17 127/175/18 186/89/18 183/88/17
f 127/175/18 128/176/14 189/90/14 186/89/18
f 189/90/14 128/176/14 121/169/13 167/91/13
f 124/172/28 123/171/28 122/170/28 121/169/28 128/176/28 127/175/28 126/174/28 125/173/28
f 159/108/10 129/177/10 130/178/9 162/109/9
f 162/109/9 130/178/9 131/179/7 160/110/7
f 131/179/7 132/180/6 202/81/6 161/80/39 160/110/7
f 132/180/6 133/181/17 206/82/17 202/81/6
f 133/181/17 134/182/18 195/83/18 206/82/17
f 134/182/18 135/183/14 157/106/14 164/84/40 195/83/18
f 157/106/14 135/183/14 136/184/13 156/107/13
f 156/107/13 136/184/13 129/177/10 159/108/10
f 130/178/28 129/177/28 136/184/28 135/183/28 134/182/28 133/181/28 132/180/28 131/179/28
usemtl Solid_-_25%.049
f 1/185/41 3/186/42 6/187/43 4/188/44
f 4/188/44 6/187/43 9/189/45 7/190/46
f 7/190/46 9/189/45 12/191/47 10/192/48
f 10/192/48 12/191/47 15/193/49 14/194/50
f 14/194/50 15/193/49 18/195/51 16/196/52
f 16/196/52 18/195/51 21/197/53 20/198/54
f 20/198/54 21/197/53 24/199/55 23/200/56
f 23/200/56 24/199/55 3/186/42 1/185/41
f 4/188/44 7/190/46 29/201/57 27/202/58
f 31/203/59 33/204/60 45/205/61 43/206/62
f 14/194/50 16/196/52 33/204/60 31/203/59
f 23/200/56 1/185/41 25/207/63 36/208/64
f 1/185/41 4/188/44 27/202/58 25/207/63
f 7/190/46 10/192/48 30/209/65 29/201/57
f 16/196/52 20/198/54 35/210/66 33/204/60
f 10/192/48 14/194/50 31/203/59 30/209/65
f 20/198/54 23/200/56 36/208/64 35/210/66
f 48/211/67 37/212/68 39/213/69 40/214/70 42/215/71 43/206/62 45/205/61 46/216/72
f 29/201/57 30/209/65 42/215/71 40/214/70
f 25/207/63 27/202/58 39/213/69 37/212/68
f 36/208/64 25/207/63 37/212/68 48/211/67
f 33/204/60 35/210/66 46/216/72 45/205/61
f 30/209/65 31/203/59 43/206/62 42/215/71
f 27/202/58 29/201/57 40/214/70 39/213/69
f 35/210/66 36/208/64 48/211/67 46/216/72
