# Blender v2.93.1 OBJ File: ''
# www.blender.org
mtllib cutensils_bottle_opener.mtl
o cutensils_bottle_opener_Cylinder.062
v 0.000000 -0.478894 -0.138726
v 0.000000 1.838344 -0.127677
v 0.223698 -0.481417 -0.097646
v 0.223698 1.835820 -0.086597
v 0.316356 -0.487510 0.001531
v 0.316356 1.829728 0.012580
v 0.223698 -0.493603 0.100708
v 0.223698 1.823635 0.111757
v 0.000000 -0.496126 0.141789
v 0.000000 1.821112 0.152837
v -0.223698 -0.493603 0.100708
v -0.223698 1.823635 0.111757
v -0.316356 -0.487510 0.001531
v -0.316356 1.829728 0.012580
v -0.223698 -0.481417 -0.097646
v -0.223698 1.835820 -0.086597
v 0.164864 1.900609 -0.060595
v 0.000000 1.902567 -0.090871
v 0.233152 1.895884 0.012498
v 0.164863 1.891158 0.085590
v 0.000000 1.889200 0.115866
v -0.164863 1.891158 0.085590
v -0.233152 1.895884 0.012498
v -0.164864 1.900609 -0.060595
v 0.000000 -0.635996 -0.111511
v 0.180007 -0.638134 -0.078454
v 0.254568 -0.643294 0.001352
v 0.180007 -0.648454 0.081159
v 0.000000 -0.650591 0.114216
v -0.180007 -0.648454 0.081159
v -0.254568 -0.643294 0.001352
v -0.180007 -0.638134 -0.078454
v 0.000000 -0.536944 -0.096629
v 0.235789 -0.634602 -0.097970
v 0.333456 -0.870368 -0.101207
v 0.235789 -1.106134 -0.104444
v 0.000000 -1.203791 -0.105785
v -0.235789 -1.106134 -0.104444
v -0.333456 -0.870368 -0.101207
v -0.235789 -0.634602 -0.097970
v 0.000000 -0.705425 -0.098942
v 0.116644 -0.753736 -0.099606
v 0.164959 -0.870368 -0.101207
v 0.116644 -0.987000 -0.102809
v 0.000000 -1.035311 -0.103472
v -0.116644 -0.987000 -0.102809
v -0.164959 -0.870368 -0.101207
v -0.116644 -0.753736 -0.099606
v 0.000000 -0.707808 0.074612
v 0.116644 -0.756119 0.073948
v 0.164959 -0.872751 0.072347
v 0.116644 -0.989384 0.070745
v 0.000000 -1.037694 0.070082
v -0.116644 -0.989384 0.070745
v -0.164959 -0.872751 0.072347
v -0.116644 -0.756119 0.073948
v 0.000000 -0.539327 0.076925
v 0.235789 -0.636985 0.075584
v 0.333456 -0.872751 0.072347
v 0.235789 -1.108517 0.069110
v 0.000000 -1.206174 0.067769
v -0.235789 -1.108517 0.069110
v -0.333456 -0.872751 0.072347
v -0.235789 -0.636985 0.075584
v 0.277310 2.059317 0.003923
v -0.232308 1.638954 -0.002837
v -0.280995 2.059317 0.003923
v 0.228623 1.638954 -0.002837
v 0.320988 3.124731 0.003923
v -0.324676 3.124731 0.003923
v 0.174085 2.340874 -0.002837
v 0.205717 2.866960 -0.002837
v -0.209405 2.866960 -0.002837
v -0.177770 2.340874 -0.002837
v 0.636716 2.820732 0.003923
v 0.630754 2.739737 0.003923
v 0.507009 3.092267 0.003923
v 0.568001 3.039173 0.003923
v -0.634439 2.739737 0.003923
v -0.640401 2.820732 0.003923
v -0.571686 3.039173 0.003923
v -0.510694 3.092267 0.003923
v 0.431049 2.722466 -0.002837
v 0.437305 2.796382 -0.002837
v 0.413956 2.853636 -0.002837
v 0.342490 2.884560 -0.002837
v -0.346176 2.884560 -0.002837
v -0.417642 2.853636 -0.002837
v -0.440991 2.796382 -0.002837
v -0.434734 2.722466 -0.002837
v -0.280995 2.059317 0.040952
v 0.277310 2.059317 0.040952
v -0.232308 1.638954 0.047712
v 0.228623 1.638954 0.047712
v 0.205717 2.866960 0.047712
v -0.209405 2.866960 0.047712
v -0.177770 2.340874 0.047712
v 0.174085 2.340874 0.047712
v 0.320988 3.124731 0.040952
v -0.324676 3.124731 0.040952
v 0.630754 2.739737 0.040952
v 0.636716 2.820732 0.040952
v 0.437305 2.796382 0.047712
v 0.431049 2.722466 0.047712
v 0.568001 3.039173 0.040952
v 0.507009 3.092267 0.040952
v 0.342490 2.884560 0.047712
v 0.413956 2.853636 0.047712
v -0.510694 3.092267 0.040952
v -0.571686 3.039173 0.040952
v -0.417642 2.853636 0.047712
v -0.346176 2.884560 0.047712
v -0.640401 2.820732 0.040952
v -0.634439 2.739737 0.040952
v -0.434734 2.722466 0.047712
v -0.440991 2.796382 0.047712
v -0.652668 2.742217 0.022437
v -0.658801 2.825546 0.022437
v -0.261172 1.550597 0.022438
v -0.289039 2.042189 0.022438
v 0.330291 3.138304 0.022437
v 0.521672 3.104905 0.022437
v 0.285354 2.042189 0.022438
v 0.257487 1.550597 0.022438
v -0.588106 3.050281 0.022437
v 0.655116 2.825546 0.022437
v 0.648983 2.742217 0.022437
v -0.525357 3.104905 0.022437
v 0.584421 3.050281 0.022437
v -0.333979 3.138304 0.022437
vt 0.005646 0.699263
vt 0.005646 0.699263
vt 0.005646 0.699263
vt 0.005646 0.699263
vt 0.005646 0.699263
vt 0.005646 0.699263
vt 0.005646 0.699263
vt 0.005646 0.699263
vt 0.005646 0.699263
vt 0.005646 0.699263
vt 0.005646 0.699263
vt 0.005646 0.699263
vt 0.005646 0.699263
vt 0.005646 0.699263
vt 0.005646 0.699263
vt 0.005646 0.699263
vt 0.005646 0.699263
vt 0.005646 0.699263
vt 0.005646 0.699263
vt 0.005646 0.699263
vt 0.005646 0.699263
vt 0.005646 0.699263
vt 0.005646 0.699263
vt 0.005646 0.699263
vt 0.005646 0.699263
vt 0.005646 0.699263
vt 0.005646 0.699263
vt 0.005646 0.699263
vt 0.005646 0.699263
vt 0.005646 0.699263
vt 0.005646 0.699263
vt 0.005646 0.699263
vt 0.017961 0.410023
vt 0.017961 0.410023
vt 0.017961 0.410023
vt 0.017961 0.410023
vt 0.017961 0.410023
vt 0.017961 0.410023
vt 0.017961 0.410023
vt 0.017961 0.410023
vt 0.017961 0.410023
vt 0.017961 0.410023
vt 0.017961 0.410023
vt 0.017961 0.410023
vt 0.017961 0.410023
vt 0.017961 0.410023
vt 0.017961 0.410023
vt 0.017961 0.410023
vt 0.017961 0.410023
vt 0.017961 0.410023
vt 0.017961 0.410023
vt 0.017961 0.410023
vt 0.017961 0.410023
vt 0.017961 0.410023
vt 0.017961 0.410023
vt 0.017961 0.410023
vt 0.017961 0.410023
vt 0.017961 0.410023
vt 0.017961 0.410023
vt 0.017961 0.410023
vt 0.017961 0.410023
vt 0.017961 0.410023
vt 0.017961 0.410023
vt 0.017961 0.410023
vt 0.017961 0.410023
vt 0.017961 0.410023
vt 0.017961 0.410023
vt 0.017961 0.410023
vt 0.017961 0.410023
vt 0.017961 0.410023
vt 0.017961 0.410023
vt 0.017961 0.410023
vt 0.017961 0.410023
vt 0.017961 0.410023
vt 0.017961 0.410023
vt 0.017961 0.410023
vt 0.017961 0.410023
vt 0.017961 0.410023
vt 0.017961 0.410023
vt 0.017961 0.410023
vt 0.017961 0.410023
vt 0.017961 0.410023
vt 0.017961 0.410023
vt 0.017961 0.410023
vt 0.017961 0.410023
vt 0.017961 0.410023
vt 0.017961 0.410023
vt 0.017961 0.410023
vt 0.017961 0.410023
vt 0.017961 0.410023
vt 0.017961 0.410023
vt 0.017961 0.410023
vt 0.017961 0.410023
vt 0.017961 0.410023
vt 0.017961 0.410023
vt 0.017961 0.410023
vt 0.017961 0.410023
vt 0.017961 0.410023
vt 0.017961 0.410023
vt 0.017961 0.410023
vt 0.017961 0.410023
vt 0.017961 0.410023
vt 0.017961 0.410023
vt 0.017961 0.410023
vt 0.017961 0.410023
vt 0.017961 0.410023
vt 0.017961 0.410023
vt 0.017961 0.410023
vt 0.017961 0.410023
vt 0.017961 0.410023
vt 0.017961 0.410023
vt 0.017961 0.410023
vt 0.017961 0.410023
vt 0.017961 0.410023
vt 0.017961 0.410023
vt 0.017961 0.410023
vt 0.017961 0.410023
vt 0.017961 0.410023
vt 0.017961 0.410023
vt 0.017961 0.410023
vt 0.017961 0.410023
vt 0.017961 0.410023
vt 0.017961 0.410023
vt 0.017961 0.410023
vt 0.017961 0.410023
vt 0.017961 0.410023
vt 0.017961 0.410023
vt 0.017961 0.410023
vt 0.017961 0.410023
vt 0.017961 0.410023
vn 0.0000 -0.0818 -0.9966
vn 0.0000 0.2543 -0.9671
vn 0.4866 0.3300 -0.8089
vn 0.4874 -0.1137 -0.8657
vn 0.9274 0.3739 0.0110
vn 0.7206 -0.1288 -0.6813
vn 0.7287 -0.1276 0.6728
vn 0.4745 0.3023 0.8267
vn 0.4936 -0.1249 0.8607
vn 0.0000 0.2356 0.9719
vn 0.0000 -0.0903 0.9959
vn -0.4745 0.3023 0.8267
vn -0.4936 -0.1249 0.8607
vn -0.9274 0.3739 0.0110
vn -0.7287 -0.1276 0.6728
vn -0.4866 0.3300 -0.8089
vn -0.3196 0.5885 -0.7426
vn 0.0000 0.4976 -0.8674
vn -0.7206 -0.1288 -0.6813
vn -0.4874 -0.1137 -0.8657
vn 0.4448 -0.7656 -0.4648
vn 0.3010 -0.7061 -0.6410
vn 0.0000 0.9979 0.0645
vn 0.3196 0.5885 -0.7426
vn 0.6221 0.7825 0.0263
vn 0.3093 0.5655 0.7645
vn -0.3093 0.5655 0.7645
vn -0.6221 0.7825 0.0263
vn 0.0000 0.4769 0.8790
vn 0.0000 -0.9979 -0.0645
vn -0.4448 -0.7656 -0.4648
vn -0.3010 -0.7061 -0.6410
vn -0.4342 -0.2325 0.8703
vn 0.0000 -0.1758 0.9844
vn 0.0000 -0.1706 -0.9853
vn 0.4342 -0.2325 0.8703
vn 0.7098 -0.2820 0.6454
vn -0.7098 -0.2820 0.6454
vn -0.0000 -0.0137 0.9999
vn -0.0000 0.0137 -0.9999
vn 0.0000 -0.9999 -0.0137
vn -0.7071 -0.7070 -0.0097
vn 1.0000 -0.0000 -0.0000
vn 0.7071 0.7070 0.0097
vn -1.0000 0.0000 0.0000
vn 0.7071 -0.7070 -0.0097
vn -0.7071 0.7070 0.0097
vn 0.0000 0.9999 0.0137
vn 0.3514 -0.1348 -0.9264
vn 0.3210 -0.1101 -0.9406
vn -0.3210 -0.1101 -0.9406
vn -0.3514 -0.1348 -0.9264
vn 0.0330 0.0040 -0.9994
vn 0.0330 0.0041 -0.9994
vn 0.0236 0.0164 -0.9996
vn 0.0211 0.0181 -0.9996
vn 0.0090 0.0250 -0.9996
vn 0.0060 0.0263 -0.9996
vn 0.0004 0.0269 -0.9996
vn 0.0008 0.0275 -0.9996
vn -0.0211 0.0181 -0.9996
vn -0.0236 0.0164 -0.9996
vn -0.0330 0.0041 -0.9994
vn -0.0330 0.0040 -0.9994
vn -0.0004 0.0269 -0.9996
vn -0.0008 0.0275 -0.9996
vn -0.0325 -0.0080 -0.9994
vn -0.0314 -0.0116 -0.9994
vn -0.0158 -0.0203 -0.9997
vn -0.0060 0.0263 -0.9996
vn -0.0090 0.0250 -0.9996
vn 0.0158 -0.0203 -0.9997
vn 0.0325 -0.0080 -0.9994
vn 0.0314 -0.0116 -0.9994
vn 0.3514 -0.1348 0.9264
vn -0.3514 -0.1348 0.9264
vn -0.3210 -0.1101 0.9406
vn 0.3210 -0.1101 0.9406
vn 0.0330 0.0040 0.9994
vn 0.0211 0.0181 0.9996
vn 0.0236 0.0164 0.9996
vn 0.0330 0.0041 0.9994
vn 0.0090 0.0250 0.9996
vn 0.0008 0.0275 0.9996
vn 0.0004 0.0269 0.9996
vn 0.0060 0.0263 0.9996
vn -0.0211 0.0181 0.9996
vn -0.0330 0.0040 0.9994
vn -0.0330 0.0041 0.9994
vn -0.0236 0.0164 0.9996
vn -0.0008 0.0275 0.9996
vn -0.0004 0.0269 0.9996
vn -0.0325 -0.0080 0.9994
vn -0.0158 -0.0203 0.9997
vn -0.0314 -0.0116 0.9994
vn -0.0090 0.0250 0.9996
vn -0.0060 0.0263 0.9996
vn 0.0158 -0.0203 0.9997
vn 0.0314 -0.0116 0.9994
vn 0.0325 -0.0080 0.9994
vn -0.6950 0.0883 0.7136
vn -0.7131 -0.1773 0.6783
vn -0.7084 -0.2333 0.6662
vn -0.6981 0.0714 0.7124
vn 0.1397 -0.9902 0.0000
vn -0.0639 -0.9980 0.0000
vn -0.7020 -0.1563 0.6948
vn -0.1954 -0.2302 0.9533
vn 0.3356 0.6328 0.6978
vn 0.1036 0.9946 -0.0000
vn 0.0533 0.7924 0.6077
vn 0.2741 0.6793 0.6808
vn 0.1954 -0.2302 0.9533
vn 0.7020 -0.1563 0.6948
vn -0.1397 -0.9902 0.0000
vn -0.7145 -0.6996 0.0000
vn 0.0639 -0.9980 0.0000
vn 0.9432 0.3321 0.0000
vn 0.9886 -0.1508 0.0000
vn -0.5705 0.3748 0.7308
vn -0.5720 0.3725 0.7308
vn 0.7131 -0.1773 0.6783
vn 0.6950 0.0883 0.7136
vn 0.6981 0.0714 0.7124
vn 0.7084 -0.2333 0.6662
vn -0.3356 0.6328 0.6978
vn -0.2741 0.6793 0.6808
vn 0.7145 -0.6996 0.0000
vn -0.4698 0.8828 0.0000
vn 0.4698 0.8828 0.0000
vn -0.9886 -0.1508 0.0000
vn -0.9432 0.3321 0.0000
vn 0.5705 0.3748 0.7308
vn 0.5720 0.3725 0.7308
vn -0.1036 0.9946 -0.0000
vn -0.0533 0.7924 0.6077
vn 0.0533 0.7924 -0.6077
vn -0.0533 0.7924 -0.6077
vn 0.5720 0.3725 -0.7308
vn 0.2741 0.6793 -0.6808
vn 0.3356 0.6328 -0.6978
vn 0.5705 0.3748 -0.7308
vn -0.2741 0.6793 -0.6808
vn -0.3356 0.6328 -0.6978
vn 0.6981 0.0714 -0.7124
vn 0.6950 0.0883 -0.7136
vn -0.7084 -0.2333 -0.6662
vn -0.7020 -0.1563 -0.6948
vn -0.7131 -0.1773 -0.6783
vn 0.7084 -0.2333 -0.6662
vn 0.7131 -0.1773 -0.6783
vn 0.7020 -0.1563 -0.6948
vn -0.5720 0.3725 -0.7308
vn -0.5705 0.3748 -0.7308
vn -0.6981 0.0714 -0.7124
vn -0.6950 0.0883 -0.7136
vn 0.1954 -0.2302 -0.9533
vn -0.1954 -0.2302 -0.9533
usemtl Solid.099
s 1
f 1/1/1 2/2/2 4/3/3 3/4/4
f 3/4/4 4/3/3 6/5/5 5/6/6
f 5/6/7 6/5/5 8/7/8 7/8/9
f 7/8/9 8/7/8 10/9/10 9/10/11
f 9/10/11 10/9/10 12/11/12 11/12/13
f 11/12/13 12/11/12 14/13/14 13/14/15
f 2/2/2 16/15/16 24/16/17 18/17/18
f 13/14/19 14/13/14 16/15/16 15/18/20
f 15/18/20 16/15/16 2/2/2 1/1/1
f 3/4/4 5/6/6 27/19/21 26/20/22
f 17/21/23 18/17/23 24/16/23 23/22/23 22/23/23 21/24/23 20/25/23 19/26/23
f 4/3/3 2/2/2 18/17/18 17/21/24
f 8/7/8 6/5/5 19/26/25 20/25/26
f 14/13/14 12/11/12 22/23/27 23/22/28
f 10/9/10 8/7/8 20/25/26 21/24/29
f 16/15/16 14/13/14 23/22/28 24/16/17
f 6/5/5 4/3/3 17/21/24 19/26/25
f 12/11/12 10/9/10 21/24/29 22/23/27
f 25/27/30 26/20/22 27/19/21 28/28/30 29/29/30 30/30/30 31/31/31 32/32/32
f 9/10/11 11/12/13 30/30/33 29/29/34
f 15/18/20 1/1/1 25/27/35 32/32/32
f 1/1/1 3/4/4 26/20/22 25/27/35
f 5/6/7 7/8/9 28/28/36 27/19/37
f 11/12/13 13/14/15 31/31/38 30/30/33
f 7/8/9 9/10/11 29/29/34 28/28/36
f 13/14/19 15/18/20 32/32/32 31/31/31
f 50/33/39 58/34/39 57/35/39 49/36/39
f 42/37/40 41/38/40 33/39/40 34/40/40
f 43/41/40 42/37/40 34/40/40 35/42/40
f 44/43/40 43/41/40 35/42/40 36/44/40
f 45/45/40 44/43/40 36/44/40 37/46/40
f 46/47/40 45/45/40 37/46/40 38/48/40
f 47/49/40 46/47/40 38/48/40 39/50/40
f 48/51/40 47/49/40 39/50/40 40/52/40
f 41/38/40 48/51/40 40/52/40 33/39/40
f 51/53/39 59/54/39 58/34/39 50/33/39
f 52/55/39 60/56/39 59/54/39 51/53/39
f 53/57/39 61/58/39 60/56/39 52/55/39
f 54/59/39 62/60/39 61/58/39 53/57/39
f 55/61/39 63/62/39 62/60/39 54/59/39
f 56/63/39 64/64/39 63/62/39 55/61/39
f 49/36/39 57/35/39 64/64/39 56/63/39
f 37/46/41 61/58/41 62/60/42 38/48/42
f 47/49/43 55/61/43 54/59/44 46/47/44
f 38/48/42 62/60/42 63/62/45 39/50/45
f 48/51/46 56/63/46 55/61/43 47/49/43
f 39/50/45 63/62/45 64/64/47 40/52/47
f 41/38/41 49/36/41 56/63/46 48/51/46
f 42/37/42 50/33/42 49/36/41 41/38/41
f 40/52/47 64/64/47 57/35/48 33/39/48
f 33/39/48 57/35/48 58/34/44 34/40/44
f 43/41/45 51/53/45 50/33/42 42/37/42
f 34/40/44 58/34/44 59/54/43 35/42/43
f 44/43/47 52/55/47 51/53/45 43/41/45
f 35/42/43 59/54/43 60/56/46 36/44/46
f 45/45/48 53/57/48 52/55/47 44/43/47
f 36/44/46 60/56/46 61/58/41 37/46/41
f 46/47/44 54/59/44 53/57/48 45/45/48
f 65/65/49 68/66/50 66/67/51 67/68/52
f 75/69/53 84/70/54 85/71/55 78/72/56
f 77/73/57 86/74/58 72/75/59 69/76/60
f 81/77/61 88/78/62 89/79/63 80/80/64
f 69/76/60 72/75/59 73/81/65 70/82/66
f 79/83/67 90/84/68 74/85/69 67/68/52
f 70/82/66 73/81/65 87/86/70 82/87/71
f 67/68/52 74/85/69 71/88/72 65/65/49
f 75/69/53 76/89/73 83/90/74 84/70/54
f 77/73/57 78/72/56 85/71/55 86/74/58
f 81/77/61 82/87/71 87/86/70 88/78/62
f 79/83/67 80/80/64 89/79/63 90/84/68
f 65/65/49 71/88/72 83/90/74 76/89/73
f 92/91/75 91/92/76 93/93/77 94/94/78
f 102/95/79 105/96/80 108/97/81 103/98/82
f 106/99/83 99/100/84 95/101/85 107/102/86
f 110/103/87 113/104/88 116/105/89 111/106/90
f 99/100/84 100/107/91 96/108/92 95/101/85
f 114/109/93 91/92/76 97/110/94 115/111/95
f 100/107/91 109/112/96 112/113/97 96/108/92
f 91/92/76 92/91/75 98/114/98 97/110/94
f 102/95/79 103/98/82 104/115/99 101/116/100
f 106/99/83 107/102/86 108/97/81 105/96/80
f 110/103/87 111/106/90 112/113/97 109/112/96
f 114/109/93 115/111/95 116/105/89 113/104/88
f 92/91/75 101/116/100 104/115/99 98/114/98
f 118/117/101 117/118/102 114/109/103 113/104/104
f 87/86/105 73/81/106 96/108/106 112/113/105
f 120/119/107 119/120/108 93/93/77 91/92/76
f 122/121/109 121/122/110 99/100/111 106/99/112
f 124/123/113 123/124/114 92/91/75 94/94/78
f 86/74/115 85/71/116 108/97/116 107/102/115
f 72/75/117 86/74/115 107/102/115 95/101/117
f 90/84/118 89/79/119 116/105/119 115/111/118
f 119/120/108 124/123/113 94/94/78 93/93/77
f 125/125/120 118/117/101 113/104/104 110/103/121
f 127/126/122 126/127/123 102/95/124 101/116/125
f 73/81/106 72/75/117 95/101/117 96/108/106
f 128/128/126 125/125/120 110/103/121 109/112/127
f 89/79/119 88/78/128 111/106/128 116/105/119
f 123/124/114 127/126/122 101/116/125 92/91/75
f 71/88/129 74/85/130 97/110/130 98/114/129
f 117/118/102 120/119/107 91/92/76 114/109/103
f 84/70/131 83/90/132 104/115/132 103/98/131
f 83/90/132 71/88/129 98/114/129 104/115/132
f 88/78/128 87/86/105 112/113/105 111/106/128
f 74/85/130 90/84/118 115/111/118 97/110/130
f 126/127/123 129/129/133 105/96/134 102/95/124
f 130/130/135 128/128/126 109/112/127 100/107/136
f 129/129/133 122/121/109 106/99/112 105/96/134
f 85/71/116 84/70/131 103/98/131 108/97/116
f 121/122/110 130/130/135 100/107/136 99/100/111
f 69/76/137 70/82/138 130/130/135 121/122/110
f 78/72/139 77/73/140 122/121/141 129/129/142
f 70/82/138 82/87/143 128/128/144 130/130/135
f 75/69/145 78/72/139 129/129/142 126/127/146
f 79/83/147 67/68/52 120/119/148 117/118/149
f 65/65/49 76/89/150 127/126/151 123/124/152
f 82/87/143 81/77/153 125/125/154 128/128/144
f 76/89/150 75/69/145 126/127/146 127/126/151
f 81/77/153 80/80/155 118/117/156 125/125/154
f 66/67/51 68/66/50 124/123/157 119/120/158
f 68/66/50 65/65/49 123/124/152 124/123/157
f 77/73/140 69/76/137 121/122/110 122/121/141
f 67/68/52 66/67/51 119/120/158 120/119/148
f 80/80/155 79/83/147 117/118/149 118/117/156
