# Blender v2.93.1 OBJ File: ''
# www.blender.org
mtllib sercups_mug.mtl
o sercups_mug_Cylinder.114
v -0.509144 -0.744669 -0.509144
v -0.720039 -0.744668 0.000000
v -0.509144 -0.744668 0.509144
v -0.000000 -0.744668 0.720039
v 0.509144 -0.744668 0.509144
v 0.720039 -0.744668 0.000000
v 0.509144 -0.744669 -0.509144
v -0.000000 -0.744669 -0.720039
v -0.634585 1.782282 -0.634585
v -0.897439 1.782282 -0.000000
v -0.634585 1.782282 0.634585
v -0.000000 1.782282 0.897438
v 0.634585 1.782282 0.634585
v 0.897439 1.782282 -0.000000
v 0.634585 1.782282 -0.634585
v 0.000000 1.782282 -0.897439
v 0.000000 1.782282 -1.000000
v 0.707107 1.782282 -0.707107
v 1.000000 1.782282 -0.000000
v 0.707107 1.782282 0.707106
v -0.000000 1.782282 1.000000
v -0.707107 1.782282 0.707107
v -1.000000 1.782282 -0.000000
v -0.707107 1.782282 -0.707107
v 0.000000 -0.932144 -0.724637
v 0.512396 -0.932144 -0.512395
v 0.724637 -0.932143 0.000000
v 0.512396 -0.932143 0.512396
v -0.000000 -0.932143 0.724637
v -0.512396 -0.932143 0.512396
v -0.724637 -0.932143 0.000000
v -0.512396 -0.932144 -0.512395
v 0.000000 -0.843629 -0.485591
v 0.343365 -0.843629 -0.343364
v 0.485591 -0.843629 0.000000
v 0.343365 -0.843629 0.343365
v -0.000000 -0.843629 0.485591
v -0.343365 -0.843629 0.343365
v -0.485591 -0.843629 0.000000
v -0.343365 -0.843629 -0.343364
v 0.000000 -0.952918 -0.668130
v -0.472439 -0.952918 -0.472439
v -0.668130 -0.952918 0.000000
v -0.472439 -0.952918 0.472439
v -0.000000 -0.952918 0.668130
v 0.472439 -0.952918 0.472439
v 0.668130 -0.952918 0.000000
v 0.472439 -0.952918 -0.472439
v -0.670119 0.425352 -0.670119
v -0.947691 0.425352 -0.000000
v -0.670119 0.425352 0.670119
v -0.000000 0.425352 0.947691
v 0.670119 0.425352 0.670119
v 0.947691 0.425352 -0.000000
v 0.670119 0.425352 -0.670119
v 0.000000 0.425352 -0.947691
v -0.895673 -0.253113 0.000000
v -0.000000 -0.253113 0.895673
v 0.895673 -0.253113 0.000000
v 0.000000 -0.253113 -0.895673
v -0.633336 -0.253113 -0.633336
v -0.633336 -0.253113 0.633336
v 0.633336 -0.253113 0.633336
v 0.633336 -0.253113 -0.633336
v -0.843366 -0.592345 0.000000
v -0.000000 -0.592345 0.843366
v 0.843366 -0.592345 0.000000
v 0.000000 -0.592346 -0.843366
v -0.596350 -0.592346 -0.596350
v -0.596350 -0.592345 0.596350
v 0.596350 -0.592345 0.596350
v 0.596350 -0.592346 -0.596350
v 1.223981 1.261276 -0.212213
v 1.223193 1.258161 0.216386
v 1.546790 1.257769 -0.216303
v 1.546843 1.257827 0.216355
v 1.678051 0.842046 -0.209296
v 1.678051 0.842046 0.209296
v 1.507163 0.175196 -0.207469
v 1.507163 0.175196 0.207469
v 1.169730 -0.265024 -0.214747
v 1.169730 -0.265024 0.214747
v 0.832875 -0.165606 -0.211108
v 0.832875 -0.165606 0.211108
v 0.892673 0.802959 -0.201701
v 1.170452 1.462781 -0.232621
v 1.077758 1.527320 -0.112238
v 1.227919 1.594280 -0.113189
v 1.637957 1.578096 -0.112616
v 1.769909 1.471568 -0.111234
v 1.658200 1.444225 -0.231725
v 1.658230 1.444310 0.231682
v 1.769909 1.471567 0.111234
v 1.637957 1.578095 0.112616
v 1.227919 1.594280 0.113188
v 1.077758 1.527320 0.112237
v 1.170242 1.463078 0.232456
v 1.941815 0.983650 -0.111697
v 1.950381 0.801314 -0.109803
v 1.860485 0.871422 -0.232014
v 1.860485 0.871422 0.232014
v 1.950381 0.801314 0.109803
v 1.941815 0.983650 0.111697
v 1.772169 0.093296 -0.110162
v 1.692030 -0.061101 -0.109673
v 1.658400 0.070147 -0.232241
v 1.658400 0.070147 0.232241
v 1.692030 -0.061101 0.109673
v 1.772169 0.093296 0.110162
v 1.258886 -0.543454 -0.108491
v 1.100640 -0.592236 -0.112317
v 1.211968 -0.475577 -0.230592
v 1.211968 -0.475577 0.230592
v 1.100640 -0.592236 0.112317
v 1.258886 -0.543454 0.108491
v 0.774563 -0.482955 -0.117176
v 0.731109 -0.342287 -0.234692
v 0.731109 -0.342288 0.234692
v 0.774563 -0.482955 0.117176
v 0.868447 1.289336 -0.118928
v 0.817224 0.909012 -0.236691
v 0.815913 0.910165 0.236661
v 0.868447 1.289336 0.118928
v 0.878917 0.763240 0.209327
vt 0.050641 -1.095387
vt 0.050641 -1.095387
vt 0.050641 -1.095387
vt 0.050641 -1.095387
vt 0.050641 -1.095387
vt 0.050641 -1.095387
vt 0.050641 -1.095387
vt 0.050641 -1.095387
vt 0.050641 -1.095387
vt 0.050641 -1.095387
vt 0.050641 -1.095387
vt 0.050641 -1.095387
vt 0.050641 -1.095387
vt 0.050641 -1.095387
vt 0.050641 -1.095387
vt 0.050641 -1.095387
vt 0.050641 -1.095387
vt 0.050641 -1.095387
vt 0.050641 -1.095387
vt 0.050641 -1.095387
vt 0.050641 -1.095387
vt 0.050641 -1.095387
vt 0.050641 -1.095387
vt 0.050641 -1.095387
vt 0.050641 -1.095387
vt 0.050641 -1.095387
vt 0.050641 -1.095387
vt 0.050641 -1.095387
vt 0.050641 -1.095387
vt 0.050641 -1.095387
vt 0.050641 -1.095387
vt 0.050641 -1.095387
vt 0.050641 -1.095387
vt 0.050641 -1.095387
vt 0.050641 -1.095387
vt 0.050641 -1.095387
vt 0.050641 -1.095387
vt 0.050641 -1.095387
vt 0.050641 -1.095387
vt 0.050641 -1.095387
vt 0.050641 -1.095387
vt 0.050641 -1.095387
vt 0.050641 -1.095387
vt 0.050641 -1.095387
vt 0.050641 -1.095387
vt 0.050641 -1.095387
vt 0.050641 -1.095387
vt 0.050641 -1.095387
vt 0.050641 -1.095387
vt 0.050641 -1.095387
vt 0.050641 -1.095387
vt 0.050641 -1.095387
vt 0.050641 -1.095387
vt 0.050641 -1.095387
vt 0.050641 -1.095387
vt 0.050641 -1.095387
vt 0.050641 -1.095387
vt 0.050641 -1.095387
vt 0.050641 -1.095387
vt 0.050641 -1.095387
vt 0.050641 -1.095387
vt 0.050641 -1.095387
vt 0.050641 -1.095387
vt 0.050641 -1.095387
vt 0.050641 -1.095387
vt 0.050641 -1.095387
vt 0.050641 -1.095387
vt 0.050641 -1.095387
vt 0.050641 -1.095387
vt 0.050641 -1.095387
vt 0.050641 -1.095387
vt 0.050641 -1.095387
vt 0.050641 -1.095387
vt 0.050641 -1.095387
vt 0.050641 -1.095387
vt 0.050641 -1.095387
vt 0.050641 -1.095387
vt 0.050641 -1.095387
vt 0.050641 -1.095387
vt 0.050641 -1.095387
vt 0.050641 -1.095387
vt 0.050641 -1.095387
vt 0.050641 -1.095387
vt 0.050641 -1.095387
vt 0.050641 -1.095387
vt 0.050641 -1.095387
vt 0.050641 -1.095387
vt 0.050641 -1.095387
vt 0.050641 -1.095387
vt 0.050641 -1.095387
vt 0.050641 -1.095387
vt 0.050641 -1.095387
vt 0.050641 -1.095387
vt 0.050641 -1.095387
vt 0.050641 -1.095387
vt 0.050641 -1.095387
vt 0.050641 -1.095387
vt 0.050641 -1.095387
vt 0.050641 -1.095387
vt 0.050641 -1.095387
vt 0.050641 -1.095387
vt 0.050641 -1.095387
vt 0.050641 -1.095387
vt 0.050641 -1.095387
vt 0.050641 -1.095387
vt 0.050641 -1.095387
vt 0.050641 -1.095387
vt 0.050641 -1.095387
vt 0.050641 -1.095387
vt 0.050641 -1.095387
vt 0.050641 -1.095387
vt 0.050641 -1.095387
vt 0.050641 -1.095387
vt 0.050641 -1.095387
vt 0.050641 -1.095387
vt 0.050641 -1.095387
vt 0.050641 -1.095387
vt 0.050641 -1.095387
vt 0.050641 -1.095387
vt 0.050641 -1.095387
vt 0.050641 -1.095387
vt 0.050641 -1.095387
vt 0.050641 -1.095387
vt 0.050641 -1.095387
vn 0.0000 1.0000 -0.0000
vn -0.9975 0.0700 -0.0000
vn -0.7054 0.0700 0.7054
vn -0.5335 0.6564 0.5335
vn -0.7544 0.6564 -0.0000
vn 0.0000 0.0700 -0.9975
vn -0.7054 0.0700 -0.7054
vn -0.5335 0.6564 -0.5335
vn 0.0000 0.6564 -0.7544
vn 0.9975 0.0700 -0.0000
vn 0.7054 0.0700 -0.7054
vn 0.5335 0.6564 -0.5335
vn 0.7544 0.6564 -0.0000
vn 0.0000 0.0700 0.9975
vn 0.7054 0.0700 0.7054
vn 0.5335 0.6564 0.5335
vn 0.0000 0.6564 0.7544
vn 0.3632 -0.8580 0.3632
vn 0.0000 -0.8580 0.5137
vn 0.0000 -0.9454 0.3259
vn 0.2304 -0.9454 0.2304
vn -0.6870 -0.2371 -0.6870
vn -0.6675 -0.3299 -0.6675
vn -0.9440 -0.3299 0.0000
vn -0.9715 -0.2371 0.0000
vn -0.6870 -0.2371 0.6870
vn -0.6675 -0.3299 0.6675
vn 0.0000 -0.3299 0.9440
vn 0.0000 -0.2371 0.9715
vn 0.6870 -0.2371 0.6870
vn 0.6675 -0.3299 0.6675
vn 0.9440 -0.3299 0.0000
vn 0.9715 -0.2371 0.0000
vn 0.6870 -0.2371 -0.6870
vn 0.6675 -0.3299 -0.6675
vn 0.0000 -0.3299 -0.9440
vn 0.0000 -0.2371 -0.9715
vn -0.2304 -0.9454 0.2304
vn -0.3259 -0.9454 -0.0000
vn -0.2304 -0.9454 -0.2304
vn 0.0000 -0.9454 -0.3259
vn 0.2304 -0.9454 -0.2304
vn 0.3259 -0.9454 0.0000
vn 0.3632 -0.8580 -0.3632
vn 0.5137 -0.8580 -0.0000
vn -0.3632 -0.8580 -0.3632
vn 0.0000 -0.8580 -0.5137
vn -0.3632 -0.8580 0.3632
vn -0.5137 -0.8580 -0.0000
vn 0.0000 -0.9386 -0.3451
vn 0.2440 -0.9386 -0.2440
vn 0.3451 -0.9386 0.0000
vn 0.2440 -0.9386 0.2440
vn 0.0000 -0.9386 0.3451
vn -0.2440 -0.9386 0.2440
vn -0.3451 -0.9386 0.0000
vn -0.2440 -0.9386 -0.2440
vn 0.9993 -0.0385 0.0000
vn 0.9984 -0.0572 0.0000
vn 0.7059 -0.0572 -0.7059
vn 0.7066 -0.0385 -0.7066
vn -0.0000 -0.0385 0.9993
vn -0.0000 -0.0572 0.9984
vn 0.7059 -0.0572 0.7059
vn 0.7066 -0.0385 0.7066
vn -0.9993 -0.0385 0.0000
vn -0.9984 -0.0572 0.0000
vn -0.7059 -0.0572 0.7059
vn -0.7066 -0.0385 0.7066
vn 0.0000 -0.0385 -0.9993
vn -0.0000 -0.0572 -0.9984
vn -0.7059 -0.0572 -0.7059
vn -0.7066 -0.0385 -0.7066
vn 0.9935 -0.1135 0.0000
vn 0.7025 -0.1135 -0.7025
vn -0.0000 -0.1135 0.9935
vn 0.7025 -0.1135 0.7025
vn -0.9935 -0.1135 0.0000
vn -0.7025 -0.1135 0.7025
vn 0.0000 -0.1135 -0.9935
vn -0.7025 -0.1135 -0.7025
vn -0.6612 0.5305 -0.5305
vn -0.6613 0.5313 0.5295
vn -0.5662 0.7337 0.3757
vn -0.5661 0.7334 -0.3765
vn -0.6872 -0.0183 -0.7262
vn -0.3306 -0.4404 -0.8347
vn 0.2846 0.3471 -0.8936
vn 0.4355 0.0094 -0.9002
vn -0.6384 0.3089 -0.7050
vn 0.3840 -0.1953 -0.9024
vn -0.1785 0.5373 -0.8243
vn 0.2004 -0.4391 -0.8758
vn 0.1981 0.6723 -0.7133
vn -0.0757 -0.2639 -0.9616
vn 0.3032 -0.5524 -0.7765
vn 0.6835 -0.4851 -0.5455
vn 0.0175 -0.0108 -0.9998
vn -0.1802 0.3598 -0.9155
vn -0.1556 0.9157 -0.3705
vn -0.1555 0.9158 0.3703
vn 0.3078 0.8793 0.3635
vn 0.3078 0.8792 -0.3636
vn -0.3288 -0.4391 0.8361
vn -0.6872 -0.0183 0.7262
vn 0.4355 0.0095 0.9001
vn 0.2855 0.3491 0.8926
vn 0.2985 -0.5444 0.7839
vn -0.1840 0.3662 0.9122
vn -0.6384 0.3089 0.7050
vn 0.3840 -0.1953 0.9024
vn 0.7742 -0.5493 -0.3145
vn 0.7742 -0.5493 0.3145
vn 0.5189 -0.8016 0.2969
vn 0.5189 -0.8016 -0.2969
vn -0.1785 0.5373 0.8243
vn 0.2004 -0.4391 0.8758
vn -0.0362 -0.9323 -0.3598
vn -0.0362 -0.9323 0.3598
vn -0.2641 -0.8444 0.4661
vn -0.2641 -0.8444 -0.4661
vn 0.1981 0.6723 0.7133
vn -0.0757 -0.2639 0.9616
vn 0.7771 0.5306 -0.3385
vn 0.7771 0.5306 0.3385
vn 0.9185 0.1969 0.3429
vn 0.9185 0.1969 -0.3429
vn 0.9402 -0.1081 -0.3229
vn 0.9402 -0.1081 0.3229
vn 0.8867 -0.3256 0.3281
vn 0.8867 -0.3256 -0.3281
vn -0.0013 0.0055 1.0000
vn 0.6990 -0.4942 0.5169
usemtl Solid.181
s 1
f 19/1/1 18/2/1 15/3/1 14/4/1
f 21/5/1 20/6/1 13/7/1 12/8/1
f 23/9/1 22/10/1 11/11/1 10/12/1
f 17/13/1 24/14/1 9/15/1 16/16/1
f 18/2/1 17/13/1 16/16/1 15/3/1
f 20/6/1 19/1/1 14/4/1 13/7/1
f 22/10/1 21/5/1 12/8/1 11/11/1
f 24/14/1 23/9/1 10/12/1 9/15/1
f 14/4/2 15/3/3 7/17/4 6/18/5
f 12/8/6 13/7/7 5/19/8 4/20/9
f 10/12/10 11/11/11 3/21/12 2/22/13
f 16/16/14 9/15/15 1/23/16 8/24/17
f 15/3/3 16/16/14 8/24/17 7/17/4
f 13/7/7 14/4/2 6/18/5 5/19/8
f 11/11/11 12/8/6 4/20/9 3/21/12
f 9/15/15 10/12/10 2/22/13 1/23/16
f 8/24/17 1/23/16 2/22/13 3/21/12 4/20/9 5/19/8 6/18/5 7/17/4
f 42/25/18 41/26/19 33/27/20 40/28/21
f 69/29/22 32/30/23 31/31/24 65/32/25
f 70/33/26 30/34/27 29/35/28 66/36/29
f 71/37/30 28/38/31 27/39/32 67/40/33
f 72/41/34 26/42/35 25/43/36 68/44/37
f 68/44/37 25/43/36 32/30/23 69/29/22
f 65/32/25 31/31/24 30/34/27 70/33/26
f 66/36/29 29/35/28 28/38/31 71/37/30
f 67/40/33 27/39/32 26/42/35 72/41/34
f 33/27/20 34/45/38 35/46/39 36/47/40 37/48/41 38/49/42 39/50/43 40/28/21
f 44/51/44 43/52/45 39/50/43 38/49/42
f 46/53/46 45/54/47 37/48/41 36/47/40
f 48/55/48 47/56/49 35/46/39 34/45/38
f 43/52/45 42/25/18 40/28/21 39/50/43
f 45/54/47 44/51/44 38/49/42 37/48/41
f 47/56/49 46/53/46 36/47/40 35/46/39
f 41/26/19 48/55/48 34/45/38 33/27/20
f 25/43/50 26/42/51 48/55/51 41/26/50
f 27/39/52 28/38/53 46/53/53 47/56/52
f 29/35/54 30/34/55 44/51/55 45/54/54
f 31/31/56 32/30/57 42/25/57 43/52/56
f 26/42/51 27/39/52 47/56/52 48/55/51
f 28/38/53 29/35/54 45/54/54 46/53/53
f 30/34/55 31/31/56 43/52/56 44/51/55
f 32/30/57 25/43/50 41/26/50 42/25/57
f 19/1/58 54/57/59 55/58/60 18/2/61
f 21/5/62 52/59/63 53/60/64 20/6/65
f 23/9/66 50/61/67 51/62/68 22/10/69
f 17/13/70 56/63/71 49/64/72 24/14/73
f 18/2/61 55/58/60 56/63/71 17/13/70
f 20/6/65 53/60/64 54/57/59 19/1/58
f 22/10/69 51/62/68 52/59/63 21/5/62
f 24/14/73 49/64/72 50/61/67 23/9/66
f 54/57/59 59/65/74 64/66/75 55/58/60
f 52/59/63 58/67/76 63/68/77 53/60/64
f 50/61/67 57/69/78 62/70/79 51/62/68
f 56/63/71 60/71/80 61/72/81 49/64/72
f 55/58/60 64/66/75 60/71/80 56/63/71
f 53/60/64 63/68/77 59/65/74 54/57/59
f 51/62/68 62/70/79 58/67/76 52/59/63
f 49/64/72 61/72/81 57/69/78 50/61/67
f 59/65/74 67/40/33 72/41/34 64/66/75
f 58/67/76 66/36/29 71/37/30 63/68/77
f 57/69/78 65/32/25 70/33/26 62/70/79
f 60/71/80 68/44/37 69/29/22 61/72/81
f 64/66/75 72/41/34 68/44/37 60/71/80
f 63/68/77 71/37/30 67/40/33 59/65/74
f 62/70/79 70/33/26 66/36/29 58/67/76
f 61/72/81 69/29/22 65/32/25 57/69/78
f 120/73/82 123/74/83 96/75/84 87/76/85
f 77/77/86 75/78/87 91/79/88 100/80/89
f 79/81/90 77/77/86 100/80/89 106/82/91
f 81/83/92 79/81/90 106/82/91 112/84/93
f 83/85/94 81/83/92 112/84/93 117/86/95
f 73/87/96 85/88/97 121/89/98 86/90/99
f 88/91/100 95/92/101 94/93/102 89/94/103
f 76/95/104 78/96/105 101/97/106 92/98/107
f 74/99/108 76/95/104 92/98/107 97/100/109
f 78/96/105 80/101/110 107/102/111 101/97/106
f 105/103/112 108/104/113 115/105/114 110/106/115
f 80/101/110 82/107/116 113/108/117 107/102/111
f 111/109/118 114/110/119 119/111/120 116/112/121
f 82/107/116 84/113/122 118/114/123 113/108/117
f 90/115/124 93/116/125 103/117/126 98/118/127
f 99/119/128 102/120/129 109/121/130 104/122/131
f 84/113/122 82/107/116 81/83/92 83/85/94
f 82/107/116 80/101/110 79/81/90 81/83/92
f 80/101/110 78/96/105 77/77/86 79/81/90
f 78/96/105 76/95/104 75/78/87 77/77/86
f 76/95/104 74/99/108 73/87/96 75/78/87
f 86/90/99 87/76/85 88/91/100
f 89/94/103 90/115/124 91/79/88
f 92/98/107 93/116/125 94/93/102
f 95/92/101 96/75/84 97/100/109
f 98/118/127 99/119/128 100/80/89
f 101/97/106 102/120/129 103/117/126
f 104/122/131 105/103/112 106/82/91
f 107/102/111 108/104/113 109/121/130
f 110/106/115 111/109/118 112/84/93
f 113/108/117 114/110/119 115/105/114
f 88/91/100 89/94/103 91/79/88 86/90/99
f 94/93/102 95/92/101 97/100/109 92/98/107
f 87/76/85 96/75/84 95/92/101 88/91/100
f 93/116/125 90/115/124 89/94/103 94/93/102
f 90/115/124 98/118/127 100/80/89 91/79/88
f 103/117/126 93/116/125 92/98/107 101/97/106
f 102/120/129 99/119/128 98/118/127 103/117/126
f 99/119/128 104/122/131 106/82/91 100/80/89
f 109/121/130 102/120/129 101/97/106 107/102/111
f 108/104/113 105/103/112 104/122/131 109/121/130
f 105/103/112 110/106/115 112/84/93 106/82/91
f 115/105/114 108/104/113 107/102/111 113/108/117
f 114/110/119 111/109/118 110/106/115 115/105/114
f 111/109/118 116/112/121 117/86/95 112/84/93
f 119/111/120 114/110/119 113/108/117 118/114/123
f 120/73/82 87/76/85 86/90/99 121/89/98
f 96/75/84 123/74/83 122/123/132 97/100/109
f 75/78/87 73/87/96 86/90/99 91/79/88
f 97/100/109 122/123/132 124/124/133 74/99/108
f 73/87/96 74/99/108 124/124/133 85/88/97
