# Blender v2.93.1 OBJ File: ''
# www.blender.org
mtllib loaf_pan.mtl
o loaf_pan_Cube.018
v -3.307865 -1.075670 2.076260
v -3.307865 -0.721929 2.430000
v -3.661605 -0.721929 2.076260
v -3.799704 1.075670 2.154567
v -3.432622 1.075670 2.521648
v -3.307865 -1.075670 -2.076260
v -3.661605 -0.721930 -2.076260
v -3.307865 -0.721930 -2.430000
v -3.432622 1.075670 -2.521648
v -3.799704 1.075670 -2.154567
v 3.307865 -1.075670 2.076260
v 3.661605 -0.721929 2.076260
v 3.307865 -0.721929 2.430000
v 3.432622 1.075670 2.521648
v 3.799704 1.075670 2.154567
v 3.307865 -1.075670 -2.076260
v 3.307865 -0.721930 -2.430000
v 3.661605 -0.721930 -2.076260
v 3.799704 1.075670 -2.154567
v 3.432622 1.075670 -2.521648
v -3.799704 1.075670 2.154567
v -3.432622 1.075670 2.521648
v -3.432622 1.075670 -2.521648
v -3.799704 1.075670 -2.154567
v 3.432622 1.075670 2.521648
v 3.799704 1.075670 2.154567
v 3.799704 1.075670 -2.154567
v 3.432622 1.075670 -2.521648
v -4.120927 1.075670 2.422424
v -3.722813 1.075670 2.835141
v -3.722813 1.075670 -2.835142
v -4.120927 1.075670 -2.422424
v 3.722813 1.075670 2.835141
v 4.120927 1.075670 2.422424
v 4.120927 1.075670 -2.422424
v 3.722813 1.075670 -2.835142
v -3.799704 0.908028 2.154567
v -3.432622 0.908028 2.521648
v -3.432622 0.908027 -2.521648
v -3.799704 0.908027 -2.154567
v 3.799704 0.908027 -2.154567
v 3.432622 0.908027 -2.521648
v 3.432622 0.908028 2.521648
v 3.799704 0.908028 2.154567
v -4.120927 0.908028 2.422424
v -3.722813 0.908028 2.835141
v -3.722813 0.908027 -2.835142
v -4.120927 0.908027 -2.422424
v 4.120927 0.908027 -2.422424
v 3.722813 0.908027 -2.835142
v 3.722813 0.908028 2.835141
v 4.120927 0.908028 2.422424
vt 0.020662 0.375863
vt 0.020662 0.375863
vt 0.020662 0.375863
vt 0.020662 0.375863
vt 0.020662 0.375863
vt 0.020662 0.375863
vt 0.020662 0.375863
vt 0.020662 0.375863
vt 0.020662 0.375863
vt 0.020662 0.375863
vt 0.020662 0.375863
vt 0.020662 0.375863
vt 0.020662 0.375863
vt 0.020662 0.375863
vt 0.020662 0.375863
vt 0.020662 0.375863
vt 0.020662 0.375863
vt 0.020662 0.375863
vt 0.020662 0.375863
vt 0.020662 0.375863
vt 0.020662 0.375863
vt 0.020662 0.375863
vt 0.020662 0.375863
vt 0.020662 0.375863
vt 0.020662 0.375863
vt 0.020662 0.375863
vt 0.020662 0.375863
vt 0.020662 0.375863
vt 0.020662 0.375863
vt 0.020662 0.375863
vt 0.020662 0.375863
vt 0.020662 0.375863
vt 0.020662 0.375863
vt 0.020662 0.375863
vt 0.020662 0.375863
vt 0.020662 0.375863
vt 0.020662 0.375863
vt 0.020662 0.375863
vt 0.020662 0.375863
vt 0.020662 0.375863
vt 0.020662 0.375863
vt 0.020662 0.375863
vt 0.020662 0.375863
vt 0.020662 0.375863
vt 0.020662 0.375863
vt 0.020662 0.375863
vt 0.020662 0.375863
vt 0.020662 0.375863
vt 0.020662 0.375863
vt 0.020662 0.375863
vt 0.020662 0.375863
vt 0.020662 0.375863
vn 0.3311 -0.3756 0.8657
vn 0.3913 -0.0739 0.9173
vn -0.3913 -0.0739 0.9173
vn -0.3311 -0.3756 0.8657
vn 0.8613 -0.3823 -0.3346
vn 0.9194 -0.0873 -0.3836
vn 0.9194 -0.0873 0.3836
vn 0.8613 -0.3823 0.3346
vn -0.3311 -0.3756 -0.8657
vn -0.3913 -0.0739 -0.9173
vn 0.3913 -0.0739 -0.9173
vn 0.3311 -0.3756 -0.8657
vn -0.8613 -0.3823 0.3346
vn -0.9194 -0.0873 0.3836
vn -0.9194 -0.0873 -0.3836
vn -0.8613 -0.3823 -0.3346
vn -0.3416 -0.8756 0.3416
vn -0.3416 -0.8756 -0.3416
vn 0.3416 -0.8756 0.3416
vn 0.3416 -0.8756 -0.3416
vn 0.2275 0.8042 0.5491
vn -0.2275 0.8042 0.5491
vn 0.3040 0.6288 -0.7157
vn -0.3040 0.6288 -0.7157
vn 0.5491 0.8042 -0.2275
vn 0.5491 0.8042 0.2275
vn -0.7188 0.6318 -0.2902
vn -0.7188 0.6318 0.2902
vn -0.5491 0.8042 0.2275
vn 0.7188 0.6318 -0.2902
vn 0.2275 0.8042 -0.5491
vn -0.3040 0.6288 0.7157
vn -0.5491 0.8042 -0.2275
vn 0.7188 0.6318 0.2902
vn -0.2275 0.8042 -0.5491
vn 0.3040 0.6288 0.7157
vn 0.2275 -0.8042 0.5491
vn -0.3040 -0.6288 -0.7157
vn 0.3040 -0.6288 -0.7157
vn -0.2275 -0.8042 0.5491
vn 0.5491 -0.8042 -0.2275
vn -0.7188 -0.6318 0.2902
vn -0.7188 -0.6318 -0.2902
vn 0.5491 -0.8042 0.2275
vn 0.7188 -0.6318 -0.2902
vn -0.5491 -0.8042 0.2275
vn 0.2275 -0.8042 -0.5491
vn -0.3040 -0.6288 0.7157
vn 0.7188 -0.6318 0.2902
vn -0.5491 -0.8042 -0.2275
vn -0.2275 -0.8042 -0.5491
vn 0.3040 -0.6288 0.7157
usemtl Solid.144
s 1
f 13/1/1 14/2/2 5/3/3 2/4/4
f 18/5/5 19/6/6 15/7/7 12/8/8
f 8/9/9 9/10/10 20/11/11 17/12/12
f 3/13/13 4/14/14 10/15/15 7/16/16
f 1/17/17 2/4/4 3/13/13
f 6/18/18 7/16/16 8/9/9
f 11/19/19 12/8/8 13/1/1
f 16/20/20 17/12/12 18/5/5
f 6/18/18 1/17/17 3/13/13 7/16/16
f 2/4/4 5/3/3 4/14/14 3/13/13
f 9/10/10 8/9/9 7/16/16 10/15/15
f 16/20/20 6/18/18 8/9/9 17/12/12
f 19/6/6 18/5/5 17/12/12 20/11/11
f 11/19/19 16/20/20 18/5/5 12/8/8
f 14/2/2 13/1/1 12/8/8 15/7/7
f 1/17/17 11/19/19 13/1/1 2/4/4
f 6/18/18 16/20/20 11/19/19 1/17/17
f 23/21/21 28/22/22 36/23/23 31/24/24
f 21/25/25 24/26/26 32/27/27 29/28/28
f 28/22/22 27/29/29 35/30/30 36/23/23
f 22/31/31 21/25/25 29/28/28 30/32/32
f 27/29/29 26/33/33 34/34/34 35/30/30
f 25/35/35 22/31/31 30/32/32 33/36/36
f 26/33/33 25/35/35 33/36/36 34/34/34
f 24/26/26 23/21/21 31/24/24 32/27/27
f 39/37/37 47/38/38 50/39/39 42/40/40
f 37/41/41 45/42/42 48/43/43 40/44/44
f 42/40/40 50/39/39 49/45/45 41/46/46
f 38/47/47 46/48/48 45/42/42 37/41/41
f 41/46/46 49/45/45 52/49/49 44/50/50
f 43/51/51 51/52/52 46/48/48 38/47/47
f 44/50/50 52/49/49 51/52/52 43/51/51
f 40/44/44 48/43/43 47/38/38 39/37/37
f 22/31/31 38/47/47 37/41/41 21/25/25
f 34/34/34 52/49/49 49/45/45 35/30/30
f 29/28/28 45/42/42 46/48/48 30/32/32
f 24/26/26 40/44/44 39/37/37 23/21/21
f 31/24/24 47/38/38 48/43/43 32/27/27
f 28/22/22 42/40/40 41/46/46 27/29/29
f 35/30/30 49/45/45 50/39/39 36/23/23
f 26/33/33 44/50/50 43/51/51 25/35/35
f 33/36/36 51/52/52 52/49/49 34/34/34
f 21/25/25 37/41/41 40/44/44 24/26/26
f 32/27/27 48/43/43 45/42/42 29/28/28
f 25/35/35 43/51/51 38/47/47 22/31/31
f 30/32/32 46/48/48 51/52/52 33/36/36
f 23/21/21 39/37/37 42/40/40 28/22/22
f 36/23/23 50/39/39 47/38/38 31/24/24
f 27/29/29 41/46/46 44/50/50 26/33/33
